<svg width="16" height="16" viewBox="0 0 16 16" fill="none" xmlns="http://www.w3.org/2000/svg">
<path fill-rule="evenodd" clip-rule="evenodd" d="M14 5.5V6.5H13.5V5.5H14Z" fill="#03123D"/>
<path fill-rule="evenodd" clip-rule="evenodd" d="M13 4.5H14V3.5H13V2H12V3.5H10.5V4.5H12V3.5H13V4.5ZM4.5 3.5V4.5H6V3.5H7V4.5H8.5V3.5H7V2H6V3.5H4.5ZM2 3.5V4.5H2.5V3.5H2Z" fill="#03123D"/>
<path fill-rule="evenodd" clip-rule="evenodd" d="M13 4.5H12L12 8H10V6.5H11.5V5.5H10L10 2H9L9 5.5H7.5V6.5H9V8H7L7 4.5H6L6 8H4V6.5H5.5V5.5H4L4 2H3L3 5.5H2V6.5H3L3 8H2V14H14V8H13L13 4.5Z" fill="#03123D"/>
</svg>
