<svg width="48" height="48" viewBox="0 0 48 48" fill="none" xmlns="http://www.w3.org/2000/svg">
<path fill-rule="evenodd" clip-rule="evenodd" d="M38.3018 39.3773C34.4234 42.9847 29.3155 45 24 45C18.4411 45 13.1096 42.796 9.17355 38.8719C12.972 42.6588 18.2126 45 24 45C29.5254 45 34.5524 42.866 38.3018 39.3773Z" fill="#03123D"/>
<path fill-rule="evenodd" clip-rule="evenodd" d="M38.8493 38.8492C38.6697 39.0289 38.4872 39.2049 38.3018 39.3773C38.4975 39.1952 38.6897 39.0095 38.8783 38.8201L38.8493 38.8492Z" fill="#03123D"/>
<path d="M24.0001 21L17.9951 12L29.9951 12L24.0001 21Z" fill="#03123D"/>
<path fill-rule="evenodd" clip-rule="evenodd" d="M24 45C29.3155 45 34.4234 42.9847 38.3018 39.3773C38.4975 39.1952 38.6897 39.0095 38.8783 38.8201C41.2975 36.3915 43.1207 33.3726 44.1248 30C44.6909 28.0984 45 26.0855 45 24C45 12.402 35.598 3 24 3C12.402 3 3 12.402 3 24C3 26.0855 3.30935 28.0984 3.87546 30C4.88349 33.3861 6.71727 36.4157 9.15086 38.8492L9.17355 38.8719C13.1096 42.796 18.4411 45 24 45ZM24 6C33.9411 6 42 14.0589 42 24C42 25.2691 41.8687 26.5076 41.6188 27.7025C38.3355 25.036 32.0382 21 24.0001 21C15.9618 21 9.66449 25.0361 6.38121 27.7026C6.13135 26.5077 6 25.2692 6 24C6 14.0589 14.0589 6 24 6Z" fill="#03123D"/>
<path fill-rule="evenodd" clip-rule="evenodd" d="M24.0001 21L29.9951 12L17.9951 12L24.0001 21Z" fill="#03123D"/>
</svg>
