<svg width="20" height="20" viewBox="0 0 20 20" fill="none" xmlns="http://www.w3.org/2000/svg">
<path d="M12.1416 13.417C11.9868 14.109 11.789 14.7292 11.5586 15.2559C11.2749 15.9043 10.9627 16.3664 10.667 16.6523C10.3762 16.9335 10.1524 17 10 17C9.84764 17 9.62385 16.9335 9.33301 16.6523C9.03728 16.3664 8.72511 15.9043 8.44141 15.2559C8.21101 14.7292 8.01316 14.109 7.8584 13.417H12.1416ZM6.83496 13.417C7.11748 14.7818 7.56594 15.9332 8.11816 16.7412C6.30642 16.2365 4.79108 15.0235 3.89062 13.417H6.83496ZM16.1094 13.417C15.2092 15.023 13.6947 16.2362 11.8838 16.7412C12.4357 15.9332 12.8827 14.7813 13.165 13.417H16.1094ZM16.5713 7.58301C16.8485 8.33636 17 9.15047 17 10C17 10.8495 16.8485 11.6636 16.5713 12.417H13.3369C13.4252 11.7795 13.4797 11.1076 13.4951 10.4121L13.5 10C13.5 9.15756 13.4425 8.34559 13.3369 7.58301H16.5713ZM6.66406 7.58301C6.57578 8.2205 6.52032 8.89239 6.50488 9.58789L6.5 10C6.5 10.8425 6.55747 11.6544 6.66309 12.417H3.42871C3.15153 11.6636 3 10.8495 3 10C3 9.15047 3.15153 8.33636 3.42871 7.58301H6.66406ZM12.3262 7.58301C12.4373 8.33403 12.5 9.14662 12.5 10C12.5 10.8534 12.4373 11.666 12.3262 12.417H7.67383C7.56271 11.666 7.5 10.8534 7.5 10C7.5 9.14662 7.56271 8.33403 7.67383 7.58301H12.3262ZM11.8838 3.25781C13.6948 3.76276 15.2092 4.97696 16.1094 6.58301H13.165C12.8826 5.21834 12.4359 4.06587 11.8838 3.25781ZM8.12012 3.25684C7.56749 4.06495 7.11865 5.21707 6.83594 6.58301H3.89062C4.79146 4.97581 6.30735 3.76113 8.12012 3.25684ZM10 3C10.1524 3 10.3762 3.06653 10.667 3.34766C10.9627 3.63355 11.2749 4.09568 11.5586 4.74414C11.789 5.27079 11.9868 5.891 12.1416 6.58301H7.8584C8.01316 5.891 8.21101 5.27079 8.44141 4.74414C8.72511 4.09568 9.03728 3.63355 9.33301 3.34766C9.62385 3.06653 9.84764 3 10 3Z" fill="#03123D"/>
</svg>
