<svg width="24" height="24" viewBox="0 0 24 24" fill="none" xmlns="http://www.w3.org/2000/svg">
<path d="M19.5 12H4.5C3.675 12 3 12.675 3 13.5V21L6 18H19.5C20.325 18 21 17.325 21 16.5V13.5C21 12.675 20.325 12 19.5 12Z" fill="#03123D"/>
<path d="M4.5 10.5H8.25C10.32 10.5 12 8.82 12 6.75C12 4.68 10.32 3 8.25 3H4.5C3.675 3 3 3.675 3 4.5V9C3 9.825 3.675 10.5 4.5 10.5ZM4.5 4.5H8.25C9.495 4.5 10.5 5.505 10.5 6.75C10.5 7.995 9.495 9 8.25 9H4.5V4.5Z" fill="#03123D"/>
<path d="M15 7.5H17.25C17.67 7.5 18 7.17 18 6.75C18 6.33 17.67 6 17.25 6H15V4.5H20.25C20.67 4.5 21 4.17 21 3.75C21 3.33 20.67 3 20.25 3H13.5V10.5H15V7.5Z" fill="#03123D"/>
</svg>
