<svg width="32" height="32" viewBox="0 0 32 32" fill="none" xmlns="http://www.w3.org/2000/svg">
<path d="M12.04 17.0108C11.48 17.0108 11.04 16.5705 11.04 16.01C11.04 15.4495 11.48 15.0092 12.04 15.0092H15.12V6.24187C15.12 4.7206 13.78 4 12.72 4C7.86 4.06005 4 11.9867 4 18.1518C4 23.9967 8.04 28.04 12.9 27.98C13.82 27.98 15.1 27.4596 15.1 26.2185V16.9908H12.02L12.04 17.0108Z" fill="#03123D"/>
<path d="M19.9628 17.0108C20.5228 17.0108 20.9628 16.5705 20.9628 16.01C20.9628 15.4495 20.5228 15.0092 19.9628 15.0092H16.8828V6.24187C16.8828 4.7206 18.2228 4 19.2828 4C24.1428 4.06005 28.0028 11.9466 28.0028 18.1518C28.0028 23.9566 23.9628 28.04 19.1028 27.98C18.1828 27.98 16.9028 27.4595 16.9028 26.2185V16.9908H19.9828L19.9628 17.0108Z" fill="#03123D"/>
</svg>
