<svg width="24" height="24" viewBox="0 0 24 24" fill="none" xmlns="http://www.w3.org/2000/svg">
<path d="M5.5 20.5H18.5V3.5H5.5V20.5ZM20 20.7998C20 21.4625 19.4625 22 18.7998 22H5.2002L5.07715 21.9941C4.4721 21.9326 4 21.4211 4 20.7998V3.2002C4 2.57892 4.4721 2.06737 5.07715 2.00586L5.2002 2H18.7998C19.4625 2 20 2.53745 20 3.2002V20.7998Z" fill="#03123D"/>
<path d="M7 5H17V8H7.00019L7 5Z" fill="#03123D"/>
<path d="M7 16.5H9.5V19H7V16.5Z" fill="#03123D"/>
<path d="M7 9.00195H9.5V11.502H7V9.00195Z" fill="#03123D"/>
<path d="M7 12.751H9.5V15.251H7V12.751Z" fill="#03123D"/>
<path d="M14.5 16.5H17V19H14.5V16.5Z" fill="#03123D"/>
<path d="M14.5 9.00195H17V11.502H14.5V9.00195Z" fill="#03123D"/>
<path d="M14.5 12.751H17V15.251H14.5V12.751Z" fill="#03123D"/>
<path d="M10.75 16.5H13.25V19H10.75V16.5Z" fill="#03123D"/>
<path d="M10.75 9.00195H13.25V11.502H10.75V9.00195Z" fill="#03123D"/>
<path d="M10.75 12.751H13.25V15.251H10.75V12.751Z" fill="#03123D"/>
</svg>
