<svg width="24" height="24" viewBox="0 0 24 24" fill="none" xmlns="http://www.w3.org/2000/svg">
<path d="M12 11.25C13.2426 11.25 14.25 10.2426 14.25 9C14.25 7.75736 13.2426 6.75 12 6.75C10.7574 6.75 9.75 7.75736 9.75 9C9.75 10.2426 10.7574 11.25 12 11.25Z" fill="#03123D"/>
<path d="M12 3C8.685 3 6 5.685 6 9C6 13.5 12 21 12 21C12 21 18 13.5 18 9C18 5.685 15.315 3 12 3ZM12 12.75C9.93 12.75 8.25 11.07 8.25 9C8.25 6.93 9.93 5.25 12 5.25C14.07 5.25 15.75 6.93 15.75 9C15.75 11.07 14.07 12.75 12 12.75Z" fill="#03123D"/>
</svg>
