<svg width="64" height="64" viewBox="0 0 64 64" fill="none" xmlns="http://www.w3.org/2000/svg">
<path d="M14.667 54.667H49.334V9.33398H14.667V54.667ZM53.334 55.4678L53.3291 55.6318C53.2462 57.2683 51.9344 58.5804 50.2979 58.6631L50.1338 58.667H13.8672L13.7021 58.6631C12.0659 58.5801 10.7538 57.2681 10.6709 55.6318L10.667 55.4678V8.53418C10.667 6.82215 12.0114 5.42368 13.7021 5.33789L13.8672 5.33398H50.1338L50.2979 5.33789C51.9889 5.42335 53.334 6.82193 53.334 8.53418V55.4678Z" fill="#03123D"/>
<path d="M18.667 13.334H45.3337V21.334H18.6675L18.667 13.334Z" fill="#03123D"/>
<path d="M18.667 44.0007H25.3337V50.6673H18.667V44.0007Z" fill="#03123D"/>
<path d="M18.667 24.0059H25.3337V30.6725H18.667V24.0059Z" fill="#03123D"/>
<path d="M18.667 34.0033H25.3337V40.6699H18.667V34.0033Z" fill="#03123D"/>
<path d="M38.667 44.0007H45.3337V50.6673H38.667V44.0007Z" fill="#03123D"/>
<path d="M38.667 24.0059H45.3337V30.6725H38.667V24.0059Z" fill="#03123D"/>
<path d="M38.667 34.0033H45.3337V40.6699H38.667V34.0033Z" fill="#03123D"/>
<path d="M28.667 44.0007H35.3337V50.6673H28.667V44.0007Z" fill="#03123D"/>
<path d="M28.667 24.0059H35.3337V30.6725H28.667V24.0059Z" fill="#03123D"/>
<path d="M28.667 34.0033H35.3337V40.6699H28.667V34.0033Z" fill="#03123D"/>
</svg>
