<svg width="48" height="48" viewBox="0 0 48 48" fill="none" xmlns="http://www.w3.org/2000/svg">
<path fill-rule="evenodd" clip-rule="evenodd" d="M9 6L17.3907 19.9845C14.1433 22.1327 12 25.8176 12 30C12 36.624 17.376 42 24 42C30.624 42 36 36.624 36 30C36 25.8176 33.8567 22.1327 30.6093 19.9845L39 6H27L24 11L21 6H9ZM15.513 27C16.7472 23.5127 20.0717 21.0097 23.9773 21L21.9823 27H15.513ZM23.9773 21H24C27.9155 21 31.2504 23.5059 32.487 27H25.9723L23.9773 21ZM25.7493 13.9155L28.2 18H28.3014L33.7014 9H28.6986L25.7493 13.9155ZM15.4034 27.3297L20.4673 31.545L18.5832 37.1859C16.4073 35.5425 15 32.9343 15 30C15 29.0704 15.1412 28.1736 15.4034 27.3297ZM27.5023 31.59L32.5969 27.3307C32.8589 28.1742 33 29.0708 33 30C33 32.9532 31.5744 35.5762 29.3744 37.2177L27.5023 31.59ZM23.9773 34.5L28.4093 37.8462C27.1059 38.5808 25.6015 39 24 39C22.381 39 20.8613 38.5716 19.5481 37.822L23.9773 34.5Z" fill="#03123D"/>
</svg>
