<svg width="64" height="64" viewBox="0 0 64 64" fill="none" xmlns="http://www.w3.org/2000/svg">
<path fill-rule="evenodd" clip-rule="evenodd" d="M12 8L23.1876 26.6459C18.8577 29.5102 16 34.4234 16 40C16 48.832 23.168 56 32 56C40.832 56 48 48.832 48 40C48 34.4234 45.1423 29.5102 40.8124 26.6459L52 8H36L32 14.6667L28 8H12ZM20 40C20 38.7606 20.1883 37.5647 20.5379 36.4396L27.2898 42.06L24.7777 49.5812C21.8764 47.39 20 43.9124 20 40ZM20.6839 36C22.3296 31.3502 26.7622 28.0129 31.9698 28L29.3098 36H20.6839ZM31.9698 28H32C37.2206 28 41.6672 31.3412 43.3161 36H34.6298L31.9698 28ZM44 40C44 38.761 43.8118 37.5656 43.4625 36.4409L36.6698 42.12L39.1659 49.6236C42.0992 47.4349 44 43.9377 44 40ZM31.9698 46L37.8791 50.4615C36.1412 51.441 34.1353 52 32 52C29.8413 52 27.815 51.4287 26.0641 50.4293L31.9698 46ZM37.7352 24H37.6L34.3324 18.554L38.2648 12H44.9352L37.7352 24Z" fill="#03123D"/>
</svg>
