<svg width="16" height="16" viewBox="0 0 16 16" fill="none" xmlns="http://www.w3.org/2000/svg">
<path d="M9.95742 9.82496H10.6565C10.6425 10.0541 10.5793 10.2575 10.4671 10.4352C10.3564 10.6129 10.2014 10.7516 10.0018 10.8513C9.80389 10.9511 9.56541 11.001 9.28641 11.001C9.0682 11.001 8.87258 10.9636 8.69957 10.8888C8.52656 10.8124 8.37848 10.7033 8.25535 10.5614C8.13377 10.4196 8.04103 10.2481 7.97713 10.0471C7.91322 9.846 7.88127 9.62077 7.88127 9.37138V9.13525C7.88127 8.88586 7.914 8.66063 7.97946 8.45956C8.04649 8.25693 8.14157 8.0847 8.2647 7.94286C8.3894 7.80102 8.53825 7.69191 8.71126 7.61554C8.88427 7.53916 9.07755 7.50098 9.29109 7.50098C9.57477 7.50098 9.81402 7.55241 10.0089 7.65529C10.2052 7.75816 10.3572 7.9 10.4648 8.0808C10.5739 8.26161 10.6393 8.46735 10.6612 8.69804H9.95976C9.95197 8.56087 9.92469 8.44475 9.87793 8.34967C9.83117 8.25304 9.76025 8.18056 9.66517 8.13224C9.57165 8.08236 9.44695 8.05742 9.29109 8.05742C9.17419 8.05742 9.07209 8.07924 8.98481 8.12289C8.89752 8.16653 8.82427 8.23277 8.76504 8.32162C8.70581 8.41046 8.66138 8.52269 8.63177 8.65829C8.60371 8.79234 8.58968 8.94976 8.58968 9.13057V9.37138C8.58968 9.54751 8.60293 9.7026 8.62943 9.83665C8.65593 9.96914 8.69645 10.0814 8.75101 10.1733C8.80712 10.2637 8.87882 10.3323 8.9661 10.3791C9.05495 10.4243 9.16172 10.4469 9.28641 10.4469C9.43293 10.4469 9.55372 10.4235 9.6488 10.3767C9.74388 10.33 9.81636 10.2606 9.86624 10.1686C9.91767 10.0767 9.94807 9.96212 9.95742 9.82496Z" fill="#03123D"/>
<path d="M4.68403 7.53567V10.9558H4V7.53567H4.68403Z" fill="#03123D"/>
<path fill-rule="evenodd" clip-rule="evenodd" d="M3 6.11319V6H3.52196H10H13V12H3V6.11319ZM7.36908 3.36908L9 5H13C13.5523 5 14 5.44772 14 6V12C14 12.5177 13.6067 12.9438 13.1025 12.9951L13 13H3L2.89746 12.9951C2.39333 12.9438 2 12.5177 2 12V7V6V4.26013C2 3.56418 2.56418 3 3.26013 3H6.47804L6.59646 3.00557C6.86345 3.03077 7.11598 3.14061 7.31672 3.31963C7.31437 3.3175 7.31909 3.32174 7.31672 3.31963C7.33213 3.33358 7.35431 3.35431 7.36908 3.36908Z" fill="#03123D"/>
<path fill-rule="evenodd" clip-rule="evenodd" d="M6.47804 3L6.59646 3.00557C6.55726 3.00187 6.51774 3 6.47804 3ZM7.31672 3.31963C7.11736 3.14191 6.86121 3.03184 6.59646 3.00557C6.86345 3.03077 7.11598 3.14061 7.31672 3.31963Z" fill="#03123D"/>
<path d="M6.0544 8.10113V9.00594H7.41713V9.55304H6.0544V10.9558H5.37037V7.53567H6.0544H7.58079V8.10113H6.0544Z" fill="#03123D"/>
</svg>
