<svg width="16" height="16" viewBox="0 0 16 16" fill="none" xmlns="http://www.w3.org/2000/svg">
<path fill-rule="evenodd" clip-rule="evenodd" d="M14.2966 8.90269L14.2744 8.91992C14.2833 8.91317 14.2907 8.90729 14.2966 8.90269ZM1.72559 8.91992L1.70341 8.9027C1.70927 8.9073 1.71676 8.91317 1.72559 8.91992ZM2.33301 8.125L2.34289 8.13259C2.33929 8.12982 2.336 8.12729 2.33301 8.125Z" fill="#03123D"/>
<path d="M8 10C9.38071 10 10.5 8.88071 10.5 7.5C10.5 6.11929 9.38071 5 8 5C6.61929 5 5.5 6.11929 5.5 7.5C5.5 8.88071 6.61929 10 8 10ZM8 10C9.65568 10 11.0821 9.52668 12.0996 9.04785C12.6072 8.80897 13.009 8.56982 13.2822 8.39258C13.4187 8.30403 13.5232 8.2315 13.5918 8.18164C13.6196 8.16142 13.6413 8.14473 13.6571 8.13257L13.667 8.125L13.6875 8.10938L14.3115 8.89062L14.2966 8.90269L14.2744 8.91992C14.2522 8.93688 14.2204 8.9606 14.1797 8.99023C14.0979 9.04974 13.9796 9.13351 13.8271 9.23242C13.5223 9.43016 13.0802 9.69106 12.5254 9.95215C11.4179 10.4733 9.84426 11 8 11C6.15574 11 4.58207 10.4733 3.47461 9.95215C2.9198 9.69106 2.4777 9.43016 2.17285 9.23242C2.02036 9.13351 1.90213 9.04974 1.82031 8.99023C1.77956 8.9606 1.74777 8.93688 1.72559 8.91992L1.70341 8.9027L1.6875 8.89062L2.31543 8.1123C2.31866 8.11456 2.32847 8.12153 2.33301 8.125L2.34289 8.13259C2.35871 8.14474 2.38042 8.16143 2.4082 8.18164C2.47676 8.2315 2.58126 8.30403 2.71777 8.39258C2.99103 8.56982 3.39278 8.80897 3.90039 9.04785C4.91793 9.52668 6.34432 10 8 10Z" fill="#03123D"/>
</svg>
