<svg width="64" height="64" viewBox="0 0 64 64" fill="none" xmlns="http://www.w3.org/2000/svg">
<path d="M23.8 21.751C26.4 21.751 28.48 22.1906 30.08 23.0297C31.44 23.789 32.4 24.748 33.12 26.0667C33.96 27.6251 34.36 29.6231 34.36 32.0207C34.36 33.5392 34.2 34.8579 33.84 36.0567C33.56 37.0957 33.12 37.9748 32.6 38.734C32.12 39.4133 31.56 40.0127 30.84 40.4923C30.08 41.0517 29.16 41.4513 28.08 41.771C26.84 42.1306 25.4 42.2905 23.8 42.2905H17.68V21.751H23.8ZM8 12V52.0008L24 52C26.52 52 28.68 51.6811 30.76 51.0817C32.88 50.4823 34.76 49.6032 36.36 48.4443C38 47.2855 39.4 45.8869 40.52 44.2485C41.64 42.6101 42.52 40.772 43.12 38.6941C43.72 36.6561 44 34.4183 44 31.9808C44 27.9448 43.2 24.4283 41.6 21.4313C40 18.4343 37.68 16.1166 34.68 14.4783C31.68 12.8399 28.24 12.0017 24 12.0017L8 12Z" fill="#03123D"/>
<path d="M56 12H48V20H56V12Z" fill="#03123D"/>
<path d="M56 44H48V52H56V44Z" fill="#03123D"/>
<path d="M56 32V28H48V32V36H56V32Z" fill="#03123D"/>
</svg>
