<svg width="48" height="48" viewBox="0 0 48 48" fill="none" xmlns="http://www.w3.org/2000/svg">
<path d="M39 6C40.6569 6 42 7.34315 42 9V39C42 40.6051 40.7394 41.9158 39.1543 41.9961L39 42H9L8.8457 41.9961C7.31166 41.9184 6.08163 40.6883 6.00391 39.1543L6 39V9C6 7.34315 7.34315 6 9 6H39ZM9 39H22.5V23.1211L17.5605 28.0605C16.9748 28.6463 16.0252 28.6463 15.4395 28.0605C14.8537 27.4748 14.8537 26.5252 15.4395 25.9395L24 17.3789L32.5605 25.9395L32.6641 26.0537C33.1442 26.6429 33.1096 27.5115 32.5605 28.0605C32.0115 28.6096 31.1429 28.6442 30.5537 28.1641L30.4395 28.0605L25.5 23.1211V39H39V15H9V39Z" fill="#03123D"/>
</svg>
