<svg width="32" height="32" viewBox="0 0 32 32" fill="none" xmlns="http://www.w3.org/2000/svg">
<path fill-rule="evenodd" clip-rule="evenodd" d="M16 9C14.3523 9 13 10.3523 13 12C13 12.5523 12.5523 13 12 13C11.4477 13 11 12.5523 11 12C11 9.24772 13.2477 7 16 7C16.5523 7 17 7.44772 17 8C17 8.55228 16.5523 9 16 9Z" fill="#03123D"/>
<path fill-rule="evenodd" clip-rule="evenodd" d="M20 23C20 23 20.14 18.98 21.16 18.12C22.9 16.66 24 14.46 24 12C24 7.58 20.42 4 16 4C11.58 4 8 7.58 8 12C8 14.42 9.08 16.58 10.78 18.06C12.18 19.28 12 23 12 23L13 24L12 25L13 26L12 27L13 28H19L20 27L19 26L20 25L19 24L20 23ZM22 12C22 8.7 19.3 6 16 6C12.7 6 10 8.7 10 12C10 13.74 10.76 15.4 12.08 16.54C13.32 17.62 13.78 19.5 13.94 21.02C15.12 21.04 16.6 21.04 17.82 21.04H18.14C18.34 19.26 18.84 17.44 19.86 16.58C21.22 15.44 22 13.78 22 12ZM16 9C14.3523 9 13 10.3523 13 12C13 12.5523 12.5523 13 12 13C11.4477 13 11 12.5523 11 12C11 9.24772 13.2477 7 16 7C16.5523 7 17 7.44772 17 8C17 8.55228 16.5523 9 16 9Z" fill="#03123D"/>
</svg>
