<svg width="24" height="24" viewBox="0 0 24 24" fill="none" xmlns="http://www.w3.org/2000/svg">
<path fill-rule="evenodd" clip-rule="evenodd" d="M15.0005 8.24969L12.7505 13.5191L15.6088 18.8636L14.2505 19.4998L9.75048 13.5006L13.6566 7.58333L15.0005 8.24969Z" fill="#03123D"/>
<path d="M7.49853 5.49987L11.9986 8.99986L11.9985 6.25003C16.0229 6.2236 19.2287 9.22249 19.2547 13.1931C19.281 17.1863 15.9871 20.498 11.9857 20.5243C8.0037 20.5504 4.80576 17.3008 4.77941 13.2881C4.76841 11.6131 5.59428 9.76892 6.9142 8.29752C7.19079 7.98919 7.16506 7.51502 6.85673 7.23842C6.5484 6.96183 6.07422 6.98756 5.79763 7.29589C4.29938 8.96607 3.26537 11.1559 3.27944 13.298C3.31103 18.1083 7.15473 22.056 11.9956 22.0242C16.8172 21.9926 20.7864 18.0129 20.7547 13.1832C20.723 8.34653 16.8175 4.74183 12.0401 4.74984L11.9984 4.74505L11.9983 2L7.49853 5.49987Z" fill="#03123D"/>
</svg>
