<svg width="64" height="64" viewBox="0 0 64 64" fill="none" xmlns="http://www.w3.org/2000/svg">
<path fill-rule="evenodd" clip-rule="evenodd" d="M39.667 52C36.5778 52 33.8527 51.4453 31.4913 50.4648C29.0829 51.4531 26.4397 52 23.667 52C-2.55566 52 -2.55566 12 23.667 12C26.4397 12 29.0829 12.5469 31.4913 13.5352C33.8527 12.5566 36.5778 12 39.667 12C50.8965 12 60 20.9551 60 32C60 43.0449 50.8965 52 39.667 52ZM23.667 16C24.7739 16 25.8536 16.1074 26.8963 16.3125C17.702 24.002 17.7018 39.998 26.8963 47.6875C25.8536 47.8926 24.7739 48 23.667 48C18.2205 48 14.4178 45.9648 11.9287 43.1172C9.37097 40.1914 8 36.166 8 32C8 27.834 9.37097 23.8086 11.9287 20.8828C14.4178 18.0352 18.2205 16 23.667 16ZM36.2532 47.707L36.4089 47.7344C36.5779 47.7637 36.749 47.791 36.9221 47.8145L36.9763 47.8203L37.1155 47.8398L37.2891 47.8613L37.4291 47.877L37.529 47.8887L37.5814 47.8945L37.7019 47.9062C38.3317 47.9668 38.9865 48 39.667 48C48.7498 48 56 40.7754 56 32C56 23.2246 48.7498 16 39.667 16C38.4479 16 37.3112 16.1035 36.2532 16.293C40.9711 19.9551 44 25.6289 44 32C44 38.3711 40.9711 44.0449 36.2532 47.707Z" fill="#03123D"/>
</svg>
