<svg width="32" height="32" viewBox="0 0 32 32" fill="none" xmlns="http://www.w3.org/2000/svg">
<path fill-rule="evenodd" clip-rule="evenodd" d="M28 16C28 22.6274 22.6274 28 16 28C9.37258 28 4 22.6274 4 16C4 9.37258 9.37258 4 16 4C22.6274 4 28 9.37258 28 16ZM25.314 19.6473C25.2251 19.5202 25.1352 19.3448 25.0518 19.1064C24.7791 18.3273 24.6867 17.2223 24.623 15.9502C24.6146 15.781 24.6067 15.6082 24.5986 15.4333C24.5502 14.3776 24.4981 13.2446 24.3047 12.3516C24.1911 11.8274 24.006 11.2646 23.6572 10.8164C23.2704 10.3193 22.7072 10.0006 22 10C21.3004 9.99954 20.7387 10.3085 20.335 10.7715C19.9615 11.1998 19.7305 11.7469 19.5723 12.2744C19.2632 13.3046 19.1305 14.6327 19.0107 15.8314L19.0039 15.8994C18.8755 17.1832 18.7573 18.3251 18.5098 19.1504C18.3869 19.5599 18.2585 19.7946 18.1553 19.9131C18.0822 19.9969 18.0494 20 17.999 20C17.875 20 17.8068 19.9675 17.7256 19.8818C17.6144 19.7644 17.4795 19.5363 17.3535 19.1367C17.0979 18.3262 16.9881 17.196 16.8799 15.916L16.8615 15.6976C16.7648 14.5455 16.6589 13.283 16.3887 12.2979C16.2442 11.7711 16.0272 11.2195 15.6611 10.7852C15.2624 10.3121 14.701 10 13.999 10C13.2995 10 12.7385 10.3095 12.335 10.7725C11.9616 11.2009 11.7305 11.7478 11.5723 12.2754C11.2632 13.3057 11.1305 14.6337 11.0107 15.8323L11.0039 15.9004C10.8755 17.184 10.7573 18.3253 10.5098 19.1504C10.3869 19.56 10.2585 19.7946 10.1553 19.9131C10.0823 19.9969 10.0494 20 9.99902 20L9.98729 20.0001C9.95629 20.0006 9.95365 20.0006 9.91895 19.9561C9.84212 19.8574 9.73798 19.6389 9.64844 19.2256C9.49384 18.512 9.4501 17.5798 9.39968 16.5054C9.39118 16.3243 9.38249 16.1391 9.37305 15.9502C9.31168 14.7229 9.21733 13.328 8.83398 12.2324C8.63797 11.6724 8.34021 11.1099 7.8623 10.6836C7.79158 10.6205 7.71825 10.5616 7.64239 10.507C9.43045 7.79198 12.506 6 16 6C21.5228 6 26 10.4772 26 16C26 17.287 25.7569 18.5173 25.314 19.6473ZM16 26C19.4939 26 22.5693 24.2082 24.3574 21.4934C24.2812 21.4386 24.2077 21.3796 24.1367 21.3164C23.6586 20.8902 23.3611 20.3276 23.165 19.7676C22.7815 18.6722 22.6864 17.277 22.625 16.0498C22.6156 15.8614 22.6069 15.6767 22.5984 15.496C22.548 14.4215 22.5042 13.4892 22.3496 12.7754C22.2601 12.3621 22.156 12.1428 22.0791 12.0439C22.0444 11.9994 22.041 11.9994 22.01 11.9999L21.998 12C21.9479 12 21.9153 12.0029 21.8428 12.0859C21.7397 12.2042 21.6112 12.439 21.4883 12.8486C21.2408 13.6736 21.1225 14.8149 20.9941 16.0986L20.9872 16.1684C20.8674 17.3668 20.7347 18.6946 20.4258 19.7246C20.2675 20.2522 20.0364 20.7991 19.6631 21.2275C19.2596 21.6905 18.6986 22 17.999 22C17.2959 22 16.7119 21.72 16.2744 21.2588C15.867 20.8292 15.6159 20.2759 15.4463 19.7383C15.1106 18.6739 14.9899 17.3038 14.8867 16.084L14.8758 15.9547C14.7713 14.717 14.6792 13.6266 14.46 12.8271C14.3473 12.4165 14.2266 12.1867 14.1318 12.0742C14.0696 12.0004 14.047 12 13.999 12C13.9486 12 13.9158 12.0031 13.8428 12.0869C13.7396 12.2054 13.6112 12.44 13.4883 12.8496C13.2408 13.6747 13.1225 14.816 12.9941 16.0996L12.9873 16.1676C12.8676 17.3663 12.7348 18.6943 12.4258 19.7246C12.2675 20.2522 12.0364 20.7991 11.6631 21.2275C11.2596 21.6905 10.6985 22 9.99902 22C9.29159 22 8.72792 21.6818 8.34082 21.1846C7.99191 20.7364 7.80694 20.1736 7.69336 19.6494C7.49991 18.7566 7.4479 17.6232 7.39945 16.5675C7.39415 16.452 7.3889 16.3375 7.3835 16.2243L7.375 16.0498C7.31137 14.7773 7.21809 13.6719 6.94531 12.8926C6.8625 12.6561 6.77343 12.4816 6.68519 12.3547C6.24285 13.4842 6 14.7137 6 16C6 21.5228 10.4772 26 16 26Z" fill="#03123D"/>
</svg>
