<svg width="48" height="48" viewBox="0 0 48 48" fill="none" xmlns="http://www.w3.org/2000/svg">
<path d="M39.7811 30.1836C40.5082 29.787 41.4194 30.0544 41.8163 30.7812C42.2125 31.5083 41.9453 32.4196 41.2186 32.8164L23.9999 42.209L6.78111 32.8164L6.65025 32.7363C6.02339 32.3067 5.81182 31.4629 6.18345 30.7812C6.5555 30.0998 7.37931 29.8215 8.07993 30.1162L8.21861 30.1836L23.9999 38.791L39.7811 30.1836Z" fill="#03123D"/>
<path d="M39.7811 22.6836C40.5082 22.287 41.4194 22.5544 41.8163 23.2812C42.2125 24.0083 41.9453 24.9196 41.2186 25.3164L23.9999 34.709L6.78111 25.3164L6.65025 25.2363C6.02339 24.8067 5.81182 23.9629 6.18345 23.2812C6.5555 22.5998 7.37931 22.3215 8.07993 22.6162L8.21861 22.6836L23.9999 31.291L39.7811 22.6836Z" fill="#03123D"/>
<path d="M41.0467 15.1797C42.0985 15.746 42.0985 17.254 41.0467 17.8203L23.9999 27L6.95201 17.8203C5.90086 17.2538 5.90086 15.7462 6.95201 15.1797L23.9999 6L41.0467 15.1797Z" fill="#03123D"/>
</svg>
