<svg width="48" height="48" viewBox="0 0 48 48" fill="none" xmlns="http://www.w3.org/2000/svg">
<path d="M42 6H30L34.9395 10.9395L28.9395 16.9395L28.8359 17.0537C28.3558 17.6429 28.3904 18.5115 28.9395 19.0605C29.4885 19.6096 30.3571 19.6442 30.9463 19.1641L31.0605 19.0605L37.0605 13.0605L42 18V6Z" fill="#03123D"/>
<path d="M34.9395 37.0605L28.9395 31.0605L28.8359 30.9463C28.3558 30.3571 28.3904 29.4885 28.9395 28.9395C29.4885 28.3904 30.3571 28.3558 30.9463 28.8359L31.0605 28.9395L37.0605 34.9395L42 30V42H30L34.9395 37.0605Z" fill="#03123D"/>
<path d="M10.9395 34.9395L16.9395 28.9395L17.0537 28.8359C17.6429 28.3558 18.5115 28.3904 19.0605 28.9395C19.6096 29.4885 19.6442 30.3571 19.1641 30.9463L19.0605 31.0605L13.0605 37.0605L18 42H6V30L10.9395 34.9395Z" fill="#03123D"/>
<path d="M6 6H18L13.0605 10.9395L19.0605 16.9395L19.1641 17.0537C19.6442 17.6429 19.6096 18.5115 19.0605 19.0605C18.5115 19.6096 17.6429 19.6442 17.0537 19.1641L16.9395 19.0605L10.9395 13.0605L6 18V6Z" fill="#03123D"/>
</svg>
