<svg width="64" height="64" viewBox="0 0 64 64" fill="none" xmlns="http://www.w3.org/2000/svg">
<path d="M49.501 12.8769C50.7015 11.9164 52.3466 11.7286 53.7324 12.3945C55.1183 13.0606 56 14.4623 56 15.9999V47.9999C56 49.5851 55.0638 51.0208 53.6133 51.6601C52.1626 52.2994 50.4708 52.0218 49.3008 50.9521C44.7991 46.8363 39.2943 44.0564 34.7939 42.2968C32.9388 41.5715 31.2879 41.0345 30 40.6542V45.9999C30 49.3136 27.3137 51.9999 24 51.9999C20.6863 51.9999 18 49.3136 18 45.9999V39.9999H12.2275C9.89279 39.9999 8.0001 38.1071 8 35.7724V28.2275C8.00004 25.8927 9.89274 24 12.2275 23.9999H27.4092C27.4175 23.9973 27.426 23.9948 27.4346 23.9921C27.8055 23.8769 28.3573 23.7012 29.0547 23.4638C30.4518 22.9882 32.4251 22.2705 34.6982 21.3134C39.288 19.3809 44.9098 16.5498 49.501 12.8769ZM22 45.9999C22 47.1045 22.8955 47.9999 24 47.9999C25.1045 47.9999 26 47.1045 26 45.9999V39.9999H22V45.9999ZM52 15.9999C42 23.9999 28 27.9999 28 27.9999V35.9999C28.0211 36.0043 42.0075 38.864 52 47.9999V15.9999ZM47.0547 22.1093C48.0989 21.5872 49.3685 22.0104 49.8906 23.0546C50.4127 24.0988 49.9895 25.3685 48.9453 25.8906L40.9453 29.8906C39.9011 30.4126 38.6315 29.9894 38.1094 28.9453C37.5873 27.9011 38.0105 26.6314 39.0547 26.1093L47.0547 22.1093Z" fill="#03123D"/>
</svg>
