<svg width="16" height="16" viewBox="0 0 16 16" fill="none" xmlns="http://www.w3.org/2000/svg">
<g clip-path="url(#clip0_7656_1870)">
<path d="M6.9043 5.8618C6.62772 6.30875 6.24799 6.7828 5.80904 7.24463C5.73972 7.09841 5.68616 6.95076 5.64437 6.80449C5.47174 6.20022 5.49422 5.62953 5.51251 5.16529C5.51475 5.10857 5.51692 5.05341 5.51867 5H7.31023C7.23873 5.24786 7.10466 5.53801 6.9043 5.8618Z" fill="#03123D"/>
<path d="M10.4995 7.48514L11.0405 9H9.95851L10.4995 7.48514Z" fill="#03123D"/>
<path fill-rule="evenodd" clip-rule="evenodd" d="M15 7.99805C15 11.8662 11.8642 15.002 7.99609 15.002C4.12794 15.002 0.992188 11.8662 0.992188 7.99805C0.992188 4.1299 4.12794 0.994141 7.99609 0.994141C11.8642 0.994141 15 4.1299 15 7.99805ZM6.5 3C6.77614 3 7 3.22386 7 3.5V4H9C9.27614 4 9.5 4.22386 9.5 4.5C9.5 4.77614 9.27614 5 9 5H8.3362C8.25314 5.46208 8.03366 5.93713 7.75466 6.388C7.41658 6.93435 6.963 7.48992 6.46118 8.00941L6.41631 8.05564C6.70475 8.31414 7.08593 8.54542 7.59118 8.72731C7.851 8.82085 7.9858 9.10729 7.89227 9.36711C7.79873 9.62693 7.51228 9.76173 7.25246 9.6682C6.58944 9.42951 6.07989 9.11117 5.69066 8.74709C4.86891 9.47611 3.97427 10.1001 3.20895 10.4522C2.95808 10.5676 2.66116 10.4578 2.54575 10.2069C2.43035 9.95602 2.54017 9.6591 2.79105 9.5437C3.45825 9.23678 4.28738 8.66012 5.06251 7.96749C4.89116 7.67891 4.76845 7.37886 4.68284 7.07918C4.45984 6.2986 4.49444 5.50622 4.51438 5.04958L4.51653 5H4C3.72386 5 3.5 4.77614 3.5 4.5C3.5 4.22386 3.72386 4 4 4H6V3.5C6 3.22386 6.22386 3 6.5 3ZM10.4995 5.49854C10.7108 5.49854 10.8993 5.63137 10.9704 5.83037L12.9699 11.429C13.0628 11.6891 12.9273 11.9752 12.6672 12.068C12.4072 12.1609 12.121 12.0254 12.0282 11.7653L11.3977 10H9.60136L8.97089 11.7653C8.87801 12.0254 8.5919 12.1609 8.33185 12.068C8.07179 11.9752 7.93627 11.6891 8.02914 11.429L10.0287 5.83037C10.0997 5.63137 10.2882 5.49854 10.4995 5.49854Z" fill="#03123D"/>
</g>
<defs>
<clipPath id="clip0_7656_1870">
<rect width="15.9961" height="15.9961" fill="white"/>
</clipPath>
</defs>
</svg>
