<svg width="24" height="24" viewBox="0 0 24 24" fill="none" xmlns="http://www.w3.org/2000/svg">
<path d="M8.925 8.15663C9.9 8.15663 10.68 8.32146 11.28 8.63615C11.79 8.92086 12.15 9.2805 12.42 9.77501C12.735 10.3594 12.885 11.1087 12.885 12.0078C12.885 12.5772 12.825 13.0717 12.69 13.5213C12.585 13.9109 12.42 14.2405 12.225 14.5253C12.045 14.78 11.835 15.0048 11.565 15.1846C11.28 15.3944 10.935 15.5442 10.53 15.6641C10.065 15.799 9.525 15.8589 8.925 15.8589H6.63V8.15663H8.925ZM3 4.5V19.5003L9 19.5C9.945 19.5 10.755 19.3804 11.535 19.1556C12.33 18.9309 13.035 18.6012 13.635 18.1666C14.25 17.7321 14.775 17.2076 15.195 16.5932C15.615 15.9788 15.945 15.2895 16.17 14.5103C16.395 13.746 16.5 12.9069 16.5 11.9928C16.5 10.4793 16.2 9.16062 15.6 8.03675C15 6.91287 14.13 6.04374 13.005 5.42936C11.88 4.81497 10.59 4.50062 9 4.50062L3 4.5Z" fill="#03123D"/>
<path d="M21 4.5H18V7.5H21V4.5Z" fill="#03123D"/>
<path d="M21 10.5H18V13.5H21V10.5Z" fill="#03123D"/>
<path d="M21 18V16.5H18V18V19.5H21V18Z" fill="#03123D"/>
</svg>
