<svg width="64" height="64" viewBox="0 0 64 64" fill="none" xmlns="http://www.w3.org/2000/svg">
<path fill-rule="evenodd" clip-rule="evenodd" d="M31.5181 14.4129C29.224 13.4712 26.7064 12.9512 24.0654 12.9512C-0.713652 12.9514 -0.907003 50.4535 23.4853 51.0391L24.0654 51.0469C26.7069 51.0469 29.2248 50.5266 31.5191 49.5846C33.6189 50.4555 36.0208 50.9742 38.7249 51.0391L39.305 51.0469C49.8327 51.0469 58.3984 42.7828 58.6634 32.4902L58.6702 31.999C58.6702 21.4793 49.9997 12.9512 39.305 12.9512C36.3627 12.9512 33.7671 13.48 31.5181 14.4129ZM24.0654 16.9512C25.0546 16.9512 26.0207 17.0422 26.9557 17.2161C18.4472 24.5463 18.4475 39.4521 26.9565 46.7818C26.0213 46.9558 25.0549 47.0469 24.0654 47.0469C18.9312 47.0468 15.3623 45.1308 13.0293 42.4619C10.6276 39.7143 9.33501 35.9265 9.33496 31.999C9.33496 28.0715 10.6276 24.2838 13.0293 21.5361C15.3623 18.8671 18.9311 16.9512 24.0654 16.9512ZM36.2546 17.1972C40.6325 20.6895 43.4307 26.0229 43.4307 31.999L43.4238 32.4902C43.2751 38.2668 40.5118 43.4044 36.2544 46.8007C37.2033 46.9612 38.2192 47.0469 39.305 47.0469C47.853 47.0469 54.6701 40.2475 54.6702 31.999C54.6702 23.7504 47.8531 16.9512 39.305 16.9512C38.2192 16.9512 37.2035 17.0369 36.2546 17.1972Z" fill="#03123D"/>
</svg>
