<svg width="16" height="16" viewBox="0 0 16 16" fill="none" xmlns="http://www.w3.org/2000/svg">
<path d="M11.7677 9.7207C11.9178 9.90051 12.0001 10.1281 12.0001 10.3623V12.999C12.0001 13.5513 11.5524 13.999 11.0001 13.999H5.00009C4.44787 13.9989 4.00009 13.5513 4.00009 12.999V10.3623C4.00009 10.1281 4.08243 9.90051 4.23251 9.7207L8.00011 5.20703L11.7677 9.7207ZM13.882 9.17676L13.9396 9.26074C14.0509 9.4647 14.0077 9.72584 13.8234 9.88184C13.639 10.0377 13.3743 10.0371 13.1915 9.89355L13.1183 9.82324L8.00011 3.77441L2.88192 9.82324C2.70352 10.0339 2.38758 10.0602 2.17683 9.88184C1.96625 9.70346 1.94001 9.38749 2.11824 9.17676L8.00011 2.22559L13.882 9.17676Z" fill="#03123D"/>
</svg>
