<svg width="24" height="24" viewBox="0 0 24 24" fill="none" xmlns="http://www.w3.org/2000/svg">
<path d="M13.3594 16.1852C13.1336 16.5009 12.7079 16.5885 12.3779 16.4L12.3125 16.359L6.20899 11.9967L12.3135 7.63829L12.3779 7.59727C12.708 7.40884 13.1337 7.49719 13.3594 7.81309C13.6001 8.1502 13.5217 8.61928 13.1846 8.85997L9.84056 11.2489L16.4993 11.2489L16.5754 11.2528C16.9536 11.2912 17.2483 11.6106 17.2483 11.9989C17.2483 12.3872 16.9536 12.7066 16.5754 12.745L16.4993 12.7489L9.8411 12.7489L13.1855 15.1383L13.2451 15.1861C13.5306 15.4373 13.5852 15.8692 13.3594 16.1852Z" fill="#03123D"/>
</svg>
