<svg width="24" height="24" viewBox="0 0 24 24" fill="none" xmlns="http://www.w3.org/2000/svg">
<path d="M18.2266 15.4586C17.7318 15.4586 17.267 15.5936 16.8772 15.8335L14.4182 13.3745C14.5232 13.1796 14.6131 12.9847 14.6731 12.7598H16.2924C16.3974 13.0297 16.5473 13.2696 16.7572 13.4795C17.5669 14.2891 18.8863 14.2891 19.6959 13.4795C20.5056 12.6698 20.5056 11.3504 19.6959 10.5408C18.8863 9.73111 17.5669 9.73111 16.7572 10.5408C16.5473 10.7507 16.3974 10.9906 16.2924 11.2604H14.6731C14.6131 11.0355 14.5232 10.8256 14.4032 10.6157L16.8472 8.17178C17.252 8.41168 17.7168 8.54662 18.2266 8.54662C19.7559 8.54662 21.0004 7.30216 21.0004 5.77282C21.0004 4.24348 19.7559 2.99902 18.2266 2.99902C16.6972 2.99902 15.4528 4.24348 15.4528 5.77282C15.4528 6.29759 15.6027 6.77739 15.8576 7.1972L13.4286 9.62615C13.2037 9.49121 12.9638 9.40125 12.709 9.32628V7.70698C12.9938 7.60203 13.2487 7.45209 13.4736 7.22719C14.2833 6.41754 14.2833 5.09811 13.4736 4.28846C12.664 3.47882 11.3445 3.47882 10.5349 4.28846C9.72525 5.09811 9.72525 6.41754 10.5349 7.22719C10.7598 7.45209 11.0297 7.60203 11.3146 7.70698V9.32628C11.0747 9.38626 10.8498 9.47622 10.6399 9.59617L8.16592 7.12224C8.39083 6.71741 8.54076 6.26761 8.54076 5.77282C8.54076 4.24348 7.2963 2.99902 5.76696 2.99902C4.23763 2.99902 3.00816 4.24348 3.00816 5.77282C3.00816 7.30216 4.25262 8.54662 5.78196 8.54662C6.27674 8.54662 6.72655 8.41168 7.11638 8.18678L9.6053 10.6757C9.50035 10.8556 9.42538 11.0505 9.3654 11.2604H7.70113C7.59617 11.0056 7.44624 10.7507 7.23633 10.5408C6.42668 9.73111 5.10725 9.73111 4.2976 10.5408C3.48795 11.3504 3.48795 12.6698 4.2976 13.4795C5.10725 14.2891 6.42668 14.2891 7.23633 13.4795C7.44624 13.2696 7.59617 13.0147 7.70113 12.7598H9.35041C9.41038 12.9997 9.51534 13.2096 9.63529 13.4195L7.19135 15.8635C6.77153 15.6086 6.29174 15.4586 5.76696 15.4586C4.23763 15.4586 2.99316 16.7031 2.99316 18.2324C2.99316 19.7618 4.23763 21.0062 5.76696 21.0062C7.2963 21.0062 8.54076 19.7618 8.54076 18.2324C8.54076 17.7226 8.39083 17.2578 8.16592 16.853L10.6249 14.3941C10.8348 14.514 11.0747 14.619 11.3296 14.679V16.2833C11.0447 16.3882 10.7748 16.5382 10.5499 16.7631C9.74024 17.5727 9.74024 18.8921 10.5499 19.7018C11.3595 20.5114 12.679 20.5114 13.4886 19.7018C14.2983 18.8921 14.2983 17.5727 13.4886 16.7631C13.2637 16.5382 12.9938 16.3882 12.7239 16.2833V14.679C12.9489 14.619 13.1588 14.529 13.3537 14.4241L15.8276 16.898C15.6027 17.3028 15.4678 17.7526 15.4678 18.2324C15.4678 19.7618 16.7122 21.0062 18.2416 21.0062C19.7709 21.0062 21.0154 19.7618 21.0154 18.2324C21.0154 16.7031 19.7709 15.4586 18.2416 15.4586H18.2266Z" fill="#03123D"/>
</svg>
