<svg width="48" height="48" viewBox="0 0 48 48" fill="none" xmlns="http://www.w3.org/2000/svg">
<path fill-rule="evenodd" clip-rule="evenodd" d="M29.9984 16.5001L25.4984 27.0389L31.2152 37.7278L28.4984 39.0004L19.4984 27.0019L27.3107 15.1674L29.9984 16.5001Z" fill="#03123D"/>
<path d="M14.9973 11.0002L23.9975 18.0002L23.9972 12.5001L24.008 12.5C32.0569 12.4472 38.4583 18.445 38.5105 26.3862C38.5629 34.3726 31.9751 40.996 23.9725 41.0486C16.0084 41.1009 9.61249 34.6016 9.55979 26.5763C9.53779 23.2263 11.1895 19.5379 13.8294 16.5951C14.3826 15.9784 14.3311 15.0301 13.7144 14.4769C13.0978 13.9237 12.1494 13.9752 11.5962 14.5918C8.59974 17.9322 6.53172 22.3118 6.55985 26.596C6.62303 36.2166 14.3104 44.1121 23.9922 44.0485C33.6353 43.9852 41.5738 36.0259 41.5104 26.3665C41.4469 16.6931 33.6359 9.4837 24.0811 9.49972L23.9971 9.49006L23.9968 4.00049L14.9973 11.0002Z" fill="#03123D"/>
</svg>
