<svg width="16" height="16" viewBox="0 0 16 16" fill="none" xmlns="http://www.w3.org/2000/svg">
<path fill-rule="evenodd" clip-rule="evenodd" d="M9.99994 5.50008L8.49994 9.01303L10.4055 12.576L9.49994 13.0002L6.49994 9.00067L9.10403 5.05585L9.99994 5.50008Z" fill="#03123D"/>
<path d="M4.99903 3.50009L7.99919 6.00002L7.99747 4.00372C10.7514 3.9951 12.9956 6.21564 13.0137 8.97173C13.0318 11.7337 10.8075 13.9874 8.04559 14.0055C5.28364 14.0237 3.02993 11.7994 3.01179 9.03741C3.00419 7.87874 3.57524 6.60485 4.48621 5.58935C4.6706 5.38379 4.65345 5.06767 4.44789 4.88328C4.24234 4.69888 3.92622 4.71604 3.74182 4.92159C2.71197 6.06962 2.00216 7.57391 2.01182 9.04398C2.03358 12.3582 4.73793 15.0273 8.05215 15.0055C11.3664 14.9837 14.0354 12.2794 14.0137 8.96516C13.992 5.6587 11.3002 2.99438 7.9966 3.00354L7.99487 0.998047L4.99903 3.50009Z" fill="#03123D"/>
</svg>
