<svg width="32" height="32" viewBox="0 0 32 32" fill="none" xmlns="http://www.w3.org/2000/svg">
<path d="M9.99967 14.0007H13.9997V16.0007H9.99967V14.0007Z" fill="#03123D"/>
<path d="M17.9997 14.0007H21.9997V16.0007H17.9997V14.0007Z" fill="#03123D"/>
<path d="M16.0001 30.3996C23.8287 30.3994 30.1977 24.1523 30.3947 16.3712L30.3996 16.0001C30.3996 8.17135 24.1525 1.80154 16.3712 1.60449L16.0001 1.59961C8.04714 1.59961 1.59961 8.04714 1.59961 16.0001L1.60449 16.3712C1.79841 24.0289 7.9703 30.2007 15.628 30.3947L16.0001 30.3996ZM16.0001 3.59962C22.1676 3.59981 27.2832 8.10301 28.2392 14.0007H23.9997V25.4742C21.8404 27.2992 19.0488 28.3995 16.0001 28.3996C12.9512 28.3996 10.1592 27.2993 7.99967 25.474V14.0007H3.75999C4.71611 8.10289 9.8324 3.59962 16.0001 3.59962Z" fill="#03123D"/>
</svg>
