<svg width="24" height="24" viewBox="0 0 24 24" fill="none" xmlns="http://www.w3.org/2000/svg">
<path d="M10 13.5C10.2761 13.5 10.5 13.7239 10.5 14V20.5C10.5 20.7761 10.2761 21 10 21H3.5C3.22386 21 3 20.7761 3 20.5V14C3 13.7239 3.22386 13.5 3.5 13.5H10ZM4.5 19.5H9V15H4.5V19.5Z" fill="#03123D"/>
<path d="M20.5 13.5C20.7761 13.5 21 13.7239 21 14V20.5C21 20.7761 20.7761 21 20.5 21H14C13.7239 21 13.5 20.7761 13.5 20.5V14C13.5 13.7239 13.7239 13.5 14 13.5H20.5ZM15 19.5H19.5V15H15V19.5Z" fill="#03123D"/>
<path d="M20 3C20.5523 3 21 3.44772 21 4V9.5C21 10.0523 20.5523 10.5 20 10.5H4C3.44772 10.5 3 10.0523 3 9.5V4C3 3.44772 3.44772 3 4 3H20Z" fill="#03123D"/>
</svg>
