<svg width="32" height="32" viewBox="0 0 32 32" fill="none" xmlns="http://www.w3.org/2000/svg">
<path d="M21 10C20.62 10 20.26 10.04 19.9 10.08C19.44 6.64 16.54 4 13 4C9.14 4 6 7.14 6 11C6 11.18 6.04 11.36 6.06 11.54C3.62 13.14 2 15.86 2 19C2 23.98 6.02 28 11 28H21C25.98 28 30 23.98 30 19C30 14.02 25.98 10 21 10ZM21 26H11C7.14 26 4 22.86 4 19C4 16.1 5.76 13.62 8.28 12.56C8.2 12.32 8.14 12.08 8.1 11.84C8.04 11.56 8.02 11.3 8.02 11C8.02 8.24 10.26 6 13.02 6C15.62 6 17.74 8 17.98 10.54C17.16 10.84 16.38 11.24 15.68 11.76C15.12 12.18 15.1 12.88 15.42 13.28C15.74 13.66 16.36 13.74 16.8 13.42C17.96 12.52 19.42 12 21 12C24.86 12 28 15.14 28 19C28 22.86 24.86 26 21 26Z" fill="#03123D"/>
<path d="M7.97998 22.06L10.82 19.22L13.3 21.7C13.5 21.9 13.76 22 14 22C14.24 22 14.52 21.9 14.7 21.7C15.1 21.3 15.1 20.68 14.7 20.28L12.22 17.8L15 15.02H7.97998V22.06Z" fill="#03123D"/>
<path d="M18.68 16.34C18.28 15.94 17.66 15.94 17.26 16.34C16.86 16.74 16.86 17.36 17.26 17.76L19.74 20.24L16.96 23.02H23.98V16L21.14 18.84L18.66 16.36L18.68 16.34Z" fill="#03123D"/>
</svg>
