<svg width="16" height="16" viewBox="0 0 16 16" fill="none" xmlns="http://www.w3.org/2000/svg">
<path d="M10 4H4C3.44772 4 3 4.44772 3 5V13C3 13.5523 3.44772 14 4 14H10C10.5523 14 11 13.5523 11 13V5C11 4.44772 10.5523 4 10 4Z" fill="#03123D"/>
<path d="M6.18 11C5.26 11 4.51 10.22 4.5 9.25C4.49 8.28 5.23 6.96 6.15 6.95C6.35 6.95 6.6 7.09 6.6 7.37V10.66C6.6 10.89 6.36 10.99 6.18 10.99V11Z" fill="white"/>
<path d="M7.39 11C8.31 11 9.06 10.22 9.07 9.25C9.08 8.28 8.34 6.96 7.42 6.95C7.22 6.95 6.97 7.09 6.97 7.37V10.66C6.97 10.89 7.22 10.99 7.39 10.99V11Z" fill="white"/>
<path d="M10 4H4C3.45 4 3 4.45 3 5V13C3 13.55 3.45 14 4 14H10C10.55 14 11 13.55 11 13V5C11 4.45 10.55 4 10 4ZM6.18 11C5.26 11 4.51 10.23 4.5 9.25C4.5 8.27 5.23 6.96 6.15 6.95C6.35 6.95 6.6 7.09 6.6 7.37C6.6 8.19 6.6 9.91 6.6 10.66C6.6 10.89 6.36 10.99 6.18 10.99V11ZM7.39 11C7.22 11 6.97 10.9 6.97 10.67C6.97 9.91 6.97 8.2 6.97 7.38C6.97 7.09 7.22 6.95 7.42 6.96C8.34 6.96 9.08 8.28 9.07 9.26C9.07 10.24 8.31 11.02 7.39 11.01V11Z" fill="#03123D"/>
<path fill-rule="evenodd" clip-rule="evenodd" d="M5 2.5C5 2.22386 5.22386 2 5.5 2H11C12.1046 2 13 2.89543 13 4V11.5C13 11.7761 12.7761 12 12.5 12C12.2239 12 12 11.7761 12 11.5V4C12 3.44772 11.5523 3 11 3H5.5C5.22386 3 5 2.77614 5 2.5Z" fill="#03123D"/>
</svg>
