<svg width="20" height="20" viewBox="0 0 20 20" fill="none" xmlns="http://www.w3.org/2000/svg">
<path d="M10.4111 2.00879C14.6349 2.22344 18.0019 5.72356 18.002 10L17.9922 10.4111C17.7778 14.6351 14.2765 18.0017 10 18.002L9.58887 17.9922C5.50109 17.7845 2.21629 14.499 2.00879 10.4111L1.99805 10C1.99815 5.58564 5.58564 1.99815 10 1.99805L10.4111 2.00879ZM10 2.99805C6.13792 2.99815 2.99815 6.13792 2.99805 10C2.99805 13.8622 6.13786 17.0018 10 17.002C13.862 17.0017 17.002 13.8621 17.002 10C17.0018 6.13802 13.8619 2.99831 10 2.99805Z" fill="#03123D"/>
<path d="M13.4941 10.1372L7.9082 14.3267L7.6084 13.9263L7.30859 13.5269L11.8271 10.1372L7.30859 6.74854L7.9082 5.94775L13.4941 10.1372Z" fill="#03123D"/>
</svg>
