<svg width="20" height="20" viewBox="0 0 20 20" fill="none" xmlns="http://www.w3.org/2000/svg">
<path d="M10 9.5C10.9665 9.5 11.75 8.7165 11.75 7.75C11.75 6.7835 10.9665 6 10 6C9.0335 6 8.25 6.7835 8.25 7.75C8.25 8.7165 9.0335 9.5 10 9.5Z" fill="#03123D"/>
<path d="M10 3C7.2375 3 5 5.08833 5 7.66667C5 12 10 17 10 17C10 17 15 12 15 7.66667C15 5.08833 12.7625 3 10 3ZM10 10.75C8.275 10.75 6.875 9.27667 6.875 7.66667C6.875 6.05667 8.275 4.75 10 4.75C11.725 4.75 13.125 6.05667 13.125 7.66667C13.125 9.27667 11.725 10.75 10 10.75Z" fill="#03123D"/>
</svg>
