<svg width="48" height="48" viewBox="0 0 48 48" fill="none" xmlns="http://www.w3.org/2000/svg">
<path fill-rule="evenodd" clip-rule="evenodd" d="M34.4851 31.4767C38.367 29.3556 41 25.2353 41 20.5C41 13.5964 35.4036 8 28.5 8C24.8786 8 21.6168 9.54001 19.334 12.0009C19.3892 12.0003 19.4446 12 19.5 12C28.0604 12 35 18.9396 35 27.5C35 28.8747 34.821 30.2076 34.4851 31.4767ZM15.1505 12.6186C8.70733 14.4986 4 20.4496 4 27.5C4 36.0604 10.9396 43 19.5 43C25.1828 43 30.1513 39.9418 32.8495 35.3814C39.2927 33.5014 44 27.5504 44 20.5C44 11.9396 37.0604 5 28.5 5C22.8172 5 17.8487 8.05818 15.1505 12.6186Z" fill="#03123D"/>
</svg>
