<svg width="48" height="48" viewBox="0 0 48 48" fill="none" xmlns="http://www.w3.org/2000/svg">
<path d="M26.7188 32.3702C26.2672 33.0021 25.415 33.1792 24.7549 32.8019L24.626 32.7189L12.418 23.9943L24.626 15.2784C25.3001 14.7971 26.2373 14.9531 26.7188 15.6271C27.2 16.3012 27.0441 17.2384 26.3701 17.7198L19.6781 22.4982L32.9976 22.4982L33.1509 22.506C33.9073 22.5827 34.4976 23.2215 34.4976 23.9982C34.4976 24.7748 33.9073 25.4136 33.1509 25.4904L32.9976 25.4982L19.6819 25.4982L26.3701 30.2775L26.4902 30.3732C27.0611 30.8754 27.1702 31.7383 26.7188 32.3702Z" fill="#03123D"/>
</svg>
