<svg width="48" height="48" viewBox="0 0 48 48" fill="none" xmlns="http://www.w3.org/2000/svg">
<path fill-rule="evenodd" clip-rule="evenodd" d="M24 44C35.0457 44 44 35.0457 44 24C44 12.9543 35.0457 4 24 4C12.9543 4 4 12.9543 4 24C4 35.0457 12.9543 44 24 44ZM24 9C21.5325 9 19.5 11.0325 19.5 13.5C19.5 15.9675 21.5325 18 24 18C26.4675 18 28.5 15.9675 28.5 13.5C28.5 11.0325 26.4675 9 24 9ZM24 15C24.8106 15 25.5 14.3106 25.5 13.5C25.5 12.6894 24.8106 12 24 12C23.1894 12 22.5 12.6894 22.5 13.5C22.5 14.3106 23.1894 15 24 15ZM27 21V39H21V21L27 21Z" fill="#03123D"/>
</svg>
