<svg width="24" height="24" viewBox="0 0 24 24" fill="none" xmlns="http://www.w3.org/2000/svg">
<path fill-rule="evenodd" clip-rule="evenodd" d="M2.99826 10.502V8.97693L2.99805 9.00249L2.99826 10.502ZM5.23627 9.00249C5.25123 9.00213 5.26621 9.00195 5.28121 9.00195L5.23627 9.00249Z" fill="#03123D"/>
<path d="M14.9358 14.738H15.9846C15.9635 15.0816 15.8688 15.3867 15.7005 15.6532C15.5344 15.9197 15.3018 16.1277 15.0025 16.2773C14.7055 16.427 14.3477 16.5018 13.9291 16.5018C13.6018 16.5018 13.3083 16.4457 13.0487 16.3334C12.7892 16.2189 12.567 16.0553 12.3823 15.8425C12.1999 15.6298 12.0608 15.3727 11.9649 15.0711C11.869 14.7696 11.8211 14.4318 11.8211 14.0578V13.7036C11.8211 13.3296 11.8702 12.9918 11.9684 12.6903C12.0689 12.3864 12.2116 12.1281 12.3963 11.9153C12.5834 11.7026 12.8067 11.539 13.0663 11.4244C13.3258 11.3099 13.6158 11.2526 13.9362 11.2526C14.3617 11.2526 14.7207 11.3298 15.013 11.484C15.3076 11.6383 15.5356 11.8511 15.697 12.1222C15.8607 12.3934 15.9589 12.7019 15.9916 13.0479H14.9393C14.9276 12.8422 14.8867 12.6681 14.8166 12.5255C14.7464 12.3805 14.64 12.2718 14.4974 12.1994C14.3571 12.1246 14.17 12.0872 13.9362 12.0872C13.7608 12.0872 13.6076 12.1199 13.4767 12.1853C13.3457 12.2508 13.2358 12.3501 13.1469 12.4834C13.0581 12.6166 12.9914 12.7849 12.947 12.9883C12.9049 13.1893 12.8839 13.4254 12.8839 13.6966V14.0578C12.8839 14.3219 12.9038 14.5545 12.9435 14.7555C12.9833 14.9542 13.0441 15.1226 13.1259 15.2605C13.2101 15.3961 13.3176 15.4989 13.4486 15.569C13.5819 15.6368 13.7421 15.6707 13.9291 15.6707C14.1489 15.6707 14.3302 15.6357 14.4728 15.5655C14.6155 15.4954 14.7242 15.3914 14.799 15.2535C14.8762 15.1155 14.9218 14.9437 14.9358 14.738Z" fill="#03123D"/>
<path d="M7.02607 11.3059V16.4353H5.99985V11.3059H7.02607Z" fill="#03123D"/>
<path d="M2.99826 8.97693V10.502L2.99805 18.0025C2.99805 18.7792 3.58832 19.4179 4.34473 19.4947L4.49805 19.5025H19.498L19.6514 19.4947C20.4078 19.4179 20.998 18.7792 20.998 18.0025V9.00249C20.998 8.17406 20.3265 7.50249 19.498 7.50249H13.4988L11.0519 5.05558C10.6974 4.7011 10.2166 4.50195 9.71531 4.50195H4.88846L4.69553 4.51172C3.86932 4.59548 3.20035 5.21131 3.03666 6.01121C3.01148 6.13426 2.99826 6.26166 2.99826 6.39215V8.97693ZM4.49805 18.0025V9.17155V9.00249H5.23627C5.25123 9.00213 5.26621 9.00195 5.28121 9.00195H14.9983L19.498 9.00249V18.0025H4.49805Z" fill="#03123D"/>
<path fill-rule="evenodd" clip-rule="evenodd" d="M5.10667 9.01C4.89504 9.02957 4.68938 9.08447 4.49805 9.17155C4.68557 9.08607 4.8868 9.03135 5.09396 9.01074L5.10667 9.01ZM5.10667 9.01C5.14965 9.00603 5.19287 9.00352 5.23627 9.00249L5.10667 9.01ZM5.23627 9.00249C5.25123 9.00213 5.26621 9.00195 5.28121 9.00195L5.23627 9.00249ZM4.69553 4.51172C4.75896 4.50529 4.82332 4.50195 4.88846 4.50195L4.69553 4.51172Z" fill="#03123D"/>
<path d="M9.08316 11.3059H8.05694V16.4353H9.08316V14.3314H11.1276V13.5109H9.08316V12.1539H11.3731V11.3059H9.08316Z" fill="#03123D"/>
</svg>
