<svg width="24" height="24" viewBox="0 0 24 24" fill="none" xmlns="http://www.w3.org/2000/svg">
<path fill-rule="evenodd" clip-rule="evenodd" d="M12 13.5C12.8284 13.5 13.5 12.8284 13.5 12C13.5 11.1716 12.8284 10.5 12 10.5C11.1716 10.5 10.5 11.1716 10.5 12C10.5 12.8284 11.1716 13.5 12 13.5Z" fill="#03123D"/>
<path d="M13.5 12C13.5 12.8284 12.8284 13.5 12 13.5C11.1716 13.5 10.5 12.8284 10.5 12C10.5 11.1716 11.1716 10.5 12 10.5C12.8284 10.5 13.5 11.1716 13.5 12Z" fill="white"/>
<path fill-rule="evenodd" clip-rule="evenodd" d="M12 22.5C17.799 22.5 22.5 17.799 22.5 12C22.5 6.20101 17.799 1.5 12 1.5C6.20101 1.5 1.5 6.20101 1.5 12C1.5 17.799 6.20101 22.5 12 22.5ZM12 21C9.60564 21 7.42966 20.065 5.81726 18.5402C9.38878 17.3199 14.6112 17.3199 18.1827 18.5402C16.5703 20.065 14.3944 21 12 21ZM18.5402 18.1827C17.3199 14.6112 17.3199 9.38878 18.5402 5.81726C20.065 7.42966 21 9.60564 21 12C21 14.3944 20.065 16.5703 18.5402 18.1827ZM13.5 12C13.5 12.8284 12.8284 13.5 12 13.5C11.1716 13.5 10.5 12.8284 10.5 12C10.5 11.1716 11.1716 10.5 12 10.5C12.8284 10.5 13.5 11.1716 13.5 12ZM5.45981 18.1827C3.935 16.5703 3 14.3944 3 12C3 9.60564 3.935 7.42966 5.45981 5.81726C6.68006 9.38878 6.68006 14.6112 5.45981 18.1827ZM18.1827 5.45981C14.6112 6.68006 9.38878 6.68006 5.81726 5.45981C7.42966 3.935 9.60564 3 12 3C14.3944 3 16.5703 3.935 18.1827 5.45981Z" fill="#03123D"/>
</svg>
