<svg width="64" height="64" viewBox="0 0 64 64" fill="none" xmlns="http://www.w3.org/2000/svg">
<path d="M20.0003 27.9993H28.0003V31.9993H20.0003V27.9993Z" fill="#03123D"/>
<path d="M36.0003 27.9993H44.0003V31.9993H36.0003V27.9993Z" fill="#03123D"/>
<path d="M32 60.7969C47.9058 60.7969 60.7998 47.9029 60.7998 31.9971C60.7997 16.0914 47.9057 3.19727 32 3.19727C16.0944 3.19737 3.2003 16.0914 3.2002 31.9971C3.2002 47.9028 16.0943 60.7968 32 60.7969ZM7.52076 27.9993C9.43246 16.2036 19.6645 7.19736 32 7.19727C44.3356 7.19727 54.5676 16.2036 56.4792 27.9993H48.0003V50.9457C43.6815 54.5962 38.0978 56.7969 32 56.7969C25.9025 56.7968 20.319 54.5963 16.0003 50.9461V27.9993H7.52076Z" fill="#03123D"/>
</svg>
