<svg width="48" height="48" viewBox="0 0 48 48" fill="none" xmlns="http://www.w3.org/2000/svg">
<path d="M42 6V42H6V6H42ZM9 39H39V9H9V39Z" fill="#03123D"/>
<path d="M12 12H18V18H12V12Z" fill="#03123D"/>
<path d="M12 21H18V27H12V21Z" fill="#03123D"/>
<path d="M12 30H18V36H12V30Z" fill="#03123D"/>
<path d="M30 12H36V18H30V12Z" fill="#03123D"/>
<path d="M21 12H27V18H21V12Z" fill="#03123D"/>
<path d="M30 21H36V27H30V21Z" fill="#03123D"/>
<path d="M21 21H27V27H21V21Z" fill="#03123D"/>
<path d="M21 30H27V36H21V30Z" fill="#03123D"/>
</svg>
