<svg width="24" height="24" viewBox="0 0 24 24" fill="none" xmlns="http://www.w3.org/2000/svg">
<path d="M12 16.5C14.7664 16.5 17.1269 15.7104 18.7881 14.9287C19.6204 14.5371 20.2829 14.1443 20.7402 13.8477C20.9689 13.6993 21.1468 13.5746 21.2695 13.4854C21.3308 13.4408 21.3788 13.4053 21.4121 13.3799C21.4287 13.3672 21.4418 13.357 21.4512 13.3496C21.4559 13.3459 21.46 13.3431 21.4629 13.3408L21.4678 13.3359L20.5322 12.1641C20.5322 12.1641 20.5298 12.1661 20.5273 12.168C20.5223 12.1719 20.5131 12.1783 20.501 12.1875C20.4768 12.206 20.4391 12.2351 20.3877 12.2725C20.2849 12.3473 20.1286 12.457 19.9238 12.5898C19.514 12.8557 18.9107 13.213 18.1494 13.5713C16.6231 14.2896 14.4836 15 12 15C9.5164 15 7.3769 14.2896 5.85059 13.5713C5.08925 13.213 4.48605 12.8557 4.07617 12.5898C3.87141 12.457 3.71515 12.3473 3.6123 12.2725C3.56094 12.2351 3.5232 12.206 3.49902 12.1875C3.48695 12.1783 3.47773 12.1719 3.47266 12.168L3.46777 12.1641L2.53223 13.3359L2.53711 13.3408C2.53999 13.3431 2.54415 13.3459 2.54883 13.3496C2.55825 13.357 2.57134 13.3672 2.58789 13.3799C2.62119 13.4053 2.66915 13.4408 2.73047 13.4854C2.85318 13.5746 3.03108 13.6993 3.25977 13.8477C3.71706 14.1443 4.37964 14.5371 5.21191 14.9287C6.8731 15.7104 9.23363 16.5 12 16.5Z" fill="#03123D"/>
<path d="M15.75 11.25C15.75 13.3211 14.0711 15 12 15C9.92893 15 8.25 13.3211 8.25 11.25C8.25 9.17893 9.92893 7.5 12 7.5C14.0711 7.5 15.75 9.17893 15.75 11.25Z" fill="#03123D"/>
</svg>
