<svg width="64" height="64" viewBox="0 0 64 64" fill="none" xmlns="http://www.w3.org/2000/svg">
<path fill-rule="evenodd" clip-rule="evenodd" d="M46 40C46 40.7578 45.5721 41.4512 44.8945 41.7891L32.8945 47.7891C32.3315 48.0703 31.6685 48.0703 31.1055 47.7891L19.1055 41.7891C18.4279 41.4512 18 40.7578 18 40V28C18 27.2422 18.4279 26.5488 19.1055 26.2109L31.1055 20.2109L31.3213 20.1191C31.833 19.9336 32.4019 19.9648 32.8945 20.2109L44.8945 26.2109C45.5721 26.5488 46 27.2422 46 28V40ZM29.998 42.7617L22 38.7637V31.2363L29.9941 35.2363L29.998 42.7617ZM24.4717 28L31.9941 31.7637L39.5264 28L32 24.2363L24.4717 28Z" fill="#03123D"/>
<path fill-rule="evenodd" clip-rule="evenodd" d="M57.333 56C58.8058 56 60 54.8066 60 53.332V10.668C60 9.19336 58.8058 8 57.333 8H6.66699L6.39355 8.01367C5.04907 8.15039 4 9.28711 4 10.668V53.332C4 54.7129 5.04907 55.8496 6.39355 55.9863L6.66699 56H57.333ZM8 52H56V16H8V52Z" fill="#03123D"/>
</svg>
