<svg width="48" height="48" viewBox="0 0 48 48" fill="none" xmlns="http://www.w3.org/2000/svg">
<path fill-rule="evenodd" clip-rule="evenodd" d="M41.1726 23.928C41.1649 14.4631 33.4705 6.77344 24.0038 6.77344C22.1438 6.77344 20.3411 7.0882 18.6815 7.63188V7.57465L17.5082 4.85626C17.1935 4.14089 16.3637 3.79751 15.6197 4.11228C14.9043 4.42704 14.5609 5.25686 14.8757 6.00085L16.0489 8.71924V8.74786C10.5835 11.5807 6.83496 17.3323 6.83496 23.9423C6.83496 33.4137 14.5323 41.1111 24.0038 41.1111C25.8924 41.1111 27.7237 40.7963 29.412 40.224V40.2527L30.6138 43.1141C30.8427 43.6578 31.3864 43.9726 31.9301 43.9726C32.1304 43.9726 32.3021 43.944 32.5024 43.8581C33.2177 43.5433 33.5611 42.7135 33.2463 41.9695L32.0445 39.1081V39.0795C37.4774 36.1915 41.1673 30.5033 41.1726 23.928ZM41.1726 23.928L41.1726 23.9137V23.9423L41.1726 23.928ZM17.6568 7.5522C16.9092 7.5522 16.3033 8.15809 16.3033 8.90572V16.9751L23.1988 20.8286L23.8108 27.1429C23.786 27.531 23.9284 27.9237 24.2242 28.2069L24.3296 28.2977L29.0835 32.0047V38.619C29.0835 39.3666 29.6894 39.9725 30.437 39.9725C31.1847 39.9725 31.7906 39.3666 31.7906 38.619V30.6825L26.4716 26.5356L25.8258 19.8627L25.7584 19.1577L19.0103 15.3862V8.90572C19.0103 8.15809 18.4044 7.5522 17.6568 7.5522Z" fill="#03123D"/>
</svg>
