<svg width="20" height="20" viewBox="0 0 20 20" fill="none" xmlns="http://www.w3.org/2000/svg">
<path d="M12 9.5C12 10.3284 11.3284 11 10.5 11C9.67157 11 9 10.3284 9 9.5C9 8.67157 9.67157 8 10.5 8C11.3284 8 12 8.67157 12 9.5Z" fill="#03123D"/>
<path d="M18.7734 4C18.7734 5.65685 17.4303 7 15.7734 7C14.1166 7 12.7734 5.65685 12.7734 4C12.7734 2.34315 14.1166 1 15.7734 1C17.4303 1 18.7734 2.34315 18.7734 4Z" fill="#03123D"/>
<path d="M5 12C5 12.9797 5.34387 13.7189 5.86816 14.2148C6.39704 14.7149 7.14425 15 8 15C8.85575 15 9.60296 14.7149 10.1318 14.2148C10.6561 13.7189 11 12.9797 11 12H12C12 13.2291 11.5605 14.2396 10.8184 14.9414C10.0805 15.6391 9.07725 16 8 16C6.92275 16 5.91952 15.6391 5.18164 14.9414C4.4395 14.2396 4 13.2291 4 12H5Z" fill="#03123D"/>
<path d="M7.00139 9V10H4.00139V9H7.00139Z" fill="#03123D"/>
<path d="M14 12C14 8.68555 11.3137 6 8 6C4.68628 6 2 8.68555 2 12C2 15.3145 4.68628 18 8 18C11.3137 18 14 15.3145 14 12ZM15 12C15 15.8652 11.866 19 8 19C4.13403 19 1 15.8652 1 12C1 8.13477 4.13403 5 8 5C11.866 5 15 8.13477 15 12Z" fill="#03123D"/>
</svg>
