<svg width="32" height="32" viewBox="0 0 32 32" fill="none" xmlns="http://www.w3.org/2000/svg">
<path d="M28 13.5C28 17.105 25.7558 20.1858 22.5882 21.4216C22.8563 20.4941 23 19.5138 23 18.5C23 12.8716 18.5715 8.2775 13.0088 8.01211C14.568 6.16971 16.8974 5 19.5 5C24.1944 5 28 8.80558 28 13.5ZM21.5683 23.7963C26.3768 22.8358 30 18.591 30 13.5C30 7.70101 25.299 3 19.5 3C15.6327 3 12.2537 5.09077 10.4317 8.20366C5.6232 9.16425 2 13.409 2 18.5C2 24.299 6.70101 29 12.5 29C16.3673 29 19.7463 26.9092 21.5683 23.7963Z" fill="#03123D"/>
</svg>
