<svg width="24" height="24" viewBox="0 0 24 24" fill="none" xmlns="http://www.w3.org/2000/svg">
<path fill-rule="evenodd" clip-rule="evenodd" d="M18 10.5C18 11.751 17.6932 12.9308 17.1507 13.9682L21.1284 17.8179C21.2728 17.9577 21.3551 18.1496 21.3568 18.3507C21.3584 18.5517 21.2793 18.745 21.1371 18.8871C20.9156 19.1086 20.7567 19.2803 20.5928 19.4575C20.2481 19.8299 19.8812 20.2263 18.864 21.1596C18.568 21.4311 18.1107 21.4213 17.8266 21.1373C17.1874 20.4981 16.2141 19.4924 15.4041 18.6503C14.9983 18.2284 14.6323 17.8463 14.3676 17.5696L13.9678 17.151C12.9305 17.6933 11.7509 18 10.5 18C6.36 18 3 14.64 3 10.5C3 6.36 6.36 3 10.5 3C14.64 3 18 6.36 18 10.5ZM15.4517 16.5328L15.24 16.3112C15.6314 15.9915 15.9899 15.633 16.3097 15.2417L19.5481 18.3759L19.4507 18.4814C19.1964 18.7573 18.9546 19.0197 18.3788 19.563C17.8016 18.9754 17.0994 18.249 16.4852 17.6105C16.0807 17.1899 15.7156 16.8088 15.4517 16.5328ZM6 10.5C6 12.99 8.01 15 10.5 15C12.99 15 15 12.99 15 10.5C15 8.01 12.99 6 10.5 6C8.01 6 6 8.01 6 10.5Z" fill="#03123D"/>
</svg>
