<svg width="16" height="16" viewBox="0 0 16 16" fill="none" xmlns="http://www.w3.org/2000/svg">
<path d="M14 2V14H2V2H14ZM3 13H13V3H3V13Z" fill="#03123D"/>
<path fill-rule="evenodd" clip-rule="evenodd" d="M13 3C11.5 5.5 11.5 10.5 13 13C10.5 11.5 5.5 11.5 3 13C4.5 10.5 4.5 5.5 3 3C5.5 4.5 10.5 4.5 13 3ZM8 7.33301C7.63181 7.33301 7.33301 7.63181 7.33301 8C7.33318 8.36804 7.63192 8.66602 8 8.66602C8.36793 8.66584 8.66584 8.36793 8.66602 8C8.66602 7.63192 8.36804 7.33318 8 7.33301Z" fill="#03123D"/>
</svg>
