<svg width="16" height="16" viewBox="0 0 16 16" fill="none" xmlns="http://www.w3.org/2000/svg">
<path d="M11 12H8.5V11.96C10.47 11.71 12 10.04 12 8.01C12 7.73 11.78 7.51 11.5 7.51C11.22 7.51 11 7.73 11 8.01C11 9.66 9.66 11.01 8 11.01C6.34 11.01 5 9.67 5 8.01C5 7.73 4.78 7.51 4.5 7.51C4.22 7.51 4 7.73 4 8.01C4 10.04 5.53 11.71 7.5 11.96V12H5C5 12.5 5 13.22 5 13.5C5 13.78 5 13 5 14H11C11 14 11 13.78 11 13.5C11 13.22 11 12.5 11 12Z" fill="#03123D"/>
<path d="M8 10.05C9.1 10.05 10 9.15 10 8.05V4C10 2.9 9.1 2 8 2C6.9 2 6 2.9 6 4V8.05C6 9.15 6.9 10.05 8 10.05Z" fill="#03123D"/>
</svg>
