<svg width="32" height="32" viewBox="0 0 32 32" fill="none" xmlns="http://www.w3.org/2000/svg">
<path d="M26 26L26.2041 25.9883C27.1456 25.8945 27.8938 25.1465 27.9893 24.2031L28 24V8C28 6.89453 27.1046 6 26 6H6C4.89545 6 4 6.89453 4 8V24L4.01074 24.2031C4.1062 25.1465 4.85437 25.8945 5.7959 25.9883L6 26H26ZM26 17V24H12V8H26V15H18.4141L21.707 11.707C22.0975 11.3164 22.0975 10.6836 21.707 10.293C21.3165 9.90234 20.6835 9.90234 20.293 10.293L14.5859 16L20.293 21.707C20.6835 22.0977 21.3165 22.0977 21.707 21.707C22.0975 21.3164 22.0975 20.6836 21.707 20.293L18.4141 17H26Z" fill="#03123D"/>
</svg>
