<svg width="64" height="64" viewBox="0 0 64 64" fill="none" xmlns="http://www.w3.org/2000/svg">
<path d="M33.9621 6.30447C32.7439 5.61873 31.2561 5.61873 30.0379 6.30447L10.0379 17.5626C8.77897 18.2713 8 19.6037 8 21.0483V43.3516C8 44.7963 8.77897 46.1287 10.0379 46.8373L30.0379 58.0955C31.2561 58.7812 32.7439 58.7812 33.9621 58.0955L53.9621 46.8373C55.221 46.1287 56 44.7963 56 43.3516V21.0483C56 19.6037 55.221 18.2713 53.9621 17.5626L33.9621 6.30447ZM34.01 28.7344V10.8388L49.9698 19.8062L34.01 28.7344ZM29.99 28.7344L14.0704 19.8062L29.99 10.8388V28.7344ZM12.0201 23.1739L29.99 33.2768V53.5611L12.0201 43.4581V23.1739Z" fill="#03123D"/>
</svg>
