<svg width="48" height="48" viewBox="0 0 48 48" fill="none" xmlns="http://www.w3.org/2000/svg">
<path d="M24.1045 10.7887C32.1425 4.09036 40.1805 10.7254 40.1807 18.8268C40.1807 29.473 24.128 40.2466 24.1045 40.2624C24.1045 40.2624 8.02832 29.5473 8.02832 18.8268C8.02852 10.7889 17.4061 4.09011 24.1045 10.7887ZM14.335 14.8278C13.6295 14.3869 12.7 14.601 12.2588 15.3063C10.8048 17.6314 11.141 20.2796 12.0674 22.5983C12.9978 24.9269 14.6251 27.2072 16.2441 29.1071C16.7838 29.74 17.7349 29.8154 18.3682 29.276C19.0013 28.7363 19.0768 27.7853 18.5371 27.152C17.0098 25.3598 15.62 23.3694 14.8652 21.4801C14.1065 19.581 14.0892 18.0622 14.8135 16.904C15.2548 16.1985 15.0404 15.2691 14.335 14.8278ZM16.0557 10.7145C15.2237 10.7147 14.5489 11.3894 14.5488 12.2214C14.5488 13.0534 15.2236 13.7281 16.0557 13.7282C16.8878 13.7282 17.5625 13.0535 17.5625 12.2214C17.5624 11.3893 16.8877 10.7145 16.0557 10.7145Z" fill="#03123D"/>
</svg>
