<svg width="20" height="20" viewBox="0 0 20 20" fill="none" xmlns="http://www.w3.org/2000/svg">
<path fill-rule="evenodd" clip-rule="evenodd" d="M13.2194 6.1993C12.4313 4.76393 10.8356 3.85389 9.10016 4.01935C7.33683 4.18746 5.92765 5.41707 5.44762 7.00959C3.90505 7.60593 2.7998 9.08652 2.7998 10.8332C2.7998 13.1151 4.75729 15 7.04422 15H12.8762L12.8755 14.9987C15.2734 14.9424 17.1998 12.9894 17.1998 10.5884C17.1998 8.3033 15.4549 6.42399 13.2194 6.1993ZM12.0076 6.26562C11.3691 5.48469 10.2837 4.91723 9.20574 5.02C8.13493 5.12209 7.14079 5.8608 6.65991 6.74C6.7274 6.73676 6.89258 6.72824 6.96082 6.72824C7.92076 6.72824 8.80766 7.05184 9.51306 7.59631C10.1418 6.91835 11.0607 6.44671 12.0076 6.26562ZM8.30444 10.5884C8.30444 9.875 8.45679 9.14062 8.92163 8.38281C8.39976 7.96798 7.6829 7.73 6.96082 7.73C5.27868 7.73 3.79976 9.17759 3.79976 10.8332C3.79976 12.4859 5.34867 14 7.04422 14H9.93335C8.79663 13.0352 8.30444 11.8203 8.30444 10.5884Z" fill="#03123D"/>
</svg>
