<svg width="48" height="48" viewBox="0 0 48 48" fill="none" xmlns="http://www.w3.org/2000/svg">
<path fill-rule="evenodd" clip-rule="evenodd" d="M28.0779 8.63099C26.4618 5.16906 21.5389 5.16907 19.9228 8.63099L4.64117 41.3654C4.29074 42.1161 4.61518 43.0087 5.36584 43.3591C6.1165 43.7096 7.00911 43.3851 7.35954 42.6345L15.5477 25.0947L24.0004 41.9999L32.453 25.0947L40.6412 42.6345C40.9916 43.3851 41.8842 43.7096 42.6349 43.3591C43.3855 43.0087 43.71 42.1161 43.3595 41.3654L28.0779 8.63099ZM25.3595 9.90003L31.9419 23.9999L16.0588 23.9999L22.6412 9.90003C23.1799 8.74605 24.8208 8.74605 25.3595 9.90003Z" fill="#03123D"/>
</svg>
