<svg width="32" height="32" viewBox="0 0 32 32" fill="none" xmlns="http://www.w3.org/2000/svg">
<path fill-rule="evenodd" clip-rule="evenodd" d="M6.96287 12.0013C6.98984 12.0004 7.01686 12 7.04393 12L6.96287 12.0013Z" fill="#03123D"/>
<path d="M19.9167 19.6488H21.315C21.287 20.107 21.1607 20.5137 20.9362 20.8691C20.7148 21.2244 20.4046 21.5018 20.0055 21.7013C19.6096 21.9007 19.1325 22.0005 18.5744 22.0005C18.1379 22.0005 17.7466 21.9257 17.4005 21.7761C17.0545 21.6233 16.7583 21.4052 16.512 21.1215C16.2688 20.8379 16.0833 20.495 15.9554 20.093C15.8276 19.6909 15.7637 19.2405 15.7637 18.7418V18.2696C15.7637 17.7709 15.8291 17.3206 15.9601 16.9185C16.0942 16.5133 16.2844 16.1689 16.5307 15.8852C16.7801 15.6016 17.0779 15.3834 17.4239 15.2307C17.77 15.078 18.1566 15.0016 18.5838 15.0016C19.1512 15.0016 19.6298 15.1045 20.0196 15.3102C20.4124 15.5159 20.7164 15.7995 20.9315 16.1611C21.1498 16.5226 21.2807 16.9341 21.3244 17.3954H19.9213C19.9057 17.1211 19.8512 16.8889 19.7577 16.6987C19.6641 16.5055 19.5223 16.3606 19.3321 16.2639C19.145 16.1642 18.8956 16.1143 18.5838 16.1143C18.3499 16.1143 18.1457 16.158 17.9711 16.2452C17.7965 16.3325 17.65 16.465 17.5315 16.6426C17.413 16.8203 17.3242 17.0447 17.2649 17.3159C17.2088 17.5839 17.1807 17.8987 17.1807 18.2603V18.7418C17.1807 19.094 17.2072 19.4042 17.2602 19.6722C17.3132 19.9371 17.3943 20.1615 17.5034 20.3454C17.6157 20.5262 17.7591 20.6634 17.9337 20.7569C18.1114 20.8472 18.325 20.8924 18.5744 20.8924C18.8675 20.8924 19.1091 20.8457 19.2993 20.7522C19.4895 20.6587 19.6345 20.52 19.7343 20.3361C19.8372 20.1522 19.898 19.9231 19.9167 19.6488Z" fill="#03123D"/>
<path d="M9.37155 15.0719V21.9112H8.00326V15.0719H9.37155Z" fill="#03123D"/>
<path d="M6.2627 6.0127L6.52026 6H12.9561C13.6245 6 14.2655 6.26553 14.7382 6.73817L18.0013 10.0013H26C27.1046 10.0013 28 10.8967 28 12.0013V24.0013C28 25.037 27.2128 25.8883 26.2041 25.9906L26 26.0013H6L5.7959 25.9906C4.78722 25.8883 4 25.037 4 24.0013V14V12.0013V8.52026C4 8.48764 4.00062 8.45516 4.00185 8.42284C4.04984 7.16022 5.02071 6.13579 6.2627 6.0127ZM7.04393 12C7.01686 12 6.98984 12.0004 6.96287 12.0013H6V12.2264V24.0013H26V12.0013L20 12H7.04393Z" fill="#03123D"/>
<path fill-rule="evenodd" clip-rule="evenodd" d="M6.2627 6.0127L6.52026 6C6.43535 6 6.34545 6.00449 6.2627 6.0127ZM6.96287 12.0013L6.79492 12.0127C6.51862 12.0401 6.25013 12.1126 6 12.2264C6.30056 12.0896 6.62752 12.0121 6.96287 12.0013ZM6.96287 12.0013C6.98984 12.0004 7.01686 12 7.04393 12L6.96287 12.0013Z" fill="#03123D"/>
<path d="M12.1137 16.2027V18.012H14.8396V19.106H12.1137V21.9112H10.7454V15.0719H12.1137H15.167V16.2027H12.1137Z" fill="#03123D"/>
</svg>
