<svg width="16" height="16" viewBox="0 0 16 16" fill="none" xmlns="http://www.w3.org/2000/svg">
<path fill-rule="evenodd" clip-rule="evenodd" d="M13 3H8V6H13V3ZM7 2V7H14V2H7Z" fill="#03123D"/>
<path fill-rule="evenodd" clip-rule="evenodd" d="M13 9H8V12H13V9ZM7 8V13H14V8H7Z" fill="#03123D"/>
<path fill-rule="evenodd" clip-rule="evenodd" d="M3.99992 3.66587L5.09922 2.20014C5.2649 1.97922 5.57831 1.93445 5.79922 2.10014C6.02013 2.26582 6.0649 2.57922 5.89922 2.80014L4.62492 4.4992L5.90062 6.20013C6.06631 6.42105 6.02153 6.73445 5.80062 6.90014C5.57971 7.06582 5.2663 7.02105 5.10062 6.80014L3.99992 5.33254L2.89922 6.80014C2.73353 7.02105 2.42013 7.06582 2.19922 6.90014C1.9783 6.73445 1.93353 6.42105 2.09922 6.20013L3.37492 4.4992L2.10062 2.80014C1.93493 2.57922 1.97971 2.26582 2.20062 2.10014C2.42153 1.93445 2.73493 1.97922 2.90062 2.20014L3.99992 3.66587Z" fill="#03123D"/>
<path fill-rule="evenodd" clip-rule="evenodd" d="M2.96019 8.30282C2.85141 8.049 2.55747 7.93143 2.30366 8.0402C2.04984 8.14898 1.93227 8.44292 2.04105 8.69674L3.51091 12.1264L3.16148 13H2.19141C1.91526 13 1.69141 13.2239 1.69141 13.5C1.69141 13.7761 1.91526 14 2.19141 14H3.16148C3.57039 14 3.9381 13.751 4.08996 13.3714L5.96424 8.6857C6.06679 8.4293 5.94209 8.13832 5.6857 8.03576C5.4293 7.93321 5.13832 8.05791 5.03576 8.3143L4.03614 10.8134L2.96019 8.30282Z" fill="#03123D"/>
</svg>
