<svg width="64" height="64" viewBox="0 0 64 64" fill="none" xmlns="http://www.w3.org/2000/svg">
<path d="M53.0422 40.2441C54.0118 39.7153 55.227 40.0724 55.756 41.042C56.2847 42.0116 55.9276 43.2269 54.9582 43.7559L32.0002 56.2783L9.04216 43.7559L8.86833 43.6484C8.03204 43.0757 7.74875 41.9511 8.24431 41.042C8.74026 40.133 9.83924 39.7622 10.7736 40.1553L10.9582 40.2441L32.0002 51.7207L53.0422 40.2441Z" fill="#03123D"/>
<path d="M53.0422 30.2441C54.0118 29.7153 55.227 30.0725 55.756 31.042C56.2847 32.0116 55.9276 33.2269 54.9582 33.7559L32.0002 46.2783L9.04216 33.7559L8.86833 33.6484C8.03204 33.0757 7.74875 31.9511 8.24431 31.042C8.74026 30.133 9.83924 29.7622 10.7736 30.1553L10.9582 30.2441L32.0002 41.7207L53.0422 30.2441Z" fill="#03123D"/>
<path d="M54.7297 20.2393C56.1321 20.9944 56.1321 23.0056 54.7297 23.7607L32.0002 36L9.27068 23.7607C7.86841 23.0056 7.86841 20.9944 9.27068 20.2393L32.0002 8L54.7297 20.2393Z" fill="#03123D"/>
</svg>
