<svg width="24" height="24" viewBox="0 0 24 24" fill="none" xmlns="http://www.w3.org/2000/svg">
<path d="M15.8999 15.2643L20.9999 21H10.4999L15.8999 15.2643Z" fill="#03123D"/>
<path d="M12.2252 11.5L12.1926 11.6502L12.0385 11.5H12.2252Z" fill="#03123D"/>
<path d="M12.1926 11.6502L12.2252 11.5H12.0385L12.1926 11.6502Z" fill="#03123D"/>
<path d="M12.2252 11.5L12.1926 11.6502L12.0385 11.5H12.2252ZM7.49988 11.5H10.7047L9.63488 16.42C9.29488 17.91 8.33488 19.5 6.67488 19.5H3.50488C3.09488 19.5 2.75488 19.84 2.75488 20.25C2.75488 20.66 3.09488 21 3.50488 21H6.66488C8.75488 21 10.4949 19.33 11.0849 16.75L12.1926 11.6502L15.8999 15.2643L20.9999 10H14.9999H12.551L13.1049 7.45C13.4849 5.77 14.9149 4.5 16.4549 4.5H19.4949C19.9049 4.5 20.2449 4.16 20.2449 3.75C20.2449 3.34 19.9049 3 19.4949 3H16.4649C14.2449 3 12.1749 4.77 11.6549 7.13L11.0308 10H10.4999H7.49988V11.5Z" fill="#03123D"/>
</svg>
