<svg width="48" height="48" viewBox="0 0 48 48" fill="none" xmlns="http://www.w3.org/2000/svg">
<path d="M36 10.5C36 12.9853 33.9853 15 31.5 15C29.0147 15 27 12.9853 27 10.5C27 8.01472 29.0147 6 31.5 6C33.9853 6 36 8.01472 36 10.5Z" fill="#03123D"/>
<path d="M24.5625 13.8291C25.1593 13.3516 26.0201 13.399 26.5605 13.9395L31.96 19.3389L37.1357 18.0449C37.9393 17.844 38.754 18.3323 38.9551 19.1357C39.156 19.9393 38.6677 20.754 37.8643 20.9551L31.8643 22.4551C31.3531 22.5829 30.812 22.4331 30.4395 22.0605L25.3887 17.0098L20.4004 21L26.4375 25.8291C26.884 26.1866 27.0879 26.7668 26.9639 27.3252L23.9639 40.8252C23.7842 41.6339 22.9835 42.1435 22.1748 41.9639C21.3661 41.7842 20.8565 40.9835 21.0361 40.1748L23.833 27.5869L17.0625 22.1709C16.707 21.8862 16.5 21.4555 16.5 21C16.5 20.5445 16.707 20.1138 17.0625 19.8291L24.5625 13.8291Z" fill="#03123D"/>
<path d="M6 16.2857L21 6L14.1818 13.7143H19.6364L7.36364 24L12.8182 16.2857H6Z" fill="#03123D"/>
<path d="M42 33C42 29.6855 39.3137 27 36 27C32.6863 27 30 29.6855 30 33C30 36.3145 32.6863 39 36 39C39.3137 39 42 36.3145 42 33ZM45 33C45 37.9707 40.9706 42 36 42C31.0294 42 27 37.9707 27 33C27 28.0293 31.0294 24 36 24C40.9706 24 45 28.0293 45 33Z" fill="#03123D"/>
<path d="M18 33C18 29.6855 15.3137 27 12 27C8.68628 27 6 29.6855 6 33C6 36.3145 8.68628 39 12 39C15.3137 39 18 36.3145 18 33ZM21 33C21 37.9707 16.9706 42 12 42C7.02942 42 3 37.9707 3 33C3 28.0293 7.02942 24 12 24C16.9706 24 21 28.0293 21 33Z" fill="#03123D"/>
</svg>
