<svg width="16" height="16" viewBox="0 0 16 16" fill="none" xmlns="http://www.w3.org/2000/svg">
<path d="M13 14V15H3V14H13ZM13 2H3V15L2.89746 14.9951C2.42703 14.9472 2.05278 14.573 2.00488 14.1025L2 14V2C2 1.44772 2.44772 1 3 1H13C13.5523 1 14 1.44772 14 2V14L13.9951 14.1025C13.9472 14.573 13.573 14.9472 13.1025 14.9951L13 15V2Z" fill="#03123D"/>
<path d="M4 3H12V7H4V3Z" fill="#03123D"/>
<path d="M4 8H6V10H4V8Z" fill="#03123D"/>
<path d="M7 8H9V10H7V8Z" fill="#03123D"/>
<path d="M10 8H12V10H10V8Z" fill="#03123D"/>
<path d="M4 11H6V13H4V11Z" fill="#03123D"/>
<path d="M7 11H9V13H7V11Z" fill="#03123D"/>
<path d="M10 11H12V13H10V11Z" fill="#03123D"/>
</svg>
