<svg width="24" height="24" viewBox="0 0 24 24" fill="none" xmlns="http://www.w3.org/2000/svg">
<path d="M21 3V21H3V3H21ZM4.5 19.5H19.5V4.5H4.5V19.5Z" fill="#03123D"/>
<path d="M6 6H9V9H6V6Z" fill="#03123D"/>
<path d="M6 10.5H9V13.5H6V10.5Z" fill="#03123D"/>
<path d="M6 15H9V18H6V15Z" fill="#03123D"/>
<path d="M15 6H18V9H15V6Z" fill="#03123D"/>
<path d="M10.5 6H13.5V9H10.5V6Z" fill="#03123D"/>
<path d="M15 10.5H18V13.5H15V10.5Z" fill="#03123D"/>
<path d="M10.5 10.5H13.5V13.5H10.5V10.5Z" fill="#03123D"/>
<path d="M10.5 15H13.5V18H10.5V15Z" fill="#03123D"/>
</svg>
