<svg width="64" height="64" viewBox="0 0 64 64" fill="none" xmlns="http://www.w3.org/2000/svg">
<path d="M32 44C39.3771 44 45.6717 41.8942 50.1016 39.8096C52.321 38.7651 54.0882 37.7187 55.3076 36.9277C55.9176 36.532 56.3925 36.1989 56.7197 35.9609C56.8832 35.842 57.0099 35.7465 57.0986 35.6787C57.1429 35.6449 57.178 35.6183 57.2031 35.5986C57.2156 35.5889 57.2257 35.5803 57.2334 35.5742C57.2372 35.5712 57.2406 35.5685 57.2432 35.5664L57.2471 35.5635L57.248 35.5625L54.752 32.4375C54.7499 32.4391 54.745 32.442 54.7383 32.4473C54.7247 32.4579 54.7022 32.4763 54.6699 32.501C54.6054 32.5503 54.5033 32.6269 54.3662 32.7266C54.092 32.926 53.6756 33.2183 53.1299 33.5723C52.0369 34.2812 50.4288 35.235 48.3984 36.1904C44.3283 38.1058 38.6229 40 32 40C25.3771 40 19.6717 38.1058 15.6016 36.1904C13.5712 35.235 11.9631 34.2812 10.8701 33.5723C10.3244 33.2183 9.90804 32.926 9.63379 32.7266C9.49671 32.6269 9.3946 32.5503 9.33008 32.501C9.29785 32.4763 9.27525 32.4579 9.26172 32.4473C9.25499 32.442 9.25006 32.4391 9.24805 32.4375L6.75195 35.5625L6.75293 35.5635L6.75684 35.5664C6.75945 35.5685 6.76278 35.5712 6.7666 35.5742C6.77428 35.5803 6.78438 35.5889 6.79688 35.5986C6.82201 35.6183 6.85713 35.6449 6.90137 35.6787C6.99009 35.7465 7.11679 35.842 7.28027 35.9609C7.60751 36.1989 8.08237 36.532 8.69238 36.9277C9.91184 37.7187 11.679 38.7651 13.8984 39.8096C18.3283 41.8942 24.6229 44 32 44Z" fill="#03123D"/>
<path d="M41.9998 30C41.9998 35.5228 37.5228 40 32 40C26.4772 40 21.9998 35.5228 21.9998 30C21.9998 24.4772 26.4769 20 31.9998 20C37.5226 20 41.9998 24.4772 41.9998 30Z" fill="#03123D"/>
</svg>
