<svg width="48" height="48" viewBox="0 0 48 48" fill="none" xmlns="http://www.w3.org/2000/svg">
<path d="M23.9772 29.9998L24 30C23.9975 30 24.0025 30 24 30L23.9772 29.9998C23.6048 29.9926 23.2421 29.85 22.95 29.5724C23.2142 29.831 23.5723 29.9941 23.9772 29.9998ZM22.8767 29.498C22.8398 29.4581 22.8057 29.4168 22.7743 29.3744C22.8053 29.4183 22.8401 29.459 22.8767 29.498Z" fill="#03123D"/>
<path d="M23.9772 29.9998L24 30C24.0049 30 24.0098 30 24.0147 30C24.0123 30 24.0024 30 24 30L23.9772 29.9998C23.6595 29.9936 23.351 29.889 23.0836 29.6861C23.3489 29.8874 23.6621 29.9921 23.9772 29.9998Z" fill="#03123D"/>
<path d="M24 30L23.9772 29.9998C23.6048 29.9926 23.2421 29.85 22.95 29.5724C22.8842 29.5099 22.8256 29.4437 22.7743 29.3744C23.0399 29.7497 23.4754 29.9927 23.9772 29.9998C23.9807 29.9998 23.9843 29.9999 23.9878 29.9999C23.9919 30 23.996 30.0001 24 30C23.9992 30 24.0008 30 24 30Z" fill="#03123D"/>
<path fill-rule="evenodd" clip-rule="evenodd" d="M9.0003 33H42.0003V42H6C6 41.2686 6.00007 40.9312 6.00014 40.5853C6.00022 40.2218 6.0003 39.849 6.0003 39V33.0002C6.71619 33.0001 7.05467 33.0001 7.39315 33C7.76375 33 8.13435 33 9.0003 33ZM18 36H10.5C9.66 36 9 36.66 9 37.5C9 38.34 9.66 39 10.5 39H18C18.84 39 19.5 38.34 19.5 37.5C19.5 36.66 18.84 36 18 36Z" fill="#03123D"/>
<path d="M25.5 7.5V25.1259L32.55 18.4276C33.15 17.8575 34.08 17.8575 34.68 18.4276C35.28 18.9976 35.28 19.8812 34.68 20.4513L25.08 29.5724C24.778 29.8594 24.385 30.0019 24 30L23.9772 29.9998C23.6048 29.9926 23.2421 29.85 22.95 29.5724C22.8842 29.5099 22.8256 29.4437 22.7743 29.3744C23.0399 29.7497 23.4754 29.9927 23.9772 29.9998C23.5873 30.0055 23.1957 29.863 22.8898 29.5724L13.2898 20.4513C12.6898 19.8812 12.6898 18.9976 13.2898 18.4276C13.8898 17.8575 14.8198 17.8575 15.4198 18.4276L22.5 25.1545V7.5C22.5 6.66 23.16 6 24 6C24.84 6 25.5 6.66 25.5 7.5Z" fill="#03123D"/>
</svg>
