<svg width="24" height="24" viewBox="0 0 24 24" fill="none" xmlns="http://www.w3.org/2000/svg">
<path fill-rule="evenodd" clip-rule="evenodd" d="M19.1479 19.6914C17.2736 21.4341 14.7613 22.5 12 22.5C14.6564 22.5 17.2091 21.4934 19.1479 19.6914Z" fill="#03123D"/>
<path fill-rule="evenodd" clip-rule="evenodd" d="M19.2059 19.6371C19.2797 19.5675 19.3527 19.4966 19.4247 19.4246L19.4375 19.4117C19.3615 19.488 19.2842 19.5632 19.2059 19.6371Z" fill="#03123D"/>
<path d="M12.0001 10.5L8.99762 6L14.9976 6L12.0001 10.5Z" fill="#03123D"/>
<path fill-rule="evenodd" clip-rule="evenodd" d="M21 12C21 7.02944 16.9706 3 12 3C7.02944 3 3 7.02944 3 12C3 12.6346 3.06568 13.2538 3.1906 13.8513C4.83225 12.5181 7.98091 10.5 12.0001 10.5C16.0191 10.5 19.1677 12.518 20.8094 13.8512C20.9343 13.2538 21 12.6346 21 12ZM12.0001 10.5L14.9976 6L8.99762 6L12.0001 10.5ZM19.4375 19.4117C21.3301 17.5126 22.5 14.8929 22.5 12C22.5 6.20101 17.799 1.5 12 1.5C6.20101 1.5 1.5 6.20101 1.5 12C1.5 17.799 6.20101 22.5 12 22.5C14.6564 22.5 17.2091 21.4934 19.1479 19.6914C19.2462 19.6 19.3428 19.5068 19.4375 19.4117Z" fill="#03123D"/>
</svg>
