<svg width="24" height="24" viewBox="0 0 24 24" fill="none" xmlns="http://www.w3.org/2000/svg">
<path fill-rule="evenodd" clip-rule="evenodd" d="M11.999 6.75C10.7632 6.75 9.74902 7.76421 9.74902 9C9.74902 9.41421 9.41324 9.75 8.99902 9.75C8.58481 9.75 8.24902 9.41421 8.24902 9C8.24902 6.93579 9.93481 5.25 11.999 5.25C12.4132 5.25 12.749 5.58579 12.749 6C12.749 6.41421 12.4132 6.75 11.999 6.75Z" fill="#03123D"/>
<path fill-rule="evenodd" clip-rule="evenodd" d="M14.999 17.25C14.999 17.25 15.104 14.235 15.869 13.59C17.174 12.495 17.999 10.845 17.999 9C17.999 5.685 15.314 3 11.999 3C8.68402 3 5.99902 5.685 5.99902 9C5.99902 10.815 6.80902 12.435 8.08402 13.545C9.13402 14.46 8.99902 17.25 8.99902 17.25L9.74902 18L8.99902 18.75L9.74902 19.5L8.99902 20.25L9.74902 21H14.249L14.999 20.25L14.249 19.5L14.999 18.75L14.249 18L14.999 17.25ZM16.499 9C16.499 6.525 14.474 4.5 11.999 4.5C9.52402 4.5 7.49902 6.525 7.49902 9C7.49902 10.305 8.06902 11.55 9.05902 12.405C9.98902 13.215 10.334 14.625 10.454 15.765C11.339 15.78 12.449 15.78 13.364 15.78H13.604C13.754 14.445 14.129 13.08 14.894 12.435C15.914 11.58 16.499 10.335 16.499 9ZM11.999 6.75C10.7632 6.75 9.74902 7.76421 9.74902 9C9.74902 9.41421 9.41324 9.75 8.99902 9.75C8.58481 9.75 8.24902 9.41421 8.24902 9C8.24902 6.93579 9.93481 5.25 11.999 5.25C12.4132 5.25 12.749 5.58579 12.749 6C12.749 6.41421 12.4132 6.75 11.999 6.75Z" fill="#03123D"/>
</svg>
