<svg width="20" height="20" viewBox="0 0 20 20" fill="none" xmlns="http://www.w3.org/2000/svg">
<path d="M3 4H7.72727V6.36364H3V4Z" fill="#03123D"/>
<path d="M3 11.0918H7.72727V13.4554H3V11.0918Z" fill="#03123D"/>
<path d="M17.1836 7.5459H12.4563V9.90953H17.1836V7.5459Z" fill="#03123D"/>
<path d="M17.1836 14.6377H12.4563V17.0013H17.1836V14.6377Z" fill="#03123D"/>
<path d="M8.9098 4H13.6371V6.36364H8.9098V4Z" fill="#03123D"/>
<path d="M8.90983 11.0918H13.6371V13.4554H8.90983V11.0918Z" fill="#03123D"/>
<path d="M11.2738 7.5459H6.54649V9.90953H11.2738V7.5459Z" fill="#03123D"/>
<path d="M11.2738 14.6377H6.54649V17.0013H11.2738V14.6377Z" fill="#03123D"/>
<path d="M14.8197 4H17.1833V6.36364H14.8197V4Z" fill="#03123D"/>
<path d="M14.8197 11.0918H17.1833V13.4554H14.8197V11.0918Z" fill="#03123D"/>
<path d="M5.36393 7.5459H3.0003V9.90953H5.36393V7.5459Z" fill="#03123D"/>
<path d="M5.36393 14.6377H3.0003V17.0013H5.36393V14.6377Z" fill="#03123D"/>
</svg>
