<svg width="20" height="20" viewBox="0 0 20 20" fill="none" xmlns="http://www.w3.org/2000/svg">
<path d="M7.33817 9.05883C7.29778 9.10065 7.25709 9.14228 7.21614 9.18372C7.08568 8.94907 6.99285 8.70952 6.9254 8.47339C6.71884 7.75036 6.74172 7.07293 6.76407 6.5H9.1704C9.07836 6.72884 8.94775 6.98437 8.7751 7.26337C8.41772 7.8409 7.91819 8.45839 7.33817 9.05883Z" fill="#03123D"/>
<path d="M12.9996 9.22991L13.6318 11H12.3674L12.9996 9.22991Z" fill="#03123D"/>
<path fill-rule="evenodd" clip-rule="evenodd" d="M17.9996 10.0003C17.9996 14.419 14.4176 18.0011 9.99884 18.0011C5.58012 18.0011 1.99805 14.419 1.99805 10.0003C1.99805 5.58159 5.58012 1.99951 9.99884 1.99951C14.4176 1.99951 17.9996 5.58159 17.9996 10.0003ZM7.99963 3.62598C8.41385 3.62598 8.74963 3.96176 8.74963 4.37598V5H11.2496C11.6638 5 11.9996 5.33579 11.9996 5.75C11.9996 6.16421 11.6638 6.5 11.2496 6.5H10.7457C10.6143 7.02607 10.3589 7.55454 10.0506 8.05268C9.622 8.74537 9.04876 9.44701 8.41702 10.101C8.35922 10.1608 8.30076 10.2204 8.2417 10.2798C8.52798 10.4722 8.87074 10.6464 9.28175 10.7943C9.67148 10.9346 9.87368 11.3643 9.73337 11.754C9.59307 12.1438 9.1634 12.346 8.77367 12.2057C8.10743 11.9658 7.56163 11.6622 7.11618 11.316C6.1756 12.1103 5.18106 12.7826 4.31312 13.1819C3.93681 13.355 3.49143 13.1903 3.31833 12.8139C3.14522 12.4376 3.30996 11.9922 3.68626 11.8191C4.39277 11.4942 5.25205 10.9201 6.0914 10.218C5.80732 9.78992 5.61227 9.33759 5.4831 8.88543C5.22875 7.99513 5.23694 7.08812 5.25948 6.5H4.74963C4.33542 6.5 3.99963 6.16421 3.99963 5.75C3.99963 5.33579 4.33542 5 4.74963 5H7.24963V4.37598C7.24963 3.96176 7.58542 3.62598 7.99963 3.62598ZM12.9996 6.25C13.3166 6.25 13.5993 6.44925 13.7059 6.74775L16.2059 13.7477C16.3452 14.1378 16.1419 14.567 15.7518 14.7063C15.3618 14.8456 14.9326 14.6423 14.7933 14.2523L14.1675 12.5H11.9996C11.9441 12.5 11.89 12.494 11.8379 12.4825L11.2059 14.2523C11.0666 14.6423 10.6374 14.8456 10.2473 14.7063C9.85726 14.567 9.65397 14.1378 9.79329 13.7477L12.2933 6.74775C12.3999 6.44925 12.6826 6.25 12.9996 6.25Z" fill="#03123D"/>
</svg>
