<svg width="48" height="48" viewBox="0 0 48 48" fill="none" xmlns="http://www.w3.org/2000/svg">
<path d="M20 27C20.5523 27 21 27.4477 21 28V41C21 41.5523 20.5523 42 20 42H7C6.44772 42 6 41.5523 6 41V28C6 27.4477 6.44772 27 7 27H20ZM9 39H18V30H9V39Z" fill="#03123D"/>
<path d="M41 27C41.5523 27 42 27.4477 42 28V41C42 41.5523 41.5523 42 41 42H28C27.4477 42 27 41.5523 27 41V28C27 27.4477 27.4477 27 28 27H41ZM30 39H39V30H30V39Z" fill="#03123D"/>
<path d="M6 8.5C6 7.11929 7.11929 6 8.5 6H39.5C40.8807 6 42 7.11929 42 8.5V18.5C42 19.8807 40.8807 21 39.5 21H8.5C7.11929 21 6 19.8807 6 18.5V8.5Z" fill="#03123D"/>
</svg>
