<svg width="16" height="16" viewBox="0 0 16 16" fill="none" xmlns="http://www.w3.org/2000/svg">
<path d="M11.6465 12.3535L9.64648 10.3535L9.58203 10.2754C9.45387 10.0813 9.47562 9.81735 9.64648 9.64648C9.81735 9.47562 10.0813 9.45387 10.2754 9.58203L10.3535 9.64648L12.3535 11.6465L14 10V14H10L11.6465 12.3535Z" fill="#03123D"/>
<path d="M10 2H14V6L12.3535 4.35352L10.3535 6.35352L10.2754 6.41797C10.0813 6.54613 9.81735 6.52438 9.64648 6.35352C9.47562 6.18265 9.45387 5.91869 9.58203 5.72461L9.64648 5.64648L11.6465 3.64648L10 2Z" fill="#03123D"/>
<path d="M2 2H6L4.35352 3.64648L6.35352 5.64648L6.41797 5.72461C6.54613 5.91869 6.52438 6.18265 6.35352 6.35352C6.18265 6.52438 5.91869 6.54613 5.72461 6.41797L5.64648 6.35352L3.64648 4.35352L2 6V2Z" fill="#03123D"/>
<path d="M3.64648 11.6465L5.64648 9.64648L5.72461 9.58203C5.91869 9.45387 6.18265 9.47562 6.35352 9.64648C6.52438 9.81735 6.54613 10.0813 6.41797 10.2754L6.35352 10.3535L4.35352 12.3535L6 14H2V10L3.64648 11.6465Z" fill="#03123D"/>
</svg>
