<svg width="64" height="64" viewBox="0 0 64 64" fill="none" xmlns="http://www.w3.org/2000/svg">
<path d="M32 4.00001C16.536 4.00001 4 16.536 4 32C4 47.464 16.536 60 32 60C47.464 60 60 47.464 60 32C60 16.536 47.464 4.00001 32 4.00001ZM43.8128 11.1036C51.0895 15.226 56 23.0396 56 32C56 40.9605 51.0895 48.774 43.8128 52.8964C42.2905 40.2372 32 32 32 32C32 32 42.2905 23.7629 43.8128 11.1036ZM20.186 11.1043C21.7039 23.7632 32 32 32 32C32 32 21.7039 40.2369 20.186 52.8957C12.9099 48.7731 8 40.96 8 32C8 23.0401 12.9099 15.2269 20.186 11.1043Z" fill="#03123D"/>
</svg>
