<svg width="20" height="20" viewBox="0 0 20 20" fill="none" xmlns="http://www.w3.org/2000/svg">
<path d="M10.0023 9L7 4L13 4L10.0023 9Z" fill="#03123D"/>
<path fill-rule="evenodd" clip-rule="evenodd" d="M18 10C18 5.58172 14.4183 2 10 2C5.58172 2 2 5.58172 2 10C2 10.827 2.1255 11.6248 2.35849 12.3752C3.32307 11.4256 6.16478 9 10.0023 9C13.8399 9 16.6769 11.4255 17.6415 12.3752C17.8745 11.6248 18 10.827 18 10ZM10.0023 9L13 4L7 4L10.0023 9ZM10 19C14.9706 19 19 14.9706 19 10C19 5.02944 14.9706 1 10 1C5.02944 1 1 5.02944 1 10C1 14.9706 5.02944 19 10 19Z" fill="#03123D"/>
</svg>
