<svg width="24" height="24" viewBox="0 0 24 24" fill="none" xmlns="http://www.w3.org/2000/svg">
<path d="M1.5 12C1.5 6.20101 6.20101 1.5 12 1.5C17.799 1.5 22.5 6.20101 22.5 12C22.5 17.799 17.799 22.5 12 22.5C6.20101 22.5 1.5 17.799 1.5 12ZM3 12C3 15.36 4.84123 18.2899 7.56975 19.8359C8.13898 15.0888 12 12 12 12C12 12 15.8589 15.0889 16.4298 19.8362C19.1586 18.2903 21 15.3602 21 12C21 8.63983 19.1586 5.70975 16.4298 4.16384C15.8589 8.91107 12 12 12 12C12 12 8.13897 8.91118 7.56975 4.16411C4.84123 5.71008 3 8.64002 3 12Z" fill="#03123D"/>
</svg>
