<svg width="64" height="64" viewBox="0 0 64 64" fill="none" xmlns="http://www.w3.org/2000/svg">
<path d="M32 20C30.4987 20 29.5589 19.4919 28.9795 18.8545C28.3723 18.1865 28 17.1958 28 16V10C28 8.89543 27.1046 8 26 8C24.8954 8 24 8.89543 24 10V16C24 17.5725 24.3866 19.1482 25.226 20.494C23.4663 21.1446 21.9979 22.3963 21.0703 24H18C16.8954 24 16 23.1046 16 22V18C16 16.8954 15.1046 16 14 16C12.8954 16 12 16.8954 12 18V22C12 25.3137 14.6863 28 18 28H20V32H12C10.8954 32 10 32.8954 10 34C10 35.1046 10.8954 36 12 36H20V40H18C14.6863 40 12 42.6863 12 46V50C12 51.1046 12.8954 52 14 52C15.1046 52 16 51.1046 16 50V46C16 44.8954 16.8954 44 18 44H20C20 50.6274 25.3726 56 32 56C38.6274 56 44 50.6274 44 44H46C47.1046 44 48 44.8954 48 46V50C48 51.1046 48.8954 52 50 52C51.1046 52 52 51.1046 52 50V46C52 42.6863 49.3137 40 46 40H44V36H50C51.1046 36 52 35.1046 52 34C52 32.8954 51.1046 32 50 32H44V28H46C49.3137 28 52 25.3137 52 22V18C52 16.8954 51.1046 16 50 16C48.8954 16 48 16.8954 48 18V22C48 23.1046 47.1046 24 46 24H42.9297C42.0021 22.3963 40.5337 21.1446 38.774 20.494C39.6134 19.1482 40 17.5725 40 16V10C40 8.89543 39.1046 8 38 8C36.8954 8 36 8.89543 36 10V16C36 17.1958 35.6277 18.1865 35.0205 18.8545C34.4411 19.4919 33.5013 20 32 20Z" fill="#03123D"/>
</svg>
