<svg width="32" height="32" viewBox="0 0 32 32" fill="none" xmlns="http://www.w3.org/2000/svg">
<path fill-rule="evenodd" clip-rule="evenodd" d="M12.3888 24.7906L11.9849 26L13.032 25.2146C12.8082 25.0869 12.5934 24.9452 12.3888 24.7906ZM18.9395 25.2308L19.9849 26.02L19.583 24.8118C19.3782 24.9646 19.1633 25.1047 18.9395 25.2308Z" fill="#03123D"/>
<path d="M12.3888 24.7906L11.9849 26L13.032 25.2146C12.8082 25.0869 12.5934 24.9452 12.3888 24.7906ZM18.9395 25.2308L19.9849 26.02L19.583 24.8118C19.3782 24.9646 19.1633 25.1047 18.9395 25.2308Z" fill="#03123D"/>
<path fill-rule="evenodd" clip-rule="evenodd" d="M11.5938 13.323L6 4H14L16 7.33333L18 4H26L20.4062 13.323C22.5712 14.7551 24 17.2117 24 20C24 24.416 20.416 28 16 28C11.584 28 8 24.416 8 20C8 17.2117 9.42884 14.7551 11.5938 13.323ZM15.9849 14H16C18.6103 14 20.8336 15.6706 21.658 18H17.3149L15.9849 14ZM15.9849 14L14.6549 18H10.342C11.1648 15.6751 13.3811 14.0064 15.9849 14ZM18.8676 12H18.8L17.1662 9.27698L19.1324 6H22.4676L18.8676 12ZM11.9849 26L12.3888 24.7906C12.5934 24.9452 12.8082 25.0869 13.032 25.2146L11.9849 26ZM18.9395 25.2308C18.0706 25.7205 17.0677 26 16 26C14.9207 26 13.9075 25.7144 13.032 25.2146L15.9849 23L18.9395 25.2308ZM19.583 24.8118L19.9849 26.02L18.9395 25.2308C19.1633 25.1047 19.3782 24.9646 19.583 24.8118ZM19.583 24.8118L18.3349 21.06L21.7312 18.2204C21.9059 18.7828 22 19.3805 22 20C22 21.9688 21.0496 23.7175 19.583 24.8118ZM12.3888 24.7906C10.9382 23.695 10 21.9562 10 20C10 19.3803 10.0942 18.7824 10.269 18.2198L13.6449 21.03L12.3888 24.7906Z" fill="#03123D"/>
</svg>
