<svg width="16" height="16" viewBox="0 0 16 16" fill="none" xmlns="http://www.w3.org/2000/svg">
<path d="M9.6875 11C9.55734 11.5858 9.39299 12.1103 9.20215 12.5557C8.96246 13.1149 8.70231 13.5039 8.46484 13.7383C8.23184 13.9681 8.07602 14 8 14C7.92398 14 7.76816 13.9681 7.53516 13.7383C7.29769 13.5039 7.03754 13.1149 6.79785 12.5557C6.60701 12.1103 6.44266 11.5858 6.3125 11H9.6875ZM5.29199 11C5.51784 12.1091 5.8653 13.0572 6.29297 13.752C4.80841 13.312 3.56505 12.3139 2.80469 11H5.29199ZM13.1953 11C12.4346 12.3145 11.1904 13.3123 9.70508 13.752C10.1336 13.0571 10.484 12.1099 10.71 11H13.1953ZM13.6572 6C13.8784 6.62568 14 7.29857 14 8C14 8.70143 13.8784 9.37432 13.6572 10H10.8721C10.9389 9.47635 10.9838 8.92749 10.9961 8.36035L11 8C11 7.30499 10.9558 6.63374 10.875 6H13.6572ZM5.12793 6C5.06113 6.52365 5.01623 7.07252 5.00391 7.63965L5 8C5 8.695 5.04417 9.36625 5.125 10H2.34277C2.12157 9.37432 2 8.70143 2 8C2 7.29857 2.12157 6.62568 2.34277 6H5.12793ZM9.86621 6C9.95178 6.62358 10 7.29538 10 8C10 8.70462 9.95178 9.37642 9.86621 10H6.13379C6.04822 9.37642 6 8.70462 6 8C6 7.29538 6.04822 6.62358 6.13379 6H9.86621ZM9.70605 2.24707C11.1911 2.6868 12.4347 3.68572 13.1953 5H10.7109C10.4849 3.88981 10.135 2.94194 9.70605 2.24707ZM6.29297 2.24707C5.8648 2.94194 5.51695 3.89037 5.29102 5H2.80469C3.5651 3.68598 4.80829 2.68694 6.29297 2.24707ZM8 2C8.07602 2 8.23184 2.03186 8.46484 2.26172C8.70231 2.49608 8.96246 2.88507 9.20215 3.44434C9.39299 3.88966 9.55734 4.41423 9.6875 5H6.3125C6.44266 4.41423 6.60701 3.88966 6.79785 3.44434C7.03754 2.88507 7.29769 2.49608 7.53516 2.26172C7.76816 2.03186 7.92398 2 8 2Z" fill="#03123D"/>
</svg>
