<svg width="16" height="16" viewBox="0 0 16 16" fill="none" xmlns="http://www.w3.org/2000/svg">
<path d="M10.5 9C11.7095 9 12.7184 9.85938 12.95 11H13.5C13.7761 11 14 11.2246 14 11.5C14 11.7754 13.7761 12 13.5 12H12.95C12.7184 13.1406 11.7095 14 10.5 14C9.29047 14 8.28162 13.1406 8.04999 12H2.5C2.22388 12 2 11.7754 2 11.5C2 11.3652 2.05353 11.2422 2.1405 11.1523C2.23138 11.0586 2.35889 11 2.5 11H8.04999C8.28162 9.85938 9.29047 9 10.5 9Z" fill="#03123D"/>
<path d="M5.5 2C6.70953 2 7.71838 2.85938 7.95001 4H13.5C13.5861 4 13.6672 4.02148 13.738 4.06055C13.7883 4.08789 13.8335 4.12305 13.8716 4.16602C13.9514 4.25391 14 4.37109 14 4.5C14 4.77539 13.7761 5 13.5 5H7.95001C7.71838 6.14062 6.70953 7 5.5 7C4.29047 7 3.28162 6.14062 3.04999 5H2.5C2.35791 5 2.22968 4.94141 2.13867 4.8457C2.0528 4.75586 2 4.63281 2 4.5C2 4.22461 2.22388 4 2.5 4H3.04999C3.28162 2.85938 4.29047 2 5.5 2Z" fill="#03123D"/>
</svg>
