<svg width="24" height="24" viewBox="0 0 24 24" fill="none" xmlns="http://www.w3.org/2000/svg">
<path d="M12 5.37019C16.0011 2.03606 20.002 5.33948 20.002 9.37214C20.0016 14.659 12.049 20.0082 12 20.0411C11.9558 20.0116 3.99833 14.6936 3.99805 9.37214C3.99805 5.37112 8.66573 2.03608 12 5.37019ZM7.1377 7.38093C6.7866 7.16132 6.32323 7.26822 6.10352 7.61921C5.37978 8.77655 5.54768 10.0949 6.00879 11.2491C6.4719 12.408 7.28117 13.5428 8.08691 14.4884C8.35551 14.8034 8.8293 14.8417 9.14453 14.5733C9.45944 14.3047 9.49772 13.8309 9.22949 13.5157C8.46927 12.6236 7.77714 11.6328 7.40137 10.6925C7.02366 9.74703 7.01533 8.9907 7.37598 8.41413C7.59502 8.06319 7.48829 7.60058 7.1377 7.38093ZM7.99219 5.33406C7.57798 5.33406 7.24219 5.66984 7.24219 6.08406C7.24239 6.49809 7.57811 6.83405 7.99219 6.83406C8.40627 6.83406 8.74198 6.49809 8.74219 6.08406C8.74219 5.66984 8.4064 5.33406 7.99219 5.33406Z" fill="#03123D"/>
</svg>
