<svg width="16" height="16" viewBox="0 0 16 16" fill="none" xmlns="http://www.w3.org/2000/svg">
<path d="M14 2V14H2V2H14ZM3 13H13V3H3V13Z" fill="#03123D"/>
<path d="M4 4H6V6H4V4Z" fill="#03123D"/>
<path d="M4 7H6V9H4V7Z" fill="#03123D"/>
<path d="M4 10H6V12H4V10Z" fill="#03123D"/>
<path d="M10 4H12V6H10V4Z" fill="#03123D"/>
<path d="M7 4H9V6H7V4Z" fill="#03123D"/>
<path d="M10 7H12V9H10V7Z" fill="#03123D"/>
<path d="M7 7H9V9H7V7Z" fill="#03123D"/>
<path d="M7 10H9V12H7V10Z" fill="#03123D"/>
</svg>
