<svg width="32" height="32" viewBox="0 0 32 32" fill="none" xmlns="http://www.w3.org/2000/svg">
<path fill-rule="evenodd" clip-rule="evenodd" d="M16 30C23.732 30 30 23.732 30 16C30 8.26801 23.732 2 16 2C8.26801 2 2 8.26801 2 16C2 23.732 8.26801 30 16 30ZM18 26V14L14 14V26H18ZM13 9C13 7.35501 14.355 6 16 6C17.645 6 19 7.35501 19 9C19 10.645 17.645 12 16 12C14.355 12 13 10.645 13 9ZM17 9C17 9.54042 16.5404 10 16 10C15.4596 10 15 9.54042 15 9C15 8.45958 15.4596 8 16 8C16.5404 8 17 8.45958 17 9Z" fill="#03123D"/>
</svg>
