<svg width="20" height="20" viewBox="0 0 20 20" fill="none" xmlns="http://www.w3.org/2000/svg">
<path d="M10.5723 2.50962C10.217 2.30962 9.78303 2.30962 9.42771 2.50963L3.59438 5.79325C3.2272 5.99994 3 6.38856 3 6.80992V13.315C3 13.7364 3.2272 14.125 3.59438 14.3317L9.42771 17.6153C9.78303 17.8153 10.217 17.8153 10.5723 17.6153L16.4056 14.3317C16.7728 14.125 17 13.7364 17 13.315V6.80992C17 6.38856 16.7728 5.99994 16.4056 5.79325L10.5723 2.50962ZM10.5863 9.05169V3.83215L15.2412 6.44763L10.5863 9.05169ZM9.41374 9.05169L4.77052 6.44763L9.41374 3.83215V9.05169ZM4.17253 7.42987L9.41374 10.3766V16.2928L4.17253 13.3461V7.42987Z" fill="#03123D"/>
</svg>
