<svg width="48" height="48" viewBox="0 0 48 48" fill="none" xmlns="http://www.w3.org/2000/svg">
<path fill-rule="evenodd" clip-rule="evenodd" d="M38.5607 9.43934C39.1464 10.0251 39.1464 10.9749 38.5607 11.5607L11.5607 38.5607C10.9749 39.1464 10.0251 39.1464 9.43934 38.5607C8.85355 37.9749 8.85355 37.0251 9.43934 36.4393L36.4393 9.43934C37.0251 8.85355 37.9749 8.85355 38.5607 9.43934Z" fill="#03123D"/>
<path fill-rule="evenodd" clip-rule="evenodd" d="M9.43934 9.43934C10.0251 8.85355 10.9749 8.85355 11.5607 9.43934L38.5607 36.4393C39.1464 37.0251 39.1464 37.9749 38.5607 38.5607C37.9749 39.1464 37.0251 39.1464 36.4393 38.5607L9.43934 11.5607C8.85355 10.9749 8.85355 10.0251 9.43934 9.43934Z" fill="#03123D"/>
</svg>
