<svg width="20" height="20" viewBox="0 0 20 20" fill="none" xmlns="http://www.w3.org/2000/svg">
<path fill-rule="evenodd" clip-rule="evenodd" d="M16.6592 10.1232C16.6714 10.1153 16.6817 10.1085 16.6902 10.103Z" fill="#03123D"/>
<path d="M7 9.01367C7 10.5463 8.14926 11.8105 9.633 11.9914C7.82883 11.9365 6.27844 11.4858 5.15625 11.0332C4.55852 10.7921 4.08455 10.552 3.7627 10.373C3.60186 10.2836 3.47861 10.2097 3.39746 10.1592C3.35823 10.1347 3.32887 10.1155 3.30951 10.1028L3.28711 10.0879L2.71777 10.9092L2.75977 10.9375C2.78516 10.9541 2.82198 10.9774 2.86914 11.0068C2.96338 11.0656 3.10016 11.1481 3.27637 11.2461C3.62892 11.4421 4.13978 11.7021 4.78125 11.9609C6.06281 12.4778 7.87777 12.997 10 12.997C12.1222 12.997 13.9372 12.4778 15.2188 11.9609C15.8602 11.7021 16.3711 11.4421 16.7236 11.2461C16.8998 11.1481 17.0366 11.0656 17.1309 11.0068C17.178 10.9774 17.2148 10.9541 17.2402 10.9375L17.2812 10.9101L16.7178 10.0849L16.6902 10.103C16.6708 10.1157 16.6417 10.1348 16.6025 10.1592C16.5214 10.2097 16.3981 10.2836 16.2373 10.373C15.9154 10.552 15.4415 10.7921 14.8438 11.0332C13.7216 11.4858 12.1712 11.9365 10.367 11.9914C11.8507 11.8105 13 10.5463 13 9.01367C13 7.35682 11.6569 6.01367 10 6.01367C8.34315 6.01367 7 7.35682 7 9.01367Z" fill="#03123D"/>
</svg>
