<svg width="24" height="24" viewBox="0 0 24 24" fill="none" xmlns="http://www.w3.org/2000/svg">
<path d="M12.5146 2.0127C17.7934 2.28089 22.001 6.65641 22.001 12.001L21.9883 12.5146C21.7201 17.7932 17.3454 22.0008 12.001 22.001L11.4863 21.9883C6.37793 21.7287 2.27224 17.6231 2.0127 12.5146L2 12.001C2 6.484 6.484 2 12.001 2L12.5146 2.0127ZM12.001 3.5C7.31243 3.5 3.5 7.31243 3.5 12.001C3.50023 16.6893 7.31257 20.501 12.001 20.501C16.6892 20.5007 20.5007 16.6892 20.501 12.001C20.501 7.31257 16.6893 3.50023 12.001 3.5Z" fill="#03123D"/>
<path d="M16.6562 12.1648L9.36816 17.6306L8.46777 16.4304L14.1553 12.1638L8.46777 7.89819L9.36816 6.69897L16.6562 12.1648Z" fill="#03123D"/>
</svg>
