<svg width="24" height="24" viewBox="0 0 24 24" fill="none" xmlns="http://www.w3.org/2000/svg">
<path fill-rule="evenodd" clip-rule="evenodd" d="M8.875 6C9.29014 6 9.69507 6.04025 10.0861 6.1169C6.638 9.00077 6.63796 14.9992 10.086 17.8831C9.69499 17.9598 9.2901 18 8.875 18C6.83272 17.9999 5.40703 17.2367 4.47364 16.1689C3.51446 15.0716 3 13.5621 3 12C3 10.4379 3.51446 8.92838 4.47364 7.83105C5.40703 6.76331 6.83272 6.00005 8.875 6ZM11.8093 5.07547C10.906 4.70474 9.91483 4.5 8.875 4.5C-0.804896 4.50022 -0.955942 19.0354 8.42188 19.4893L8.875 19.5C9.91477 19.5 10.906 19.2953 11.8091 18.9246C12.5773 19.2432 13.4483 19.4421 14.4219 19.4893L14.875 19.5C18.9545 19.5 22.2861 16.3486 22.4902 12.3857L22.5 12C22.5 7.85786 19.0861 4.5 14.875 4.5C13.7166 4.50003 12.6947 4.7082 11.8093 5.07547ZM16.5 12C16.5 9.61107 15.3644 7.48301 13.5953 6.10953C13.9919 6.03824 14.418 6.00001 14.875 6C18.2811 6 21 8.70953 21 12C21 15.2905 18.2811 18 14.875 18C14.418 18 13.992 17.9618 13.5953 17.8905C15.2687 16.5914 16.3753 14.6172 16.4902 12.3857L16.5 12Z" fill="#03123D"/>
</svg>
