<svg width="64" height="64" viewBox="0 0 64 64" fill="none" xmlns="http://www.w3.org/2000/svg">
<path fill-rule="evenodd" clip-rule="evenodd" d="M60.0137 32C60.0137 47.4764 47.4676 60.0225 31.9912 60.0225C16.5148 60.0225 3.96875 47.4764 3.96875 32C3.96875 16.5236 16.5148 3.97754 31.9912 3.97754C47.4676 3.97754 60.0137 16.5236 60.0137 32ZM26.0078 12.0034C27.1127 12.0034 28.0083 12.8991 28.0083 14.0039V16.0044H36.0127C37.1175 16.0044 38.0132 16.9 38.0132 18.0049C38.0132 19.1097 37.1175 20.0054 36.0127 20.0054H33.35C33.0176 21.8541 32.1395 23.7547 31.0233 25.5585C29.6706 27.7445 27.8559 29.9673 25.8481 32.0458C25.7894 32.1065 25.7306 32.1672 25.6715 32.2278C26.8259 33.2632 28.3519 34.1895 30.3753 34.918C31.4148 35.2922 31.9542 36.4383 31.5799 37.4778C31.2057 38.5173 30.0596 39.0567 29.0201 38.6824C26.3657 37.7268 24.3261 36.4522 22.7684 34.9944C19.4798 37.9124 15.899 40.4103 12.836 41.8192C11.8323 42.281 10.6443 41.8416 10.1826 40.8378C9.72085 39.8341 10.1602 38.6461 11.164 38.1844C13.8346 36.9559 17.1537 34.6472 20.2561 31.8744C19.5716 30.7209 19.0813 29.5216 18.7391 28.3238C17.8469 25.2007 17.9853 22.0304 18.0651 20.2035L18.0737 20.0054H16.0078C14.903 20.0054 14.0073 19.1097 14.0073 18.0049C14.0073 16.9 14.903 16.0044 16.0078 16.0044H24.0073V14.0039C24.0073 12.8991 24.903 12.0034 26.0078 12.0034ZM23.243 28.9816C24.9975 27.1351 26.5153 25.2401 27.621 23.4532C28.4226 22.1578 28.959 20.997 29.2451 20.0054H22.0832C22.0762 20.2189 22.0675 20.4394 22.0586 20.6661L22.0586 20.6663C21.9854 22.5237 21.8955 24.8071 22.5862 27.2248C22.7529 27.8086 22.9666 28.3979 23.243 28.9816ZM42.0079 21.9995C42.8533 21.9995 43.6075 22.531 43.8918 23.3272L51.8918 45.7272C52.2634 46.7676 51.7212 47.9123 50.6807 48.2839C49.6402 48.6555 48.4955 48.1133 48.1239 47.0728L45.6016 40.0103H38.4142L35.8918 47.0728C35.5202 48.1133 34.3755 48.6555 33.335 48.2839C32.2946 47.9123 31.7523 46.7676 32.1239 45.7272L40.1239 23.3272C40.4083 22.531 41.1624 21.9995 42.0079 21.9995ZM42.0079 29.9479L44.1727 36.0093H39.8431L42.0079 29.9479Z" fill="#03123D"/>
</svg>
