<svg width="48" height="48" viewBox="0 0 48 48" fill="none" xmlns="http://www.w3.org/2000/svg">
<path d="M33 7.5C33 6.67157 32.3284 6 31.5 6C30.6716 6 30 6.67157 30 7.5V12H18V7.5C18 6.67157 17.3284 6 16.5 6C15.6716 6 15 6.67157 15 7.5V12H9C7.34315 12 6 13.3431 6 15V24V30.6577V39C6 40.6569 7.34315 42 9 42H39C40.6569 42 42 40.6569 42 39V30.6577V24V15C42 13.3431 40.6569 12 39 12H33V7.5ZM9 15H15V19.5C15 20.3284 15.6716 21 16.5 21C17.3284 21 18 20.3284 18 19.5V15H30V19.5C30 20.3284 30.6716 21 31.5 21C32.3284 21 33 20.3284 33 19.5V15H39V24H9V15Z" fill="#03123D"/>
</svg>
