<svg width="16" height="16" viewBox="0 0 16 16" fill="none" xmlns="http://www.w3.org/2000/svg">
<path d="M14 2H2V5H14V2Z" fill="#03123D"/>
<path d="M12.5 7.5C12.7761 7.5 13 7.72386 13 8C13 8.27614 12.7761 8.5 12.5 8.5H3.5C3.22386 8.5 3 8.27614 3 8C3 7.72386 3.22386 7.5 3.5 7.5H12.5ZM14 7.5C14 6.94772 13.5523 6.5 13 6.5H3C2.44772 6.5 2 6.94772 2 7.5V8.5C2 9.05228 2.44772 9.5 3 9.5H13C13.5523 9.5 14 9.05228 14 8.5V7.5Z" fill="#03123D"/>
<path d="M12.5 12C12.7761 12 13 12.2239 13 12.5C13 12.7761 12.7761 13 12.5 13H3.5C3.22386 13 3 12.7761 3 12.5C3 12.2239 3.22386 12 3.5 12H12.5ZM14 12C14 11.4477 13.5523 11 13 11H3C2.44772 11 2 11.4477 2 12V13C2 13.5523 2.44772 14 3 14H13C13.5523 14 14 13.5523 14 13V12Z" fill="#03123D"/>
</svg>
