<svg width="32" height="32" viewBox="0 0 32 32" fill="none" xmlns="http://www.w3.org/2000/svg">
<path d="M28 4H4V10H28V4Z" fill="#03123D"/>
<path d="M25 15C25.5523 15 26 15.4477 26 16C26 16.5523 25.5523 17 25 17H7C6.44772 17 6 16.5523 6 16C6 15.4477 6.44772 15 7 15H25ZM28 15C28 13.8954 27.1046 13 26 13H6C4.89543 13 4 13.8954 4 15V17C4 18.1046 4.89543 19 6 19H26C27.1046 19 28 18.1046 28 17V15Z" fill="#03123D"/>
<path d="M25 24C25.5523 24 26 24.4477 26 25C26 25.5523 25.5523 26 25 26H7C6.44772 26 6 25.5523 6 25C6 24.4477 6.44772 24 7 24H25ZM28 24C28 22.8954 27.1046 22 26 22H6C4.89543 22 4 22.8954 4 24V26C4 27.1046 4.89543 28 6 28H26C27.1046 28 28 27.1046 28 26V24Z" fill="#03123D"/>
</svg>
