<svg width="16" height="16" viewBox="0 0 16 16" fill="none" xmlns="http://www.w3.org/2000/svg">
<path d="M10.7324 6C10.5006 5.59921 10.1337 5.28633 9.69388 5.12365C9.90355 4.78713 10 4.39303 10 4V2.5C10 2.22386 9.77614 2 9.5 2C9.22386 2 9 2.22386 9 2.5V4C9 4.299 8.90671 4.54686 8.75488 4.71387C8.61001 4.87313 8.37518 5 8 5C7.62482 5 7.38999 4.87313 7.24512 4.71387C7.09329 4.54686 7 4.299 7 4V2.5C7 2.22386 6.77614 2 6.5 2C6.22386 2 6 2.22386 6 2.5V4C6 4.39303 6.09645 4.78713 6.30612 5.12365C5.86635 5.28633 5.49941 5.59921 5.26756 6H4.5C4.22386 6 4 5.77614 4 5.5V4.5C4 4.22386 3.77614 4 3.5 4C3.22386 4 3 4.22386 3 4.5V5.5C3 6.32843 3.67157 7 4.5 7H5V8H3C2.72386 8 2.5 8.22386 2.5 8.5C2.5 8.77614 2.72386 9 3 9H5V10H4.5C3.67157 10 3 10.6716 3 11.5V12.5C3 12.7761 3.22386 13 3.5 13C3.77614 13 4 12.7761 4 12.5V11.5C4 11.2239 4.22386 11 4.5 11H5C5 12.6569 6.34315 14 8 14C9.65685 14 11 12.6569 11 11H11.5C11.7761 11 12 11.2239 12 11.5V12.5C12 12.7761 12.2239 13 12.5 13C12.7761 13 13 12.7761 13 12.5V11.5C13 10.6716 12.3284 10 11.5 10H11V9H12.5C12.7761 9 13 8.77614 13 8.5C13 8.22386 12.7761 8 12.5 8H11V7H11.5C12.3284 7 13 6.32843 13 5.5V4.5C13 4.22386 12.7761 4 12.5 4C12.2239 4 12 4.22386 12 4.5V5.5C12 5.77614 11.7761 6 11.5 6H10.7324Z" fill="#03123D"/>
</svg>
