<svg width="64" height="64" viewBox="0 0 64 64" fill="none" xmlns="http://www.w3.org/2000/svg">
<path fill-rule="evenodd" clip-rule="evenodd" d="M48 28C48 31.3382 47.1808 34.4862 45.7326 37.2539C45.7851 37.3026 45.837 37.3524 45.8882 37.4033L57.3922 48.564C57.7766 48.937 57.9954 49.4487 57.9995 49.9844C58.0035 50.52 57.7925 51.0349 57.4137 51.4137C56.8293 51.9982 56.4087 52.4553 55.9738 52.9281C55.0554 53.9265 54.0729 54.9945 51.3471 57.4783C50.5573 58.198 49.3413 58.1697 48.5858 57.4142C46.7475 55.5759 43.9431 52.6854 41.6071 50.2637C40.4372 49.0508 39.3815 47.9523 38.6183 47.1569C38.2367 46.7592 37.9282 46.4373 37.715 46.2147L37.3975 45.8831C37.3484 45.8336 37.3004 45.7835 37.2534 45.7328C34.4859 47.1809 31.338 48 28 48C16.96 48 8 39.04 8 28C8 16.96 16.96 8 28 8C39.04 8 48 16.96 48 28ZM41.5045 44.3875C41.1483 44.0162 40.8559 43.7112 40.6457 43.4917C41.6858 42.6416 42.6387 41.6888 43.4891 40.6489L53.18 50.0507C53.0885 50.1502 52.9997 50.2472 52.9114 50.3436C52.2374 51.0798 51.5988 51.7773 50.0614 53.221C48.3756 51.5088 46.2976 49.3647 44.486 47.4866C43.3191 46.277 42.266 45.181 41.5045 44.3875ZM16 28C16 34.64 21.36 40 28 40C34.64 40 40 34.64 40 28C40 21.36 34.64 16 28 16C21.36 16 16 21.36 16 28Z" fill="#03123D"/>
</svg>
