<svg width="48" height="48" viewBox="0 0 48 48" fill="none" xmlns="http://www.w3.org/2000/svg">
<path d="M17.9999 41.9999L13.0604 37.0605L7.06043 43.0605C6.47467 43.6462 5.52513 43.6462 4.93934 43.0605C4.35355 42.4747 4.35355 41.5252 4.93934 40.9394L10.9393 34.9394L5.99989 29.9999H17.9999V41.9999ZM37.0604 34.9394L43.0605 40.9394C43.6461 41.5251 43.6461 42.4747 43.0605 43.0605C42.4747 43.6462 41.5252 43.6462 40.9394 43.0605L34.9394 37.0605L29.9999 41.9999V29.9999H41.9999L37.0604 34.9394ZM4.93934 4.93934C5.52513 4.35355 6.47465 4.35355 7.06043 4.93934L13.0604 10.9393L17.9999 5.99989V17.9999H5.99989L10.9393 13.0604L4.93934 7.06044C4.35357 6.47466 4.3536 5.52513 4.93934 4.93934ZM40.9394 4.93934C41.5251 4.35355 42.4747 4.35355 43.0605 4.93934C43.646 5.52514 43.6462 6.47471 43.0605 7.06044L37.0604 13.0604L41.9999 17.9999H29.9999V5.99989L34.9394 10.9393L40.9394 4.93934Z" fill="#03123D"/>
</svg>
