<svg width="32" height="32" viewBox="0 0 32 32" fill="none" xmlns="http://www.w3.org/2000/svg">
<path fill-rule="evenodd" clip-rule="evenodd" d="M20 11L17 18.0259L20.8112 25.1518L19 26.0002L13 18.0012L18.2082 10.1115L20 11Z" fill="#03123D"/>
<path d="M10 7.00018L16.0003 12L15.9969 8.00697C21.5048 7.98973 25.9931 12.4312 26.0293 17.9434C26.0656 23.4672 21.617 27.9747 16.0931 28.0109C10.5692 28.0472 6.06182 23.5986 6.02554 18.0747C6.01032 15.7574 7.15243 13.2096 8.97437 11.1786C9.34316 10.7675 9.30885 10.1352 8.89774 9.76645C8.48663 9.39766 7.85439 9.43197 7.4856 9.84308C5.4259 12.1391 4.00628 15.1477 4.02559 18.0879C4.06911 24.7163 9.47782 30.0544 16.1063 30.0109C22.7347 29.9674 28.0728 24.5587 28.0293 17.9302C27.9859 11.3173 22.6024 5.98865 15.9952 6.00696L15.9917 1.99609L10 7.00018Z" fill="#03123D"/>
</svg>
