<svg width="24" height="24" viewBox="0 0 24 24" fill="none" xmlns="http://www.w3.org/2000/svg">
<path d="M9.03 12.7581C8.61 12.7581 8.28 12.4279 8.28 12.0075C8.28 11.5872 8.61 11.2569 9.03 11.2569H11.34V4.6814C11.34 3.54045 10.335 3 9.54 3C5.895 3.04504 3 8.98999 3 13.6138C3 17.9975 6.03 21.03 9.675 20.985C10.365 20.985 11.325 20.5947 11.325 19.6639V12.7431H9.015L9.03 12.7581Z" fill="#03123D"/>
<path d="M14.9741 12.7581C15.3941 12.7581 15.7241 12.4279 15.7241 12.0075C15.7241 11.5872 15.3941 11.2569 14.9741 11.2569H12.6641V4.6814C12.6641 3.54045 13.6691 3 14.4641 3C18.1091 3.04504 21.0041 8.95997 21.0041 13.6138C21.0041 17.9675 17.9741 21.03 14.3291 20.985C13.6391 20.985 12.6791 20.5947 12.6791 19.6639V12.7431H14.9891L14.9741 12.7581Z" fill="#03123D"/>
</svg>
