<svg width="16" height="16" viewBox="0 0 16 16" fill="none" xmlns="http://www.w3.org/2000/svg">
<path d="M8 3.02741C10.9998 0.5276 13.9998 3.00394 14 6.02743C14 9.9917 8.03618 14.0032 8 14.0275C7.9643 14.0036 2 10.0166 2 6.02743C2.0003 3.02767 5.50012 0.527648 8 3.02741ZM4.53711 4.61824C4.30181 4.47422 3.99393 4.54818 3.84961 4.78328C3.33705 5.61981 3.45249 6.57604 3.78516 7.42587C4.1193 8.27924 4.70491 9.11844 5.29102 9.82042C5.468 10.0321 5.78421 10.0607 5.99609 9.88389C6.20769 9.70692 6.23527 9.39165 6.05859 9.17979C5.50275 8.51407 4.99348 7.77067 4.71582 7.06161C4.43684 6.34894 4.42423 5.76072 4.70215 5.30672C4.84641 5.07134 4.77239 4.76259 4.53711 4.61824ZM5.5 3.00006C5.2239 3.00006 5.00007 3.22398 5 3.50007C5 3.77621 5.22386 4.00007 5.5 4.00007C5.77612 4.00004 6 3.77619 6 3.50007C5.99993 3.224 5.77607 3.0001 5.5 3.00006Z" fill="#03123D"/>
</svg>
