<svg width="24" height="24" viewBox="0 0 24 24" fill="none" xmlns="http://www.w3.org/2000/svg">
<path d="M3 4.5H9V7.5H3V4.5Z" fill="#03123D"/>
<path d="M3 13.5H9V16.5H3V13.5Z" fill="#03123D"/>
<path d="M21 9H15V12H21V9Z" fill="#03123D"/>
<path d="M21 18H15V21H21V18Z" fill="#03123D"/>
<path d="M10.5 4.5H16.5V7.5H10.5V4.5Z" fill="#03123D"/>
<path d="M10.5 13.5H16.5V16.5H10.5V13.5Z" fill="#03123D"/>
<path d="M13.5 9H7.5V12H13.5V9Z" fill="#03123D"/>
<path d="M13.5 18H7.5V21H13.5V18Z" fill="#03123D"/>
<path d="M18 4.5H21V7.5H18V4.5Z" fill="#03123D"/>
<path d="M18 13.5H21V16.5H18V13.5Z" fill="#03123D"/>
<path d="M6 9H3V12H6V9Z" fill="#03123D"/>
<path d="M6 18H3V21H6V18Z" fill="#03123D"/>
</svg>
