<svg width="16" height="16" viewBox="0 0 16 16" fill="none" xmlns="http://www.w3.org/2000/svg">
<path d="M13.2614 10.0615C13.5037 9.92943 13.8069 10.0184 13.9391 10.2607C14.071 10.503 13.982 10.8063 13.7399 10.9385L8.23988 13.9385L8.00062 14.0693L7.76136 13.9385L2.26136 10.9385C2.01902 10.8062 1.92999 10.5031 2.06214 10.2607C2.19439 10.0184 2.49748 9.9293 2.73988 10.0615L8.00062 12.9307L13.2614 10.0615Z" fill="#03123D"/>
<path d="M13.2614 7.56152C13.5037 7.42943 13.8069 7.51842 13.9391 7.76074C14.071 8.00302 13.982 8.30625 13.7399 8.43848L8.23988 11.4385L8.00062 11.5693L7.76136 11.4385L2.26136 8.43848C2.01902 8.30624 1.92999 8.00313 2.06214 7.76074C2.19439 7.51837 2.49748 7.4293 2.73988 7.56152L8.00062 10.4307L13.2614 7.56152Z" fill="#03123D"/>
<path d="M13.6823 5.05957C14.0329 5.24835 14.0329 5.75164 13.6823 5.94043L8.00062 9L2.318 5.94043C1.9674 5.75164 1.9674 5.24835 2.318 5.05957L8.00062 2L13.6823 5.05957Z" fill="#03123D"/>
</svg>
