<svg width="32" height="32" viewBox="0 0 32 32" fill="none" xmlns="http://www.w3.org/2000/svg">
<path d="M23.535 19.4434C23.8351 19.8029 23.9998 20.2563 23.9998 20.7246V25.999C23.9998 27.1035 23.1043 27.9989 21.9998 27.999H9.99982C8.89525 27.999 7.99982 27.1036 7.99982 25.999V20.7246C7.99983 20.2564 8.16375 19.8029 8.46369 19.4434L15.9998 10.415L23.535 19.4434ZM27.7635 18.3545L27.825 18.4355C28.1116 18.8535 28.0405 19.4292 27.6454 19.7637C27.2238 20.12 26.5928 20.0669 26.2362 19.6455L15.9998 7.54785L5.76349 19.6455C5.40688 20.067 4.77591 20.12 4.3543 19.7637C3.93283 19.407 3.87976 18.7761 4.23614 18.3545L15.9998 4.45215L27.7635 18.3545Z" fill="#03123D"/>
</svg>
