<svg width="32" height="32" viewBox="0 0 32 32" fill="none" xmlns="http://www.w3.org/2000/svg">
<path d="M23.293 24.707L19.293 20.707L19.2246 20.6309C18.9043 20.2381 18.9269 19.6591 19.293 19.293C19.6591 18.9269 20.2381 18.9043 20.6309 19.2246L20.707 19.293L24.707 23.293L28 20V28H20L23.293 24.707Z" fill="#03123D"/>
<path d="M7.29297 23.293L11.293 19.293L11.3691 19.2246C11.7619 18.9043 12.3409 18.9269 12.707 19.293C13.0731 19.6591 13.0957 20.2381 12.7754 20.6309L12.707 20.707L8.70703 24.707L12 28H4V20L7.29297 23.293Z" fill="#03123D"/>
<path d="M4 4H12L8.70703 7.29297L12.707 11.293L12.7754 11.3691C13.0957 11.7619 13.0731 12.3409 12.707 12.707C12.3409 13.0731 11.7619 13.0957 11.3691 12.7754L11.293 12.707L7.29297 8.70703L4 12V4Z" fill="#03123D"/>
<path d="M20 4H28V12L24.707 8.70703L20.707 12.707L20.6309 12.7754C20.2381 13.0957 19.6591 13.0731 19.293 12.707C18.9269 12.3409 18.9043 11.7619 19.2246 11.3691L19.293 11.293L23.293 7.29297L20 4Z" fill="#03123D"/>
</svg>
