<svg width="48" height="48" viewBox="0 0 48 48" fill="none" xmlns="http://www.w3.org/2000/svg">
<path fill-rule="evenodd" clip-rule="evenodd" d="M9.85059 27C8.71962 23.0998 8.71936 18.9003 9.84961 15H6V27H9.85059ZM16.5957 27C14.469 23.1933 14.468 18.8068 16.5947 15H12.9961C11.6712 18.8595 11.6723 23.1404 12.998 27H16.5957ZM35.0029 27C36.3282 23.1404 36.3291 18.8594 35.0039 15H31.4043C33.5312 18.8067 33.5322 23.1933 31.4062 27H35.0029ZM38.1484 27H42V15H38.1504C39.2806 18.9003 39.2794 23.0998 38.1484 27Z" fill="#03123D"/>
<path d="M30 6H18C16.3431 6 15 7.34315 15 9V12H21V15H20.2002C17.2689 18.6906 17.2693 23.3093 20.2002 27H21V30H6V42H42V30H27V27H27.7998C30.7303 23.3094 30.7307 18.6905 27.7998 15H27V12H33V9C33 7.34315 31.6569 6 30 6Z" fill="#03123D"/>
</svg>
