<svg width="20" height="20" viewBox="0 0 20 20" fill="none" xmlns="http://www.w3.org/2000/svg">
<path d="M14.5 16V12H16.5C16.7761 12 17 11.7761 17 11.5C17 11.2239 16.7761 11 16.5 11H11.5C11.2239 11 11 11.2239 11 11.5C11 11.7761 11.2239 12 11.5 12H13.5V16H11.5C11.2239 16 11 16.2239 11 16.5C11 16.7762 11.2239 17 11.5 17L16.4999 17.0001C16.7761 17.0001 17 16.7762 17 16.5001C17 16.2239 16.7761 16 16.4999 16H14.5Z" fill="#03123D"/>
<path d="M17 7.5V4L14 2.5L11 4V7.5L14 9L17 7.5Z" fill="#03123D"/>
<path fill-rule="evenodd" clip-rule="evenodd" d="M3 2.99862H9V9H3V2.99862ZM4 8H8V3.99862H4V8Z" fill="#03123D"/>
<path d="M6 17C7.59794 17 9 15.6109 9 14C9 12.3891 7.59794 11 6 11C4.40203 11 3 12.3891 3 14C3 15.6109 4.40203 17 6 17Z" fill="#03123D"/>
</svg>
