<svg width="20" height="20" viewBox="0 0 20 20" fill="none" xmlns="http://www.w3.org/2000/svg">
<path fill-rule="evenodd" clip-rule="evenodd" d="M12.3169 7.491L10.6593 11.3731L12.7651 15.3105L11.7644 15.7793L8.44912 11.3595L11.3269 7.00007L12.3169 7.491Z" fill="#03123D"/>
<path d="M6.99956 5.00047L9.99745 8.00047L9.99753 5.50959C11.8388 5.50959 13.2697 6.15229 14.2377 7.15768C15.2092 8.16664 15.7491 9.57367 15.7491 11.1539C15.7491 14.2897 13.3432 16.9959 9.99724 16.9968C6.64954 16.9976 4.27037 14.392 4.24911 11.154C4.24029 9.81213 4.94107 8.39198 6.00975 7.20291C6.19433 6.99753 6.17748 6.68139 5.97209 6.49681C5.76671 6.31222 5.45058 6.32908 5.26599 6.53446C4.10048 7.83127 3.23811 9.48206 3.24913 11.1606C3.27371 14.9039 6.05653 17.9978 9.99751 17.9968C13.9402 17.9957 16.7491 14.7963 16.7491 11.1539C16.7491 9.34521 16.1289 7.68006 14.9581 6.46409C13.7839 5.24456 12.084 4.50959 9.99756 4.50959L9.99763 1.99951L6.99956 5.00047Z" fill="#03123D"/>
</svg>
