<svg width="32" height="32" viewBox="0 0 32 32" fill="none" xmlns="http://www.w3.org/2000/svg">
<path d="M13.8115 11.7264C13.2582 12.6205 12.4986 13.5687 11.6205 14.4926C11.4819 14.2001 11.3747 13.9047 11.2911 13.6122C10.9458 12.4033 10.9908 11.2617 11.0273 10.333C11.0318 10.2196 11.0362 10.1092 11.0397 10.0024H14.6235C14.4805 10.4983 14.2123 11.0787 13.8115 11.7264Z" fill="#03123D"/>
<path d="M21.0037 14.9742L22.0859 18.0044H19.9215L21.0037 14.9742Z" fill="#03123D"/>
<path fill-rule="evenodd" clip-rule="evenodd" d="M30.0068 16C30.0068 23.7382 23.7338 30.0112 15.9956 30.0112C8.25742 30.0112 1.98438 23.7382 1.98438 16C1.98438 8.26181 8.25742 1.98877 15.9956 1.98877C23.7338 1.98877 30.0068 8.26181 30.0068 16ZM13.0027 6.00146C13.5551 6.00146 14.0029 6.44929 14.0029 7.00171V8.00195H18.0039C18.5563 8.00195 19.0042 8.44978 19.0042 9.0022C19.0042 9.55462 18.5563 10.0024 18.0039 10.0024H16.676C16.5098 10.9268 16.0707 11.8771 15.5126 12.779C14.8363 13.872 13.9289 14.9834 12.925 16.0226C12.8952 16.0535 12.8653 16.0843 12.8353 16.115C13.4124 16.6322 14.1749 17.0949 15.1857 17.4587C15.7055 17.6459 15.9751 18.2189 15.788 18.7387C15.6009 19.2584 15.0279 19.5281 14.5081 19.341C13.1817 18.8635 12.1623 18.2266 11.3837 17.4983C9.73978 18.9567 7.95002 20.2051 6.41898 20.9094C5.91711 21.1402 5.32312 20.9205 5.09226 20.4187C4.8614 19.9168 5.0811 19.3228 5.58297 19.092C6.91774 18.478 8.57644 17.3243 10.1271 15.9387C9.78432 15.3614 9.53886 14.7612 9.3676 14.1617C8.92149 12.6001 8.99071 11.015 9.0306 10.1015L9.0349 10.0024H8.00146C7.44905 10.0024 7.00122 9.55462 7.00122 9.0022C7.00122 8.44978 7.44905 8.00195 8.00146 8.00195H12.0024V7.00171C12.0024 6.44929 12.4503 6.00146 13.0027 6.00146ZM21.0037 11C21.4264 11 21.8035 11.2657 21.9457 11.6638L25.9457 22.8638C26.1315 23.3841 25.8603 23.9564 25.3401 24.1422C24.8199 24.328 24.2475 24.0569 24.0617 23.5367L22.8003 20.0049H19.207L17.9457 23.5367C17.7599 24.0569 17.1875 24.328 16.6673 24.1422C16.147 23.9564 15.8759 23.3841 16.0617 22.8638L20.0617 11.6638C20.2039 11.2657 20.581 11 21.0037 11Z" fill="#03123D"/>
</svg>
