<svg width="16" height="16" viewBox="0 0 16 16" fill="none" xmlns="http://www.w3.org/2000/svg">
<path fill-rule="evenodd" clip-rule="evenodd" d="M5.91695 4C6.19366 4.00001 6.46356 4.02685 6.72421 4.07794C4.42546 6.0005 4.42525 9.99938 6.72367 11.9222C6.46319 11.9732 6.19347 12 5.91695 12C4.55534 12 3.60465 11.4912 2.98236 10.7793C2.34291 10.0477 1.99993 9.04142 1.99993 8C1.99993 6.95858 2.34291 5.95225 2.98236 5.2207C3.60465 4.50885 4.55534 4 5.91695 4ZM7.87263 3.3838C7.34688 3.16806 6.7764 3.03668 6.17867 3.00684L5.91695 3C-0.536402 3 -0.637447 12.6903 5.61422 12.9932L5.91695 13C6.60989 13 7.27044 12.8636 7.87237 12.6166C8.3845 12.8291 8.96512 12.9617 9.61422 12.9932L9.91695 13C12.7243 12.9999 15 10.7614 15 8C15 5.32498 12.8643 3.14092 10.1787 3.00684L9.91695 3C9.1445 3 8.46306 3.13884 7.87263 3.3838ZM11 8C11 6.40729 10.2429 4.98862 9.06339 4.07307C9.32794 4.0255 9.61215 4 9.91695 4C12.1876 4.00009 14 5.80641 14 8C14 10.1936 12.1876 11.9999 9.91695 12C9.61223 12 9.32809 11.9745 9.06361 11.927C10.243 11.0113 11 9.59262 11 8Z" fill="#03123D"/>
</svg>
