<svg width="16" height="16" viewBox="0 0 16 16" fill="none" xmlns="http://www.w3.org/2000/svg">
<path d="M6 3C6.92155 3 7.69176 3.1592 8.37012 3.46973C9.01745 3.16807 9.73966 3 10.5 3C11.667 3 12.7673 3.25345 13.6611 3.97949L13.8369 4.13086L13.9043 4.20605C14.0413 4.39408 14.0321 4.65838 13.8691 4.83691C13.7062 5.0154 13.4439 5.0489 13.2441 4.92969L13.1631 4.86914L13.0332 4.75781C12.3738 4.22152 11.5267 4 10.5 4C10.1295 4 9.77051 4.0495 9.42969 4.14258C9.82298 4.48012 10.1479 4.88461 10.4004 5.35742C10.8004 6.10665 11 6.98616 11 7.99512C11 8.60451 10.9303 9.16434 10.7803 9.67383C10.6303 10.1932 10.4098 10.653 10.1299 11.0625C9.92882 11.3566 9.69043 11.6183 9.4209 11.8506C9.76491 11.9469 10.1266 12 10.5 12C11.5693 12 12.4865 11.7308 13.168 11.126C13.3745 10.9427 13.6907 10.9615 13.874 11.168C14.0573 11.3745 14.0385 11.6907 13.832 11.874C12.9135 12.6892 11.7306 13 10.5 13C9.74016 13 9.01826 12.8278 8.37012 12.5225C8.15611 12.6187 7.92985 12.7028 7.69043 12.7705C7.17043 12.9204 6.63 13 6 13H2V3H6ZM4.41992 5.4375V10.5723H5.9502C6.03471 10.5723 6.1174 10.5701 6.19824 10.5664C5.74325 9.81376 5.48056 8.93252 5.48047 7.99023C5.48047 7.05707 5.73734 6.18682 6.18262 5.44238C6.10708 5.43912 6.0296 5.4375 5.9502 5.4375H4.41992ZM7.25098 5.63965C6.7668 6.29827 6.48047 7.11005 6.48047 7.99023C6.48058 8.87578 6.77238 9.69431 7.2627 10.3584C7.43026 10.2937 7.57989 10.2188 7.70996 10.123C7.88996 10.0032 8.03039 9.85342 8.15039 9.68359C8.28028 9.49392 8.38997 9.27414 8.45996 9.01465C8.54996 8.71495 8.58984 8.3845 8.58984 8.00488C8.58981 7.40565 8.49022 6.90614 8.28027 6.5166C8.10027 6.18693 7.85953 5.94762 7.51953 5.75781C7.43542 5.71371 7.34579 5.67482 7.25098 5.63965Z" fill="#03123D"/>
</svg>
