<svg width="20" height="20" viewBox="0 0 20 20" fill="none" xmlns="http://www.w3.org/2000/svg">
<path d="M13.95 7C13.735 5.94095 12.8506 5.12501 11.7576 5.01311C11.9232 4.70235 12 4.35075 12 4V2.5C12 2.22386 11.7761 2 11.5 2C11.2239 2 11 2.22386 11 2.5V4C11 4.299 10.9067 4.54686 10.7549 4.71387C10.61 4.87313 10.3752 5 10 5C9.62482 5 9.38999 4.87313 9.24512 4.71387C9.09329 4.54686 9 4.299 9 4V2.5C9 2.22386 8.77614 2 8.5 2C8.22386 2 8 2.22386 8 2.5V4C8 4.35075 8.07681 4.70235 8.24236 5.01311C7.14942 5.12501 6.26498 5.94095 6.05001 7H5.75C5.33579 7 5 6.66421 5 6.25V4.5C5 4.22386 4.77614 4 4.5 4C4.22386 4 4 4.22386 4 4.5V6.25C4 7.2165 4.7835 8 5.75 8H6V10H3.5C3.22386 10 3 10.2239 3 10.5C3 10.7761 3.22386 11 3.5 11H6V13H5.75C4.7835 13 4 13.7835 4 14.75V16.5C4 16.7761 4.22386 17 4.5 17C4.77614 17 5 16.7761 5 16.5V14.75C5 14.3358 5.33579 14 5.75 14H6.12602C6.57006 15.7252 8.13616 17 10 17C11.8638 17 13.4299 15.7252 13.874 14H14.25C14.6642 14 15 14.3358 15 14.75V16.5C15 16.7761 15.2239 17 15.5 17C15.7761 17 16 16.7761 16 16.5V14.75C16 13.7835 15.2165 13 14.25 13H14V11H16.5C16.7761 11 17 10.7761 17 10.5C17 10.2239 16.7761 10 16.5 10H14V8H14.25C15.2165 8 16 7.2165 16 6.25V4.5C16 4.22386 15.7761 4 15.5 4C15.2239 4 15 4.22386 15 4.5V6.25C15 6.66421 14.6642 7 14.25 7H13.95Z" fill="#03123D"/>
</svg>
