<svg width="64" height="64" viewBox="0 0 64 64" fill="none" xmlns="http://www.w3.org/2000/svg">
<path fill-rule="evenodd" clip-rule="evenodd" d="M12 52H52L52.2061 51.9961C54.2512 51.8906 55.8914 50.252 55.9951 48.207L56 48V16C56 13.791 54.2092 12 52 12H12C9.79083 12 8 13.791 8 16V48L8.00488 48.207C8.10864 50.252 9.74878 51.8906 11.7939 51.9961L12 52ZM52 34V48H24V16H52V30H36.8281L43.4141 23.4141C44.1951 22.6328 44.1951 21.3672 43.4141 20.5859C42.633 19.8047 41.367 19.8047 40.5859 20.5859L29.1719 32L40.5859 43.4141C41.367 44.1953 42.633 44.1953 43.4141 43.4141C44.1951 42.6328 44.1951 41.3672 43.4141 40.5859L36.8281 34H52Z" fill="#03123D"/>
</svg>
