<svg width="64" height="64" viewBox="0 0 64 64" fill="none" xmlns="http://www.w3.org/2000/svg">
<path fill-rule="evenodd" clip-rule="evenodd" d="M13.9257 24.0026C13.9797 24.0009 14.0337 24 14.0879 24L13.9257 24.0026Z" fill="#03123D"/>
<path d="M39.8318 39.2968H42.6285C42.5724 40.2132 42.3198 41.0267 41.8708 41.7373C41.4281 42.448 40.8077 43.0028 40.0095 43.4017C39.2176 43.8007 38.2635 44.0002 37.1474 44.0002C36.2744 44.0002 35.4918 43.8506 34.7996 43.5513C34.1075 43.2459 33.5151 42.8095 33.0225 42.2423C32.5361 41.675 32.1651 40.9893 31.9094 40.1851C31.6538 39.381 31.5259 38.4802 31.5259 37.4828V36.5384C31.5259 35.541 31.6569 34.6402 31.9188 33.836C32.1869 33.0256 32.5673 32.3368 33.0599 31.7695C33.5587 31.2023 34.1542 30.7659 34.8464 30.4605C35.5386 30.155 36.3118 30.0023 37.1661 30.0023C38.3009 30.0023 39.2581 30.208 40.0376 30.6194C40.8233 31.0308 41.4312 31.5981 41.8615 32.3212C42.298 33.0443 42.5599 33.8672 42.6472 34.7898H39.8411C39.81 34.2412 39.7008 33.7768 39.5138 33.3966C39.3267 33.0101 39.043 32.7202 38.6626 32.5269C38.2885 32.3275 37.7896 32.2277 37.1661 32.2277C36.6984 32.2277 36.29 32.315 35.9408 32.4895C35.5916 32.6641 35.2985 32.929 35.0615 33.2843C34.8246 33.6397 34.6469 34.0885 34.5284 34.6308C34.4161 35.1669 34.36 35.7966 34.36 36.5197V37.4828C34.36 38.1872 34.413 38.8075 34.519 39.3436C34.625 39.8734 34.7872 40.3223 35.0054 40.69C35.2299 41.0516 35.5167 41.3259 35.8659 41.5129C36.2214 41.6937 36.6485 41.7841 37.1474 41.7841C37.7335 41.7841 38.2168 41.6906 38.5971 41.5035C38.9775 41.3165 39.2675 41.0391 39.467 40.6713C39.6728 40.3036 39.7944 39.8454 39.8318 39.2968Z" fill="#03123D"/>
<path d="M18.7411 30.1429V43.8215H16.0046V30.1429H18.7411Z" fill="#03123D"/>
<path d="M12.7812 12.0068L13.0405 12H25.9121C27.249 12 28.5311 12.5311 29.4763 13.4763L36.0026 20.0026H52C54.2091 20.0026 56 21.7935 56 24.0026V48.0026C56 50.1426 54.3194 51.8905 52.2061 51.9977L52 52.0026H12L11.7939 51.9977C9.68056 51.8905 8 50.1426 8 48.0026V28V24.0026V17.0405C8 16.9318 8.00344 16.8238 8.01023 16.7168C8.17169 14.1695 10.2253 12.1363 12.7812 12.0068ZM14.0879 24C14.0337 24 13.9797 24.0009 13.9257 24.0026H12V24.4526V48.0026H52V24.0026L40 24H14.0879Z" fill="#03123D"/>
<path fill-rule="evenodd" clip-rule="evenodd" d="M12.7812 12.0068L13.0405 12C12.9536 12 12.8671 12.0025 12.7812 12.0068ZM13.8764 24.0044L13.8379 24.0059C13.198 24.0376 12.5748 24.1909 12 24.4526C12.5863 24.1858 13.223 24.0318 13.8764 24.0044ZM14.0879 24L13.9257 24.0026C13.9797 24.0009 14.0337 24 14.0879 24Z" fill="#03123D"/>
<path d="M24.2231 30.1429H21.4865V43.8215H24.2231V38.2112H29.6748V36.0231H24.2231V32.4044H30.3295V30.1429H24.2231Z" fill="#03123D"/>
</svg>
