<svg width="16" height="16" viewBox="0 0 16 16" fill="none" xmlns="http://www.w3.org/2000/svg">
<path fill-rule="evenodd" clip-rule="evenodd" d="M8 15C11.866 15 15 11.866 15 8C15 4.13401 11.866 1 8 1C4.13401 1 1 4.13401 1 8C1 11.866 4.13401 15 8 15ZM8 3C7.17751 3 6.5 3.67751 6.5 4.5C6.5 5.3225 7.17751 6 8 6C8.82249 6 9.5 5.3225 9.5 4.5C9.5 3.67751 8.82249 3 8 3ZM8 5C8.27021 5 8.5 4.77021 8.5 4.5C8.5 4.22979 8.27021 4 8 4C7.72979 4 7.5 4.22979 7.5 4.5C7.5 4.77021 7.72979 5 8 5ZM9 7V13H7V7L9 7Z" fill="#03123D"/>
</svg>
