<svg width="64" height="64" viewBox="0 0 64 64" fill="none" xmlns="http://www.w3.org/2000/svg">
<path fill-rule="evenodd" clip-rule="evenodd" d="M6.00001 21.2323C7.10459 21.2323 8.00003 22.1277 8.00003 23.2323C8.00003 37.7339 18.8822 49.2323 32 49.2323C45.1178 49.2323 56 37.7339 56 23.2323C56 22.1277 56.8954 21.2323 58 21.2323C59.1046 21.2323 60 22.1277 60 23.2323C60 39.6587 47.601 53.2323 32 53.2323C16.399 53.2323 4 39.6587 4 23.2323C4 22.1277 4.89544 21.2323 6.00001 21.2323Z" fill="#03123D"/>
<path fill-rule="evenodd" clip-rule="evenodd" d="M14.59 30.4634C14.9331 31.9324 15.4649 33.3824 16.1956 34.7813C20.8707 43.7321 31.9167 47.1982 40.8676 42.523C49.8184 37.8479 53.2845 26.8018 48.6093 17.851C47.8786 16.4522 46.9924 15.1872 45.9828 14.0664L14.59 30.4634Z" fill="#03123D"/>
</svg>
