<svg width="20" height="20" viewBox="0 0 20 20" fill="none" xmlns="http://www.w3.org/2000/svg">
<path d="M15 17V18H5V17H15ZM15 3H5V18L4.89746 17.9951C4.39333 17.9438 4 17.5177 4 17V3C4 2.44772 4.44772 2 5 2H15C15.5523 2 16 2.44772 16 3V17C16 17.5177 15.6067 17.9438 15.1025 17.9951L15 18V3Z" fill="#03123D"/>
<path d="M6 4H14V7H6V4Z" fill="#03123D"/>
<path d="M6 8H8V10H6V8Z" fill="#03123D"/>
<path d="M9 8H11V10H9V8Z" fill="#03123D"/>
<path d="M9 11H11V13H9V11Z" fill="#03123D"/>
<path d="M9 14H11V16H9V14Z" fill="#03123D"/>
<path d="M12 8H14V10H12V8Z" fill="#03123D"/>
<path d="M12 11H14V13H12V11Z" fill="#03123D"/>
<path d="M12 14H14V16H12V14Z" fill="#03123D"/>
<path d="M6 11H8V13H6V11Z" fill="#03123D"/>
<path d="M6 14H8V16H6V14Z" fill="#03123D"/>
</svg>
