<svg width="32" height="32" viewBox="0 0 32 32" fill="none" xmlns="http://www.w3.org/2000/svg">
<path fill-rule="evenodd" clip-rule="evenodd" d="M8 9C8 8.44772 8.44772 8 9 8H23C23.5523 8 24 8.44772 24 9C24 9.55228 23.5523 10 23 10H9C8.44772 10 8 9.55228 8 9ZM8 13C8 12.4477 8.44772 12 9 12H16C16.5523 12 17 12.4477 17 13C17 13.5523 16.5523 14 16 14H9C8.44772 14 8 13.5523 8 13Z" fill="#03123D"/>
<path fill-rule="evenodd" clip-rule="evenodd" d="M6 4C4.89543 4 4 4.89543 4 6V20V28L12 20H26C27.1046 20 28 19.1046 28 18V6C28 4.89543 27.1046 4 26 4H6ZM26 6H6V18H26V6Z" fill="#03123D"/>
</svg>
