<svg width="32" height="32" viewBox="0 0 32 32" fill="none" xmlns="http://www.w3.org/2000/svg">
<path d="M12 28.0018L8.70602 24.7079L8.70504 24.7099L4.70504 28.7099C4.31456 29.1003 3.68157 29.1002 3.29098 28.7099C2.9004 28.3193 2.9004 27.6864 3.29098 27.2958L7.29098 23.2958L7.29195 23.2938L3.99996 20.0018H12V28.0018ZM24.7089 23.2938L28.7109 27.2958C29.1015 27.6864 29.1015 28.3193 28.7109 28.7099C28.3203 29.1001 27.6873 29.1003 27.2968 28.7099L23.2949 24.7079L20.0019 28.0018V20.0018H28.0019L24.7089 23.2938ZM3.29098 3.29384C3.68156 2.9034 4.31451 2.90331 4.70504 3.29384L8.70602 7.29481L12 4.00184V12.0018H3.99996L7.29195 8.70888L3.29098 4.7079C2.9004 4.31733 2.9004 3.68441 3.29098 3.29384ZM27.2968 3.29384C27.6874 2.90332 28.3203 2.90342 28.7109 3.29384C29.1015 3.68441 29.1015 4.31733 28.7109 4.7079L24.7109 8.7079L24.7089 8.70888L28.0019 12.0018H20.0019V4.00184L23.2949 7.29481L23.2968 7.29384L27.2968 3.29384Z" fill="#03123D"/>
</svg>
