<svg width="64" height="64" viewBox="0 0 64 64" fill="none" xmlns="http://www.w3.org/2000/svg">
<path fill-rule="evenodd" clip-rule="evenodd" d="M32 60C47.464 60 60 47.464 60 32C60 16.536 47.464 4 32 4C16.536 4 4 16.536 4 32C4 47.464 16.536 60 32 60ZM8 32C8 25.615 10.4933 19.8124 14.5595 15.5127C17.8135 25.0368 17.8135 38.9632 14.5595 48.4873C10.4933 44.1876 8 38.385 8 32ZM32 8C25.615 8 19.8124 10.4933 15.5127 14.5595C25.0368 17.8135 38.9632 17.8135 48.4873 14.5595C44.1876 10.4933 38.385 8 32 8ZM15.5127 49.4405C19.8124 53.5067 25.615 56 32 56C38.385 56 44.1876 53.5067 48.4873 49.4405C38.9632 46.1865 25.0368 46.1865 15.5127 49.4405ZM49.4405 15.5127C53.5067 19.8124 56 25.615 56 32C56 38.385 53.5067 44.1876 49.4405 48.4873C46.1865 38.9632 46.1865 25.0368 49.4405 15.5127ZM36 32C36 34.2091 34.2091 36 32 36C29.7909 36 28 34.2091 28 32C28 29.7909 29.7909 28 32 28C34.2091 28 36 29.7909 36 32Z" fill="#03123D"/>
</svg>
