<svg width="16" height="16" viewBox="0 0 16 16" fill="none" xmlns="http://www.w3.org/2000/svg">
<path d="M8.29798 7.00001L8.74 4.97001C8.99 3.85001 9.95 3.00001 10.97 3.00001H13C13.28 3.00001 13.5 2.78001 13.5 2.50001C13.5 2.22001 13.28 2.01001 13 2.01001H10.97C9.49 2.01001 8.11 3.19001 7.76 4.76001L7.27147 7.00001H7H5V8.00001H7.05338L6.41 10.95C6.18 11.94 5.54 13 4.44 13H2C1.72 13 1.5 13.22 1.5 13.5C1.5 13.78 1.72 14 2 14H4.44C5.83 14 6.99 12.89 7.39 11.17L8.07463 8.00001L10.6 10.35L7 14H14L10.6 10.35L14 7.00001H10H8.29798Z" fill="#03123D"/>
</svg>
