<svg width="32" height="32" viewBox="0 0 32 32" fill="none" xmlns="http://www.w3.org/2000/svg">
<path d="M4 16.0007H28V20.0007H4V16.0007Z" fill="#03123D"/>
<path d="M16 9C19.6884 9 22.8359 10.0524 25.0508 11.0947C26.1604 11.6169 27.0436 12.1406 27.6533 12.5361C27.9584 12.734 28.1957 12.9005 28.3594 13.0195C28.4412 13.0791 28.5054 13.1262 28.5498 13.1602C28.572 13.1771 28.589 13.1913 28.6016 13.2012C28.6078 13.2061 28.6134 13.2099 28.6172 13.2129C28.619 13.2143 28.6221 13.2168 28.6221 13.2168L28.624 13.2188L27.376 14.7812L27.3691 14.7764C27.3624 14.7711 27.351 14.7622 27.335 14.75C27.3027 14.7254 27.2521 14.6865 27.1836 14.6367C27.0465 14.537 26.8384 14.3909 26.5654 14.2139C26.0189 13.8594 25.2144 13.383 24.1992 12.9053C22.1641 11.9476 19.3115 11 16 11C12.6885 11 9.83586 11.9476 7.80078 12.9053C6.78558 13.383 5.98106 13.8594 5.43457 14.2139C5.16162 14.3909 4.95351 14.537 4.81641 14.6367C4.74793 14.6865 4.69728 14.7254 4.66504 14.75C4.64905 14.7622 4.63759 14.7711 4.63086 14.7764C4.62749 14.779 4.62402 14.7812 4.62402 14.7812L3.37598 13.2188L3.37793 13.2168C3.37793 13.2168 3.38099 13.2143 3.38281 13.2129C3.38664 13.2099 3.39219 13.2061 3.39844 13.2012C3.41101 13.1913 3.42802 13.1771 3.4502 13.1602C3.4946 13.1262 3.55877 13.0791 3.64062 13.0195C3.80428 12.9005 4.04164 12.734 4.34668 12.5361C4.95641 12.1406 5.83959 11.6169 6.94922 11.0947C9.16413 10.0524 12.3116 9 16 9Z" fill="#03123D"/>
</svg>
