<svg width="24" height="24" viewBox="0 0 24 24" fill="none" xmlns="http://www.w3.org/2000/svg">
<path d="M18 5.25C18 6.49264 16.9926 7.5 15.75 7.5C14.5074 7.5 13.5 6.49264 13.5 5.25C13.5 4.00736 14.5074 3 15.75 3C16.9926 3 18 4.00736 18 5.25Z" fill="#03123D"/>
<path d="M12.3994 6.83691C12.6853 6.6855 13.0439 6.73339 13.2803 6.96973L15.9795 9.66895L18.5684 9.02246C18.9701 8.92215 19.3771 9.16659 19.4775 9.56836C19.5779 9.97013 19.3334 10.3771 18.9316 10.4775L15.9316 11.2275C15.6761 11.2913 15.406 11.2165 15.2197 11.0303L12.6943 8.50488L10.2012 10.5L13.2188 12.9141C13.4422 13.0928 13.5445 13.3838 13.4824 13.6631L11.9824 20.4131C11.8924 20.8173 11.4912 21.0723 11.0869 20.9824C10.6827 20.8924 10.4277 20.4912 10.5176 20.0869L11.916 13.793L8.53125 11.0859C8.35334 10.9436 8.25 10.7278 8.25 10.5C8.25 10.2722 8.35334 10.0564 8.53125 9.91406L12.2812 6.91406L12.3994 6.83691Z" fill="#03123D"/>
<path d="M3 8.14286L10.5 3L7.09091 6.85714H9.81818L3.68182 12L6.40909 8.14286H3Z" fill="#03123D"/>
<path d="M21 16.5C21 14.8438 19.6569 13.5 18 13.5C16.3431 13.5 15 14.8438 15 16.5C15 18.1562 16.3431 19.5 18 19.5C19.6569 19.5 21 18.1562 21 16.5ZM22.5 16.5C22.5 18.9844 20.4853 21 18 21C15.5147 21 13.5 18.9844 13.5 16.5C13.5 14.0156 15.5147 12 18 12C20.4853 12 22.5 14.0156 22.5 16.5Z" fill="#03123D"/>
<path d="M9 16.5C9 14.8438 7.65686 13.5 6 13.5C4.34314 13.5 3 14.8438 3 16.5C3 18.1562 4.34314 19.5 6 19.5C7.65686 19.5 9 18.1562 9 16.5ZM10.5 16.5C10.5 18.9844 8.48529 21 6 21C3.51471 21 1.5 18.9844 1.5 16.5C1.5 14.0156 3.51471 12 6 12C8.48529 12 10.5 14.0156 10.5 16.5Z" fill="#03123D"/>
</svg>
