<svg width="64" height="64" viewBox="0 0 64 64" fill="none" xmlns="http://www.w3.org/2000/svg">
<path d="M26 36C27.1046 36 28 36.8954 28 38V54C28 55.1046 27.1046 56 26 56H10C8.89543 56 8 55.1046 8 54V38C8 36.8954 8.89543 36 10 36H26ZM12 52H24V40H12V52Z" fill="#03123D"/>
<path d="M54 36C55.1046 36 56 36.8954 56 38V54C56 55.1046 55.1046 56 54 56H38C36.8954 56 36 55.1046 36 54V38C36 36.8954 36.8954 36 38 36H54ZM40 52H52V40H40V52Z" fill="#03123D"/>
<path d="M8 10.5C8 9.11929 9.11929 8 10.5 8H53.5C54.8807 8 56 9.11929 56 10.5V25.5C56 26.8807 54.8807 28 53.5 28H10.5C9.11929 28 8 26.8807 8 25.5V10.5Z" fill="#03123D"/>
</svg>
