<svg width="48" height="48" viewBox="0 0 48 48" fill="none" xmlns="http://www.w3.org/2000/svg">
<path d="M15.0004 20.999H21.0004V23.999H15.0004V20.999Z" fill="#03123D"/>
<path d="M27.0004 20.999H33.0004V23.999H27.0004V20.999Z" fill="#03123D"/>
<path d="M23.9999 45.5984C35.7429 45.5984 45.298 36.2273 45.5936 24.5556L45.6004 23.9979C45.6002 12.0688 35.9291 2.39844 23.9999 2.39844C12.0709 2.39865 2.4006 12.069 2.40039 23.9979C2.40039 35.741 11.7714 45.2962 23.4433 45.5916L23.9999 45.5984ZM5.64094 20.999C7.07507 12.1528 14.7487 5.39861 23.9999 5.39842C33.2513 5.39842 40.9256 12.1527 42.3598 20.999H36.0004V38.2097C32.7612 40.9478 28.5732 42.5984 23.9999 42.5984C19.4269 42.5984 15.2394 40.9478 12.0004 38.2101V20.999H5.64094Z" fill="#03123D"/>
</svg>
