<svg width="32" height="32" viewBox="0 0 32 32" fill="none" xmlns="http://www.w3.org/2000/svg">
<path d="M28 11.6591V5.87903L23 2.99902L18 5.87903V11.6591L23 14.5391L28 11.6591Z" fill="#03123D"/>
<path fill-rule="evenodd" clip-rule="evenodd" d="M4 3.99756H14V13.9976H4V3.99756ZM6 11.9976H12V5.99756H6V11.9976Z" fill="#03123D"/>
<path d="M19 28.0001C18.4477 28.0001 18 27.5524 18 27.0001C18 26.4478 18.4477 26.0001 19 26.0001H22V20.0001L19 20.0001C18.4477 20.0001 18 19.5524 18 19.0001C18 18.4478 18.4477 18.0001 19 18.0001H27C27.5523 18.0001 28 18.4478 28 19.0001C28 19.5524 27.5523 20.0001 27 20.0001L24 20.0001V26.0001H27C27.5523 26.0001 28 26.4478 28 27.0001C28 27.5524 27.5523 28.0001 27 28.0001H19Z" fill="#03123D"/>
<path d="M8.96002 28.0001C11.6993 28.0001 13.92 25.7616 13.92 23.0001C13.92 20.2386 11.6993 18.0001 8.96002 18.0001C6.22064 18.0001 4 20.2386 4 23.0001C4 25.7616 6.22064 28.0001 8.96002 28.0001Z" fill="#03123D"/>
</svg>
