<svg width="16" height="16" viewBox="0 0 16 16" fill="none" xmlns="http://www.w3.org/2000/svg">
<path d="M12 3.5C12 4.32843 11.3284 5 10.5 5C9.67157 5 9 4.32843 9 3.5C9 2.67157 9.67157 2 10.5 2C11.3284 2 12 2.67157 12 3.5Z" fill="#03123D"/>
<path d="M8.26562 4.55762C8.45628 4.45643 8.69585 4.48882 8.85352 4.64648L10.6523 6.44531L12.3789 6.01465C12.6467 5.94782 12.9184 6.11109 12.9854 6.37891C13.0522 6.64673 12.8889 6.9184 12.6211 6.98535L10.6211 7.48535C10.4508 7.52785 10.2706 7.47765 10.1465 7.35352L8.46289 5.66992L6.80078 7L8.8125 8.60938C8.96142 8.72851 9.02961 8.92222 8.98828 9.1084L7.98828 13.6084C7.92839 13.8779 7.66113 14.0481 7.3916 13.9883C7.12207 13.9284 6.95188 13.6611 7.01172 13.3916L7.94336 9.19531L5.6875 7.39062C5.56889 7.29574 5.5 7.15189 5.5 7C5.5 6.84811 5.56889 6.70426 5.6875 6.60938L8.1875 4.60938L8.26562 4.55762Z" fill="#03123D"/>
<path d="M2 5.42857L7 2L4.72727 4.57143H6.54545L2.45455 8L4.27273 5.42857H2Z" fill="#03123D"/>
<path d="M14 11C14 9.89453 13.1046 9 12 9C10.8954 9 10 9.89453 10 11C10 12.1055 10.8954 13 12 13C13.1046 13 14 12.1055 14 11ZM15 11C15 12.6562 13.6569 14 12 14C10.3431 14 9 12.6562 9 11C9 9.34375 10.3431 8 12 8C13.6569 8 15 9.34375 15 11Z" fill="#03123D"/>
<path d="M6 11C6 9.89453 5.10455 9 4 9C2.89545 9 2 9.89453 2 11C2 12.1055 2.89545 13 4 13C5.10455 13 6 12.1055 6 11ZM7 11C7 12.6562 5.65686 14 4 14C2.34314 14 1 12.6562 1 11C1 9.34375 2.34314 8 4 8C5.65686 8 7 9.34375 7 11Z" fill="#03123D"/>
</svg>
