<svg width="64" height="64" viewBox="0 0 64 64" fill="none" xmlns="http://www.w3.org/2000/svg">
<path d="M8 32H56V40H8V32Z" fill="#03123D"/>
<path d="M32 18C39.3771 18 45.6717 20.1058 50.1016 22.1904C52.321 23.2349 54.0882 24.2813 55.3076 25.0723C55.9176 25.468 56.3925 25.8011 56.7197 26.0391C56.8832 26.158 57.0099 26.2535 57.0986 26.3213C57.1429 26.3551 57.178 26.3817 57.2031 26.4014C57.2156 26.4111 57.2257 26.4197 57.2334 26.4258C57.2372 26.4288 57.2406 26.4315 57.2432 26.4336L57.2471 26.4365L57.248 26.4375L54.752 29.5625C54.7499 29.5609 54.745 29.558 54.7383 29.5527C54.7247 29.5421 54.7022 29.5237 54.6699 29.499C54.6054 29.4497 54.5033 29.3731 54.3662 29.2734C54.092 29.074 53.6756 28.7817 53.1299 28.4277C52.0369 27.7188 50.4288 26.765 48.3984 25.8096C44.3283 23.8942 38.6229 22 32 22C25.3771 22 19.6717 23.8942 15.6016 25.8096C13.5712 26.765 11.9631 27.7188 10.8701 28.4277C10.3244 28.7817 9.90804 29.074 9.63379 29.2734C9.49671 29.3731 9.3946 29.4497 9.33008 29.499C9.29785 29.5237 9.27525 29.5421 9.26172 29.5527C9.25499 29.558 9.25006 29.5609 9.24805 29.5625L6.75195 26.4375L6.75293 26.4365L6.75684 26.4336C6.75945 26.4315 6.76278 26.4288 6.7666 26.4258C6.77428 26.4197 6.78438 26.4111 6.79688 26.4014C6.82201 26.3817 6.85713 26.3551 6.90137 26.3213C6.99009 26.2535 7.11679 26.158 7.28027 26.0391C7.60751 25.8011 8.08237 25.468 8.69238 25.0723C9.91184 24.2813 11.679 23.2349 13.8984 22.1904C18.3283 20.1058 24.6229 18 32 18Z" fill="#03123D"/>
</svg>
