<svg width="24" height="24" viewBox="0 0 24 24" fill="none" xmlns="http://www.w3.org/2000/svg">
<path fill-rule="evenodd" clip-rule="evenodd" d="M6 6.75C6 6.33579 6.33579 6 6.75 6H17.25C17.6642 6 18 6.33579 18 6.75C18 7.16421 17.6642 7.5 17.25 7.5H6.75C6.33579 7.5 6 7.16421 6 6.75ZM6 9.75C6 9.33579 6.33579 9 6.75 9H12C12.4142 9 12.75 9.33579 12.75 9.75C12.75 10.1642 12.4142 10.5 12 10.5H6.75C6.33579 10.5 6 10.1642 6 9.75Z" fill="#03123D"/>
<path fill-rule="evenodd" clip-rule="evenodd" d="M4.5 3C3.67157 3 3 3.67157 3 4.5V15V21L9 15H19.5C20.3284 15 21 14.3284 21 13.5V4.5C21 3.67157 20.3284 3 19.5 3H4.5ZM19.5 4.5H4.5V13.5H19.5V4.5Z" fill="#03123D"/>
</svg>
