<svg width="20" height="20" viewBox="0 0 20 20" fill="none" xmlns="http://www.w3.org/2000/svg">
<path d="M17 3V17H3V3H17ZM4 16H16V4H4V16Z" fill="#03123D"/>
<path d="M5 5H7V7H5V5Z" fill="#03123D"/>
<path d="M5 9H7V11H5V9Z" fill="#03123D"/>
<path d="M5 13H7V15H5V13Z" fill="#03123D"/>
<path d="M13 5H15V7H13V5Z" fill="#03123D"/>
<path d="M9 5H11V7H9V5Z" fill="#03123D"/>
<path d="M13 9H15V11H13V9Z" fill="#03123D"/>
<path d="M9 9H11V11H9V9Z" fill="#03123D"/>
<path d="M9 13H11V15H9V13Z" fill="#03123D"/>
</svg>
