<svg width="48" height="48" viewBox="0 0 48 48" fill="none" xmlns="http://www.w3.org/2000/svg">
<path d="M6 24H42V30H6V24Z" fill="#03123D"/>
<path d="M24 13.5C29.5327 13.5 34.2538 15.0791 37.5762 16.6426C39.2407 17.4259 40.5659 18.2105 41.4805 18.8037C41.938 19.1005 42.2936 19.3508 42.5391 19.5293C42.6618 19.6186 42.7576 19.6903 42.8242 19.7412C42.8574 19.7666 42.8835 19.787 42.9023 19.8018C42.9116 19.809 42.9191 19.8148 42.9248 19.8193C42.9277 19.8216 42.9307 19.8236 42.9326 19.8252L42.9355 19.8271L42.9365 19.8281L41.0635 22.1719C41.0619 22.1706 41.0585 22.1678 41.0537 22.1641C41.0435 22.1561 41.026 22.1424 41.002 22.124C40.9536 22.087 40.8778 22.0296 40.7754 21.9551C40.5697 21.8055 40.2571 21.5869 39.8477 21.3213C39.0279 20.7896 37.8217 20.0741 36.2988 19.3574C33.2462 17.9209 28.9672 16.5 24 16.5C19.0328 16.5 14.7538 17.9209 11.7012 19.3574C10.1783 20.0741 8.97211 20.7896 8.15234 21.3213C7.74285 21.5869 7.43028 21.8055 7.22461 21.9551C7.12217 22.0296 7.04643 22.087 6.99805 22.124C6.974 22.1424 6.95647 22.1561 6.94629 22.1641C6.94148 22.1678 6.93814 22.1706 6.93652 22.1719L5.06348 19.8281L5.06445 19.8271L5.06738 19.8252C5.06935 19.8236 5.07231 19.8216 5.0752 19.8193C5.08091 19.8148 5.08843 19.809 5.09766 19.8018C5.11648 19.787 5.14259 19.7666 5.17578 19.7412C5.24238 19.6903 5.33816 19.6186 5.46094 19.5293C5.70642 19.3508 6.06198 19.1005 6.51953 18.8037C7.43413 18.2105 8.75932 17.4259 10.4238 16.6426C13.7462 15.0791 18.4673 13.5 24 13.5Z" fill="#03123D"/>
</svg>
