<svg width="48" height="48" viewBox="0 0 48 48" fill="none" xmlns="http://www.w3.org/2000/svg">
<path d="M39.4394 21.4395L20.6893 40.1896C17.5472 43.3317 12.4528 43.3317 9.31067 40.1896C6.16858 37.0475 6.16858 31.9531 9.31067 28.811L31.0611 7.06056C32.9604 5.16129 36.04 5.16223 37.9381 7.06263C39.8342 8.96119 39.8337 12.0371 37.9368 13.9348L16.1891 35.6894C15.5322 36.3462 14.4671 36.3456 13.8102 35.6887C13.1537 35.0319 13.1536 33.9673 13.8102 33.3105L32.552 14.5604C33.1376 13.9745 33.1379 13.0248 32.552 12.4391C31.9661 11.8535 31.0156 11.8539 30.43 12.4398L11.6882 31.1899C9.86057 33.0184 9.86102 35.9818 11.6889 37.81C13.5175 39.6387 16.4827 39.639 18.3111 37.81L40.0581 16.0561C43.1259 12.9874 43.1271 8.01299 40.0608 4.94269C36.9914 1.86942 32.0112 1.86786 28.9398 4.93924L7.18935 26.6897C2.87568 31.0034 2.87569 37.9972 7.18935 42.3109C11.5031 46.6246 18.4969 46.6246 22.8106 42.3109L41.5607 23.5609C42.1464 22.9751 42.1465 22.0253 41.5607 21.4395C40.9749 20.8538 40.0251 20.8538 39.4394 21.4395Z" fill="#03123D"/>
</svg>
