<svg width="20" height="20" viewBox="0 0 20 20" fill="none" xmlns="http://www.w3.org/2000/svg">
<path fill-rule="evenodd" clip-rule="evenodd" d="M13.3537 11.0881C13.7663 10.3166 14.0002 9.43538 14.0002 8.49986C14.0002 5.4638 11.5362 2.99976 8.50011 2.99976C5.46405 2.99976 3 5.4638 3 8.49986C3 11.5359 5.46405 14 8.50011 14C9.43511 14 10.3159 13.7663 11.0871 13.3541L11.3684 13.6465C11.6102 13.8974 11.9446 14.2441 12.315 14.6268C13.0552 15.3914 13.9422 16.3029 14.5219 16.8827C14.694 17.0548 14.9707 17.0619 15.1514 16.8989C15.932 16.1947 16.2081 15.8917 16.4684 15.6062C16.5924 15.4701 16.7128 15.338 16.8826 15.1683C16.9691 15.0818 17.0173 14.9642 17.0164 14.8419C17.0156 14.7196 16.9658 14.6027 16.8781 14.5174L13.3537 11.0881ZM12.0269 13.0122L11.8683 12.8474C12.2337 12.5638 12.5624 12.2352 12.8461 11.8699L15.9146 14.8555C15.8606 14.9138 15.8114 14.968 15.7629 15.0215C15.5586 15.2467 15.3643 15.4608 14.8606 15.9265C14.3068 15.3666 13.5901 14.6294 12.972 13.9909C12.6021 13.6088 12.2683 13.2627 12.0269 13.0122ZM5.20004 8.49986C5.20004 10.3259 6.67407 11.7999 8.50011 11.7999C10.3261 11.7999 11.8002 10.3259 11.8002 8.49986C11.8002 6.67383 10.3261 5.1998 8.50011 5.1998C6.67407 5.1998 5.20004 6.67383 5.20004 8.49986Z" fill="#03123D"/>
</svg>
