<svg width="16" height="16" viewBox="0 0 16 16" fill="none" xmlns="http://www.w3.org/2000/svg">
<path fill-rule="evenodd" clip-rule="evenodd" d="M11.5 10C11.5 10.1894 11.393 10.3626 11.2236 10.4473L8.22363 11.9473C8.08287 12.0176 7.91713 12.0176 7.77637 11.9473L4.77637 10.4473C4.60698 10.3626 4.5 10.1894 4.5 10V7C4.5 6.81061 4.60698 6.63743 4.77637 6.55273L7.77637 5.05273L7.88574 5.01367C7.99839 4.98721 8.11799 4.99991 8.22363 5.05273L11.2236 6.55273C11.393 6.63743 11.5 6.81061 11.5 7V10ZM7.49902 10.6904L5.5 9.69043V7.80859L7.49902 8.80859V10.6904ZM8.5 10.6899V8.80811L10.5 7.80859V9.69043L8.5 10.6899ZM7.99902 7.94043L6.11719 7L8 6.05859L9.88086 6.99902L7.99902 7.94043Z" fill="#03123D"/>
<path fill-rule="evenodd" clip-rule="evenodd" d="M15 13.333C15 13.7012 14.7012 14 14.333 14H1.66699L1.53223 13.9863C1.22849 13.9241 1 13.6551 1 13.333V2.66699C1 2.34486 1.22849 2.07588 1.53223 2.01367L1.66699 2H14.333C14.7012 2 15 2.2988 15 2.66699V13.333ZM14 13H2V4H14V13Z" fill="#03123D"/>
</svg>
