<svg width="24" height="24" viewBox="0 0 24 24" fill="none" xmlns="http://www.w3.org/2000/svg">
<path d="M21 3V21H3V3H21ZM4.5 19.5H19.5V4.5H4.5V19.5Z" fill="#03123D"/>
<path fill-rule="evenodd" clip-rule="evenodd" d="M19.5 4.5C17.25 8.25 17.25 15.75 19.5 19.5C15.75 17.25 8.25 17.25 4.5 19.5C6.75 15.75 6.75 8.25 4.5 4.5C8.25 6.75 15.75 6.75 19.5 4.5ZM12 10.9995C11.4477 10.9995 10.9995 11.4477 10.9995 12C10.9998 12.5521 11.4479 12.999 12 12.999C12.5519 12.9988 12.9988 12.5519 12.999 12C12.999 11.4479 12.5521 10.9998 12 10.9995Z" fill="#03123D"/>
</svg>
