<svg width="16" height="16" viewBox="0 0 16 16" fill="none" xmlns="http://www.w3.org/2000/svg">
<path d="M8 14C11.3137 14 14 11.3137 14 8C14 4.68629 11.3137 2 8 2C4.68629 2 2 4.68629 2 8C2 11.3137 4.68629 14 8 14ZM12.6571 9.8233C12.6126 9.76 12.5676 9.67279 12.5259 9.55391C12.3896 9.16443 12.3429 8.61177 12.3111 7.97578C12.3068 7.89142 12.3029 7.80528 12.2989 7.71807C12.2747 7.19026 12.2486 6.62238 12.1519 6.17598C12.0951 5.9139 12.003 5.6325 11.8286 5.4084C11.6352 5.15983 11.3532 5.00043 10.9995 5.0002C10.6499 5.00006 10.3693 5.15453 10.1675 5.38594C9.9809 5.59998 9.86579 5.87331 9.78665 6.13692C9.63226 6.65151 9.56592 7.31544 9.50607 7.91439L9.50247 7.95039C9.4383 8.59217 9.37915 9.16283 9.2554 9.57539C9.19392 9.78034 9.12928 9.89799 9.07767 9.95723C9.04127 9.99896 9.02467 10.0002 8.99954 10.0002C8.93761 10.0002 8.90341 9.98435 8.86283 9.9416C8.8072 9.88296 8.74034 9.76844 8.67728 9.56856C8.54945 9.16328 8.49411 8.59823 8.43997 7.95821L8.43037 7.84405C8.3822 7.26953 8.32948 6.64069 8.19486 6.14961C8.12261 5.88621 8.01364 5.60997 7.8306 5.39278C7.63126 5.15627 7.35054 5.0002 6.99954 5.0002C6.64975 5.0002 6.36928 5.15538 6.16751 5.38692C5.98095 5.6011 5.86576 5.87419 5.78665 6.13789C5.63214 6.65295 5.5658 7.31673 5.50591 7.91599L5.50247 7.95039C5.43829 8.59222 5.37916 9.16286 5.2554 9.57539C5.19391 9.78036 5.12928 9.898 5.07767 9.95723C5.04129 9.99892 5.02471 10.0002 4.99954 10.0002C4.9833 10.0004 4.97716 10.0004 4.95951 9.97774C4.92113 9.92829 4.86843 9.81953 4.82376 9.61348C4.74649 9.25684 4.72461 8.79041 4.69942 8.25334C4.69516 8.16245 4.6908 8.06955 4.68607 7.97481C4.65538 7.36119 4.60821 6.66408 4.41654 6.11641C4.31853 5.83638 4.17014 5.55515 3.93118 5.34199C3.89579 5.31043 3.85909 5.28096 3.82112 5.25363C4.71513 3.89604 6.25293 3 8 3C10.7614 3 13 5.23858 13 8C13 8.64338 12.8785 9.25838 12.6571 9.8233ZM12.1784 10.7471C11.2843 12.1043 9.74677 13 8 13C5.23858 13 3 10.7614 3 8C3 7.35685 3.12143 6.74205 3.34262 6.1773C3.38693 6.24076 3.43171 6.32802 3.47318 6.44649C3.60957 6.83618 3.65621 7.38933 3.68802 8.02559C3.69223 8.10981 3.69618 8.19585 3.70018 8.2829C3.72443 8.81092 3.75047 9.37774 3.8472 9.82442C3.90399 10.0865 3.99596 10.3689 4.17044 10.593C4.36399 10.8414 4.64596 11.0002 4.99954 11.0002C5.34934 11.0002 5.6298 10.845 5.83158 10.6135C6.01814 10.3993 6.13332 10.1262 6.21243 9.8625C6.3585 9.37562 6.42577 8.75585 6.48328 8.1833L6.49661 8.05C6.5608 7.40818 6.61992 6.83754 6.74368 6.425C6.80517 6.22004 6.86981 6.10239 6.92142 6.04317C6.9578 6.00147 6.97438 6.0002 6.99954 6.0002C7.02353 6.0002 7.03484 6.0004 7.06595 6.03731C7.11332 6.09352 7.17372 6.20821 7.23001 6.41328C7.34022 6.81505 7.38661 7.36421 7.43922 7.98705L7.44388 8.04219C7.49547 8.65209 7.55532 9.33715 7.72318 9.86934C7.80793 10.138 7.93366 10.4144 8.13724 10.6291C8.35597 10.8597 8.64798 11.0002 8.99954 11.0002C9.34938 11.0002 9.62982 10.845 9.83158 10.6135C10.0181 10.3993 10.1333 10.1262 10.2124 9.8625C10.367 9.34727 10.4333 8.68309 10.4932 8.08366L10.4966 8.05C10.5608 7.4083 10.62 6.83745 10.7437 6.425C10.8052 6.22006 10.8699 6.10229 10.9214 6.04317C10.9577 6.00154 10.9744 6.00018 10.9995 6.0002C11.0156 6.00001 11.0219 5.99996 11.0396 6.02266C11.078 6.07217 11.1306 6.18153 11.1753 6.38789C11.2526 6.74476 11.2745 7.21108 11.2997 7.7483C11.304 7.83867 11.3083 7.93139 11.313 8.02559C11.3437 8.63914 11.3908 9.33636 11.5826 9.88399C11.6806 10.164 11.8289 10.4453 12.0679 10.6584C12.1034 10.6901 12.1403 10.7196 12.1784 10.7471Z" fill="#03123D"/>
</svg>
