<svg width="48" height="48" viewBox="0 0 48 48" fill="none" xmlns="http://www.w3.org/2000/svg">
<path d="M17.85 16.3133C19.8 16.3133 21.36 16.6429 22.56 17.2723C23.58 17.8417 24.3 18.561 24.84 19.55C25.47 20.7188 25.77 22.2173 25.77 24.0155C25.77 25.1544 25.65 26.1434 25.38 27.0425C25.17 27.8217 24.84 28.4811 24.45 29.0505C24.09 29.56 23.67 30.0096 23.13 30.3692C22.56 30.7888 21.87 31.0885 21.06 31.3282C20.13 31.598 19.05 31.7178 17.85 31.7178H13.26V16.3133H17.85ZM6 9V39.0006L18 39C19.89 39 21.51 38.7608 23.07 38.3113C24.66 37.8617 26.07 37.2024 27.27 36.3332C28.5 35.4641 29.55 34.4151 30.39 33.1864C31.23 31.9576 31.89 30.579 32.34 29.0205C32.79 27.4921 33 25.8138 33 23.9856C33 20.9586 32.4 18.3212 31.2 16.0735C30 13.8257 28.26 12.0875 26.01 10.8587C23.76 9.62994 21.18 9.00124 18 9.00124L6 9Z" fill="#03123D"/>
<path d="M42 9H36V15H42V9Z" fill="#03123D"/>
<path d="M42 33H36V39H42V33Z" fill="#03123D"/>
<path d="M42 24V21H36V24V27H42V24Z" fill="#03123D"/>
</svg>
