<svg width="24" height="24" viewBox="0 0 24 24" fill="none" xmlns="http://www.w3.org/2000/svg">
<path d="M9.22266 4.00098C10.5682 4.00102 11.7066 4.2238 12.7139 4.66211C13.6318 4.24726 14.6453 4.01763 15.7129 4.01758C17.4869 4.01759 19.1557 4.42831 20.5059 5.59375L20.7715 5.83789L20.8242 5.89355C21.069 6.18448 21.0585 6.61972 20.7881 6.89844C20.5177 7.17676 20.0832 7.20043 19.7852 6.96484L19.7275 6.91406L19.5312 6.73438C18.5326 5.8704 17.256 5.51759 15.7129 5.51758C15.2558 5.51761 14.8094 5.57306 14.3789 5.67578C15.0718 6.24486 15.6361 6.94352 16.0664 7.77246C16.6886 8.97124 17 10.3778 17 11.9922C17 12.9672 16.8915 13.8626 16.6582 14.6777C16.4249 15.5088 16.082 16.2441 15.6465 16.8994C15.2876 17.4393 14.8535 17.9126 14.3555 18.3223C14.7938 18.4306 15.248 18.4902 15.7129 18.4902C17.3197 18.4902 18.7025 18.0615 19.7354 17.0869C20.0366 16.803 20.5107 16.8172 20.7949 17.1182C21.0791 17.4193 21.0656 17.8934 20.7646 18.1777C19.3779 19.4864 17.5841 19.9902 15.7129 19.9902C14.6412 19.9902 13.6235 19.7536 12.7012 19.3301C12.4302 19.4448 12.1472 19.5468 11.8516 19.6328C11.0428 19.8725 10.2025 20 9.22266 20H3V4L9.22266 4.00098ZM6.76465 7.90039V16.1162H9.14453C9.16971 16.1162 9.19476 16.1135 9.21973 16.1133C8.52647 14.9041 8.12793 13.49 8.12793 11.9873C8.12799 10.4969 8.51866 9.09832 9.19922 7.90137C9.18105 7.90125 9.16283 7.90039 9.14453 7.90039H6.76465ZM10.8369 8.11133C10.0797 9.18475 9.628 10.5222 9.62793 11.9873C9.62793 13.4613 10.088 14.8101 10.8545 15.8926C11.2546 15.7671 11.5972 15.612 11.8818 15.3965C12.1618 15.2047 12.3798 14.965 12.5664 14.6934C12.7686 14.3897 12.9399 14.0376 13.0488 13.6221C13.1888 13.1427 13.251 12.615 13.251 12.0078C13.2509 11.049 13.0951 10.2502 12.7686 9.62695C12.4886 9.0996 12.1156 8.71577 11.5869 8.41211C11.3617 8.29063 11.1117 8.19018 10.8369 8.11133Z" fill="#03123D"/>
</svg>
