<svg width="64" height="64" viewBox="0 0 64 64" fill="none" xmlns="http://www.w3.org/2000/svg">
<path d="M37.7299 12.8329C45.9833 15.2966 52 22.9456 52 32C52 41.0544 45.9833 48.7034 37.7299 51.1671C43.1448 45.1247 46.0002 38.6475 46.0002 32C46.0002 25.3525 43.1448 18.8753 37.7299 12.8329ZM42.0002 32C42.0002 38.5633 38.5945 45.3773 31.256 51.9864C29.4057 51.9187 27.6195 51.5997 25.9307 51.0625C31.5552 45.3177 34.5 38.734 34.5 32C34.5 25.266 31.5552 18.6823 25.9307 12.9375C27.6195 12.4003 29.4057 12.0813 31.256 12.0136C38.5945 18.6227 42.0002 25.4367 42.0002 32ZM30.5 32C30.5 37.8627 27.7723 43.8972 21.9933 49.3205C20.5613 48.4914 19.2417 47.4898 18.0628 46.3442C20.9 40.61 22.5 36.371 22.5 32C22.5 27.629 20.9 23.39 18.0628 17.6558C19.2417 16.5102 20.5613 15.5086 21.9933 14.6795C27.7723 20.1028 30.5 26.1373 30.5 32ZM18.5 32C18.5 35.0506 17.5093 38.2085 15.262 42.9512C13.1995 39.8053 12 36.0427 12 32C12 27.9573 13.1995 24.1947 15.262 21.0488C17.5093 25.7915 18.5 28.9494 18.5 32ZM32 56C45.2548 56 56 45.2548 56 32C56 18.7452 45.2548 8 32 8C18.7452 8 8 18.7452 8 32C8 45.2548 18.7452 56 32 56Z" fill="#03123D"/>
</svg>
