<svg width="24" height="24" viewBox="0 0 24 24" fill="none" xmlns="http://www.w3.org/2000/svg">
<path fill-rule="evenodd" clip-rule="evenodd" d="M21 20.9961V3H3V20.9961H21ZM17.998 17.9941H16.5V19.4961H19.5V16.4971H17.998V17.9941ZM17.998 8.99707H19.5V14.9971H17.998V13.4971H16.5V10.4941H17.998V8.99707ZM16.5 4.5V5.99707H17.998V7.49707H19.5V4.5H16.5ZM9 5.99707V4.5H15V5.99707H13.5V7.49707H10.498V5.99707H9ZM9 13.4971H10.498V14.9971L13.5 14.9971V13.4971H15V10.4941H13.5V8.99707H10.498V10.4941H9V13.4971ZM15 19.4961H9V17.9941H10.498V16.4971L13.5 16.4971V17.9941H15V19.4961ZM4.5 16.4971V19.4961H7.5V17.9941H6V16.4971H4.5ZM6 14.9971H4.5V8.99707H6V10.4941H7.5V13.4971H6V14.9971ZM4.5 7.49707H6V5.99707H7.5V4.5H4.5V7.49707Z" fill="#03123D"/>
</svg>
