<svg width="16" height="16" viewBox="0 0 16 16" fill="none" xmlns="http://www.w3.org/2000/svg">
<path fill-rule="evenodd" clip-rule="evenodd" d="M15 7.41602C15 10.3155 12.6495 12.666 9.75 12.666C9.68455 12.666 9.61939 12.6648 9.55452 12.6624C8.65218 13.3942 7.5023 13.8327 6.25 13.8327C3.35051 13.8327 1 11.4822 1 8.58268C1 5.68319 3.35051 3.33268 6.25 3.33268C6.31545 3.33268 6.38061 3.33388 6.44548 3.33625C7.34782 2.60448 8.4977 2.16602 9.75 2.16602C12.6495 2.16602 15 4.51652 15 7.41602ZM14 7.41602C14 9.48842 12.5167 11.2144 10.5538 11.5901C11.1501 10.7383 11.5 9.70137 11.5 8.58268C11.5 6.25574 9.98614 4.28239 7.88958 3.59377C8.45148 3.31977 9.08278 3.16602 9.75 3.16602C12.0972 3.16602 14 5.06881 14 7.41602Z" fill="#03123D"/>
</svg>
