<svg width="32" height="32" viewBox="0 0 32 32" fill="none" xmlns="http://www.w3.org/2000/svg">
<path fill-rule="evenodd" clip-rule="evenodd" d="M20 8H12V5C12 4.44772 11.5523 4 11 4C10.4477 4 10 4.44772 10 5V8H6C4.89543 8 4 8.89543 4 10V16V20.4384V26C4 27.1046 4.89543 28 6 28H26C27.1046 28 28 27.1046 28 26V20.4384V16V10C28 8.89543 27.1046 8 26 8H22V5C22 4.44772 21.5523 4 21 4C20.4477 4 20 4.44772 20 5V8ZM10 10H6V16H26V10H22V13C22 13.5523 21.5523 14 21 14C20.4477 14 20 13.5523 20 13V10H12V13C12 13.5523 11.5523 14 11 14C10.4477 14 10 13.5523 10 13V10Z" fill="#03123D"/>
</svg>
