<svg width="48" height="48" viewBox="0 0 48 48" fill="none" xmlns="http://www.w3.org/2000/svg">
<path fill-rule="evenodd" clip-rule="evenodd" d="M10.4606 18.0015C10.4956 18.0005 10.5307 18 10.5659 18L10.4606 18.0015Z" fill="#03123D"/>
<path d="M29.8731 29.4721H31.9706C31.9285 30.1594 31.7391 30.7696 31.4024 31.3026C31.0703 31.8356 30.605 32.2517 30.0064 32.5509C29.4125 32.8501 28.697 32.9998 27.8599 32.9998C27.2052 32.9998 26.6183 32.8875 26.0992 32.6631C25.5801 32.434 25.1358 32.1067 24.7663 31.6813C24.4016 31.2558 24.1233 30.7415 23.9316 30.1384C23.7398 29.5352 23.644 28.8596 23.644 28.1115V27.4032C23.644 26.6551 23.7422 25.9795 23.9386 25.3764C24.1397 24.7686 24.4249 24.2519 24.7944 23.8265C25.1685 23.401 25.6151 23.0737 26.1342 22.8446C26.6533 22.6155 27.2332 22.501 27.8739 22.501C28.725 22.501 29.4429 22.6553 30.0275 22.9638C30.6167 23.2724 31.0727 23.6979 31.3954 24.2403C31.7227 24.7826 31.9191 25.3998 31.9846 26.0917H29.8802C29.8568 25.6803 29.7749 25.332 29.6346 25.0468C29.4943 24.7569 29.2816 24.5395 28.9963 24.3945C28.7157 24.2449 28.3416 24.1701 27.8739 24.1701C27.5232 24.1701 27.2169 24.2356 26.955 24.3665C26.6931 24.4974 26.4733 24.6961 26.2956 24.9626C26.1179 25.2291 25.9846 25.5658 25.8957 25.9725C25.8115 26.3746 25.7695 26.8468 25.7695 27.3892V28.1115C25.7695 28.6399 25.8092 29.1051 25.8887 29.5072C25.9682 29.9046 26.0898 30.2412 26.2535 30.5171C26.4218 30.7883 26.637 30.994 26.8988 31.1342C27.1654 31.2698 27.4858 31.3376 27.8599 31.3376C28.2995 31.3376 28.6619 31.2675 28.9472 31.1272C29.2325 30.987 29.4499 30.7789 29.5996 30.5031C29.7539 30.2272 29.8451 29.8836 29.8731 29.4721Z" fill="#03123D"/>
<path d="M14.0543 22.6065V32.8658H12.002V22.6065H14.0543Z" fill="#03123D"/>
<path fill-rule="evenodd" clip-rule="evenodd" d="M19.4341 9L19.6211 9.00488C20.4514 9.04597 21.244 9.35939 21.8767 9.89502C21.9561 9.9623 22.0331 10.0331 22.1073 10.1073L27.0015 15.0015H39C40.6569 15.0015 42 16.3446 42 18.0015V36.0015C42 37.6066 40.7394 38.9172 39.1543 38.9976L39 39.0015H9L8.8457 38.9976C7.26055 38.9173 6 37.6066 6 36.0015V21V18.0015V12.7804C6 10.6925 7.69254 9 9.7804 9H19.4341ZM10.5659 18C10.5307 18 10.4956 18.0005 10.4606 18.0015H9V18.3396V36.0015H39V18.0015L30 18H10.5659Z" fill="#03123D"/>
<path fill-rule="evenodd" clip-rule="evenodd" d="M19.4341 9L19.6211 9.00488C19.559 9.00181 19.4966 9 19.4341 9Z" fill="#03123D"/>
<path d="M18.1674 24.3026V27.0168H22.256V28.6579H18.1674V32.8658H16.115V22.6065H18.1674H22.7471V24.3026H18.1674Z" fill="#03123D"/>
</svg>
