<svg width="20" height="20" viewBox="0 0 20 20" fill="none" xmlns="http://www.w3.org/2000/svg">
<path d="M12.8213 3.98926C14.3277 3.98926 15.7291 4.33752 16.833 5.34473C17.0412 5.53473 17.056 5.85808 16.8662 6.06641C16.6761 6.2747 16.3529 6.28963 16.1445 6.09961C15.2926 5.32222 14.1751 5.01074 12.8213 5.01074C12.4146 5.01076 12.0194 5.05975 11.6406 5.15039C12.2384 5.5954 12.7201 6.15489 13.0801 6.8291C13.5601 7.72819 13.7998 8.78337 13.7998 9.99414C13.7998 10.7253 13.7161 11.3965 13.5361 12.0078C13.3561 12.6312 13.0919 13.1833 12.7559 13.6748C12.4474 14.126 12.0667 14.5148 11.626 14.8447C12.0097 14.9393 12.4098 14.9912 12.8213 14.9912C14.1445 14.9912 15.2926 14.6578 16.1494 13.8975C16.3603 13.7103 16.6829 13.7295 16.8701 13.9404C17.0573 14.1514 17.0381 14.4739 16.8271 14.6611C15.7283 15.6362 14.3092 16.0117 12.8213 16.0117C11.9749 16.0117 11.1675 15.8344 10.4336 15.5166C10.2396 15.5943 10.0382 15.6652 9.82812 15.7246C9.20414 15.9044 8.55579 16 7.7998 16H3V4L7.7998 4.00098C8.81307 4.00098 9.67326 4.16221 10.4365 4.47559C11.1688 4.16247 11.9754 3.98928 12.8213 3.98926ZM5.9043 6.9248V13.0869H7.65039C7.10275 12.1816 6.78615 11.1218 6.78613 9.98828C6.78613 8.86626 7.09524 7.81991 7.63086 6.9248H5.9043ZM8.79297 7.02148C8.17385 7.84891 7.80762 8.8749 7.80762 9.98828C7.80764 11.1099 8.18118 12.1464 8.80957 12.9814C8.88266 12.9655 8.9544 12.9507 9.02344 12.9307C9.34726 12.8348 9.62364 12.7155 9.85156 12.5479C10.0675 12.4041 10.2359 12.2242 10.3799 12.0205C10.5359 11.7927 10.668 11.5285 10.752 11.2168C10.8599 10.8572 10.9082 10.4614 10.9082 10.0059C10.9082 9.2867 10.7881 8.6872 10.5361 8.21973C10.3201 7.82415 10.032 7.53635 9.62402 7.30859C9.38362 7.18251 9.10712 7.08592 8.79297 7.02148Z" fill="#03123D"/>
</svg>
