<svg width="16" height="16" viewBox="0 0 16 16" fill="none" xmlns="http://www.w3.org/2000/svg">
<path d="M2 8H14V10H2V8Z" fill="#03123D"/>
<path d="M8 4.5C9.84427 4.5 11.4179 5.02669 12.5254 5.54785C13.0802 5.80894 13.5223 6.06984 13.8271 6.26758C13.9796 6.36649 14.0979 6.45026 14.1797 6.50977C14.2204 6.5394 14.2522 6.56312 14.2744 6.58008C14.2855 6.58856 14.2945 6.59567 14.3008 6.60059C14.3039 6.60303 14.3067 6.60493 14.3086 6.60645L14.3115 6.60938L13.6875 7.39062L13.6846 7.3877C13.6812 7.38503 13.6749 7.38103 13.667 7.375C13.6509 7.36267 13.6259 7.34317 13.5918 7.31836C13.5232 7.2685 13.4187 7.19597 13.2822 7.10742C13.009 6.93018 12.6072 6.69103 12.0996 6.45215C11.0821 5.97332 9.65568 5.5 8 5.5C6.34432 5.5 4.91793 5.97332 3.90039 6.45215C3.39278 6.69103 2.99103 6.93018 2.71777 7.10742C2.58126 7.19597 2.47676 7.2685 2.4082 7.31836C2.37409 7.34317 2.34914 7.36267 2.33301 7.375C2.32512 7.38103 2.31884 7.38503 2.31543 7.3877L2.3125 7.39062L1.6875 6.60938L1.69141 6.60645C1.69332 6.60493 1.6961 6.60303 1.69922 6.60059C1.70551 6.59567 1.71448 6.58856 1.72559 6.58008C1.74777 6.56312 1.77956 6.5394 1.82031 6.50977C1.90213 6.45026 2.02036 6.36649 2.17285 6.26758C2.4777 6.06984 2.9198 5.80894 3.47461 5.54785C4.58207 5.02669 6.15573 4.5 8 4.5Z" fill="#03123D"/>
</svg>
