<svg width="32" height="32" viewBox="0 0 32 32" fill="none" xmlns="http://www.w3.org/2000/svg">
<path d="M26.6004 15.9998C27.742 15.9999 28.516 17.1618 28.0769 18.2157L24.4109 27.0155C24.1625 27.6117 23.5793 27.9998 22.9334 27.9998H9.06715C8.42125 27.9998 7.83806 27.6117 7.58961 27.0155L3.92359 18.2157C3.48448 17.1618 4.25849 15.9999 5.40016 15.9998H26.6004ZM17.4695 4.15217C17.9084 3.87788 18.4781 3.98553 18.7888 4.38557L18.8474 4.46956L23.8474 12.4696C24.1401 12.9378 23.9981 13.5547 23.53 13.8475C23.0912 14.1215 22.5214 14.0141 22.2107 13.6141L22.1521 13.5301L17.1521 5.5301L17.1023 5.44026C16.8786 4.98578 17.031 4.42675 17.4695 4.15217ZM13.2117 4.38557C13.5224 3.98553 14.0921 3.8779 14.531 4.15217C14.9695 4.42675 15.1219 4.98577 14.8982 5.44026L14.8484 5.5301L9.84938 13.5301C9.55672 13.9982 8.93968 14.1398 8.47145 13.8475C8.00318 13.5548 7.86042 12.9379 8.15309 12.4696L13.1531 4.46956L13.2117 4.38557Z" fill="#03123D"/>
</svg>
