<svg width="24" height="24" viewBox="0 0 24 24" fill="none" xmlns="http://www.w3.org/2000/svg">
<path d="M12.255 14.9591C12.3582 14.9241 12.4557 14.8664 12.5401 14.7862C12.4626 14.8643 12.3644 14.9232 12.255 14.9591ZM12.003 15L11.9926 14.9999C11.8064 14.9962 11.6212 14.925 11.4751 14.7862C11.6072 14.9155 11.7901 14.997 11.9926 14.9999L12.003 15C12.0021 15 12.004 15 12.003 15Z" fill="#03123D"/>
<path d="M11.2503 14.2659C11.2471 14.4125 11.2927 14.5598 11.3873 14.6872C11.3034 14.5688 11.2534 14.424 11.2503 14.2659ZM11.5317 14.8351C11.6664 14.9409 11.8309 14.9959 11.9926 14.9999L12.003 15C12.0009 15 12.0052 15 12.003 15C12.0021 15 12.004 15 12.003 15L11.9926 14.9999C11.8297 14.9967 11.6675 14.9418 11.5317 14.8351Z" fill="#03123D"/>
<path d="M12.003 15C12.0021 15 12.004 15 12.003 15C12.0009 15 12.0052 15 12.003 15C12.0013 14.9999 11.9943 14.9998 11.9926 14.9999C11.7417 14.9963 11.5201 14.8749 11.3873 14.6872C11.4129 14.7218 11.4422 14.755 11.4751 14.7862C11.6212 14.925 11.8064 14.9962 11.9926 14.9999L12.003 15ZM11.3873 14.6872C11.3034 14.5688 11.2534 14.424 11.2503 14.2659C11.2471 14.4125 11.2927 14.5598 11.3873 14.6872Z" fill="#03123D"/>
<path fill-rule="evenodd" clip-rule="evenodd" d="M21.0001 16.5V21H3L3.00015 16.5001L21.0001 16.5ZM9 18H5.25C4.83 18 4.5 18.33 4.5 18.75C4.5 19.17 4.83 19.5 5.25 19.5H9C9.42 19.5 9.75 19.17 9.75 18.75C9.75 18.33 9.42 18 9 18Z" fill="#03123D"/>
<path d="M12.7501 12.5629V3.75C12.7501 3.33 12.4201 3 12.0001 3C11.5801 3 11.2501 3.33 11.2501 3.75V12.5773L7.71004 9.21378C7.41004 8.92874 6.94504 8.92874 6.64504 9.21378C6.34504 9.49881 6.34504 9.94062 6.64504 10.2257L11.445 14.7862C11.598 14.9315 11.7976 15.0027 11.9926 14.9999C11.7417 14.9963 11.5201 14.8749 11.3873 14.6872C11.4129 14.7218 11.4422 14.755 11.4751 14.7862C11.6212 14.925 11.8064 14.9962 11.9926 14.9999L12.003 15C12.1955 15.0009 12.3891 14.9297 12.5401 14.7862L17.3401 10.2257C17.6401 9.94062 17.6401 9.49881 17.3401 9.21378C17.0401 8.92874 16.5751 8.92874 16.2751 9.21378L12.7501 12.5629ZM11.2503 14.2659C11.2471 14.4125 11.2927 14.5598 11.3873 14.6872C11.3034 14.5688 11.2534 14.424 11.2503 14.2659Z" fill="#03123D"/>
</svg>
