<svg width="16" height="16" viewBox="0 0 16 16" fill="none" xmlns="http://www.w3.org/2000/svg">
<path fill-rule="evenodd" clip-rule="evenodd" d="M5 5V6.5C5 6.77614 5.22386 7 5.5 7C5.77614 7 6 6.77614 6 6.5V5H10V6.5C10 6.77614 10.2239 7 10.5 7C10.7761 7 11 6.77614 11 6.5V5H13V8H3V5H5ZM3 4H5V2.5C5 2.22386 5.22386 2 5.5 2C5.77614 2 6 2.22386 6 2.5V4H10V2.5C10 2.22386 10.2239 2 10.5 2C10.7761 2 11 2.22386 11 2.5V4H13C13.5523 4 14 4.44772 14 5V8V10.2192V13C14 13.5523 13.5523 14 13 14H3C2.44772 14 2 13.5523 2 13V10.2192V8V5C2 4.44772 2.44772 4 3 4Z" fill="#03123D"/>
</svg>
