<svg width="20" height="20" viewBox="0 0 20 20" fill="none" xmlns="http://www.w3.org/2000/svg">
<path d="M13 15H10.5C12.5 15 14 13 14 10.5393C14 10.2373 13.78 10 13.5 10C13.22 10 13 10.2373 13 10.5393C13 12.5 12 14 10 14C8 14 7 12.5 7 10.5393C7 10.2373 6.78 10 6.5 10C6.22 10 6 10.2373 6 10.5393C6 13 7.5 15 9.5 15H7C7 15.5393 7 16.1587 7 16.4607C7 16.7627 7 15.9214 7 17H13C13 17 13 16.7627 13 16.4607C13 16.1587 13 15.5393 13 15Z" fill="#03123D"/>
<path d="M10 13C11.1 13 12 12.2298 12 11V5.23602C12 4.00621 11.1 3 10 3C8.9 3 8 4.00621 8 5.23602V11C8 12.2298 8.9 13 10 13Z" fill="#03123D"/>
</svg>
