<svg width="20" height="20" viewBox="0 0 20 20" fill="none" xmlns="http://www.w3.org/2000/svg">
<path fill-rule="evenodd" clip-rule="evenodd" d="M3.13281 4.00684L3.26167 4C3.21816 4 3.17519 4.00253 3.13281 4.00684ZM7.8052 4L7.91211 4.00488C7.87666 4.00186 7.84101 4 7.8052 4Z" fill="#03123D"/>
<path fill-rule="evenodd" clip-rule="evenodd" d="M2.00154 5.26167C2.00153 5.26441 2.00154 5.25893 2.00154 5.26167Z" fill="#03123D"/>
<path d="M12.71 12.3491H13.7319C13.7114 12.6841 13.6191 12.9814 13.4551 13.2412C13.2933 13.501 13.0666 13.7038 12.7749 13.8496C12.4855 13.9954 12.1369 14.0684 11.729 14.0684C11.41 14.0684 11.124 14.0137 10.8711 13.9043C10.6182 13.7926 10.4017 13.6331 10.2217 13.4258C10.0439 13.2184 9.90837 12.9678 9.81494 12.6738C9.72152 12.3799 9.6748 12.0506 9.6748 11.686V11.3408C9.6748 10.9762 9.72266 10.647 9.81836 10.353C9.91634 10.0568 10.0553 9.80501 10.2354 9.59766C10.4176 9.3903 10.6353 9.23079 10.8882 9.11914C11.1411 9.00749 11.4237 8.95166 11.7358 8.95166C12.1506 8.95166 12.5003 9.02686 12.7852 9.17725C13.0723 9.32764 13.2944 9.53499 13.4517 9.79932C13.6112 10.0636 13.7069 10.3644 13.7388 10.7017H12.7134C12.702 10.5011 12.6621 10.3314 12.5938 10.1924C12.5254 10.0511 12.4217 9.94515 12.2827 9.87451C12.146 9.8016 11.9637 9.76514 11.7358 9.76514C11.5649 9.76514 11.4157 9.79704 11.2881 9.86084C11.1605 9.92464 11.0534 10.0215 10.9668 10.1514C10.8802 10.2812 10.8153 10.4453 10.772 10.6436C10.731 10.8395 10.7104 11.0697 10.7104 11.334V11.686C10.7104 11.9435 10.7298 12.1702 10.7686 12.3662C10.8073 12.5599 10.8665 12.724 10.9463 12.8584C11.0283 12.9906 11.1331 13.0908 11.2607 13.1592C11.3906 13.2253 11.5467 13.2583 11.729 13.2583C11.9432 13.2583 12.1198 13.2241 12.2588 13.1558C12.3978 13.0874 12.5037 12.986 12.5767 12.8516C12.6519 12.7171 12.6963 12.5496 12.71 12.3491Z" fill="#03123D"/>
<path d="M5 9V14H4V9H5Z" fill="#03123D"/>
<path d="M3 7H12H17V15H3V7ZM2.89746 15.9951L3 16H17C17.5177 16 17.9438 15.6067 17.9951 15.1025L18 15V7C18 6.44772 17.5523 6 17 6H10.749L8.59201 4.27582C8.39667 4.11979 8.15964 4.02596 7.91211 4.00488L7.8052 4H3.26167L3.13281 4.00684C2.49951 4.07117 2.0049 4.61235 2.00154 5.26167L2.00356 6.91505C2.0012 6.94306 2 6.97139 2 7V15L2.00488 15.1025C2.05278 15.573 2.42703 15.9472 2.89746 15.9951Z" fill="#03123D"/>
<path d="M6.99902 9.82666V11.1494H8.99121V11.9492H6.99902V14H5.99902V9H6.99902H9.23047V9.82666H6.99902Z" fill="#03123D"/>
</svg>
