<svg width="16" height="16" viewBox="0 0 16 16" fill="none" xmlns="http://www.w3.org/2000/svg">
<path fill-rule="evenodd" clip-rule="evenodd" d="M9.43182 3.20802C11.4955 3.82374 13 5.73617 13 8C13 10.2638 11.4955 12.1763 9.43182 12.792C10.7859 11.2813 11.5 9.66203 11.5 8C11.5 6.33797 10.7859 4.71868 9.43182 3.20802ZM6.48268 12.7656C6.90502 12.9 7.3517 12.9797 7.81442 12.9966C9.64888 11.3444 10.5 9.64075 10.5 8C10.5 6.35925 9.64888 4.65559 7.81442 3.00338C7.3517 3.02026 6.90502 3.10003 6.48268 3.23438C7.88869 4.67056 8.625 6.31659 8.625 8C8.625 9.68341 7.88869 11.3294 6.48268 12.7656ZM8 14C11.3137 14 14 11.3137 14 8C14 4.68629 11.3137 2 8 2C4.68629 2 2 4.68629 2 8C2 11.3137 4.68629 14 8 14ZM5.4983 12.3301C5.14032 12.1228 4.81042 11.8724 4.51571 11.586C5.22501 10.1525 5.625 9.09274 5.625 8C5.625 6.90726 5.22501 5.8475 4.51571 4.41395C4.81042 4.12755 5.14032 3.87716 5.4983 3.66989C6.94308 5.02572 7.625 6.53431 7.625 8C7.625 9.46569 6.94308 10.9743 5.4983 12.3301ZM3.81549 10.7378C4.37732 9.55212 4.625 8.76265 4.625 8C4.625 7.23735 4.37733 6.44788 3.81549 5.2622C3.29987 6.04868 3 6.98932 3 8C3 9.01068 3.29987 9.95132 3.81549 10.7378Z" fill="#03123D"/>
</svg>
