<svg width="16" height="16" viewBox="0 0 16 16" fill="none" xmlns="http://www.w3.org/2000/svg">
<path d="M6.02 8.50542C5.74 8.50542 5.52 8.28524 5.52 8.005C5.52 7.72477 5.74 7.50459 6.02 7.50459H7.56V3.12093C7.56 2.3603 6.89 2 6.36 2C3.93 2.03003 2 5.99333 2 9.0759C2 11.9983 4.02 14.02 6.45 13.99C6.91 13.99 7.55 13.7298 7.55 13.1093V8.49541H6.01L6.02 8.50542Z" fill="#03123D"/>
<path d="M9.98 8.50542C10.26 8.50542 10.48 8.28524 10.48 8.005C10.48 7.72477 10.26 7.50459 9.98 7.50459H8.44V3.12093C8.44 2.3603 9.11 2 9.64 2C12.07 2.03003 14 5.97331 14 9.0759C14 11.9783 11.98 14.02 9.55 13.99C9.09 13.99 8.45 13.7298 8.45 13.1093V8.49541H9.99L9.98 8.50542Z" fill="#03123D"/>
</svg>
