<svg width="24" height="24" viewBox="0 0 24 24" fill="none" xmlns="http://www.w3.org/2000/svg">
<path fill-rule="evenodd" clip-rule="evenodd" d="M12 22C17.5228 22 22 17.5228 22 12C22 6.47715 17.5228 2 12 2C6.47715 2 2 6.47715 2 12C2 17.5228 6.47715 22 12 22ZM13.5 19.5V10.5L10.5 10.5V19.5H13.5ZM9.75 6.75C9.75 5.51626 10.7663 4.5 12 4.5C13.2337 4.5 14.25 5.51626 14.25 6.75C14.25 7.98374 13.2337 9 12 9C10.7663 9 9.75 7.98374 9.75 6.75ZM12.75 6.75C12.75 7.15531 12.4053 7.5 12 7.5C11.5947 7.5 11.25 7.15531 11.25 6.75C11.25 6.34469 11.5947 6 12 6C12.4053 6 12.75 6.34469 12.75 6.75Z" fill="#03123D"/>
</svg>
