<svg width="64" height="64" viewBox="0 0 64 64" fill="none" xmlns="http://www.w3.org/2000/svg">
<path d="M48 14C48 17.3137 45.3137 20 42 20C38.6863 20 36 17.3137 36 14C36 10.6863 38.6863 8 42 8C45.3137 8 48 10.6863 48 14Z" fill="#03123D"/>
<path d="M32.9033 18.3271C33.6877 17.812 34.7384 17.9103 35.4141 18.5859L42.6123 25.7842L49.5146 24.0596C50.5862 23.7917 51.6724 24.4432 51.9404 25.5146C52.2083 26.5862 51.5568 27.6724 50.4854 27.9404L42.4854 29.9404C41.8038 30.1108 41.0827 29.9108 40.5859 29.4141L33.8506 22.6787L27.2002 28L35.249 34.4385C35.8448 34.9151 36.1176 35.6888 35.9521 36.4336L31.9521 54.4336C31.7125 55.5118 30.6446 56.1916 29.5664 55.9521C28.4882 55.7125 27.8084 54.6446 28.0479 53.5664L31.7773 36.7822L22.751 29.5615C22.2765 29.182 22 28.6076 22 28C22 27.3924 22.2765 26.818 22.751 26.4385L32.751 18.4385L32.9033 18.3271Z" fill="#03123D"/>
<path d="M8 21.7143L28 8L18.9091 18.2857H26.1818L9.81818 32L17.0909 21.7143H8Z" fill="#03123D"/>
<path d="M24 44C24 39.582 20.4183 36 16 36C11.5817 36 8 39.582 8 44C8 48.418 11.5817 52 16 52C20.4183 52 24 48.418 24 44ZM28 44C28 50.627 22.6274 56 16 56C9.37256 56 4 50.627 4 44C4 37.373 9.37256 32 16 32C22.6274 32 28 37.373 28 44Z" fill="#03123D"/>
<path d="M56 44C56 39.582 52.4183 36 48 36C43.5817 36 40 39.582 40 44C40 48.418 43.5817 52 48 52C52.4183 52 56 48.418 56 44ZM60 44C60 50.627 54.6274 56 48 56C41.3726 56 36 50.627 36 44C36 37.373 41.3726 32 48 32C54.6274 32 60 37.373 60 44Z" fill="#03123D"/>
</svg>
