<svg width="32" height="32" viewBox="0 0 32 32" fill="none" xmlns="http://www.w3.org/2000/svg">
<path d="M24.3035 20.6209C23.6435 20.6209 23.0235 20.8009 22.5034 21.1209L19.2233 17.8408C19.3633 17.5807 19.4833 17.3207 19.5633 17.0207H21.7234C21.8634 17.3807 22.0634 17.7008 22.3434 17.9808C23.4235 19.0608 25.1836 19.0608 26.2636 17.9808C27.3437 16.9007 27.3437 15.1406 26.2636 14.0606C25.1836 12.9805 23.4235 12.9805 22.3434 14.0606C22.0634 14.3406 21.8634 14.6606 21.7234 15.0206H19.5633C19.4833 14.7206 19.3633 14.4406 19.2033 14.1606L22.4634 10.9004C23.0035 11.2204 23.6235 11.4004 24.3035 11.4004C26.3437 11.4004 28.0037 9.74032 28.0037 7.7002C28.0037 5.66009 26.3437 4 24.3035 4C22.2634 4 20.6033 5.66009 20.6033 7.7002C20.6033 8.40024 20.8033 9.04028 21.1434 9.60031L17.9032 12.8405C17.6032 12.6605 17.2832 12.5405 16.9431 12.4405V10.2803C17.3232 10.1403 17.6632 9.94033 17.9632 9.64031C19.0433 8.56025 19.0433 6.80015 17.9632 5.72009C16.8831 4.64004 15.123 4.64004 14.043 5.72009C12.9629 6.80015 12.9629 8.56025 14.043 9.64031C14.343 9.94033 14.703 10.1403 15.083 10.2803V12.4405C14.763 12.5205 14.463 12.6405 14.183 12.8005L10.8828 9.5003C11.1828 8.96027 11.3828 8.36024 11.3828 7.7002C11.3828 5.66009 9.72274 4 7.68263 4C5.64251 4 4.00242 5.66009 4.00242 7.7002C4.00242 9.74032 5.66251 11.4004 7.70263 11.4004C8.36266 11.4004 8.9627 11.2204 9.48272 10.9204L12.8029 14.2406C12.6629 14.4806 12.5629 14.7406 12.4829 15.0206H10.2628C10.1228 14.6806 9.92275 14.3406 9.64273 14.0606C8.56267 12.9805 6.80258 12.9805 5.72252 14.0606C4.64246 15.1406 4.64246 16.9007 5.72252 17.9808C6.80258 19.0608 8.56267 19.0608 9.64273 17.9808C9.92275 17.7008 10.1228 17.3607 10.2628 17.0207H12.4629C12.5429 17.3407 12.6829 17.6207 12.8429 17.9008L9.58273 21.1609C9.0227 20.8209 8.38266 20.6209 7.68263 20.6209C5.64251 20.6209 3.98242 22.281 3.98242 24.3211C3.98242 26.3612 5.64251 28.0213 7.68263 28.0213C9.72274 28.0213 11.3828 26.3612 11.3828 24.3211C11.3828 23.6411 11.1828 23.021 10.8828 22.481L14.163 19.2008C14.443 19.3608 14.763 19.5009 15.103 19.5809V21.721C14.723 21.861 14.363 22.061 14.063 22.361C12.9829 23.4411 12.9829 25.2012 14.063 26.2812C15.143 27.3613 16.9031 27.3613 17.9832 26.2812C19.0633 25.2012 19.0633 23.4411 17.9832 22.361C17.6832 22.061 17.3232 21.861 16.9631 21.721V19.5809C17.2632 19.5009 17.5432 19.3808 17.8032 19.2408L21.1034 22.541C20.8033 23.081 20.6233 23.6811 20.6233 24.3211C20.6233 26.3612 22.2834 28.0213 24.3235 28.0213C26.3637 28.0213 28.0237 26.3612 28.0237 24.3211C28.0237 22.281 26.3637 20.6209 24.3235 20.6209H24.3035Z" fill="#03123D"/>
</svg>
