<svg width="64" height="64" viewBox="0 0 64 64" fill="none" xmlns="http://www.w3.org/2000/svg">
<path fill-rule="evenodd" clip-rule="evenodd" d="M13.1318 36C11.6242 30.8001 11.6236 25.2001 13.1309 20H8V36H13.1318ZM22.127 36C19.2916 30.9244 19.2906 25.0758 22.126 20H17.3252C15.5589 25.1454 15.5595 30.8544 17.3262 36H22.127ZM46.6738 36C48.4406 30.8544 48.4411 25.1454 46.6748 20H41.874C44.7093 25.0758 44.7085 30.9243 41.873 36H46.6738ZM50.8682 36H56V20H50.8691C52.3764 25.2001 52.3758 30.8001 50.8682 36Z" fill="#03123D"/>
<path d="M40 8H24C21.7909 8 20 9.79086 20 12V16H28V20H26.9346C23.0255 24.9209 23.0255 31.0788 26.9336 36H28V40H8V56H56V40H36V36H37.0664C40.9742 31.0789 40.9748 24.9209 37.0664 20H36V16H44V12C44 9.79086 42.2091 8 40 8Z" fill="#03123D"/>
</svg>
