<svg width="64" height="64" viewBox="0 0 64 64" fill="none" xmlns="http://www.w3.org/2000/svg">
<path d="M53.2005 32.0002C55.4838 32.0003 57.0326 34.3232 56.1546 36.4308L48.8206 54.0314C48.3237 55.2236 47.1582 56.0002 45.8665 56.0002H18.1341C16.8424 56.0002 15.677 55.2236 15.18 54.0314L7.84602 36.4308C6.96802 34.3232 8.51687 32.0003 10.8001 32.0002H53.2005ZM26.4212 8.77263C27.0424 7.97173 28.1818 7.75542 29.0599 8.30388C29.9379 8.85258 30.2435 9.97159 29.7962 10.881L29.6966 11.0597L19.6976 27.0597C19.1123 27.9964 17.8784 28.2816 16.9417 27.6965C16.0637 27.1477 15.758 26.0287 16.2054 25.1193L16.305 24.9406L26.304 8.9406L26.4212 8.77263ZM34.9407 8.30388C35.8189 7.75544 36.9582 7.97171 37.5794 8.77263L37.6966 8.9406L47.6966 24.9406L47.7962 25.1193C48.2436 26.0287 47.9378 27.1477 47.0599 27.6965C46.1233 28.2815 44.8894 27.9963 44.304 27.0597L34.304 11.0597L34.2044 10.881C33.7572 9.97163 34.0628 8.8526 34.9407 8.30388Z" fill="#03123D"/>
</svg>
