<svg width="16" height="16" viewBox="0 0 16 16" fill="none" xmlns="http://www.w3.org/2000/svg">
<path d="M5.99899 14L4.35251 12.3535L2.3525 14.3535C2.15727 14.5487 1.84074 14.5487 1.64547 14.3535C1.45021 14.1582 1.45021 13.8417 1.64547 13.6465L3.64547 11.6465L1.99899 9.99997H5.99899V14ZM12.3525 11.6465L14.3525 13.6465C14.5476 13.8417 14.5476 14.1583 14.3525 14.3535C14.1573 14.5487 13.8408 14.5486 13.6455 14.3535L11.6455 12.3535L9.999 14V9.99997H13.999L12.3525 11.6465ZM1.64645 1.64645C1.84171 1.45118 2.15822 1.45118 2.35348 1.64645L4.35348 3.64645L5.99997 1.99996V5.99997H1.99996L3.64645 4.35348L1.64645 2.35348C1.45118 2.15822 1.45118 1.84171 1.64645 1.64645ZM13.6465 1.64645C13.8417 1.45118 14.1582 1.45118 14.3535 1.64645C14.5487 1.84171 14.5487 2.15823 14.3535 2.35348L12.3535 4.35348L14 5.99997H9.99997V1.99996L11.6465 3.64645L13.6465 1.64645Z" fill="#03123D"/>
</svg>
