<svg width="32" height="32" viewBox="0 0 32 32" fill="none" xmlns="http://www.w3.org/2000/svg">
<path fill-rule="evenodd" clip-rule="evenodd" d="M16 30C19.6805 30 23.0293 28.5798 25.5282 26.2574C22.9434 28.6587 19.5408 30 16 30Z" fill="#03123D"/>
<path fill-rule="evenodd" clip-rule="evenodd" d="M25.5282 26.2574C25.654 26.1406 25.7778 26.0213 25.8996 25.8995L25.919 25.8799C25.7912 26.0082 25.6609 26.1341 25.5282 26.2574Z" fill="#03123D"/>
<path d="M16.0001 14L11.9967 8L19.9967 8L16.0001 14Z" fill="#03123D"/>
<path d="M16.0001 14C10.6412 14 6.44299 16.6907 4.25414 18.4684C4.08757 17.6718 4 16.8461 4 16C4 9.37258 9.37258 4 16 4C22.6274 4 28 9.37258 28 16C28 16.8461 27.9124 17.6717 27.7459 18.4683C25.557 16.6906 21.3588 14 16.0001 14ZM16 30C19.5408 30 22.9434 28.6587 25.5282 26.2574C25.6609 26.1341 25.7912 26.0082 25.919 25.8799C28.441 23.348 30 19.856 30 16C30 8.26801 23.732 2 16 2C8.26801 2 2 8.26801 2 16C2 23.732 8.26801 30 16 30Z" fill="#03123D"/>
</svg>
