<svg width="20" height="20" viewBox="0 0 20 20" fill="none" xmlns="http://www.w3.org/2000/svg">
<path fill-rule="evenodd" clip-rule="evenodd" d="M8 6.00024H12V8.16691C12 8.44305 12.2239 8.66691 12.5 8.66691C12.7761 8.66691 13 8.44305 13 8.16691V6.00024H15.8333C15.9254 6.00024 16 6.07486 16 6.16691V10.0211H4V6.16691C4 6.07486 4.07462 6.00024 4.16667 6.00024H7V8.16691C7 8.44305 7.22386 8.66691 7.5 8.66691C7.77614 8.66691 8 8.44305 8 8.16691V6.00024ZM12 5.00024H8V3.50024C8 3.2241 7.77614 3.00024 7.5 3.00024C7.22386 3.00024 7 3.2241 7 3.50024V5.00024H4.16667C3.52233 5.00024 3 5.52258 3 6.16691V10.0211V12.3265V15.8544C3 16.4987 3.52234 17.0211 4.16667 17.0211H15.8333C16.4777 17.0211 17 16.4987 17 15.8544V12.3265V10.0211V6.16691C17 5.52258 16.4777 5.00024 15.8333 5.00024H13V3.50024C13 3.2241 12.7761 3.00024 12.5 3.00024C12.2239 3.00024 12 3.2241 12 3.50024V5.00024Z" fill="#03123D"/>
</svg>
