<svg width="24" height="24" viewBox="0 0 24 24" fill="none" xmlns="http://www.w3.org/2000/svg">
<path fill-rule="evenodd" clip-rule="evenodd" d="M22 10.5C22 14.284 19.1977 17.4135 15.5552 17.9264C14.1906 19.7898 11.9866 21 9.5 21C5.35786 21 2 17.6421 2 13.5C2 9.716 4.80231 6.58652 8.44483 6.07364C9.80937 4.21015 12.0134 3 14.5 3C18.6421 3 22 6.35786 22 10.5ZM20.5 10.5C20.5 13.1059 18.8387 15.3238 16.5175 16.1524C16.8293 15.3278 17 14.4338 17 13.5C17 9.68413 14.1503 6.53384 10.4629 6.06124C11.5288 5.09128 12.9453 4.5 14.5 4.5C17.8137 4.5 20.5 7.18629 20.5 10.5Z" fill="#03123D"/>
</svg>
