<svg width="24" height="24" viewBox="0 0 24 24" fill="none" xmlns="http://www.w3.org/2000/svg">
<path d="M17 18H12.75V17.94C15.705 17.565 18 15.06 18 12.015C18 11.595 17.67 11.265 17.25 11.265C16.83 11.265 16.5 11.595 16.5 12.015C16.5 14.49 14.49 16.515 12 16.515C9.51 16.515 7.5 14.505 7.5 12.015C7.5 11.595 7.17 11.265 6.75 11.265C6.33 11.265 6 11.595 6 12.015C6 15.06 8.295 17.565 11.25 17.94V18H7C7 18.75 7 19.83 7 20.25C7 20.67 7 19.5 7 21H17C17 21 17 20.67 17 20.25C17 19.83 17 18.75 17 18Z" fill="#03123D"/>
<path d="M12 15.075C13.65 15.075 15 13.725 15 12.075V6C15 4.35 13.65 3 12 3C10.35 3 9 4.35 9 6V12.075C9 13.725 10.35 15.075 12 15.075Z" fill="#03123D"/>
</svg>
