<svg width="48" height="48" viewBox="0 0 48 48" fill="none" xmlns="http://www.w3.org/2000/svg">
<path fill-rule="evenodd" clip-rule="evenodd" d="M24 4C12.4191 4 4 12.4191 4 24C4 35.5809 12.4191 44 24 44C35.5809 44 44 35.5809 44 24C44 12.4191 35.5809 4 24 4ZM17.3603 35.9669H12.6507V20.2169H17.3603V35.9669ZM14.9669 17.8235C13.4228 17.8235 12.1875 16.511 12.1875 14.9669C12.1875 13.4228 13.4228 12.1103 14.9669 12.1103C16.511 12.1103 17.8235 13.4228 17.8235 14.9669C17.8235 16.511 16.511 17.8235 14.9669 17.8235ZM35.8897 27.7059V35.9669H31.2573V27.4743C31.2573 25.6985 29.9448 24.3088 28.1691 24.3088C26.3934 24.3088 24.8493 25.6985 24.772 27.4743V35.9669H20.1397V20.2169H24.772V22.4559C25.7757 20.989 27.3971 20.0625 29.25 20.0625H30.5625C33.4963 20.0625 35.8897 22.5331 35.8897 25.3897V27.7831V27.7059Z" fill="#03123D"/>
</svg>
