<svg width="16" height="16" viewBox="0 0 16 16" fill="none" xmlns="http://www.w3.org/2000/svg">
<path fill-rule="evenodd" clip-rule="evenodd" d="M11.4679 4H14C14.5523 4 15 4.44772 15 5V11C15 11.5523 14.5523 12 14 12H12.874C12.9562 12.3196 13 12.6547 13 13V15H3V13C3 12.6547 3.04375 12.3196 3.12602 12H2C1.44772 12 1 11.5523 1 11V5C1 4.44772 1.44772 4 2 4H4.52992C4.75028 2.19472 6.1646 1 8 1C9.82949 1 11.2406 2.25514 11.4679 4ZM12.4649 11C11.7733 9.8044 10.4806 9 9 9H7C5.51944 9 4.22675 9.8044 3.53513 11H2V5H4.53209C4.75939 6.74486 6.17051 8 8 8C9.82949 8 11.2406 6.74486 11.4679 5H14V11H12.4649ZM7 6.5L10 4.5L7 2.5V6.5Z" fill="#03123D"/>
</svg>
