<svg width="64" height="64" viewBox="0 0 64 64" fill="none" xmlns="http://www.w3.org/2000/svg">
<path fill-rule="evenodd" clip-rule="evenodd" d="M43.6262 19.9975C40.7802 14.7779 35.0183 11.4687 28.7513 12.0704C22.3837 12.6817 17.295 17.153 15.5616 22.944C9.99117 25.1125 6 30.4964 6 36.8481C6 45.146 13.0687 52 21.3271 52H42.3871L42.3846 51.9955C51.0435 51.7907 58 44.6888 58 35.9578C58 27.6484 51.699 20.8145 43.6262 19.9975ZM38.964 20.2041C36.6583 17.3643 33.0252 15.6889 29.1325 16.0626C25.2657 16.4339 22.0271 18.7415 20.2906 21.9386C20.5343 21.9268 20.7795 21.9209 21.0259 21.9209C24.4923 21.9209 27.695 23.0976 30.2423 25.0775C32.5128 22.6122 35.5449 20.8625 38.964 20.2041ZM26 35.9578C26 33.202 26.693 30.6085 27.9139 28.343C26.0294 26.8345 23.6334 25.9314 21.0259 25.9314C14.9515 25.9314 10 30.8276 10 36.8481C10 42.8579 15.2042 47.9894 21.3271 47.9894H31.4167C28.095 45.0499 26 40.7492 26 35.9578Z" fill="#03123D"/>
</svg>
