<svg width="64" height="64" viewBox="0 0 64 64" fill="none" xmlns="http://www.w3.org/2000/svg">
<path fill-rule="evenodd" clip-rule="evenodd" d="M56 32C56 45.2548 45.2548 56 32 56C18.7452 56 8 45.2548 8 32C8 18.7452 18.7452 8 32 8C45.2548 8 56 18.7452 56 32ZM50.6283 39.2938C51.5138 37.034 52 34.5738 52 32C52 20.9543 43.0457 12 32 12C25.012 12 18.861 15.5839 15.2849 21.0139C15.4362 21.1229 15.5825 21.2404 15.7236 21.3662C16.6798 22.2188 17.2748 23.3436 17.667 24.4639C18.4339 26.6551 18.6224 29.4454 18.7451 31.9004C18.7638 32.2732 18.7809 32.6388 18.7978 32.9965C18.8991 35.1514 18.987 37.0208 19.2969 38.4512C19.476 39.2777 19.6842 39.7148 19.8379 39.9121C19.9073 40.0012 19.9126 40.0012 19.9746 40.0002L19.998 40C20.0988 40 20.1647 39.9945 20.3105 39.8271C20.5169 39.5903 20.7736 39.1203 21.0195 38.3008C21.5146 36.6506 21.7511 34.3681 22.0078 31.8008L22.0214 31.6647C22.261 29.2674 22.5264 26.6114 23.1445 24.5508C23.461 23.4957 23.9234 22.4027 24.6699 21.5459C25.477 20.6197 26.5989 20 27.998 20C29.402 20 30.5249 20.6243 31.3223 21.5703C32.0544 22.439 32.4883 23.5422 32.7773 24.5957C33.3179 26.5663 33.5298 29.0913 33.7231 31.3957L33.7598 31.8311C33.9763 34.3914 34.1966 36.6522 34.708 38.2734C34.9603 39.0731 35.2296 39.5301 35.4521 39.7646C35.6145 39.9357 35.7503 40 35.998 40C36.0987 40 36.1645 39.9938 36.3105 39.8262C36.517 39.5891 36.7737 39.1194 37.0195 38.2998C37.5146 36.6494 37.7511 34.3672 38.0078 31.7998L38.0216 31.6616C38.2612 29.2645 38.5265 26.6088 39.1445 24.5488C39.4611 23.4938 39.9231 22.4006 40.6699 21.5439C41.4773 20.6179 42.5999 19.9992 43.999 20C45.4136 20.0009 46.5406 20.6377 47.3145 21.6318C48.0122 22.5283 48.3822 23.6546 48.6094 24.7031C48.9957 26.4862 49.0993 28.7478 49.1958 30.8562L49.2243 31.4702C49.2311 31.6147 49.238 31.7578 49.2451 31.9004C49.3724 34.4448 49.5591 36.6547 50.1045 38.2129C50.2713 38.6893 50.4507 39.0396 50.6283 39.2938ZM14.7848 32.8069C14.7737 32.568 14.7626 32.3327 14.751 32.0996C14.6237 29.5549 14.437 27.3448 13.8916 25.7861C13.7257 25.3122 13.5473 24.963 13.3705 24.7092C12.4857 26.9682 12 29.4274 12 32C12 43.0457 20.9543 52 32 52C38.9878 52 45.1386 48.4163 48.7148 42.9866C48.5622 42.8769 48.4147 42.7586 48.2725 42.6318C47.3163 41.7794 46.7213 40.6553 46.3291 39.5352C45.5621 37.3444 45.3737 34.555 45.251 32.1006C45.2323 31.7273 45.2151 31.3612 45.1983 31.003C45.097 28.849 45.0091 26.98 44.6992 25.5498C44.5202 24.7236 44.312 24.2866 44.1582 24.0889C44.0882 23.9989 44.0825 23.9989 44.0197 23.9998L43.9971 24C43.8964 23.9999 43.8312 24.0058 43.6855 24.1729C43.4793 24.4094 43.2225 24.8785 42.9766 25.6982C42.4816 27.3481 42.245 29.6298 41.9883 32.1973L41.9743 32.3368C41.7348 34.7336 41.4695 37.3892 40.8516 39.4492C40.535 40.5045 40.0728 41.5972 39.3262 42.4541C38.5191 43.3804 37.3974 44 35.998 44C34.5918 44 33.4247 43.439 32.5498 42.5166C31.7349 41.6575 31.2317 40.5517 30.8926 39.4766C30.2212 37.3479 29.9798 34.6085 29.7734 32.1689L29.7514 31.9081C29.5424 29.4333 29.3583 27.2528 28.9199 25.6543C28.6946 24.833 28.4533 24.3734 28.2637 24.1484C28.1392 24.0008 28.094 24 27.998 24C27.8973 24 27.8314 24.0055 27.6855 24.1729C27.4791 24.4097 27.2225 24.8797 26.9766 25.6992C26.4815 27.3494 26.245 29.6319 25.9883 32.1992L25.9747 32.3353C25.9447 32.6349 25.9144 32.9386 25.883 33.2447C25.6632 35.3873 25.3924 37.6461 24.8516 39.4492C24.535 40.5043 24.0727 41.5973 23.3262 42.4541C22.5191 43.3803 21.3972 44 19.998 44C18.5832 44 17.4558 43.3635 16.6816 42.3691C15.9838 41.4728 15.6139 40.3472 15.3867 39.2988C15.0004 37.516 14.8969 35.254 14.8003 33.1454L14.7848 32.8069Z" fill="#03123D"/>
</svg>
