<svg width="48" height="48" viewBox="0 0 48 48" fill="none" xmlns="http://www.w3.org/2000/svg">
<path d="M18.06 25.5163C17.22 25.5163 16.56 24.8557 16.56 24.015C16.56 23.1743 17.22 22.5138 18.06 22.5138H22.68V9.3628C22.68 7.0809 20.67 6 19.08 6C11.79 6.09008 6 17.98 6 27.2277C6 35.995 12.06 42.06 19.35 41.97C20.73 41.97 22.65 41.1893 22.65 39.3278V25.4862H18.03L18.06 25.5163Z" fill="#03123D"/>
<path d="M29.9481 25.5163C30.7881 25.5163 31.4481 24.8557 31.4481 24.015C31.4481 23.1743 30.7881 22.5138 29.9481 22.5138H25.3281V9.3628C25.3281 7.0809 27.3381 6 28.9281 6C36.2181 6.09008 42.0081 17.9199 42.0081 27.2277C42.0081 35.9349 35.9481 42.06 28.6581 41.97C27.2781 41.97 25.3581 41.1893 25.3581 39.3278V25.4862H29.9781L29.9481 25.5163Z" fill="#03123D"/>
</svg>
