<svg width="32" height="32" viewBox="0 0 32 32" fill="none" xmlns="http://www.w3.org/2000/svg">
<path d="M28 4V28H4V4H28ZM6 26H26V6H6V26Z" fill="#03123D"/>
<path d="M8 8H12V12H8V8Z" fill="#03123D"/>
<path d="M8 14H12V18H8V14Z" fill="#03123D"/>
<path d="M8 20H12V24H8V20Z" fill="#03123D"/>
<path d="M20 8H24V12H20V8Z" fill="#03123D"/>
<path d="M14 8H18V12H14V8Z" fill="#03123D"/>
<path d="M20 14H24V18H20V14Z" fill="#03123D"/>
<path d="M14 14H18V18H14V14Z" fill="#03123D"/>
<path d="M14 20H18V24H14V20Z" fill="#03123D"/>
</svg>
