<svg width="24" height="24" viewBox="0 0 24 24" fill="none" xmlns="http://www.w3.org/2000/svg">
<path d="M19.5 3C20.3284 3 21 3.67157 21 4.5V19.5C21 20.2767 20.4097 20.9154 19.6533 20.9922L19.5 21H4.5L4.34668 20.9922C3.64069 20.9205 3.07949 20.3593 3.00781 19.6533L3 19.5V4.5C3 3.67157 3.67157 3 4.5 3H19.5ZM4.5 19.5H11.25V11.5605L8.78027 14.0303C8.48739 14.3232 8.01262 14.3231 7.71973 14.0303C7.42683 13.7374 7.42683 13.2626 7.71973 12.9697L12 8.68945L16.2803 12.9697L16.332 13.0264C16.5723 13.3209 16.5548 13.7557 16.2803 14.0303C16.0057 14.3049 15.5709 14.3223 15.2764 14.082L15.2197 14.0303L12.75 11.5605V19.5H19.5V7.5H4.5V19.5Z" fill="#03123D"/>
</svg>
