<svg width="16" height="16" viewBox="0 0 16 16" fill="none" xmlns="http://www.w3.org/2000/svg">
<path fill-rule="evenodd" clip-rule="evenodd" d="M4 4.5C4 4.22386 4.22386 4 4.5 4H11.5C11.7761 4 12 4.22386 12 4.5C12 4.77614 11.7761 5 11.5 5H4.5C4.22386 5 4 4.77614 4 4.5ZM4 6.5C4 6.22386 4.22386 6 4.5 6H8C8.27614 6 8.5 6.22386 8.5 6.5C8.5 6.77614 8.27614 7 8 7H4.5C4.22386 7 4 6.77614 4 6.5Z" fill="#03123D"/>
<path fill-rule="evenodd" clip-rule="evenodd" d="M3 2C2.44772 2 2 2.44772 2 3V10V14L6 10H13C13.5523 10 14 9.55228 14 9V3C14 2.44772 13.5523 2 13 2H3ZM13 3H3V9H13V3Z" fill="#03123D"/>
</svg>
