<svg width="20" height="20" viewBox="0 0 20 20" fill="none" xmlns="http://www.w3.org/2000/svg">
<path d="M17 9C17 11.315 15.4267 13.2625 13.2911 13.8317C13.7434 12.9882 14 12.0241 14 11C14 7.99575 11.792 5.50721 8.9103 5.06861C9.76078 4.39928 10.8338 4 12 4C14.7614 4 17 6.23858 17 9ZM12.4898 14.9803C15.5744 14.7311 18 12.1488 18 9C18 5.68629 15.3137 3 12 3C10.2135 3 8.60938 3.78077 7.51023 5.0197C4.4256 5.2689 2 7.85119 2 11C2 14.3137 4.68629 17 8 17C9.78649 17 11.3906 16.2192 12.4898 14.9803Z" fill="#03123D"/>
</svg>
