<svg width="32" height="32" viewBox="0 0 32 32" fill="none" xmlns="http://www.w3.org/2000/svg">
<path fill-rule="evenodd" clip-rule="evenodd" d="M21.8131 9.99873C20.3901 7.38897 17.5091 5.73435 14.3756 6.03518C11.1919 6.34084 8.64749 8.57649 7.78078 11.472C4.99558 12.5562 3 15.2482 3 18.424C3 22.573 6.53435 26 10.6635 26H21.1935L21.1923 25.9977C25.5217 25.8953 29 22.3444 29 17.9789C29 13.8242 25.8495 10.4073 21.8131 9.99873ZM19.482 10.102C18.3292 8.68214 16.5126 7.84447 14.5663 8.03132C12.6329 8.21694 11.0135 9.37077 10.1453 10.9693C10.2672 10.9634 10.3897 10.9604 10.5129 10.9604C12.2462 10.9604 13.8475 11.5488 15.1212 12.5387C16.2564 11.3061 17.7724 10.4313 19.482 10.102ZM13 17.9789C13 16.601 13.3465 15.3043 13.957 14.1715C13.0147 13.4173 11.8167 12.9657 10.5129 12.9657C7.47575 12.9657 5 15.4138 5 18.424C5 21.429 7.60212 23.9947 10.6635 23.9947H15.7084C14.0475 22.525 13 20.3746 13 17.9789Z" fill="#03123D"/>
</svg>
