<svg width="48" height="48" viewBox="0 0 48 48" fill="none" xmlns="http://www.w3.org/2000/svg">
<path fill-rule="evenodd" clip-rule="evenodd" d="M12 13.5C12 12.6716 12.6716 12 13.5 12H34.5C35.3284 12 36 12.6716 36 13.5C36 14.3284 35.3284 15 34.5 15H13.5C12.6716 15 12 14.3284 12 13.5ZM12 19.5C12 18.6716 12.6716 18 13.5 18H24C24.8284 18 25.5 18.6716 25.5 19.5C25.5 20.3284 24.8284 21 24 21H13.5C12.6716 21 12 20.3284 12 19.5Z" fill="#03123D"/>
<path fill-rule="evenodd" clip-rule="evenodd" d="M9 6C7.34315 6 6 7.34315 6 9V30V42L18 30H39C40.6569 30 42 28.6569 42 27V9C42 7.34315 40.6569 6 39 6H9ZM39 9H9V27H39V9Z" fill="#03123D"/>
</svg>
