<svg width="32" height="32" viewBox="0 0 32 32" fill="none" xmlns="http://www.w3.org/2000/svg">
<path d="M7 27H25V5H7V27ZM27 27.4004L26.9922 27.5635C26.9158 28.3166 26.3166 28.9158 25.5635 28.9922L25.4004 29H6.59961C5.7713 28.9998 5.08966 28.3702 5.00781 27.5635L5 27.4004V4.59961C5.00021 3.71626 5.71626 3.00021 6.59961 3H25.4004L25.5635 3.00781C26.3702 3.08966 26.9998 3.7713 27 4.59961V27.4004Z" fill="#03123D"/>
<path d="M9 7H23V11H9.00026L9 7Z" fill="#03123D"/>
<path d="M9 12H12.3333V15.3333H9V12Z" fill="#03123D"/>
<path d="M19.6719 12H23.0052V15.3333H19.6719V12Z" fill="#03123D"/>
<path d="M14.3281 12H17.6615V15.3333H14.3281V12Z" fill="#03123D"/>
<path d="M9 16.8333H12.3333V20.1667H9V16.8333Z" fill="#03123D"/>
<path d="M19.6719 16.8333H23.0052V20.1667H19.6719V16.8333Z" fill="#03123D"/>
<path d="M14.3281 16.8333H17.6615V20.1667H14.3281V16.8333Z" fill="#03123D"/>
<path d="M9 21.6667H12.3333V25H9V21.6667Z" fill="#03123D"/>
<path d="M19.6719 21.6667H23.0052V25H19.6719V21.6667Z" fill="#03123D"/>
<path d="M14.3281 21.6667H17.6615V25H14.3281V21.6667Z" fill="#03123D"/>
</svg>
