<svg width="24" height="24" viewBox="0 0 24 24" fill="none" xmlns="http://www.w3.org/2000/svg">
<path fill-rule="evenodd" clip-rule="evenodd" d="M3.5 3V10H2V3H3.5Z" fill="#03123D"/>
<path fill-rule="evenodd" clip-rule="evenodd" d="M6.15 4V9H4.65V4H6.15Z" fill="#03123D"/>
<path fill-rule="evenodd" clip-rule="evenodd" d="M8.8 5V8H7.3V5H8.8Z" fill="#03123D"/>
<path d="M10 5.31581C10 4.03682 10.6761 3 12.0016 3C13.327 3 14 4.03692 14 5.3159V11.6843C14 12.9633 13.327 14 12.0016 14C10.6761 14 10 12.9632 10 11.6842V5.31581Z" fill="#03123D"/>
<path fill-rule="evenodd" clip-rule="evenodd" d="M16.7 5V8H15.2V5H16.7Z" fill="#03123D"/>
<path fill-rule="evenodd" clip-rule="evenodd" d="M19.35 4V9H17.85V4H19.35Z" fill="#03123D"/>
<path fill-rule="evenodd" clip-rule="evenodd" d="M22 3V10H20.5V3H22Z" fill="#03123D"/>
<path d="M16.5 17.9996H12.75V17.9396C15.705 17.5646 18 15.0596 18 12.0146C18 11.5946 17.67 11.2646 17.25 11.2646C16.83 11.2646 16.5 11.5946 16.5 12.0146C16.5 14.4896 14.49 16.5146 12 16.5146C9.51 16.5146 7.5 14.5046 7.5 12.0146C7.5 11.5946 7.17 11.2646 6.75 11.2646C6.33 11.2646 6 11.5946 6 12.0146C6 15.0596 8.295 17.5646 11.25 17.9396V17.9996H7.5C7.5 18.7496 7.5 19.8296 7.5 20.2496C7.5 20.6696 7.5 19.4996 7.5 20.9996H16.5C16.5 20.9996 16.5 20.6696 16.5 20.2496C16.5 19.8296 16.5 18.7496 16.5 17.9996Z" fill="#03123D"/>
</svg>
