<svg width="24" height="24" viewBox="0 0 24 24" fill="none" xmlns="http://www.w3.org/2000/svg">
<path fill-rule="evenodd" clip-rule="evenodd" d="M19.5 4.50004H12V9.00004H19.5V4.50004ZM10.5 3.00004V10.5H21V3.00004H10.5Z" fill="#03123D"/>
<path fill-rule="evenodd" clip-rule="evenodd" d="M19.5 13.5H12V18H19.5V13.5ZM10.5 12V19.5H21V12H10.5Z" fill="#03123D"/>
<path fill-rule="evenodd" clip-rule="evenodd" d="M7.55364 12.4715L6.05369 16.2214L4.43936 12.4546C4.27619 12.0739 3.83528 11.8975 3.45456 12.0607C3.07384 12.2239 2.89747 12.6648 3.06064 13.0455L5.26585 18.191L4.74223 19.5H3.28711C2.8729 19.5 2.53711 19.8358 2.53711 20.25C2.53711 20.6643 2.8729 21 3.28711 21H4.74223C5.35558 21 5.90715 20.6266 6.13494 20.0571L8.94636 13.0286C9.10019 12.644 8.91313 12.2075 8.52854 12.0537C8.14396 11.8999 7.70748 12.0869 7.55364 12.4715Z" fill="#03123D"/>
<path fill-rule="evenodd" clip-rule="evenodd" d="M3.3 3.15004C3.63137 2.90152 4.10147 2.96867 4.35 3.30004L6 5.50004L7.65 3.30004C7.89853 2.96867 8.36863 2.90152 8.7 3.15004C9.03137 3.39857 9.09853 3.86867 8.85 4.20004L6.9375 6.75004L8.85 9.30004C9.09853 9.63142 9.03137 10.1015 8.7 10.35C8.36863 10.5986 7.89853 10.5314 7.65 10.2L6 8.00004L4.35 10.2C4.10147 10.5314 3.63137 10.5986 3.3 10.35C2.96863 10.1015 2.90147 9.63142 3.15 9.30004L5.0625 6.75004L3.15 4.20004C2.90147 3.86867 2.96863 3.39857 3.3 3.15004Z" fill="#03123D"/>
</svg>
