<svg width="24" height="24" viewBox="0 0 24 24" fill="none" xmlns="http://www.w3.org/2000/svg">
<path fill-rule="evenodd" clip-rule="evenodd" d="M4.57822 9.00089H2.00098V10.501H4.57828C4.52907 10.2586 4.50323 10.0077 4.50323 9.75079C4.50323 9.49398 4.52905 9.24319 4.57822 9.00089Z" fill="#03123D"/>
<path d="M9.00138 6.07518V2.00049H7.5013V6.07603C6.03282 6.37499 4.87631 7.5321 4.57822 9.00089C4.52905 9.24319 4.50323 9.49398 4.50323 9.75079C4.50323 10.0077 4.52907 10.2586 4.57828 10.501C4.87646 11.9696 6.03291 13.1266 7.5013 13.4256V22.0016H9.00138V13.4264C10.4718 13.1288 11.6301 11.971 11.9286 10.501H22.0021V9.00089H11.9287C11.6303 7.53069 10.4719 6.37279 9.00138 6.07518ZM20.003 16.0012L12.0026 13.001L15.0028 21.0014L17.0029 18.0013L20.003 16.0012Z" fill="#03123D"/>
</svg>
