<svg width="32" height="32" viewBox="0 0 32 32" fill="none" xmlns="http://www.w3.org/2000/svg">
<path d="M21.2 20.7L28 28H14L21.2 20.7Z" fill="#03123D"/>
<path d="M16.5938 14L17.48 9.93C17.98 7.69 19.9 5.99 21.94 5.99H26C26.55 5.99 27 5.54 27 4.99C27 4.44 26.55 4 26 4H21.94C18.98 4 16.22 6.37 15.52 9.51L14.5415 14H14H10V16H14.1057L12.82 21.9C12.36 23.88 11.09 26 8.87 26H4C3.45 26 3 26.45 3 27C3 27.55 3.45 28 4 28H8.88C11.67 28 13.98 25.78 14.78 22.33L16.1568 16.007L21.2 20.7L28 14H20H16.5938Z" fill="#03123D"/>
</svg>
