<svg width="24" height="24" viewBox="0 0 24 24" fill="none" xmlns="http://www.w3.org/2000/svg">
<path d="M12 21C16.9706 21 21 16.9706 21 12C21 7.02944 16.9706 3 12 3C7.02944 3 3 7.02944 3 12C3 16.9706 7.02944 21 12 21ZM16.5 5.99974C18.3217 7.36792 19.5 9.54627 19.5 12C19.5 13.6888 18.9419 15.2471 18 16.5007V11.9997L16.5 12.0005V5.99974ZM15 12.0005H16.5L16.5009 17.9997C16.0391 18.3466 15.5359 18.6415 15.0001 18.8756L15 12.0005ZM13.5 12.0005V4.65048C14.0217 4.75636 14.5238 4.91639 15 5.12445V12.0005H13.5ZM12 12.0005H13.5L13.5001 19.3496C13.0154 19.448 12.5137 19.4997 12 19.4997L12 12.0005ZM10.5 12.0005V4.65047C10.9847 4.55211 11.4863 4.50047 12 4.50047V12.0005H10.5ZM9.00005 12.0005H10.5L10.5 19.3497C9.97831 19.2438 9.47627 19.0837 9.00002 18.8757L9.00005 12.0005ZM7.49999 11.9999V5.99985C7.66215 5.87806 7.82939 5.76268 8.00134 5.65411C8.20419 5.52603 8.4136 5.4074 8.62897 5.29885C8.68582 5.2702 8.74309 5.24225 8.80076 5.21502C8.86667 5.18389 8.9331 5.15369 9.00005 5.12445V12.0005L7.49999 11.9999ZM7.49999 11.9999L7.50002 18.0004C5.67834 16.6321 4.5 14.4537 4.5 12C4.5 10.3113 5.05813 8.75298 5.99999 7.49946V11.9999H7.49999Z" fill="#03123D"/>
</svg>
