<svg width="64" height="64" viewBox="0 0 64 64" fill="none" xmlns="http://www.w3.org/2000/svg">
<path d="M56 31.9199C56 18.6799 45.24 7.91991 32 7.91991C29.4 7.91991 26.88 8.35991 24.56 9.11991C24.56 9.11991 24.56 9.07991 24.56 9.03991L22.92 5.23991C22.48 4.23991 21.32 3.75991 20.28 4.19991C19.28 4.63991 18.8 5.79991 19.24 6.83991L20.88 10.6399C20.88 10.6399 20.88 10.6399 20.88 10.6799C13.24 14.6399 8 22.6799 8 31.9199C8 45.1599 18.76 55.9199 32 55.9199C34.64 55.9199 37.2 55.4799 39.56 54.6799C39.56 54.6799 39.56 54.6799 39.56 54.7199L41.24 58.7199C41.56 59.4799 42.32 59.9199 43.08 59.9199C43.36 59.9199 43.6 59.8799 43.88 59.7599C44.88 59.3199 45.36 58.1599 44.92 57.1199L43.24 53.1199C43.24 53.1199 43.24 53.1199 43.24 53.0799C50.84 49.0399 56 41.0799 56 31.8799V31.9199ZM39.88 50.2799L35.2 39.2399C38.04 37.9999 40.04 35.1999 40.04 31.8799C40.04 27.4799 36.44 23.8799 32 23.8799C30.92 23.8799 29.88 24.1199 28.92 24.4799L24.24 13.4399C26.64 12.4399 29.24 11.8799 32 11.8799C43.04 11.8799 52 20.8399 52 31.8799C52 40.1199 47 47.1999 39.88 50.2399V50.2799Z" fill="#03123D"/>
</svg>
