<svg width="48" height="48" viewBox="0 0 48 48" fill="none" xmlns="http://www.w3.org/2000/svg">
<path d="M30 24C30 27.3137 27.3137 30 24 30C20.6863 30 18 27.3137 18 24C18 20.6863 20.6863 18 24 18C27.3137 18 30 20.6863 30 24Z" fill="#03123D"/>
<path fill-rule="evenodd" clip-rule="evenodd" d="M25.5 9.07406C32.5866 9.77767 38.2223 15.4134 38.9259 22.5H42V25.5H38.9259C38.2223 32.5866 32.5866 38.2223 25.5 38.9259V42H22.5V38.9259C15.4134 38.2223 9.77767 32.5866 9.07406 25.5H6V22.5H9.07406C9.77767 15.4134 15.4134 9.77767 22.5 9.07406V6H25.5V9.07406ZM24 12C30.6274 12 36 17.3726 36 24C36 30.6274 30.6274 36 24 36C17.3726 36 12 30.6274 12 24C12 17.3726 17.3726 12 24 12Z" fill="#03123D"/>
</svg>
