<svg width="48" height="48" viewBox="0 0 48 48" fill="none" xmlns="http://www.w3.org/2000/svg">
<path d="M30.25 13H13.75C12.2312 13 11 14.2536 11 15.8V38.2C11 39.7464 12.2312 41 13.75 41H30.25C31.7688 41 33 39.7464 33 38.2V15.8C33 14.2536 31.7688 13 30.25 13Z" fill="#03123D"/>
<path d="M19.8001 34C17.1716 34 15.0289 31.3037 15.0003 27.9506C14.9717 24.5975 17.0859 20.0346 19.7143 20C20.2857 20 21 20.484 21 21.4519V32.8247C21 33.6198 20.3143 33.9654 19.8001 33.9654V34Z" fill="white"/>
<path d="M24.1999 34C26.8284 34 28.9711 31.3037 28.9997 27.9506C29.0283 24.5975 26.9141 20.0346 24.2857 20C23.7143 20 23 20.484 23 21.4519V32.8247C23 33.6198 23.7143 33.9654 24.1999 33.9654V34Z" fill="white"/>
<path fill-rule="evenodd" clip-rule="evenodd" d="M14.5 8.5C14.5 7.67157 15.1716 7 16 7H33.1C36.4137 7 39.1 9.68629 39.1 13V34.9C39.1 35.7284 38.4284 36.4 37.6 36.4C36.7716 36.4 36.1 35.7284 36.1 34.9V13C36.1 11.3431 34.7569 10 33.1 10H16C15.1716 10 14.5 9.32843 14.5 8.5Z" fill="#03123D"/>
</svg>
