<svg width="20" height="20" viewBox="0 0 20 20" fill="none" xmlns="http://www.w3.org/2000/svg">
<path fill-rule="evenodd" clip-rule="evenodd" d="M5 6.5C5 6.22386 5.22386 6 5.5 6H12.5C12.7761 6 13 6.22386 13 6.5C13 6.77614 12.7761 7 12.5 7H5.5C5.22386 7 5 6.77614 5 6.5ZM5 8.5C5 8.22386 5.22386 8 5.5 8H9C9.27614 8 9.5 8.22386 9.5 8.5C9.5 8.77614 9.27614 9 9 9H5.5C5.22386 9 5 8.77614 5 8.5Z" fill="#03123D"/>
<path fill-rule="evenodd" clip-rule="evenodd" d="M4 3C3.44772 3 3 3.44772 3 4V12V17L8 12H16C16.5523 12 17 11.5523 17 11V4C17 3.44772 16.5523 3 16 3H4ZM16 4H4V11H16V4Z" fill="#03123D"/>
</svg>
