<svg width="48" height="48" viewBox="0 0 48 48" fill="none" xmlns="http://www.w3.org/2000/svg">
<path d="M21.0705 17.575C20.2508 18.8655 19.1364 20.2317 17.8479 21.5685C17.6774 21.1858 17.5415 20.8007 17.4324 20.4187C16.9143 18.6055 16.9818 16.893 17.0367 15.4999C17.0434 15.3296 17.0499 15.164 17.0552 15.0037H22.316C22.0962 15.7413 21.6855 16.6069 21.0705 17.575Z" fill="#03123D"/>
<path d="M31.0014 22.4608L32.6248 27.0063H29.378L31.0014 22.4608Z" fill="#03123D"/>
<path fill-rule="evenodd" clip-rule="evenodd" d="M43.9976 24.0007C43.9976 35.0501 35.0403 44.0073 23.991 44.0073C12.9416 44.0073 3.98438 35.0501 3.98438 24.0007C3.98438 12.9514 12.9416 3.99414 23.991 3.99414C35.0403 3.99414 43.9976 12.9514 43.9976 24.0007ZM19.5085 9.00293C20.3372 9.00293 21.0089 9.67467 21.0089 10.5033V12.0029H27.0037C27.8323 12.0029 28.504 12.6747 28.504 13.5033C28.504 14.3319 27.8323 15.0037 27.0037 15.0037H25.399C25.143 16.3987 24.4638 17.8297 23.6034 19.184C22.5618 20.8238 21.1648 22.4905 19.6197 24.0485L19.6164 24.0519C20.4968 24.8765 21.6795 25.6145 23.2742 26.1886C24.0539 26.4693 24.4584 27.3288 24.1777 28.1085C23.897 28.8881 23.0375 29.2926 22.2578 29.0119C20.1835 28.2652 18.6098 27.2586 17.4239 26.1075C14.8461 28.3596 12.0199 30.2924 9.61353 31.3707C8.85734 31.7095 7.96965 31.3712 7.63081 30.615C7.29197 29.8588 7.6303 28.9711 8.38649 28.6323C10.5022 27.6843 13.1405 25.8836 15.5831 23.7308C15.1224 22.9197 14.7864 22.0809 14.5471 21.243C13.8779 18.9007 13.9817 16.523 14.0416 15.1527L14.048 15.0037H12C11.1714 15.0037 10.4996 14.3319 10.4996 13.5033C10.4996 12.6747 11.1714 12.0029 12 12.0029H18.0082V10.5033C18.0082 9.67467 18.6799 9.00293 19.5085 9.00293ZM31.0014 16.4995C31.6355 16.4995 32.2011 16.8981 32.4143 17.4953L38.4143 34.2952C38.693 35.0756 38.2864 35.9341 37.506 36.2128C36.7257 36.4915 35.8671 36.0849 35.5884 35.3045L33.6965 30.0071H28.3977C28.3673 30.0071 28.3372 30.0062 28.3072 30.0044L26.4143 35.3045C26.1356 36.0849 25.2771 36.4915 24.4968 36.2128C23.7164 35.9341 23.3097 35.0756 23.5884 34.2952L29.5884 17.4953C29.8017 16.8981 30.3673 16.4995 31.0014 16.4995Z" fill="#03123D"/>
</svg>
