<svg width="20" height="20" viewBox="0 0 20 20" fill="none" xmlns="http://www.w3.org/2000/svg">
<path d="M7.69 10.5897C7.36333 10.5897 7.10667 10.3328 7.10667 10.0058C7.10667 9.6789 7.36333 9.42202 7.69 9.42202H9.48667V4.30776C9.48667 3.42035 8.705 3 8.08667 3C5.25167 3.03503 3 7.65888 3 11.2552C3 14.6647 5.35667 17.0234 8.19167 16.9883C8.72833 16.9883 9.475 16.6847 9.475 15.9608V10.578H7.67833L7.69 10.5897Z" fill="#03123D"/>
<path d="M12.3107 10.5897C12.6374 10.5897 12.8941 10.3328 12.8941 10.0058C12.8941 9.6789 12.6374 9.42202 12.3107 9.42202H10.5141V4.30776C10.5141 3.42035 11.2957 3 11.9141 3C14.7491 3.03503 17.0007 7.63553 17.0007 11.2552C17.0007 14.6414 14.6441 17.0234 11.8091 16.9883C11.2724 16.9883 10.5257 16.6847 10.5257 15.9608V10.578H12.3224L12.3107 10.5897Z" fill="#03123D"/>
</svg>
