<svg width="24" height="24" viewBox="0 0 24 24" fill="none" xmlns="http://www.w3.org/2000/svg">
<path d="M13.5 12C13.5 12.8284 12.8284 13.5 12 13.5C11.1716 13.5 10.5 12.8284 10.5 12C10.5 11.1716 11.1716 10.5 12 10.5C12.8284 10.5 13.5 11.1716 13.5 12Z" fill="#03123D"/>
<path d="M22.5 5.25C22.5 7.32107 20.8211 9 18.75 9C16.6789 9 15 7.32107 15 5.25C15 3.17893 16.6789 1.5 18.75 1.5C20.8211 1.5 22.5 3.17893 22.5 5.25Z" fill="#03123D"/>
<path d="M6 15C6 15.8518 6.42044 16.585 7.11719 17.127C7.82202 17.675 8.78258 18 9.75 18C10.7174 18 11.678 17.675 12.3828 17.127C13.0796 16.585 13.5 15.8518 13.5 15H15C15 16.398 14.2952 17.54 13.3047 18.3105C12.3221 19.0748 11.0324 19.5 9.75 19.5C8.46761 19.5 7.17794 19.0748 6.19531 18.3105C5.20477 17.54 4.5 16.398 4.5 15H6Z" fill="#03123D"/>
<path d="M9 11.25V12.75H6V11.25H9Z" fill="#03123D"/>
<path d="M16.5 14.25C16.5 10.5215 13.4779 7.5 9.75 7.5C6.02209 7.5 3 10.5215 3 14.25C3 17.9785 6.02209 21 9.75 21C13.4779 21 16.5 17.9785 16.5 14.25ZM18 14.25C18 18.8066 14.3063 22.5 9.75 22.5C5.19366 22.5 1.5 18.8066 1.5 14.25C1.5 9.69336 5.19366 6 9.75 6C14.3063 6 18 9.69336 18 14.25Z" fill="#03123D"/>
</svg>
