<svg width="32" height="32" viewBox="0 0 32 32" fill="none" xmlns="http://www.w3.org/2000/svg">
<path d="M11.9 10.8755C13.2 10.8755 14.24 11.0953 15.04 11.5149C15.72 11.8945 16.2 12.374 16.56 13.0333C16.98 13.8126 17.18 14.8116 17.18 16.0104C17.18 16.7696 17.1 17.429 16.92 18.0284C16.78 18.5478 16.56 18.9874 16.3 19.367C16.06 19.7067 15.78 20.0064 15.42 20.2461C15.04 20.5259 14.58 20.7257 14.04 20.8855C13.42 21.0653 12.7 21.1452 11.9 21.1452H8.84V10.8755H11.9ZM4 6V26.0004L12 26C13.26 26 14.34 25.8405 15.38 25.5408C16.44 25.2411 17.38 24.8016 18.18 24.2222C19 23.6427 19.7 22.9434 20.26 22.1243C20.82 21.3051 21.26 20.386 21.56 19.347C21.86 18.3281 22 17.2092 22 15.9904C22 13.9724 21.6 12.2142 20.8 10.7157C20 9.21716 18.84 8.05832 17.34 7.23914C15.84 6.41996 14.12 6.00083 12 6.00083L4 6Z" fill="#03123D"/>
<path d="M28 6H24V10H28V6Z" fill="#03123D"/>
<path d="M28 14H24V18H28V14Z" fill="#03123D"/>
<path d="M28 22H24V26H28V22Z" fill="#03123D"/>
</svg>
