<svg width="64" height="64" viewBox="0 0 64 64" fill="none" xmlns="http://www.w3.org/2000/svg">
<path fill-rule="evenodd" clip-rule="evenodd" d="M32 60C47.464 60 60 47.464 60 32C60 16.536 47.464 4 32 4C16.536 4 4 16.536 4 32C4 47.464 16.536 60 32 60ZM32 12C28.71 12 26 14.71 26 18C26 21.29 28.71 24 32 24C35.29 24 38 21.29 38 18C38 14.71 35.29 12 32 12ZM32 20C33.0808 20 34 19.0808 34 18C34 16.9192 33.0808 16 32 16C30.9192 16 30 16.9192 30 18C30 19.0808 30.9192 20 32 20ZM36 28V52H28V28L36 28Z" fill="#03123D"/>
</svg>
