<svg width="48" height="48" viewBox="0 0 48 48" fill="none" xmlns="http://www.w3.org/2000/svg">
<path d="M42 23.9571C42 14.4932 33.93 6.80199 24 6.80199C22.05 6.80199 20.16 7.1165 18.42 7.65974C18.42 7.65974 18.42 7.63115 18.42 7.60256L17.19 4.88633C16.86 4.17154 15.99 3.82843 15.21 4.14294C14.46 4.45745 14.1 5.28662 14.43 6.03001L15.66 8.74623C15.66 8.74623 15.66 8.74623 15.66 8.77482C9.93 11.6054 6 17.3524 6 23.9571C6 33.421 14.07 41.1122 24 41.1122C25.98 41.1122 27.9 40.7977 29.67 40.2259C29.67 40.2259 29.67 40.2259 29.67 40.2545L30.93 43.1136C31.17 43.6569 31.74 43.9714 32.31 43.9714C32.52 43.9714 32.7 43.9428 32.91 43.857C33.66 43.5425 34.02 42.7134 33.69 41.97L32.43 39.1108C32.43 39.1108 32.43 39.1108 32.43 39.0822C38.13 36.1944 42 30.5046 42 23.9285V23.9571ZM29.91 37.0808L26.4 29.1894C28.53 28.3031 30.03 26.3016 30.03 23.9285C30.03 20.7834 27.33 18.2101 24 18.2101C23.19 18.2101 22.41 18.3817 21.69 18.639L18.18 10.7477C19.98 10.0329 21.93 9.63258 24 9.63258C32.28 9.63258 39 16.0372 39 23.9285C39 29.8184 35.25 34.8792 29.91 37.0522V37.0808Z" fill="#03123D"/>
</svg>
