<svg width="64" height="64" viewBox="0 0 64 64" fill="none" xmlns="http://www.w3.org/2000/svg">
<path d="M56 23.3181V11.7581L46 5.99805L36 11.7581V23.3181L46 29.0781L56 23.3181Z" fill="#03123D"/>
<path fill-rule="evenodd" clip-rule="evenodd" d="M8 7.99512H28V27.9951H8V7.99512ZM12 23.9951H24V11.9951H12V23.9951Z" fill="#03123D"/>
<path d="M38 56.0002C36.8954 56.0002 36 55.1048 36 54.0002C36 52.8957 36.8954 52.0002 38 52.0002H44V40.0002L38 40.0002C36.8954 40.0002 36 39.1048 36 38.0002C36 36.8957 36.8954 36.0002 38 36.0002H54C55.1046 36.0002 56 36.8957 56 38.0002C56 39.1048 55.1046 40.0002 54 40.0002L48 40.0002V52.0002H54C55.1046 52.0002 56 52.8957 56 54.0002C56 55.1048 55.1046 56.0002 54 56.0002H38Z" fill="#03123D"/>
<path d="M17.92 56.0002C23.3987 56.0002 27.84 51.5232 27.84 46.0002C27.84 40.4773 23.3987 36.0002 17.92 36.0002C12.4413 36.0002 8 40.4773 8 46.0002C8 51.5232 12.4413 56.0002 17.92 56.0002Z" fill="#03123D"/>
</svg>
