<svg width="20" height="20" viewBox="0 0 20 20" fill="none" xmlns="http://www.w3.org/2000/svg">
<path fill-rule="evenodd" clip-rule="evenodd" d="M10 10C12.2857 10 14 8.28571 14 6C14 5.99999 14 5.99999 14 5.99998H17V13H15.2087C14.3859 11.7927 12.9998 11 11.4285 11H8.57139C7.00014 11 5.61404 11.7927 4.7912 13H3V5.99998H6C6 5.99999 6 5.99999 6 6C6 8.28571 7.71429 10 10 10ZM6.10814 4.99998H3C2.36882 4.99998 2 5.37866 2 5.99998V13C2 13.6213 2.36882 14 3 14H4.27721C4.09785 14.49 3.99997 15.0193 3.99997 15.5714V18H16V15.5714C16 15.0193 15.9021 14.49 15.7227 14H17C17.6312 14 18 13.6213 18 13V5.99998C18 5.37866 17.6312 4.99998 17 4.99998H13.8849C13.4649 3.23212 11.9378 2 10 2C8.0513 2 6.51795 3.17843 6.10814 4.99998ZM8.85718 8.28575L12.2857 6.00003L8.85718 3.71432V8.28575Z" fill="#03123D"/>
</svg>
