<svg width="16" height="16" viewBox="0 0 16 16" fill="none" xmlns="http://www.w3.org/2000/svg">
<path d="M6.5 9C6.77614 9 7 9.22386 7 9.5V13.5C7 13.7761 6.77614 14 6.5 14H2.5C2.22386 14 2 13.7761 2 13.5V9.5C2 9.22386 2.22386 9 2.5 9H6.5ZM3 13H6V10H3V13Z" fill="#03123D"/>
<path d="M13.5 9C13.7761 9 14 9.22386 14 9.5V13.5C14 13.7761 13.7761 14 13.5 14H9.5C9.22386 14 9 13.7761 9 13.5V9.5C9 9.22386 9.22386 9 9.5 9H13.5ZM10 13H13V10H10V13Z" fill="#03123D"/>
<path d="M2 3C2 2.44772 2.44772 2 3 2H13C13.5523 2 14 2.44772 14 3V6C14 6.55228 13.5523 7 13 7H3C2.44772 7 2 6.55228 2 6V3Z" fill="#03123D"/>
</svg>
