<svg width="48" height="48" viewBox="0 0 48 48" fill="none" xmlns="http://www.w3.org/2000/svg">
<path d="M24.5166 4.00684C35.3129 4.28093 44.0019 13.1394 44.002 24.001L43.9961 24.5166C43.722 35.313 34.8626 44.002 24.001 44.002L23.4854 43.9961C12.8604 43.7262 4.27658 35.1416 4.00684 24.5166L4 24.001C4.00007 12.9671 12.9671 4.00007 24.001 4L24.5166 4.00684ZM24.001 7C14.624 7.00007 7.00007 14.624 7 24.001C7 33.378 14.6239 41.0019 24.001 41.002C33.3781 41.002 41.002 33.3781 41.002 24.001C41.0019 14.6239 33.378 7 24.001 7Z" fill="#03123D"/>
<path d="M33.3115 24.3291L18.7363 35.2617L16.9355 32.8613L28.3115 24.3291L16.9355 15.7979L18.7363 13.3975L33.3115 24.3291Z" fill="#03123D"/>
</svg>
