<svg width="48" height="48" viewBox="0 0 48 48" fill="none" xmlns="http://www.w3.org/2000/svg">
<path fill-rule="evenodd" clip-rule="evenodd" d="M27 24C27 25.6569 25.6569 27 24 27C22.3431 27 21 25.6569 21 24C21 22.3431 22.3431 21 24 21C25.6569 21 27 22.3431 27 24Z" fill="#03123D"/>
<path d="M27 24C27 25.6569 25.6569 27 24 27C22.3431 27 21 25.6569 21 24C21 22.3431 22.3431 21 24 21C25.6569 21 27 22.3431 27 24Z" fill="white"/>
<path fill-rule="evenodd" clip-rule="evenodd" d="M45 24C45 35.598 35.598 45 24 45C12.402 45 3 35.598 3 24C3 12.402 12.402 3 24 3C35.598 3 45 12.402 45 24ZM24 27C25.6569 27 27 25.6569 27 24C27 22.3431 25.6569 21 24 21C22.3431 21 21 22.3431 21 24C21 25.6569 22.3431 27 24 27ZM24 42C28.7887 42 33.1407 40.13 36.3655 37.0804C29.2224 34.6399 18.7776 34.6399 11.6345 37.0804C14.8593 40.13 19.2113 42 24 42ZM37.0804 11.6345C40.13 14.8593 42 19.2113 42 24C42 28.7887 40.13 33.1407 37.0804 36.3655C34.6399 29.2224 34.6399 18.7776 37.0804 11.6345ZM10.9196 11.6345C7.87001 14.8593 6 19.2113 6 24C6 28.7887 7.87001 33.1407 10.9196 36.3655C13.3601 29.2224 13.3601 18.7776 10.9196 11.6345ZM11.6345 10.9196C14.8593 7.87001 19.2113 6 24 6C28.7887 6 33.1407 7.87001 36.3655 10.9196C29.2224 13.3601 18.7776 13.3601 11.6345 10.9196Z" fill="#03123D"/>
</svg>
