<svg width="20" height="20" viewBox="0 0 20 20" fill="none" xmlns="http://www.w3.org/2000/svg">
<path d="M12.8571 6.5C12.64 6.5 12.4343 6.52333 12.2286 6.54667C11.9657 4.54 10.3086 3 8.28571 3C6.08 3 4.28571 4.83167 4.28571 7.08333C4.28571 7.18833 4.30857 7.29333 4.32 7.39833C2.92571 8.33167 2 9.91833 2 11.75C2 14.655 4.29714 17 7.14286 17H12.8571C15.7029 17 18 14.655 18 11.75C18 8.845 15.7029 6.5 12.8571 6.5ZM12.8571 15.8333H7.14286C4.93714 15.8333 3.14286 14.0017 3.14286 11.75C3.14286 10.0583 4.14857 8.61167 5.58857 7.99333C5.54286 7.85333 5.50857 7.71333 5.48571 7.57333C5.45143 7.41 5.44 7.25833 5.44 7.08333C5.44 5.47333 6.72 4.16667 8.29714 4.16667C9.78286 4.16667 10.9943 5.33333 11.1314 6.815C10.6629 6.99 10.2171 7.22333 9.81714 7.52667C9.49714 7.77167 9.48571 8.18 9.66857 8.41333C9.85143 8.635 10.2057 8.68167 10.4571 8.495C11.12 7.97 11.9543 7.66667 12.8571 7.66667C15.0629 7.66667 16.8571 9.49833 16.8571 11.75C16.8571 14.0017 15.0629 15.8333 12.8571 15.8333Z" fill="#03123D"/>
<path d="M5.41721 13.535L7.04007 11.8783L8.45721 13.325C8.5715 13.4416 8.72007 13.5 8.85721 13.5C8.99435 13.5 9.15435 13.4416 9.25721 13.325C9.48578 13.0916 9.48578 12.73 9.25721 12.4966L7.84007 11.05L9.42864 9.4283H5.41721V13.535Z" fill="#03123D"/>
<path d="M11.5316 10.1983C11.303 9.96496 10.9487 9.96496 10.7202 10.1983C10.4916 10.4316 10.4916 10.7933 10.7202 11.0266L12.1373 12.4733L10.5487 14.095H14.5602V9.99996L12.9373 11.6566L11.5202 10.21L11.5316 10.1983Z" fill="#03123D"/>
</svg>
