<svg width="64" height="64" viewBox="0 0 64 64" fill="none" xmlns="http://www.w3.org/2000/svg">
<path fill-rule="evenodd" clip-rule="evenodd" d="M51.0632 52.5086C46.0646 57.157 39.3643 60 32 60C39.0846 60 45.8926 57.315 51.0632 52.5086Z" fill="#03123D"/>
<path fill-rule="evenodd" clip-rule="evenodd" d="M51.0632 52.5086C51.3262 52.264 51.5846 52.0143 51.8381 51.7598L51.7991 51.799C51.5577 52.0404 51.3123 52.277 51.0632 52.5086Z" fill="#03123D"/>
<path d="M32.0001 28L23.9935 16L39.9935 16L32.0001 28Z" fill="#03123D"/>
<path fill-rule="evenodd" clip-rule="evenodd" d="M56 32C56 18.7452 45.2548 8 32 8C18.7452 8 8 18.7452 8 32C8 33.6922 8.17514 35.3435 8.50828 36.9368C12.886 33.3815 21.2824 28 32.0001 28C42.7177 28 51.114 33.3813 55.4918 36.9366C55.8249 35.3434 56 33.6922 56 32ZM32.0001 28L39.9935 16L23.9935 16L32.0001 28ZM51.8381 51.7598C56.8821 46.696 60 39.7121 60 32C60 16.536 47.464 4 32 4C16.536 4 4 16.536 4 32C4 47.464 16.536 60 32 60C39.0846 60 45.8926 57.315 51.0632 52.5086C51.3262 52.264 51.5846 52.0143 51.8381 51.7598Z" fill="#03123D"/>
</svg>
