<svg width="20" height="20" viewBox="0 0 20 20" fill="none" xmlns="http://www.w3.org/2000/svg">
<path d="M14.1465 14.8535L11.6465 12.3535L11.582 12.2754C11.4539 12.0813 11.4756 11.8173 11.6465 11.6465C11.8173 11.4756 12.0813 11.4539 12.2754 11.582L12.3535 11.6465L14.8535 14.1465L17 12V17H12L14.1465 14.8535Z" fill="#03123D"/>
<path d="M12 3H17V8L14.8535 5.85352L12.3535 8.35352L12.2754 8.41797C12.0813 8.54613 11.8173 8.52438 11.6465 8.35352C11.4756 8.18265 11.4539 7.91869 11.582 7.72461L11.6465 7.64648L14.1465 5.14648L12 3Z" fill="#03123D"/>
<path d="M3 3H8L5.85352 5.14648L8.35352 7.64648L8.41797 7.72461C8.54613 7.91869 8.52438 8.18265 8.35352 8.35352C8.18265 8.52438 7.91869 8.54613 7.72461 8.41797L7.64648 8.35352L5.14648 5.85352L3 8V3Z" fill="#03123D"/>
<path d="M5.14648 14.1465L7.64648 11.6465L7.72461 11.582C7.91869 11.4539 8.18265 11.4756 8.35352 11.6465C8.52438 11.8173 8.54613 12.0813 8.41797 12.2754L8.35352 12.3535L5.85352 14.8535L8 17H3V12L5.14648 14.1465Z" fill="#03123D"/>
</svg>
