<svg width="16" height="16" viewBox="0 0 16 16" fill="none" xmlns="http://www.w3.org/2000/svg">
<path d="M1 8C1 4.13401 4.13401 1 8 1C11.866 1 15 4.13401 15 8C15 11.866 11.866 15 8 15C4.13401 15 1 11.866 1 8ZM2 8C2 10.24 3.22748 12.1933 5.0465 13.2239C5.42598 10.0592 8 8 8 8C8 8 10.5726 10.0593 10.9532 13.2241C12.7724 12.1935 14 10.2401 14 8C14 5.75989 12.7724 3.8065 10.9532 2.7759C10.5726 5.94071 8 8 8 8C8 8 5.42599 5.94079 5.0465 2.77607C3.22749 3.80672 2 5.76001 2 8Z" fill="#03123D"/>
</svg>
