<svg width="64" height="64" viewBox="0 0 64 64" fill="none" xmlns="http://www.w3.org/2000/svg">
<path d="M52 32H12C9.8 32 8 33.8 8 36V56L16 48H52C54.2 48 56 46.2 56 44V36C56 33.8 54.2 32 52 32Z" fill="#03123D"/>
<path d="M12 28H22C27.52 28 32 23.52 32 18C32 12.48 27.52 8 22 8H12C9.8 8 8 9.8 8 12V24C8 26.2 9.8 28 12 28ZM12 12H22C25.32 12 28 14.68 28 18C28 21.32 25.32 24 22 24H12V12Z" fill="#03123D"/>
<path d="M40 20H46C47.12 20 48 19.12 48 18C48 16.88 47.12 16 46 16H40V12H54C55.12 12 56 11.12 56 10C56 8.88 55.12 8 54 8H36V28H40V20Z" fill="#03123D"/>
</svg>
