<svg width="24" height="24" viewBox="0 0 24 24" fill="none" xmlns="http://www.w3.org/2000/svg">
<path d="M19.949 11.9999C20.8052 11.9999 21.3864 12.8707 21.0574 13.661L18.3074 20.2616C18.121 20.7087 17.6834 20.9999 17.199 20.9999H6.79961C6.31532 20.9999 5.87861 20.7085 5.69219 20.2616L2.94219 13.661C2.6129 12.8706 3.19334 11.9999 4.04961 11.9999H19.949ZM13.1023 3.11412C13.4535 2.89475 13.916 3.00128 14.1355 3.35241L17.8855 9.35241L17.9236 9.41979C18.0909 9.76061 17.9761 10.1799 17.6472 10.3856C17.3182 10.5912 16.8911 10.5105 16.658 10.2108L16.614 10.1473L12.8641 4.14733C12.6445 3.7961 12.7512 3.33368 13.1023 3.11412ZM9.86406 3.35241C10.0836 3.00124 10.546 2.89463 10.8973 3.11412C11.2481 3.33377 11.3549 3.79624 11.1355 4.14733L7.38652 10.1473C7.16708 10.4984 6.70355 10.6048 6.35234 10.3856C6.02345 10.1798 5.90936 9.76066 6.07695 9.41979L6.11406 9.35241L9.86406 3.35241Z" fill="#03123D"/>
</svg>
