<svg width="48" height="48" viewBox="0 0 48 48" fill="none" xmlns="http://www.w3.org/2000/svg">
<path d="M11 41H37V7H11V41ZM40 41.5996C40 42.9251 38.9251 44 37.5996 44H10.4004L10.1543 43.9873C8.94425 43.8642 8 42.8421 8 41.5996V6.40039C8 5.15787 8.94425 4.13576 10.1543 4.0127L10.4004 4H37.5996C38.9251 4 40 5.07491 40 6.40039V41.5996Z" fill="#03123D"/>
<path d="M14 10H34V16H14.0004L14 10Z" fill="#03123D"/>
<path d="M14 33H19V38H14V33Z" fill="#03123D"/>
<path d="M14 18.0039H19V23.0039H14V18.0039Z" fill="#03123D"/>
<path d="M14 25.502H19V30.502H14V25.502Z" fill="#03123D"/>
<path d="M29 33H34V38H29V33Z" fill="#03123D"/>
<path d="M29 18.0039H34V23.0039H29V18.0039Z" fill="#03123D"/>
<path d="M29 25.502H34V30.502H29V25.502Z" fill="#03123D"/>
<path d="M21.5 33H26.5V38H21.5V33Z" fill="#03123D"/>
<path d="M21.5 18.0039H26.5V23.0039H21.5V18.0039Z" fill="#03123D"/>
<path d="M21.5 25.502H26.5V30.502H21.5V25.502Z" fill="#03123D"/>
</svg>
