<svg width="48" height="48" viewBox="0 0 48 48" fill="none" xmlns="http://www.w3.org/2000/svg">
<path d="M32.1973 18C31.5017 16.7975 30.4007 15.8588 29.0812 15.3708C29.7105 14.3613 30 13.1793 30 12V7.5C30 6.67157 29.3284 6 28.5 6C27.6716 6 27 6.67157 27 7.5V12C27 12.897 26.7201 13.6396 26.2646 14.1406C25.8301 14.6187 25.126 15 24 15C22.874 15 22.1699 14.6187 21.7354 14.1406C21.2799 13.6396 21 12.897 21 12V7.5C21 6.67157 20.3284 6 19.5 6C18.6716 6 18 6.67157 18 7.5V12C18 13.1793 18.2895 14.3613 18.9188 15.3708C17.5993 15.8588 16.4983 16.7975 15.8027 18H13.5C12.6716 18 12 17.3284 12 16.5V13.5C12 12.6716 11.3284 12 10.5 12C9.67157 12 9 12.6716 9 13.5V16.5C9 18.9853 11.0147 21 13.5 21H15V24H9C8.17157 24 7.5 24.6716 7.5 25.5C7.5 26.3284 8.17157 27 9 27H15V30H13.5C11.0147 30 9 32.0147 9 34.5V37.5C9 38.3284 9.67157 39 10.5 39C11.3284 39 12 38.3284 12 37.5V34.5C12 33.6716 12.6716 33 13.5 33H15C15 37.9706 19.0294 42 24 42C28.9706 42 33 37.9706 33 33H34.5C35.3284 33 36 33.6716 36 34.5V37.5C36 38.3284 36.6716 39 37.5 39C38.3284 39 39 38.3284 39 37.5V34.5C39 32.0147 36.9853 30 34.5 30H33V27H37.5C38.3284 27 39 26.3284 39 25.5C39 24.6716 38.3284 24 37.5 24H33V21H34.5C36.9853 21 39 18.9853 39 16.5V13.5C39 12.6716 38.3284 12 37.5 12C36.6716 12 36 12.6716 36 13.5V16.5C36 17.3284 35.3284 18 34.5 18H32.1973Z" fill="#03123D"/>
</svg>
