<svg width="48" height="48" viewBox="0 0 48 48" fill="none" xmlns="http://www.w3.org/2000/svg">
<path fill-rule="evenodd" clip-rule="evenodd" d="M7 6V20H4V6H7Z" fill="#03123D"/>
<path fill-rule="evenodd" clip-rule="evenodd" d="M12 8V18H9V8H12Z" fill="#03123D"/>
<path fill-rule="evenodd" clip-rule="evenodd" d="M17 10V16H14V10H17Z" fill="#03123D"/>
<path fill-rule="evenodd" clip-rule="evenodd" d="M34 10V16H31V10H34Z" fill="#03123D"/>
<path fill-rule="evenodd" clip-rule="evenodd" d="M39 8V18H36V8H39Z" fill="#03123D"/>
<path fill-rule="evenodd" clip-rule="evenodd" d="M44 6V20H41V6H44Z" fill="#03123D"/>
<path d="M33 36.9993H25.5V36.8793C31.41 36.1293 36 31.1193 36 25.0293C36 24.1893 35.34 23.5293 34.5 23.5293C33.66 23.5293 33 24.1893 33 25.0293C33 29.9793 28.98 34.0293 24 34.0293C19.02 34.0293 15 30.0093 15 25.0293C15 24.1893 14.34 23.5293 13.5 23.5293C12.66 23.5293 12 24.1893 12 25.0293C12 31.1193 16.59 36.1293 22.5 36.8793V36.9993H15C15 38.4992 15 40.6593 15 41.4993C15 42.3393 15 39.9993 15 42.9993H33C33 42.9993 33 42.3393 33 41.4993C33 40.6593 33 38.4992 33 36.9993Z" fill="#03123D"/>
<path d="M19 10C19 7.23858 21.2386 5 24 5C26.7614 5 29 7.23858 29 10V25C29 27.7614 26.7614 30 24 30C21.2386 30 19 27.7614 19 25V10Z" fill="#03123D"/>
</svg>
