<svg width="32" height="32" viewBox="0 0 32 32" fill="none" xmlns="http://www.w3.org/2000/svg">
<path d="M16 21.9994C19.6884 21.9994 22.8359 20.947 25.0508 19.9047C26.1604 19.3825 27.0436 18.8588 27.6533 18.4633C27.9584 18.2654 28.1957 18.0989 28.3594 17.9799C28.4412 17.9204 28.5054 17.8732 28.5498 17.8393C28.572 17.8223 28.589 17.8081 28.6016 17.7982C28.6078 17.7934 28.6134 17.7896 28.6172 17.7865C28.619 17.7851 28.6221 17.7826 28.6221 17.7826L28.624 17.7807L27.376 16.2182L27.3691 16.223C27.3624 16.2283 27.351 16.2372 27.335 16.2494C27.3027 16.2741 27.2521 16.3129 27.1836 16.3627C27.0465 16.4624 26.8384 16.6085 26.5654 16.7855C26.0189 17.14 25.2144 17.6164 24.1992 18.0941C22.1641 19.0518 19.3115 19.9994 16 19.9994C12.6885 19.9994 9.83586 19.0518 7.80078 18.0941C6.78558 17.6164 5.98106 17.14 5.43457 16.7855C5.16162 16.6085 4.95351 16.4624 4.81641 16.3627C4.74793 16.3129 4.69728 16.2741 4.66504 16.2494C4.64905 16.2372 4.63759 16.2283 4.63086 16.223C4.62749 16.2204 4.62402 16.2182 4.62402 16.2182L3.37598 17.7807L3.37793 17.7826C3.37793 17.7826 3.38099 17.7851 3.38281 17.7865C3.38664 17.7896 3.39219 17.7934 3.39844 17.7982C3.41101 17.8081 3.42802 17.8223 3.4502 17.8393C3.4946 17.8732 3.55877 17.9204 3.64062 17.9799C3.80428 18.0989 4.04164 18.2654 4.34668 18.4633C4.95641 18.8588 5.83959 19.3825 6.94922 19.9047C9.16413 20.947 12.3116 21.9994 16 21.9994Z" fill="#03123D"/>
<path d="M20.9999 15C20.9999 17.7614 18.7614 19.9994 16 19.9994C13.2386 19.9994 10.9999 17.7614 10.9999 15C10.9999 12.2386 13.2385 10 15.9999 10C18.7614 10 20.9999 12.2386 20.9999 15Z" fill="#03123D"/>
</svg>
