<svg width="64" height="64" viewBox="0 0 64 64" fill="none" xmlns="http://www.w3.org/2000/svg">
<path d="M40 16H16C13.8 16 12 17.8 12 20V52C12 54.2 13.8 56 16 56H40C42.2 56 44 54.2 44 52V20C44 17.8 42.2 16 40 16ZM24.72 44C21.04 44 18.04 40.92 18 37C18 33.08 20.92 27.84 24.6 27.8C25.4 27.8 26.4 28.36 26.4 29.48C26.4 32.76 26.4 39.64 26.4 42.64C26.4 43.56 25.44 43.96 24.72 43.96V44ZM29.56 44C28.88 44 27.88 43.6 27.88 42.68C27.88 39.64 27.88 32.8 27.88 29.52C27.88 28.36 28.88 27.8 29.68 27.84C33.36 27.84 36.32 33.12 36.28 37.04C36.28 40.96 33.24 44.08 29.56 44.04V44Z" fill="#03123D"/>
<path fill-rule="evenodd" clip-rule="evenodd" d="M20 10C20 8.89543 20.8954 8 22 8H44C48.4183 8 52 11.5817 52 16V46C52 47.1046 51.1046 48 50 48C48.8954 48 48 47.1046 48 46V16C48 13.7909 46.2091 12 44 12H22C20.8954 12 20 11.1046 20 10Z" fill="#03123D"/>
</svg>
