<svg width="48" height="48" viewBox="0 0 48 48" fill="none" xmlns="http://www.w3.org/2000/svg">
<path d="M42 6H6V14H42V6Z" fill="#03123D"/>
<path d="M37.3333 21.3333C38.2538 21.3333 39 22.0795 39 23C39 23.9205 38.2538 24.6667 37.3333 24.6667H10.6667C9.74619 24.6667 9 23.9205 9 23C9 22.0795 9.74619 21.3333 10.6667 21.3333H37.3333ZM42 21C42 19.3431 40.6569 18 39 18H9C7.34315 18 6 19.3431 6 21V25C6 26.6569 7.34315 28 9 28H39C40.6569 28 42 26.6569 42 25V21Z" fill="#03123D"/>
<path d="M37.3333 35.3333C38.2538 35.3333 39 36.0795 39 37C39 37.9205 38.2538 38.6667 37.3333 38.6667H10.6667C9.74619 38.6667 9 37.9205 9 37C9 36.0795 9.74619 35.3333 10.6667 35.3333H37.3333ZM42 35C42 33.3431 40.6569 32 39 32H9C7.34315 32 6 33.3431 6 35V39C6 40.6569 7.34315 42 9 42H39C40.6569 42 42 40.6569 42 39V35Z" fill="#03123D"/>
</svg>
