<svg width="48" height="48" viewBox="0 0 48 48" fill="none" xmlns="http://www.w3.org/2000/svg">
<path d="M39.8999 23.9995C41.6124 23.9995 42.7741 25.7419 42.1157 27.3227L36.6157 40.5229C36.243 41.4173 35.3688 41.9995 34.3999 41.9995H13.6001C12.6312 41.9995 11.7569 41.4173 11.3843 40.5229L5.88425 27.3227C5.22576 25.7419 6.38756 23.9995 8.10007 23.9995H39.8999ZM19.8149 6.57954C20.2808 5.97879 21.1358 5.81664 21.7944 6.22798C22.4531 6.63963 22.6821 7.47938 22.3462 8.16157L22.2719 8.29536L14.7719 20.2954C14.3329 20.9974 13.4079 21.2116 12.7055 20.7729C12.0033 20.3339 11.7894 19.4079 12.228 18.7055L19.727 6.70552L19.8149 6.57954ZM26.2046 6.22798C26.8632 5.81653 27.7181 5.97879 28.1841 6.57954L28.2719 6.70552L35.7719 18.7055L35.8462 18.8393C36.1821 19.5215 35.9531 20.3612 35.2944 20.7729C34.592 21.2114 33.666 20.9977 33.227 20.2954L25.727 8.29536L25.6528 8.16157C25.3169 7.47953 25.5462 6.63974 26.2046 6.22798Z" fill="#03123D"/>
</svg>
