<svg width="20" height="20" viewBox="0 0 20 20" fill="none" xmlns="http://www.w3.org/2000/svg">
<path fill-rule="evenodd" clip-rule="evenodd" d="M10 18C14.4183 18 18 14.4183 18 10C18 5.58172 14.4183 2 10 2C5.58172 2 2 5.58172 2 10C2 14.4183 5.58172 18 10 18ZM10 4C9.17751 4 8.5 4.67751 8.5 5.5C8.5 6.32249 9.17751 7 10 7C10.8225 7 11.5 6.32249 11.5 5.5C11.5 4.67751 10.8225 4 10 4ZM10 6C10.2702 6 10.5 5.77021 10.5 5.5C10.5 5.22979 10.2702 5 10 5C9.72979 5 9.5 5.22979 9.5 5.5C9.5 5.77021 9.72979 6 10 6ZM11 8V16H9V8L11 8Z" fill="#03123D"/>
</svg>
