<svg width="16" height="16" viewBox="0 0 16 16" fill="none" xmlns="http://www.w3.org/2000/svg">
<path d="M13 8H3C2.45 8 2 8.45 2 9V14L4 12H13C13.55 12 14 11.55 14 11V9C14 8.45 13.55 8 13 8Z" fill="#03123D"/>
<path d="M3 7H5.5C6.88 7 8 5.88 8 4.5C8 3.12 6.88 2 5.5 2H3C2.45 2 2 2.45 2 3V6C2 6.55 2.45 7 3 7ZM3 3H5.5C6.33 3 7 3.67 7 4.5C7 5.33 6.33 6 5.5 6H3V3Z" fill="#03123D"/>
<path d="M10 5H11.5C11.78 5 12 4.78 12 4.5C12 4.22 11.78 4 11.5 4H10V3H13.5C13.78 3 14 2.78 14 2.5C14 2.22 13.78 2 13.5 2H9V7H10V5Z" fill="#03123D"/>
</svg>
