<svg width="48" height="48" viewBox="0 0 48 48" fill="none" xmlns="http://www.w3.org/2000/svg">
<path fill-rule="evenodd" clip-rule="evenodd" d="M36 21C36 23.502 35.3864 25.8616 34.3016 27.9363L42.257 35.6357C42.5459 35.9153 42.7105 36.2992 42.7138 36.7013C42.7171 37.1034 42.5588 37.4899 42.2745 37.7742C41.8315 38.2172 41.5136 38.5607 41.1858 38.9149C40.4964 39.6598 39.7627 40.4526 37.7282 42.3192C37.1363 42.8623 36.2215 42.8426 35.6535 42.2746C34.3751 40.9962 32.4284 38.9848 30.8085 37.3006C29.9969 36.4569 29.2648 35.6925 28.7355 35.1392C28.4709 34.8624 28.2569 34.6384 28.109 34.4835L27.9357 34.3019C25.8611 35.3865 23.5018 36 21 36C12.72 36 6 29.28 6 21C6 12.72 12.72 6 21 6C29.28 6 36 12.72 36 21ZM30.9036 33.0656L30.4799 32.6224C31.2628 31.9829 31.9799 31.266 32.6196 30.4834L39.0964 36.7518C39.0304 36.8231 38.9661 36.8928 38.9023 36.9621C38.3937 37.5139 37.9094 38.0393 36.7578 39.1259C35.6034 37.9508 34.199 36.498 32.9706 35.2209C32.1615 34.3798 31.4314 33.6176 30.9036 33.0656ZM12 21C12 25.98 16.02 30 21 30C25.98 30 30 25.98 30 21C30 16.02 25.98 12 21 12C16.02 12 12 16.02 12 21Z" fill="#03123D"/>
</svg>
