<svg width="64" height="64" viewBox="0 0 64 64" fill="none" xmlns="http://www.w3.org/2000/svg">
<path d="M38.752 44C38.2313 46.3437 37.5721 48.4421 36.8086 50.2236C35.85 52.4603 34.8111 54.0147 33.8613 54.9521C32.9287 55.8726 32.3042 56 32 56C31.6958 56 31.0713 55.8726 30.1387 54.9521C29.1889 54.0147 28.15 52.4603 27.1914 50.2236C26.4279 48.4421 25.7687 46.3437 25.248 44H38.752ZM21.1553 44C22.0586 48.4371 23.4491 52.2309 25.1631 55.0098C19.227 53.2487 14.2519 49.255 11.2119 44H21.1553ZM52.7881 44C49.7481 49.255 44.7729 53.2487 38.8369 55.0098C40.55 52.231 41.9385 48.4367 42.8418 44H52.7881ZM54.6328 24C55.5173 26.5024 56 29.1947 56 32C56 34.8053 55.5173 37.4976 54.6328 40H43.5C43.7952 37.6854 43.9687 35.2457 43.9961 32.7227L44 32C44 29.2201 43.8253 26.5349 43.502 24H54.6328ZM20.501 24C20.2057 26.3147 20.0313 28.7543 20.0039 31.2773L20 32C20 34.78 20.1757 37.4651 20.499 40H9.36719C8.48267 37.4976 8 34.8053 8 32C8 29.1947 8.48267 26.5024 9.36719 24H20.501ZM39.4668 24C39.809 26.4943 40 29.1817 40 32C40 34.8183 39.809 37.5057 39.4668 40H24.5332C24.191 37.5057 24 34.8183 24 32C24 29.1817 24.191 26.4943 24.5332 24H39.4668ZM38.8379 8.98926C44.7736 10.7505 49.7482 14.7452 52.7881 20H42.8447C41.9413 15.5627 40.552 11.7681 38.8379 8.98926ZM25.165 8.98828C23.4513 11.7674 22.0618 15.5621 21.1582 20H11.2119C14.2523 14.7443 19.228 10.749 25.165 8.98828ZM32 8C32.3042 8 32.9287 8.12738 33.8613 9.04785C34.8111 9.98528 35.85 11.5397 36.8086 13.7764C37.5721 15.5579 38.2313 17.6563 38.752 20H25.248C25.7687 17.6563 26.4279 15.5579 27.1914 13.7764C28.15 11.5397 29.1889 9.98528 30.1387 9.04785C31.0713 8.12739 31.6958 8 32 8Z" fill="#03123D"/>
</svg>
