<svg width="48" height="48" viewBox="0 0 48 48" fill="none" xmlns="http://www.w3.org/2000/svg">
<path d="M18.0479 12.7149C18.7895 12.7149 19.5137 12.7831 20.2147 12.9134C13.8332 18.4109 13.8332 29.5902 20.2147 35.0878C19.5137 35.218 18.7895 35.2863 18.0479 35.2863C14.1971 35.2862 11.5203 33.8495 9.77054 31.8478C7.96939 29.7871 7.00011 26.9465 7.00001 24.001C7.00001 21.0554 7.96926 18.2141 9.77054 16.1534C11.5203 14.1516 14.1971 12.7149 18.0479 12.7149ZM18.0479 9.71484C-0.68264 9.71503 -0.68264 38.2861 18.0479 38.2863C20.0285 38.2863 21.9165 37.8963 23.6369 37.1902C25.3235 37.8898 27.27 38.2862 29.4765 38.2863C37.3723 38.2863 43.7964 32.0887 43.9951 24.3692L44 24.001C44 16.1112 37.4976 9.71484 29.4765 9.71484C27.27 9.71487 25.3234 10.1114 23.6368 10.811C21.9164 10.1048 20.0285 9.71484 18.0479 9.71484ZM29.4765 12.7149C35.8876 12.7149 41 17.8146 41 24.001C40.9998 30.1873 35.8874 35.2863 29.4765 35.2863C28.6625 35.2862 27.901 35.222 27.1895 35.1019C30.3825 32.5548 32.455 28.7017 32.5665 24.3692L32.5714 24.001C32.5714 19.5188 30.4728 15.5186 27.1894 12.8993C27.9008 12.7791 28.6624 12.7149 29.4765 12.7149Z" fill="#03123D"/>
</svg>
