<svg width="20" height="20" viewBox="0 0 20 20" fill="none" xmlns="http://www.w3.org/2000/svg">
<path d="M8.5 11C8.77614 11 9 11.2239 9 11.5V16.5C9 16.7761 8.77614 17 8.5 17H3.5C3.22386 17 3 16.7761 3 16.5V11.5C3 11.2239 3.22386 11 3.5 11H8.5ZM4 16H8V12H4V16Z" fill="#03123D"/>
<path d="M16.5 11C16.7761 11 17 11.2239 17 11.5V16.5C17 16.7761 16.7761 17 16.5 17H11.5C11.2239 17 11 16.7761 11 16.5V11.5C11 11.2239 11.2239 11 11.5 11H16.5ZM12 16H16V12H12V16Z" fill="#03123D"/>
<path d="M3 4C3 3.44772 3.44772 3 4 3H16C16.5523 3 17 3.44772 17 4V8C17 8.55228 16.5523 9 16 9H4C3.44772 9 3 8.55228 3 8V4Z" fill="#03123D"/>
</svg>
