<svg width="16" height="16" viewBox="0 0 16 16" fill="none" xmlns="http://www.w3.org/2000/svg">
<path fill-rule="evenodd" clip-rule="evenodd" d="M14 8C14 11.3137 11.3137 14 8 14C4.68629 14 2 11.3137 2 8C2 4.68629 4.68629 2 8 2C11.3137 2 14 4.68629 14 8ZM3 8C3 9.63582 3.78555 11.0882 5 12.0004V8H6V12.584C6.3175 12.7227 6.6522 12.8294 7 12.9V8H8V13C8.34247 13 8.67689 12.9656 9 12.9V8H10V12.584C10.0223 12.5742 10.0446 12.5643 10.0667 12.5542C10.1082 12.5353 10.1495 12.5159 10.1904 12.4959C10.3646 12.4109 10.533 12.316 10.6951 12.212C10.7994 12.145 10.9011 12.0743 11 12V8H12V11.0005C12.6279 10.1647 13 9.12582 13 8C13 6.36418 12.2144 4.91184 11 3.99963V8H10V3.41604C9.6825 3.27732 9.3478 3.17062 9 3.10002V8H8V3C7.65753 3 7.32311 3.03443 7 3.10002V8H6V3.41604C5.64281 3.57211 5.30738 3.7687 4.99951 4L5 8H4V4.99951C3.37209 5.83526 3 6.87418 3 8Z" fill="#03123D"/>
</svg>
