<svg width="48" height="48" viewBox="0 0 48 48" fill="none" xmlns="http://www.w3.org/2000/svg">
<path fill-rule="evenodd" clip-rule="evenodd" d="M41.9795 41.9727V5.99707H5.99707V41.9727H41.9795ZM14.9929 35.9702V38.9746H8.99609V32.9783H11.9941V35.9702H14.9929ZM17.991 38.9746H29.9851V35.9702H26.9868V32.9783H20.9854V35.9702H17.991V38.9746ZM38.9814 32.9783H35.978V35.9702H32.9841V38.9746H38.9814V32.9783ZM38.9814 17.9851V29.9793H35.978V26.981H32.9841V20.9775H35.978V17.9851H38.9814ZM17.991 26.981V20.9775H20.9854V17.9851H26.9868V20.9775H29.9851V26.981H26.9868V29.9793H20.9854V26.981H17.991ZM14.9929 20.9775H11.9941V17.9851H8.99609V29.9792H11.9941V26.981H14.9929V20.9775ZM11.9941 11.9883H14.9929V8.99609H8.99609V14.9871H11.9941V11.9883ZM17.991 8.99609V11.9883H20.9854V14.9871H26.9868V11.9883H29.9851V8.99609H17.991ZM35.978 11.9883H32.9841V8.99609H38.9814V14.9871H35.978V11.9883Z" fill="#03123D"/>
</svg>
