<svg width="64" height="64" viewBox="0 0 64 64" fill="none" xmlns="http://www.w3.org/2000/svg">
<path d="M32 12.1103C44 2.10991 56 12.0156 56 24.1103C56 40.0155 32 56.1103 32 56.1103C32 56.1103 8 40.1147 8 24.1103C8.00008 12.1105 22 2.10992 32 12.1103ZM18.1484 18.4726C17.2067 17.8956 15.9756 18.191 15.3984 19.1327C13.3476 22.479 13.8089 26.3015 15.1396 29.7011C16.4763 33.1155 18.82 36.4717 21.165 39.2802C21.873 40.128 23.1346 40.2411 23.9824 39.5331C24.8302 38.8252 24.9432 37.5646 24.2354 36.7167C22.0113 34.0532 19.9748 31.08 18.8643 28.2431C17.7479 25.3912 17.6954 23.0389 18.8086 21.2226C19.3858 20.2808 19.0901 19.0498 18.1484 18.4726ZM22 11.9999C20.8954 11.9999 20 12.8954 20 13.9999C20 15.1045 20.8955 15.9999 22 15.9999C23.1045 15.9999 24 15.1044 24 13.9999C24 12.8954 23.1045 12 22 11.9999Z" fill="#03123D"/>
</svg>
