<svg width="16" height="16" viewBox="0 0 16 16" fill="none" xmlns="http://www.w3.org/2000/svg">
<path fill-rule="evenodd" clip-rule="evenodd" d="M12 7C12 7.83455 11.7952 8.62156 11.4331 9.31348C11.4463 9.32565 11.4592 9.3381 11.472 9.35083L14.348 12.141C14.4442 12.2343 14.4988 12.3622 14.4999 12.4961C14.5009 12.63 14.4481 12.7587 14.3534 12.8534C14.2073 12.9995 14.1022 13.1138 13.9935 13.232C13.7638 13.4816 13.5182 13.7486 12.8368 14.3696C12.6393 14.5495 12.3353 14.5424 12.1464 14.3536C11.6869 13.894 10.9858 13.1713 10.4018 12.5659C10.1093 12.2627 9.84538 11.9881 9.65458 11.7892L9.34938 11.4708C9.33711 11.4584 9.3251 11.4459 9.31335 11.4332C8.62147 11.7952 7.8345 12 7 12C4.24 12 2 9.76 2 7C2 4.24 4.24 2 7 2C9.76 2 12 4.24 12 7ZM10.3761 11.0969L10.1615 10.8728C10.4215 10.6603 10.6597 10.4222 10.8723 10.1622L13.295 12.5127L13.2279 12.5859C13.0594 12.7699 12.8997 12.9443 12.5153 13.3052C12.0939 12.8772 11.5744 12.3412 11.1215 11.8717C10.8298 11.5692 10.5665 11.2953 10.3761 11.0969ZM4 7C4 8.66 5.34 10 7 10C8.66 10 10 8.66 10 7C10 5.34 8.66 4 7 4C5.34 4 4 5.34 4 7Z" fill="#03123D"/>
</svg>
