<svg width="32" height="32" viewBox="0 0 32 32" fill="none" xmlns="http://www.w3.org/2000/svg">
<path d="M16.9811 3.15217C16.372 2.8093 15.628 2.8093 15.0189 3.15217L5.01894 8.78125C4.38949 9.13557 4 9.80177 4 10.5241V21.6758C4 22.3981 4.38949 23.0643 5.01894 23.4186L15.0189 29.0477C15.628 29.3905 16.372 29.3905 16.9811 29.0477L26.9811 23.4186C27.6105 23.0643 28 22.3981 28 21.6758V10.5241C28 9.80177 27.6105 9.13557 26.9811 8.78125L16.9811 3.15217ZM17.005 14.3671V5.41936L24.9849 9.90304L17.005 14.3671ZM14.995 14.3671L7.03518 9.90304L14.995 5.41936V14.3671ZM6.01005 11.5869L14.995 16.6384V26.7805L6.01005 21.729V11.5869Z" fill="#03123D"/>
</svg>
