<svg width="16" height="16" viewBox="0 0 16 16" fill="none" xmlns="http://www.w3.org/2000/svg">
<path d="M5.95 5.43775C6.6 5.43775 7.12 5.54764 7.52 5.75743C7.86 5.94724 8.1 6.187 8.28 6.51667C8.49 6.90628 8.59 7.40578 8.59 8.00518C8.59 8.3848 8.55 8.71447 8.46 9.01417C8.39 9.27391 8.28 9.4937 8.15 9.68351C8.03 9.85334 7.89 10.0032 7.71 10.1231C7.52 10.2629 7.29 10.3628 7.02 10.4427C6.71 10.5327 6.35 10.5726 5.95 10.5726H4.42V5.43775H5.95ZM2 3V13.0002L6 13C6.63 13 7.17 12.9203 7.69 12.7704C8.22 12.6206 8.69 12.4008 9.09 12.1111C9.5 11.8214 9.85 11.4717 10.13 11.0621C10.41 10.6525 10.63 10.193 10.78 9.67352C10.93 9.16402 11 8.60458 11 7.99519C11 6.9862 10.8 6.10708 10.4 5.35783C10 4.60858 9.42 4.02916 8.67 3.61957C7.92 3.20998 7.06 3.00041 6 3.00041L2 3Z" fill="#03123D"/>
<path d="M14 7H12V9H14V7Z" fill="#03123D"/>
<path d="M14 3H12V5H14V3Z" fill="#03123D"/>
<path d="M14 11H12V12V13H14V12V11Z" fill="#03123D"/>
</svg>
