<svg width="48" height="48" viewBox="0 0 48 48" fill="none" xmlns="http://www.w3.org/2000/svg">
<path fill-rule="evenodd" clip-rule="evenodd" d="M39 9.00009H24V18.0001H39V9.00009ZM21 6.00009V21.0001H42V6.00009H21Z" fill="#03123D"/>
<path fill-rule="evenodd" clip-rule="evenodd" d="M39 27.0001H24V36.0001H39V27.0001ZM21 24.0001V39.0001H42V24.0001H21Z" fill="#03123D"/>
<path fill-rule="evenodd" clip-rule="evenodd" d="M12 11.0001L15.3 6.60009C15.7971 5.93735 16.7373 5.80303 17.4 6.30009C18.0627 6.79714 18.1971 7.73735 17.7 8.40009L13.875 13.5001L17.7 18.6001C18.1971 19.2628 18.0627 20.203 17.4 20.7001C16.7373 21.1971 15.7971 21.0628 15.3 20.4001L12 16.0001L8.7 20.4001C8.20294 21.0628 7.26274 21.1971 6.6 20.7001C5.93726 20.203 5.80294 19.2628 6.3 18.6001L10.125 13.5001L6.3 8.40009C5.80294 7.73735 5.93726 6.79714 6.6 6.30009C7.26274 5.80303 8.20294 5.93735 8.7 6.60009L12 11.0001Z" fill="#03123D"/>
<path fill-rule="evenodd" clip-rule="evenodd" d="M15.1073 24.943L12.1074 32.4428L8.87872 24.9092C8.55238 24.1478 7.67057 23.795 6.90912 24.1214C6.14768 24.4477 5.79495 25.3295 6.12128 26.091L10.5317 36.382L9.48445 39.0001H6.57422C5.74579 39.0001 5.07422 39.6717 5.07422 40.5001C5.07422 41.3285 5.74579 42.0001 6.57422 42.0001H9.48445C10.7112 42.0001 11.8143 41.2532 12.2699 40.1143L17.8927 26.0572C18.2004 25.288 17.8263 24.415 17.0571 24.1074C16.2879 23.7997 15.415 24.1738 15.1073 24.943Z" fill="#03123D"/>
</svg>
