<svg width="48" height="48" viewBox="0 0 48 48" fill="none" xmlns="http://www.w3.org/2000/svg">
<path d="M37.126 9.65732C38.0265 8.9372 39.2606 8.79651 40.2998 9.296C41.339 9.79555 41.9999 10.8471 42 12.0001V36.0001C42 37.1889 41.2977 38.2656 40.21 38.7452C39.1219 39.2247 37.8531 39.0163 36.9756 38.214C33.5993 35.1271 29.47 33.0424 26.0947 31.7228C24.7036 31.1789 23.4657 30.7765 22.5 30.4913V34.5001C22.5 36.9853 20.4852 39 18 39.0001C15.5147 39.0001 13.5 36.9854 13.5 34.5001V30.0001H9.1709C7.41974 30.0001 6 28.5804 6 26.8292V21.171C6 19.4198 7.41974 18.0001 9.1709 18.0001H20.5566C20.563 17.9981 20.5697 17.9962 20.5762 17.9942C20.8544 17.9078 21.2683 17.7757 21.791 17.5978C22.8388 17.241 24.3187 16.7032 26.0234 15.9855C29.4658 14.536 33.6825 12.4121 37.126 9.65732ZM16.5 34.5001C16.5 35.3285 17.1716 36.0001 18 36.0001C18.8283 36 19.5 35.3285 19.5 34.5001V30.0001H16.5V34.5001ZM39 12.0001C31.5233 17.9815 21.0648 20.9816 21 21.0001V27.0001C21.0497 27.0103 31.5178 29.1593 39 36.0001V12.0001ZM35.291 16.5821C36.0741 16.1907 37.0264 16.508 37.418 17.2911C37.8094 18.0742 37.492 19.0265 36.709 19.4181L30.709 22.4181C29.9259 22.8096 28.9737 22.4921 28.582 21.7091C28.1905 20.9259 28.5079 19.9737 29.291 19.5821L35.291 16.5821Z" fill="#03123D"/>
</svg>
