<svg width="24" height="24" viewBox="0 0 24 24" fill="none" xmlns="http://www.w3.org/2000/svg">
<path d="M3 12H21V15H3V12Z" fill="#03123D"/>
<path d="M12 6.75C14.7664 6.75 17.1269 7.53956 18.7881 8.32129C19.6204 8.71295 20.2829 9.10572 20.7402 9.40234C20.9689 9.55069 21.1468 9.67541 21.2695 9.76465C21.3308 9.80924 21.3788 9.84467 21.4121 9.87012C21.4287 9.88277 21.4418 9.89302 21.4512 9.90039C21.4559 9.90405 21.46 9.9069 21.4629 9.90918L21.4678 9.91406L20.5322 11.0859C20.5322 11.0859 20.5298 11.0839 20.5273 11.082C20.5223 11.0781 20.5131 11.0717 20.501 11.0625C20.4768 11.044 20.4391 11.0149 20.3877 10.9775C20.2849 10.9027 20.1286 10.793 19.9238 10.6602C19.514 10.3943 18.9107 10.037 18.1494 9.67871C16.6231 8.96045 14.4836 8.25 12 8.25C9.5164 8.25 7.3769 8.96045 5.85059 9.67871C5.08925 10.037 4.48605 10.3943 4.07617 10.6602C3.87141 10.793 3.71515 10.9027 3.6123 10.9775C3.56094 11.0149 3.5232 11.044 3.49902 11.0625C3.48695 11.0717 3.47773 11.0781 3.47266 11.082L3.46777 11.0859L2.53223 9.91406L2.53711 9.90918C2.53999 9.9069 2.54415 9.90405 2.54883 9.90039C2.55825 9.89302 2.57134 9.88277 2.58789 9.87012C2.62119 9.84467 2.66915 9.80924 2.73047 9.76465C2.85318 9.67541 3.03108 9.55069 3.25977 9.40234C3.71706 9.10572 4.37964 8.71295 5.21191 8.32129C6.8731 7.53956 9.23363 6.75 12 6.75Z" fill="#03123D"/>
</svg>
