<svg width="64" height="64" viewBox="0 0 64 64" fill="none" xmlns="http://www.w3.org/2000/svg">
<path d="M44 48H34V47.84C41.88 46.84 48 40.16 48 32.04C48 30.92 47.12 30.04 46 30.04C44.88 30.04 44 30.92 44 32.04C44 38.64 38.64 44.04 32 44.04C25.36 44.04 20 38.68 20 32.04C20 30.92 19.12 30.04 18 30.04C16.88 30.04 16 30.92 16 32.04C16 40.16 22.12 46.84 30 47.84V48H20C20 50 20 52.88 20 54C20 55.12 20 52 20 56H44C44 56 44 55.12 44 54C44 52.88 44 50 44 48Z" fill="#03123D"/>
<path d="M32 40.2C36.4 40.2 40 36.6 40 32.2V16C40 11.6 36.4 8 32 8C27.6 8 24 11.6 24 16V32.2C24 36.6 27.6 40.2 32 40.2Z" fill="#03123D"/>
</svg>
