<svg width="48" height="48" viewBox="0 0 48 48" fill="none" xmlns="http://www.w3.org/2000/svg">
<path fill-rule="evenodd" clip-rule="evenodd" d="M33.9555 15C33.4872 20.2071 29.3757 24 24 24C18.6243 24 14.5128 20.2071 14.0445 15H7V31H12.7358C14.832 28.5466 17.9486 26.9912 21.4286 26.9912H26.5714C30.0514 26.9912 33.168 28.5466 35.2642 31H41V15H33.9555ZM10.886 34C10.3153 35.3596 10 36.8529 10 38.4198V44H38V38.4198C38 36.8529 37.6847 35.3596 37.114 34H41.1429C42.7208 34 44 32.7688 44 31.25V14.75C44 13.2312 42.7208 12 41.1429 12H33.818C32.9456 7.31437 29.0252 4 24 4C18.9522 4 15.0191 7.16289 14.1704 12H6.85714C5.27919 12 4 13.2312 4 14.75V31.25C4 32.7688 5.27919 34 6.85714 34H10.886ZM21.1424 19.7142L29.7139 13.9999L21.1424 8.28564V19.7142Z" fill="#03123D"/>
</svg>
