<svg width="32" height="32" viewBox="0 0 32 32" fill="none" xmlns="http://www.w3.org/2000/svg">
<path d="M26.2933 14.2925L13.7933 26.7925C11.6986 28.8872 8.30256 28.8877 6.20779 26.7932C4.11303 24.6984 4.11303 21.3018 6.20779 19.207L20.7076 4.70716C21.9739 3.44093 24.0274 3.44148 25.2928 4.70854C26.5567 5.97426 26.556 8.02445 25.2914 9.28954L10.7936 23.7928C10.3557 24.2309 9.64475 24.2308 9.20678 23.7928C8.76912 23.3549 8.76977 22.6446 9.20747 22.2067L21.702 9.70663C22.0922 9.316 22.0918 8.68346 21.7013 8.2931C21.3107 7.90267 20.6775 7.9025 20.2871 8.2931L7.79256 20.7931C6.57415 22.0121 6.574 23.9883 7.79256 25.207C9.01161 26.4261 10.9889 26.4262 12.2078 25.207L26.7056 10.7038C28.7508 8.65791 28.7519 5.34188 26.7077 3.29502C24.6614 1.24617 21.341 1.24535 19.2934 3.29295L4.79357 17.7928C1.91777 20.6686 1.91777 25.3316 4.79357 28.2074C7.6694 31.083 12.3318 31.0825 15.2075 28.2067L27.7076 15.7067C28.0978 15.3161 28.098 14.6829 27.7076 14.2925C27.3171 13.9023 26.6838 13.9023 26.2933 14.2925Z" fill="#03123D"/>
</svg>
