<svg width="16" height="16" viewBox="0 0 16 16" fill="none" xmlns="http://www.w3.org/2000/svg">
<path fill-rule="evenodd" clip-rule="evenodd" d="M13.375 7.46875C13.5882 7.41372 13.7838 7.35214 13.9584 7.29C13.9859 7.52285 14 7.75978 14 8C14 11.3137 11.3137 14 8 14C6.90276 14 5.8743 13.7055 4.98939 13.1912L6.82129 7.51074C6.99805 7.43441 7.23813 7.34247 7.52441 7.26855C8.1739 7.10095 9.0064 7.03003 9.8584 7.33984C11.2063 7.82997 12.4745 7.70113 13.375 7.46875ZM8 1C11.4712 1 14.3523 3.52659 14.9045 6.84106L14.9063 6.8509C14.9064 6.85157 14.9065 6.85224 14.9067 6.85292L14.9079 6.86132C14.9548 7.14812 14.9843 7.44079 14.9952 7.73819C14.9984 7.82507 15 7.91235 15 8C15 11.866 11.866 15 8 15C4.13401 15 1 11.866 1 8C1 4.13401 4.13401 1 8 1ZM8 2C10.3691 2 12.4176 3.37311 13.3929 5.36691C13.2454 5.42283 13.0708 5.48073 12.875 5.53125C12.2255 5.69885 11.3939 5.76972 10.542 5.45996C9.19408 4.96981 7.92589 5.09967 7.02539 5.33203C6.5724 5.44893 6.19869 5.59429 5.93555 5.71289C5.8036 5.77237 5.69802 5.82598 5.62207 5.86621C5.58404 5.88636 5.55315 5.90307 5.53027 5.91602C5.52273 5.92028 5.51609 5.92424 5.51029 5.92769L5.48535 5.94238C5.30381 6.05132 5.16243 6.21483 5.08008 6.4082L5.04785 6.49316L3.34182 11.782C2.50286 10.75 2 9.43371 2 8C2 4.68629 4.68629 2 8 2Z" fill="#03123D"/>
</svg>
