<svg width="48" height="48" viewBox="0 0 48 48" fill="none" xmlns="http://www.w3.org/2000/svg">
<path d="M32.8048 24.7588C33.1821 25.4189 33.0051 26.2711 32.3732 26.7227C31.7412 27.1741 30.8783 27.065 30.3761 26.4941L30.2804 26.374L25.5015 19.6863L25.5015 33.001L25.4936 33.1543C25.4169 33.9107 24.7781 34.501 24.0015 34.501C23.2248 34.501 22.586 33.9107 22.5093 33.1543L22.5015 33.001L22.5015 19.6815L17.7228 26.374C17.2413 27.048 16.3041 27.2039 15.63 26.7227C14.956 26.2412 14.8001 25.304 15.2814 24.6299L23.9972 12.4219L32.7218 24.6299L32.8048 24.7588Z" fill="#03123D"/>
</svg>
