<svg width="16" height="16" viewBox="0 0 16 16" fill="none" xmlns="http://www.w3.org/2000/svg">
<path fill-rule="evenodd" clip-rule="evenodd" d="M10.9066 4.99937C10.1951 3.69448 8.75457 2.86717 7.18782 3.01759C5.59593 3.17042 4.32375 4.28825 3.89039 5.73599C2.49779 6.27812 1.5 7.62411 1.5 9.21202C1.5 11.2865 3.26718 13 5.33176 13H10.5968L10.5961 12.9989C12.7609 12.9477 14.5 11.1722 14.5 8.98945C14.5 6.91209 12.9247 5.20363 10.9066 4.99937ZM9.74099 5.05101C9.16458 4.34107 8.25629 3.92223 7.28313 4.01566C6.31644 4.10847 5.50677 4.68538 5.07265 5.48465C5.13358 5.48171 5.19486 5.48022 5.25647 5.48022C6.12308 5.48022 6.92376 5.7744 7.56058 6.26937C8.1282 5.65305 8.88622 5.21563 9.74099 5.05101ZM6.5 8.98945C6.5 8.30051 6.67326 7.65213 6.97848 7.08575C6.50734 6.70863 5.90835 6.48286 5.25647 6.48286C3.73788 6.48286 2.5 7.7069 2.5 9.21202C2.5 10.7145 3.80106 11.9974 5.33176 11.9974H7.85418C7.02375 11.2625 6.5 10.1873 6.5 8.98945Z" fill="#03123D"/>
</svg>
