<svg width="48" height="48" viewBox="0 0 48 48" fill="none" xmlns="http://www.w3.org/2000/svg">
<path fill-rule="evenodd" clip-rule="evenodd" d="M19.5 12C19.5 11.1719 20.1716 10.5 21 10.5C21.8284 10.5 22.5 11.1719 22.5 12V12.2168C22.5005 16.5293 22.5009 19.8516 20.8418 23.1719C20.4713 23.9121 19.5701 24.2129 18.8291 23.8418C18.0881 23.4707 17.7877 22.5703 18.1582 21.8281C19.4715 19.2031 19.5 16.5801 19.5 12Z" fill="#03123D"/>
<path d="M19.5 12C19.5 11.1719 20.1716 10.5 21 10.5C21.8284 10.5 22.5 11.1719 22.5 12C22.5 12.0725 22.5 12.1448 22.5 12.2168C22.5005 16.5315 22.5008 19.8539 20.8418 23.1719C20.4713 23.9121 19.5701 24.2129 18.8291 23.8418C18.0881 23.4713 17.7877 22.5691 18.1582 21.8281C19.4715 19.2015 19.5 16.5793 19.5 12Z" fill="white"/>
<path fill-rule="evenodd" clip-rule="evenodd" d="M18 36H7.5C7.5 36 13.1251 28.125 15 22.5C16.2568 18.7305 16.7135 12.5996 16.878 8.96875C16.9525 7.32422 18.2966 6 19.9433 6H28.0571C29.7039 6 31.048 7.32422 31.1224 8.96875C31.2868 12.5996 31.7432 18.7305 33 22.5C34.8749 28.125 40.5 36 40.5 36H30C30 39.3145 27.3137 42 24 42C20.6863 42 18 39.3145 18 36ZM21 36C21 37.6562 22.3431 39 24 39C25.6569 39 27 37.6562 27 36H21ZM19.5 12C19.5 11.1719 20.1716 10.5 21 10.5C21.8284 10.5 22.5 11.1719 22.5 12V12.2168C22.5005 16.5293 22.5009 19.8516 20.8418 23.1719C20.4713 23.9121 19.5701 24.2129 18.8291 23.8418C18.0881 23.4707 17.7877 22.5703 18.1582 21.8281C19.4715 19.2031 19.5 16.5801 19.5 12Z" fill="#03123D"/>
</svg>
