<svg width="24" height="24" viewBox="0 0 24 24" fill="none" xmlns="http://www.w3.org/2000/svg">
<path fill-rule="evenodd" clip-rule="evenodd" d="M4.5 3L8.69534 9.99223C7.07163 11.0663 6 12.9088 6 15C6 18.312 8.688 21 12 21C15.312 21 18 18.312 18 15C18 12.9088 16.9284 11.0663 15.3047 9.99223L19.5 3H13.5L12 5.5L10.5 3H4.5ZM7.75648 13.5C8.37362 11.7563 10.0358 10.5048 11.9887 10.5L10.9912 13.5H7.75648ZM11.9887 10.5H12C13.9577 10.5 15.6252 11.753 16.2435 13.5H12.9862L11.9887 10.5ZM14.3493 4.5L12.8746 6.95774L14.1 9H14.1507L16.8507 4.5H14.3493ZM7.5 15C7.5 16.4671 8.20367 17.7712 9.29162 18.593L10.2337 15.7725L7.70171 13.6649C7.57062 14.0868 7.5 14.5352 7.5 15ZM9.77403 18.911C10.4306 19.2858 11.1905 19.5 12 19.5C12.8008 19.5 13.5529 19.2904 14.2046 18.9231L11.9887 17.25L9.77403 18.911ZM16.5 15C16.5 16.4766 15.7872 17.7881 14.6872 18.6088L13.7512 15.795L16.2984 13.6653C16.4294 14.0871 16.5 14.5354 16.5 15Z" fill="#03123D"/>
</svg>
