<svg width="48" height="48" viewBox="0 0 48 48" fill="none" xmlns="http://www.w3.org/2000/svg">
<path d="M33 36H25.5V35.88C31.41 35.13 36 30.12 36 24.03C36 23.19 35.34 22.53 34.5 22.53C33.66 22.53 33 23.19 33 24.03C33 28.98 28.98 33.03 24 33.03C19.02 33.03 15 29.01 15 24.03C15 23.19 14.34 22.53 13.5 22.53C12.66 22.53 12 23.19 12 24.03C12 30.12 16.59 35.13 22.5 35.88V36H15C15 37.5 15 39.66 15 40.5C15 41.34 15 39 15 42H33C33 42 33 41.34 33 40.5C33 39.66 33 37.5 33 36Z" fill="#03123D"/>
<path d="M24 30.15C27.3 30.15 30 27.45 30 24.15V12C30 8.7 27.3 6 24 6C20.7 6 18 8.7 18 12V24.15C18 27.45 20.7 30.15 24 30.15Z" fill="#03123D"/>
</svg>
