<svg width="48" height="48" viewBox="0 0 48 48" fill="none" xmlns="http://www.w3.org/2000/svg">
<path fill-rule="evenodd" clip-rule="evenodd" d="M44.7141 20.5265L44.7237 20.5849C44.7278 20.5825 44.7379 20.5752 44.7412 20.5732C44.7405 20.5715 44.7361 20.5637 44.7141 20.5265ZM16.5059 17.7979L16.4874 17.8089C16.493 17.8055 16.4992 17.8017 16.5059 17.7979ZM16.4711 17.8189C16.4692 17.82 16.4728 17.8178 16.4711 17.8189ZM16.4561 17.8271C16.4541 17.8281 16.4568 17.8267 16.4561 17.8271Z" fill="#03123D"/>
<path fill-rule="evenodd" clip-rule="evenodd" d="M24 3C34.4148 3 43.0588 10.5815 44.7141 20.5265L44.7237 20.5849C44.9055 21.6964 45 22.8371 45 24C45 35.598 35.598 45 24 45C12.402 45 3 35.598 3 24C3 12.402 12.402 3 24 3ZM24 42C20.708 42 17.6225 41.1163 14.9676 39.5732L20.4658 22.5273C20.996 22.2986 21.7167 22.026 22.5742 21.8047C24.5227 21.3019 27.0192 21.0901 29.5752 22.0195C33.619 23.4899 37.4236 23.1024 40.125 22.4053C40.7647 22.2402 41.3512 22.0555 41.8752 21.8691C41.9576 22.5679 42 23.279 42 24C42 33.9411 33.9411 42 24 42ZM16.4874 17.8089L16.5059 17.7979C16.5225 17.7881 16.5427 17.7767 16.566 17.7636L16.5918 17.749C16.6604 17.7102 16.7523 17.659 16.8662 17.5986C17.0941 17.4779 17.4116 17.3182 17.8076 17.1396C18.597 16.7839 19.7163 16.3458 21.0752 15.9951C23.7767 15.298 27.581 14.9104 31.625 16.3809C34.1809 17.3103 36.6766 17.0975 38.625 16.5947C39.2124 16.4431 39.7362 16.2686 40.1784 16.1003C37.2524 10.1191 31.1072 6 24 6C14.0589 6 6 14.0589 6 24C6 28.3014 7.50876 32.2504 10.0259 35.3466L15.1445 19.4785C15.3675 18.7876 15.8336 18.2007 16.4561 17.8271L16.4711 17.8189L16.4874 17.8089Z" fill="#03123D"/>
</svg>
