<svg width="64" height="64" viewBox="0 0 64 64" fill="none" xmlns="http://www.w3.org/2000/svg">
<path fill-rule="evenodd" clip-rule="evenodd" d="M19.9562 52.7638C23.4962 54.8216 27.6105 56 32 56C45.2548 56 56 45.2548 56 32C56 31.0387 55.9435 30.0905 55.8336 29.1587C55.1349 29.4069 54.3528 29.6529 53.5 29.873C49.8979 30.8026 44.8246 31.3201 39.4326 29.3594C36.0247 28.1202 32.6975 28.4028 30.0996 29.0732C28.9558 29.3684 27.9942 29.731 27.2871 30.0361L19.9562 52.7638ZM13.3685 47.1295C10.0119 43.0011 8 37.7355 8 32C8 18.7452 18.7452 8 32 8C41.4765 8 49.6702 13.4924 53.5714 21.4675C52.9821 21.6921 52.284 21.9249 51.501 22.127C48.903 22.7974 45.575 23.0801 42.167 21.8408C36.775 19.8801 31.7026 20.3976 28.1006 21.3271C26.2887 21.7947 24.7967 22.3791 23.7441 22.8535C23.2159 23.0916 22.7922 23.3048 22.4883 23.4658C22.3362 23.5464 22.2136 23.6142 22.1221 23.666C22.0763 23.6919 22.0378 23.7139 22.0078 23.7314C21.993 23.7401 21.9797 23.7474 21.9688 23.7539L21.9541 23.7627L21.9424 23.7705C21.1641 24.2375 20.5692 24.9538 20.2529 25.8008L20.1934 25.9717L13.3685 47.1295ZM59.6309 27.4463L59.6187 27.3685C57.4115 14.1085 45.8862 4 32 4C16.536 4 4 16.536 4 32C4 47.464 16.536 60 32 60C47.464 60 60 47.464 60 32C60 30.4494 59.8733 28.9283 59.6309 27.4463Z" fill="#03123D"/>
</svg>
