<svg width="24" height="24" viewBox="0 0 24 24" fill="none" xmlns="http://www.w3.org/2000/svg">
<path fill-rule="evenodd" clip-rule="evenodd" d="M21 12C21 16.9706 16.9706 21 12 21C7.02944 21 3 16.9706 3 12C3 7.02944 7.02944 3 12 3C16.9706 3 21 7.02944 21 12ZM18.9858 14.7348C18.9191 14.6397 18.8518 14.5085 18.7893 14.3301C18.5847 13.7458 18.5148 12.9171 18.467 11.9629C18.4606 11.8343 18.4546 11.7029 18.4485 11.5699C18.4123 10.7796 18.3735 9.93195 18.2288 9.26367C18.1436 8.87063 18.0049 8.44843 17.7434 8.1123C17.4533 7.73956 17.0305 7.50049 16.5002 7.5C15.9755 7.49965 15.554 7.73179 15.2512 8.0791C14.9712 8.40034 14.7976 8.81046 14.679 9.20605C14.4478 9.97669 14.3486 10.9695 14.259 11.8667L14.2532 11.9248C14.1569 12.8876 14.0677 13.7434 13.8821 14.3623C13.7899 14.6695 13.6939 14.8456 13.6165 14.9346C13.5617 14.9974 13.537 15 13.4993 15C13.4063 15 13.3551 14.9754 13.2942 14.9111C13.2108 14.8231 13.1103 14.652 13.0159 14.3525C12.8241 13.7446 12.7406 12.8966 12.6594 11.9365L12.6455 11.7706C12.573 10.9072 12.4937 9.96178 12.2913 9.22363C12.1829 8.8286 12.0208 8.41462 11.7463 8.08887C11.4473 7.73407 11.0258 7.5 10.4993 7.5C9.9747 7.5 9.55386 7.73193 9.25122 8.0791C8.97126 8.40037 8.79766 8.81043 8.67896 9.20605C8.44798 9.97596 8.34885 10.9682 8.25928 11.8647L8.25317 11.9258C8.15692 12.8883 8.06766 13.7436 7.88208 14.3623C7.78993 14.6695 7.69384 14.8457 7.61646 14.9346C7.56169 14.9974 7.53708 15 7.49927 15C7.4756 15.0003 7.46491 15.0004 7.43872 14.9668C7.38113 14.8926 7.30362 14.7284 7.23657 14.4189C7.12027 13.882 7.08724 13.1802 7.04916 12.3711C7.04289 12.2379 7.03648 12.1017 7.02954 11.9629C6.98351 11.0423 6.91284 9.99554 6.62524 9.17383C6.47823 8.75386 6.25509 8.33238 5.89673 8.0127C5.84369 7.9654 5.78868 7.92124 5.73179 7.88027C7.07283 5.84398 9.37947 4.5 12 4.5C16.1421 4.5 19.5 7.85786 19.5 12C19.5 12.965 19.3177 13.8875 18.9858 14.7348ZM12 19.5C14.6203 19.5 16.9267 18.1563 18.2678 16.1204C18.2105 16.0793 18.1552 16.0349 18.1018 15.9873C17.7432 15.6676 17.5203 15.2452 17.3733 14.8252C17.0858 14.0038 17.015 12.9583 16.969 12.0381C16.962 11.8987 16.9556 11.762 16.9493 11.6282C16.9113 10.8198 16.8782 10.1177 16.762 9.58105C16.6948 9.27126 16.6165 9.10732 16.5588 9.0332C16.5327 8.9996 16.5304 8.99963 16.5067 8.99993C16.4692 8.99993 16.4363 9.00227 16.3821 9.06445C16.3048 9.15313 16.2087 9.32941 16.1165 9.63672C15.9308 10.2554 15.8416 11.1114 15.7454 12.0742L15.7396 12.1316C15.65 13.0289 15.5507 14.022 15.3196 14.793C15.2009 15.1886 15.0272 15.5986 14.7473 15.9199C14.4447 16.2673 14.024 16.5 13.4993 16.5C12.9721 16.5 12.5344 16.29 12.2063 15.9443C11.9007 15.6222 11.7124 15.2069 11.5852 14.8037C11.3334 14.0055 11.2427 12.9783 11.1653 12.0635L11.1574 11.97C11.0789 11.0401 11.0096 10.2205 10.845 9.62012C10.7605 9.31222 10.67 9.14003 10.5989 9.05566C10.5522 9.0003 10.5353 9 10.4993 9C10.4615 9 10.4368 9.00259 10.3821 9.06543C10.3047 9.15435 10.2086 9.33054 10.1165 9.6377C9.93088 10.2564 9.84161 11.1117 9.74536 12.0742L9.73925 12.1353C9.64969 13.0318 9.55055 14.024 9.31958 14.7939C9.20088 15.1896 9.02728 15.5996 8.74731 15.9209C8.44467 16.2681 8.02384 16.5 7.49927 16.5C6.96886 16.5 6.54642 16.2614 6.2561 15.8887C5.99444 15.5526 5.85497 15.1304 5.76978 14.7373C5.62502 14.0692 5.58622 13.2212 5.55005 12.4308L5.53917 12.1954L5.53149 12.0371C5.48378 11.083 5.41373 10.2544 5.20923 9.66992C5.14708 9.49235 5.08017 9.36133 5.0139 9.26604C4.68214 10.1131 4.5 11.0353 4.5 12C4.5 16.1421 7.85786 19.5 12 19.5Z" fill="#03123D"/>
</svg>
