<svg width="20" height="20" viewBox="0 0 20 20" fill="none" xmlns="http://www.w3.org/2000/svg">
<path d="M7.38889 6.9253C8.11111 6.9253 8.68889 7.05717 9.13333 7.30892C9.51111 7.53669 9.77778 7.8244 9.97778 8.22001C10.2111 8.68754 10.3222 9.28694 10.3222 10.0062C10.3222 10.4618 10.2778 10.8574 10.1778 11.217C10.1 11.5287 9.97778 11.7924 9.83333 12.0202C9.7 12.224 9.54444 12.4038 9.34444 12.5477C9.13333 12.7155 8.87778 12.8354 8.57778 12.9313C8.23333 13.0392 7.83333 13.0871 7.38889 13.0871H5.68889V6.9253H7.38889ZM3 4V16.0002L7.44444 16C8.14444 16 8.74444 15.9043 9.32222 15.7245C9.91111 15.5447 10.4333 15.2809 10.8778 14.9333C11.3333 14.5856 11.7222 14.1661 12.0333 13.6746C12.3444 13.183 12.5889 12.6316 12.7556 12.0082C12.9222 11.3968 13 10.7255 13 9.99423C13 8.78344 12.7778 7.7285 12.3333 6.8294C11.8889 5.9303 11.2444 5.23499 10.4111 4.74348C9.57778 4.25198 8.62222 4.0005 7.44444 4.0005L3 4Z" fill="#03123D"/>
<path d="M17 4H15V6H17V4Z" fill="#03123D"/>
<path d="M17 9H15V11H17V9Z" fill="#03123D"/>
<path d="M17 14H15V16H17V14Z" fill="#03123D"/>
</svg>
