<svg width="32" height="32" viewBox="0 0 32 32" fill="none" xmlns="http://www.w3.org/2000/svg">
<path d="M19.376 22C19.1156 23.1716 18.786 24.2206 18.4043 25.1113C17.9249 26.2299 17.4056 27.0078 16.9307 27.4766C16.4644 27.9367 16.1521 28 16 28C15.8479 28 15.5356 27.9367 15.0693 27.4766C14.5944 27.0078 14.0751 26.2299 13.5957 25.1113C13.214 24.2206 12.8844 23.1716 12.624 22H19.376ZM10.5781 22C11.0296 24.2176 11.7246 26.1137 12.5811 27.5029C9.61403 26.6224 7.12929 24.6265 5.60938 22H10.5781ZM26.3906 22C24.8711 24.6259 22.387 26.6211 19.4209 27.502C20.2768 26.1128 20.9705 24.2168 21.4219 22H26.3906ZM10.249 12C10.1155 13.047 10.0325 14.1453 10.0078 15.2793L10 16C10 17.39 10.0874 18.7326 10.249 20H4.68555C4.24315 18.7486 4 17.4029 4 16C4 14.5971 4.24315 13.2514 4.68555 12H10.249ZM27.3145 12C27.7569 13.2514 28 14.5971 28 16C28 17.4029 27.7569 18.7486 27.3145 20H21.751C21.8845 18.953 21.9675 17.8547 21.9922 16.7207L22 16C22 14.61 21.9117 13.2675 21.75 12H27.3145ZM19.7334 12C19.9045 13.2471 20 14.5908 20 16C20 17.4092 19.9036 18.7528 19.7324 20H12.2666C12.0955 18.7529 12 17.4092 12 16C12 14.5908 12.0955 13.2471 12.2666 12H19.7334ZM12.5811 4.49609C11.7244 5.88538 11.0297 7.78198 10.5781 10H5.6084C7.12834 7.37324 9.61375 5.37664 12.5811 4.49609ZM19.4189 4.49609C22.3861 5.37659 24.8707 7.37344 26.3906 10H21.4209C20.9693 7.78216 20.2752 5.88542 19.4189 4.49609ZM16 4C16.1521 4 16.4644 4.06329 16.9307 4.52344C17.4056 4.99216 17.9249 5.77014 18.4043 6.88867C18.786 7.77937 19.1156 8.82838 19.376 10H12.623C12.8834 8.82829 13.214 7.77942 13.5957 6.88867C14.0751 5.77014 14.5944 4.99216 15.0693 4.52344C15.5356 4.06329 15.8479 4 16 4Z" fill="#03123D"/>
</svg>
