<svg width="20" height="20" viewBox="0 0 20 20" fill="none" xmlns="http://www.w3.org/2000/svg">
<path fill-rule="evenodd" clip-rule="evenodd" d="M15.9786 4.02145C16.1738 4.21671 16.1738 4.53329 15.9786 4.72855L4.72855 15.9786C4.53329 16.1738 4.21671 16.1738 4.02145 15.9786C3.82618 15.7833 3.82618 15.4667 4.02145 15.2714L15.2714 4.02145C15.4667 3.82618 15.7833 3.82618 15.9786 4.02145Z" fill="#03123D"/>
<path fill-rule="evenodd" clip-rule="evenodd" d="M4.02145 4.02145C4.21671 3.82618 4.53329 3.82618 4.72855 4.02145L15.9786 15.2714C16.1738 15.4667 16.1738 15.7833 15.9786 15.9786C15.7833 16.1738 15.4667 16.1738 15.2714 15.9786L4.02145 4.72855C3.82618 4.53329 3.82618 4.21671 4.02145 4.02145Z" fill="#03123D"/>
</svg>
