<svg width="24" height="24" viewBox="0 0 24 24" fill="none" xmlns="http://www.w3.org/2000/svg">
<path d="M21 11.9785C21 7.2466 16.965 3.40099 12 3.40099C11.025 3.40099 10.08 3.55825 9.21 3.82987C9.21 3.82987 9.21 3.81557 9.21 3.80128L8.595 2.44317C8.43 2.08577 7.995 1.91422 7.605 2.07147C7.23 2.22873 7.05 2.64331 7.215 3.015L7.83 4.37312C7.83 4.37312 7.83 4.37312 7.83 4.38741C4.965 5.80271 3 8.67619 3 11.9785C3 16.7105 7.035 20.5561 12 20.5561C12.99 20.5561 13.95 20.3988 14.835 20.1129C14.835 20.1129 14.835 20.1129 14.835 20.1272L15.465 21.5568C15.585 21.8284 15.87 21.9857 16.155 21.9857C16.26 21.9857 16.35 21.9714 16.455 21.9285C16.83 21.7713 17.01 21.3567 16.845 20.985L16.215 19.5554C16.215 19.5554 16.215 19.5554 16.215 19.5411C19.065 18.0972 21 15.2523 21 11.9643V11.9785ZM14.955 18.5404L13.2 14.5947C14.265 14.1515 15.015 13.1508 15.015 11.9643C15.015 10.3917 13.665 9.10507 12 9.10507C11.595 9.10507 11.205 9.19084 10.845 9.31951L9.09 5.37383C9.99 5.01643 10.965 4.81629 12 4.81629C16.14 4.81629 19.5 8.01858 19.5 11.9643C19.5 14.9092 17.625 17.4396 14.955 18.5261V18.5404Z" fill="#03123D"/>
</svg>
