<svg width="24" height="24" viewBox="0 0 24 24" fill="none" xmlns="http://www.w3.org/2000/svg">
<path d="M12.7358 2.36413C12.279 2.10698 11.721 2.10698 11.2642 2.36413L3.7642 6.58594C3.29211 6.85168 3 7.35133 3 7.89307V16.2568C3 16.7986 3.29212 17.2982 3.7642 17.5639L11.2642 21.7858C11.721 22.0429 12.279 22.0429 12.7358 21.7858L20.2358 17.5639C20.7079 17.2982 21 16.7986 21 16.2568V7.89308C21 7.35133 20.7079 6.85168 20.2358 6.58594L12.7358 2.36413ZM12.7538 10.7754V4.06452L18.7387 7.42728L12.7538 10.7754ZM11.2462 10.7754L5.27638 7.42728L11.2462 4.06452V10.7754ZM4.50754 8.69015L11.2462 12.4788V20.0854L4.50754 16.2968V8.69015Z" fill="#03123D"/>
</svg>
