<svg width="16" height="16" viewBox="0 0 16 16" fill="none" xmlns="http://www.w3.org/2000/svg">
<path fill-rule="evenodd" clip-rule="evenodd" d="M6.5 4C6.5 3.72461 6.72388 3.5 7 3.5C7.27612 3.5 7.5 3.72461 7.5 4C7.5 5.47266 7.50952 6.59961 6.94727 7.72266C6.89728 7.82227 6.8183 7.89844 6.72559 7.94531C6.58929 8.01562 6.4234 8.01953 6.27637 7.94727C6.02936 7.82422 5.92926 7.52344 6.05273 7.27734C6.49048 6.40039 6.5 5.52734 6.5 4Z" fill="#03123D"/>
<path d="M6.5 4C6.5 3.72461 6.72388 3.5 7 3.5C7.27612 3.5 7.5 3.72461 7.5 4C7.5 5.47355 7.50949 6.5982 6.94727 7.72266C6.82377 7.96965 6.52336 8.07076 6.27637 7.94727C6.02936 7.82422 5.92926 7.52344 6.05273 7.27734C6.49051 6.4018 6.5 5.52645 6.5 4Z" fill="white"/>
<path fill-rule="evenodd" clip-rule="evenodd" d="M2.5 12H6C6 13.1055 6.89545 14 8 14C9.10455 14 10 13.1055 10 12H13.5C13.5 12 11.625 9.375 11 7.5C10.5811 6.24414 10.429 4.19922 10.3741 2.99023C10.3493 2.44141 9.90131 2 9.35236 2H6.64777C6.09888 2 5.65082 2.44141 5.62598 2.99023C5.57117 4.19922 5.41895 6.24414 5 7.5C4.375 9.375 2.5 12 2.5 12ZM7 3.5C6.72388 3.5 6.5 3.72461 6.5 4C6.5 5.52734 6.49048 6.40039 6.05273 7.27734C5.92926 7.52344 6.02936 7.82422 6.27637 7.94727C6.4234 8.01953 6.58929 8.01562 6.72559 7.94531C6.8183 7.89844 6.89728 7.82227 6.94727 7.72266C7.50952 6.59961 7.5 5.47266 7.5 4C7.5 3.72461 7.27612 3.5 7 3.5ZM7 12C7 12.5527 7.44769 13 8 13C8.55231 13 9 12.5527 9 12H7Z" fill="#03123D"/>
</svg>
