<svg width="24" height="24" viewBox="0 0 24 24" fill="none" xmlns="http://www.w3.org/2000/svg">
<path fill-rule="evenodd" clip-rule="evenodd" d="M19.5 6H16.5V3.75C16.5 3.33579 16.1642 3 15.75 3C15.3358 3 15 3.33579 15 3.75V6H9V3.75C9 3.33579 8.66421 3 8.25 3C7.83579 3 7.5 3.33579 7.5 3.75V6H4.5C3.67157 6 3 6.67157 3 7.5V12V15.3288V19.5C3 20.3284 3.67157 21 4.5 21H19.5C20.3284 21 21 20.3284 21 19.5V15.3288V12V7.5C21 6.67157 20.3284 6 19.5 6ZM15 7.5H9V9.75C9 10.1642 8.66421 10.5 8.25 10.5C7.83579 10.5 7.5 10.1642 7.5 9.75V7.5H4.5V12H19.5V7.5H16.5V9.75C16.5 10.1642 16.1642 10.5 15.75 10.5C15.3358 10.5 15 10.1642 15 9.75V7.5Z" fill="#03123D"/>
</svg>
