<svg width="20" height="20" viewBox="0 0 20 20" fill="none" xmlns="http://www.w3.org/2000/svg">
<path fill-rule="evenodd" clip-rule="evenodd" d="M10 11C10.5523 11 11 10.5523 11 10C11 9.44771 10.5523 9 10 9C9.44771 9 9 9.44771 9 10C9 10.5523 9.44771 11 10 11Z" fill="#03123D"/>
<path d="M11 10C11 10.5523 10.5523 11 10 11C9.44771 11 9 10.5523 9 10C9 9.44771 9.44771 9 10 9C10.5523 9 11 9.44771 11 10Z" fill="white"/>
<path fill-rule="evenodd" clip-rule="evenodd" d="M19 10C19 14.9706 14.9706 19 10 19C5.02944 19 1 14.9706 1 10C1 5.02944 5.02944 1 10 1C14.9706 1 19 5.02944 19 10ZM10 18C12.1341 18 14.0731 17.1644 15.5075 15.8024C12.2101 14.5659 7.78993 14.5659 4.49252 15.8024C5.92693 17.1644 7.86588 18 10 18ZM2 10C2 12.1341 2.83565 14.0731 4.19759 15.5075C5.43414 12.2101 5.43414 7.78993 4.19759 4.49252C2.83565 5.92693 2 7.86588 2 10ZM10 11C10.5523 11 11 10.5523 11 10C11 9.44771 10.5523 9 10 9C9.44771 9 9 9.44771 9 10C9 10.5523 9.44771 11 10 11ZM15.8024 15.5075C14.5659 12.2101 14.5659 7.78993 15.8024 4.49252C17.1643 5.92693 18 7.86588 18 10C18 12.1341 17.1644 14.0731 15.8024 15.5075ZM10 2C7.86588 2 5.92693 2.83565 4.49252 4.19759C7.78993 5.43414 12.2101 5.43414 15.5075 4.19759C14.0731 2.83565 12.1341 2 10 2Z" fill="#03123D"/>
</svg>
