<svg width="20" height="20" viewBox="0 0 20 20" fill="none" xmlns="http://www.w3.org/2000/svg">
<path d="M14.9536 12.777C14.5653 12.777 14.2006 12.8829 13.8947 13.0711L11.9652 11.1416C12.0476 10.9887 12.1181 10.8357 12.1652 10.6592H13.4359C13.5182 10.871 13.6359 11.0593 13.8006 11.224C14.4359 11.8593 15.4713 11.8593 16.1066 11.224C16.7419 10.5887 16.7419 9.5533 16.1066 8.91797C15.4713 8.28264 14.4359 8.28264 13.8006 8.91797C13.6359 9.08269 13.5182 9.27093 13.4359 9.48271H12.1652C12.1181 9.30623 12.0476 9.14151 11.9534 8.9768L13.8712 7.05905C14.1889 7.24729 14.5536 7.35318 14.9536 7.35318C16.1537 7.35318 17.1302 6.37666 17.1302 5.17659C17.1302 3.97652 16.1537 3 14.9536 3C13.7535 3 12.777 3.97652 12.777 5.17659C12.777 5.58838 12.8947 5.96487 13.0947 6.2943L11.1887 8.20029C11.0122 8.0944 10.824 8.02381 10.6239 7.96498V6.69432C10.8475 6.61196 11.0475 6.49431 11.224 6.31783C11.8593 5.6825 11.8593 4.64715 11.224 4.01182C10.5887 3.37649 9.5533 3.37649 8.91797 4.01182C8.28264 4.64715 8.28264 5.6825 8.91797 6.31783C9.09445 6.49431 9.30623 6.61196 9.52977 6.69432V7.96498C9.34153 8.01204 9.16505 8.08263 9.00033 8.17676L7.05905 6.23547C7.23553 5.91781 7.35318 5.56485 7.35318 5.17659C7.35318 3.97652 6.37666 3 5.17659 3C3.97652 3 3.01177 3.97652 3.01177 5.17659C3.01177 6.37666 3.98829 7.35318 5.18836 7.35318C5.57661 7.35318 5.92957 7.24729 6.23547 7.07081L8.18852 9.02386C8.10616 9.16504 8.04734 9.31799 8.00028 9.48271H6.69432C6.61196 9.2827 6.49431 9.08269 6.3296 8.91797C5.69427 8.28264 4.65891 8.28264 4.02359 8.91797C3.38826 9.5533 3.38826 10.5887 4.02359 11.224C4.65891 11.8593 5.69427 11.8593 6.3296 11.224C6.49431 11.0593 6.61196 10.8593 6.69432 10.6592H7.98851C8.03557 10.8475 8.11793 11.0122 8.21205 11.1769L6.2943 13.0947C5.96487 12.8947 5.58838 12.777 5.17659 12.777C3.97652 12.777 3 13.7535 3 14.9536C3 16.1537 3.97652 17.1302 5.17659 17.1302C6.37666 17.1302 7.35318 16.1537 7.35318 14.9536C7.35318 14.5536 7.23553 14.1888 7.05905 13.8712L8.98856 11.9417C9.15328 12.0358 9.34153 12.1181 9.54154 12.1652V13.4241C9.318 13.5065 9.10622 13.6241 8.92974 13.8006C8.29441 14.4359 8.29441 15.4713 8.92974 16.1066C9.56507 16.7419 10.6004 16.7419 11.2357 16.1066C11.8711 15.4713 11.8711 14.4359 11.2357 13.8006C11.0593 13.6241 10.8475 13.5065 10.6357 13.4241V12.1652C10.8122 12.1181 10.9769 12.0476 11.1299 11.9652L13.0711 13.9065C12.8947 14.2241 12.7888 14.5771 12.7888 14.9536C12.7888 16.1537 13.7653 17.1302 14.9654 17.1302C16.1654 17.1302 17.142 16.1537 17.142 14.9536C17.142 13.7535 16.1654 12.777 14.9654 12.777H14.9536Z" fill="#03123D"/>
</svg>
