<svg width="32" height="32" viewBox="0 0 32 32" fill="none" xmlns="http://www.w3.org/2000/svg">
<path d="M16 6.05564C22 1.05543 28 6.00828 28 12.0556C27.9997 20.0082 16 28.0556 16 28.0556C16 28.0556 4.0003 20.0578 4 12.0556C4 6.05571 11 1.05543 16 6.05564ZM9.07422 9.23631C8.6034 8.94786 7.98781 9.09565 7.69922 9.56639C6.67383 11.2395 6.90496 13.1508 7.57031 14.8506C8.23862 16.5577 9.41053 18.2354 10.583 19.6396C10.937 20.0636 11.5673 20.1206 11.9912 19.7666C12.4149 19.4126 12.4719 18.7823 12.1182 18.3584C11.0062 17.0266 9.98788 15.5395 9.43262 14.1211C8.87455 12.6953 8.84774 11.5194 9.4043 10.6113C9.6928 10.1404 9.54506 9.52488 9.07422 9.23631ZM11 5.99998C10.4478 5.99998 10.0001 6.44776 10 6.99998C10 7.55226 10.4477 7.99998 11 7.99998C11.5523 7.99997 12 7.55226 12 6.99998C11.9999 6.44777 11.5522 5.99999 11 5.99998Z" fill="#03123D"/>
</svg>
