<svg width="20" height="20" viewBox="0 0 20 20" fill="none" xmlns="http://www.w3.org/2000/svg">
<path d="M17 9.98299C17 6.19742 13.8617 3.12094 10 3.12094C9.24167 3.12094 8.50667 3.24674 7.83 3.46404C7.83 3.46404 7.83 3.45261 7.83 3.44117L7.35167 2.35468C7.22333 2.06876 6.885 1.93152 6.58167 2.05732C6.29 2.18313 6.15 2.51479 6.27833 2.81215L6.75667 3.89864C6.75667 3.89864 6.75667 3.89864 6.75667 3.91008C4.52833 5.04231 3 7.3411 3 9.98299C3 13.7685 6.13833 16.845 10 16.845C10.77 16.845 11.5167 16.7192 12.205 16.4905C12.205 16.4905 12.205 16.4905 12.205 16.5019L12.695 17.6456C12.7883 17.8629 13.01 17.9887 13.2317 17.9887C13.3133 17.9887 13.3833 17.9773 13.465 17.943C13.7567 17.8172 13.8967 17.4855 13.7683 17.1881L13.2783 16.0445C13.2783 16.0445 13.2783 16.0445 13.2783 16.033C15.495 14.8779 17 12.602 17 9.97155V9.98299ZM12.2983 15.2324L10.9333 12.0759C11.7617 11.7214 12.345 10.9208 12.345 9.97155C12.345 8.71351 11.295 7.6842 10 7.6842C9.685 7.6842 9.38167 7.75282 9.10167 7.85575L7.73667 4.69921C8.43667 4.41329 9.195 4.25318 10 4.25318C13.22 4.25318 15.8333 6.81501 15.8333 9.97155C15.8333 12.3275 14.375 14.3518 12.2983 15.221V15.2324Z" fill="#03123D"/>
</svg>
