<svg width="48" height="48" viewBox="0 0 48 48" fill="none" xmlns="http://www.w3.org/2000/svg">
<path d="M36.4424 30.9168C35.4528 30.9168 34.5232 31.1866 33.7436 31.6664L28.8257 26.7486C29.0356 26.3587 29.2155 25.9689 29.3355 25.5191H32.5741C32.784 26.0589 33.0838 26.5387 33.5037 26.9585C35.123 28.5778 37.7618 28.5778 39.3811 26.9585C41.0004 25.3392 41.0004 22.7003 39.3811 21.081C37.7618 19.4617 35.123 19.4617 33.5037 21.081C33.0838 21.5008 32.784 21.9806 32.5741 22.5204H29.3355C29.2155 22.0706 29.0356 21.6508 28.7957 21.231L33.6836 16.3431C34.4932 16.8229 35.4228 17.0928 36.4424 17.0928C39.5011 17.0928 41.99 14.6038 41.99 11.5452C41.99 8.48648 39.5011 5.99756 36.4424 5.99756C33.3837 5.99756 30.8948 8.48648 30.8948 11.5452C30.8948 12.5947 31.1947 13.5543 31.7044 14.3939L26.8465 19.2518C26.3967 18.9819 25.9169 18.802 25.4072 18.6521V15.4135C25.9769 15.2036 26.4867 14.9037 26.9365 14.4539C28.5558 12.8346 28.5558 10.1957 26.9365 8.57644C25.3172 6.95714 22.6784 6.95714 21.0591 8.57644C19.4398 10.1957 19.4398 12.8346 21.0591 14.4539C21.5089 14.9037 22.0486 15.2036 22.6184 15.4135V18.6521C22.1386 18.772 21.6888 18.9519 21.269 19.1918L16.3211 14.244C16.7709 13.4343 17.0708 12.5347 17.0708 11.5452C17.0708 8.48648 14.5819 5.99756 11.5232 5.99756C8.46451 5.99756 6.00557 8.48648 6.00557 11.5452C6.00557 14.6038 8.4945 17.0928 11.5532 17.0928C12.5427 17.0928 13.4424 16.8229 14.222 16.3731L19.1999 21.3509C18.9899 21.7108 18.84 22.1006 18.7201 22.5204H15.3915C15.1816 22.0106 14.8817 21.5008 14.4619 21.081C12.8426 19.4617 10.2038 19.4617 8.58446 21.081C6.96516 22.7003 6.96516 25.3392 8.58446 26.9585C10.2038 28.5778 12.8426 28.5778 14.4619 26.9585C14.8817 26.5387 15.1816 26.0289 15.3915 25.5191H18.6901C18.81 25.9989 19.0199 26.4187 19.2598 26.8385L14.3719 31.7264C13.5323 31.2166 12.5727 30.9168 11.5232 30.9168C8.46451 30.9168 5.97559 33.4057 5.97559 36.4644C5.97559 39.523 8.46451 42.012 11.5232 42.012C14.5819 42.012 17.0708 39.523 17.0708 36.4644C17.0708 35.4448 16.7709 34.5152 16.3211 33.7056L21.239 28.7877C21.6588 29.0276 22.1386 29.2375 22.6484 29.3574V32.566C22.0786 32.776 21.5388 33.0758 21.089 33.5256C19.4697 35.1449 19.4697 37.7838 21.089 39.4031C22.7083 41.0224 25.3472 41.0224 26.9665 39.4031C28.5858 37.7838 28.5858 35.1449 26.9665 33.5256C26.5167 33.0758 25.9769 32.776 25.4372 32.566V29.3574C25.887 29.2375 26.3068 29.0576 26.6966 28.8477L31.6445 33.7955C31.1947 34.6052 30.9248 35.5048 30.9248 36.4644C30.9248 39.523 33.4137 42.012 36.4724 42.012C39.5311 42.012 42.02 39.523 42.02 36.4644C42.02 33.4057 39.5311 30.9168 36.4724 30.9168H36.4424Z" fill="#03123D"/>
</svg>
