<svg width="32" height="32" viewBox="0 0 32 32" fill="none" xmlns="http://www.w3.org/2000/svg">
<path fill-rule="evenodd" clip-rule="evenodd" d="M14 24C15.669 24 17.2429 23.5904 18.6267 22.8664C18.6502 22.8918 18.6742 22.9168 18.6988 22.9416L18.8575 23.1073C18.9641 23.2186 19.1184 23.3796 19.3092 23.5785C19.6908 23.9761 20.2186 24.5254 20.8035 25.1318C21.9716 26.3427 23.3738 27.788 24.2929 28.7071C24.6707 29.0849 25.2786 29.099 25.6735 28.7392C27.0365 27.4972 27.5277 26.9633 27.9869 26.464C28.2044 26.2277 28.4146 25.9991 28.7069 25.7069C28.8963 25.5175 29.0018 25.26 28.9997 24.9922C28.9977 24.7243 28.8883 24.4685 28.6961 24.282L22.9441 18.7017C22.9185 18.6762 22.8926 18.6513 22.8663 18.6269C23.5904 17.2431 24 15.6691 24 14C24 8.48 19.52 4 14 4C8.48 4 4 8.48 4 14C4 19.52 8.48 24 14 24ZM21.7446 20.3245C21.3194 20.8444 20.8429 21.3208 20.3229 21.7459C20.4279 21.8556 20.5741 22.0081 20.7523 22.1937C21.133 22.5905 21.6596 23.1385 22.243 23.7433C23.1488 24.6823 24.1878 25.7544 25.0307 26.6105C25.7994 25.8887 26.1187 25.5399 26.4557 25.1718C26.4998 25.1236 26.5443 25.0751 26.59 25.0254L21.7446 20.3245ZM14 20C10.68 20 8 17.32 8 14C8 10.68 10.68 8 14 8C17.32 8 20 10.68 20 14C20 17.32 17.32 20 14 20Z" fill="#03123D"/>
</svg>
