<svg width="16" height="16" viewBox="0 0 16 16" fill="none" xmlns="http://www.w3.org/2000/svg">
<path d="M10.5 5C10.31 5 10.13 5.02 9.95 5.04C9.72 3.32 8.27 2 6.5 2C4.57 2 3 3.57 3 5.5C3 5.59 3.02 5.68 3.03 5.77C1.81 6.57 1 7.93 1 9.5C1 11.99 3.01 14 5.5 14H10.5C12.99 14 15 11.99 15 9.5C15 7.01 12.99 5 10.5 5ZM10.5 13H5.5C3.57 13 2 11.43 2 9.5C2 8.05 2.88 6.81 4.14 6.28C4.1 6.16 4.07 6.04 4.05 5.92C4.02 5.78 4.01 5.65 4.01 5.5C4.01 4.12 5.13 3 6.51 3C7.81 3 8.87 4 8.99 5.27C8.58 5.42 8.19 5.62 7.84 5.88C7.56 6.09 7.55 6.44 7.71 6.64C7.87 6.83 8.18 6.87 8.4 6.71C8.98 6.26 9.71 6 10.5 6C12.43 6 14 7.57 14 9.5C14 11.43 12.43 13 10.5 13Z" fill="#03123D"/>
<path d="M3.99 11.03L5.41 9.61L6.65 10.85C6.75 10.95 6.88 11 7 11C7.12 11 7.26 10.95 7.35 10.85C7.55 10.65 7.55 10.34 7.35 10.14L6.11 8.9L7.5 7.51H3.99V11.03Z" fill="#03123D"/>
<path d="M9.34 8.17C9.14 7.97 8.83 7.97 8.63 8.17C8.43 8.37 8.43 8.68 8.63 8.88L9.87 10.12L8.48 11.51H11.99V8L10.57 9.42L9.33 8.18L9.34 8.17Z" fill="#03123D"/>
</svg>
