<svg width="20" height="20" viewBox="0 0 20 20" fill="none" xmlns="http://www.w3.org/2000/svg">
<path d="M16 10H4.00001C3.35835 10 3.00001 10.3583 3.00001 11V17L5.00001 15H16C16.6417 15 17 14.6417 17 14V11C17 10.3583 16.6417 10 16 10Z" fill="#03123D"/>
<path d="M4.16667 9H7.08333C8.69333 9 10 7.656 10 6C10 4.344 8.69333 3 7.08333 3H4.16667C3.525 3 3 3.54 3 4.2V7.8C3 8.46 3.525 9 4.16667 9ZM4 4L7.08333 4C8.05167 4 9 5.004 9 6C9 6.996 8.05167 8 7.08333 8L4 8V4Z" fill="#03123D"/>
<path d="M12 6.5H14C14.336 6.5 14.6 6.336 14.6 6C14.6 5.664 14.336 5.5 14 5.5H12V4H16.4C16.736 4 17 3.836 17 3.5C17 3.164 16.736 3 16.4 3H11V9H12V6.5Z" fill="#03123D"/>
</svg>
