<svg width="64" height="64" viewBox="0 0 64 64" fill="none" xmlns="http://www.w3.org/2000/svg">
<path d="M56 8H8V20H56V8Z" fill="#03123D"/>
<path d="M50 30C51.1046 30 52 30.8954 52 32C52 33.1046 51.1046 34 50 34H14C12.8954 34 12 33.1046 12 32C12 30.8954 12.8954 30 14 30H50ZM56 30C56 27.7909 54.2091 26 52 26H12C9.79086 26 8 27.7909 8 30V34C8 36.2091 9.79086 38 12 38H52C54.2091 38 56 36.2091 56 34V30Z" fill="#03123D"/>
<path d="M50 48C51.1046 48 52 48.8954 52 50C52 51.1046 51.1046 52 50 52H14C12.8954 52 12 51.1046 12 50C12 48.8954 12.8954 48 14 48H50ZM56 48C56 45.7909 54.2091 44 52 44H12C9.79086 44 8 45.7909 8 48V52C8 54.2091 9.79086 56 12 56H52C54.2091 56 56 54.2091 56 52V48Z" fill="#03123D"/>
</svg>
