<svg width="24" height="24" viewBox="0 0 24 24" fill="none" xmlns="http://www.w3.org/2000/svg">
<path d="M11.2508 14.1575L11.2508 7.49902L11.2547 7.42285C11.2931 7.04466 11.6125 6.75 12.0008 6.75C12.3892 6.75 12.7085 7.04466 12.7469 7.42285L12.7508 7.49902V14.1569L15.1402 10.8124L15.1881 10.7529C15.4392 10.4674 15.8711 10.4128 16.1871 10.6386C16.5028 10.8644 16.5905 11.2901 16.402 11.6201L16.3609 11.6855L11.9986 17.789L7.64024 11.6845L7.59922 11.6201C7.41079 11.29 7.49914 10.8643 7.81504 10.6386C8.15216 10.3979 8.62123 10.4763 8.86192 10.8134L11.2508 14.1575Z" fill="#03123D"/>
</svg>
