<svg width="64" height="64" viewBox="0 0 64 64" fill="none" xmlns="http://www.w3.org/2000/svg">
<path fill-rule="evenodd" clip-rule="evenodd" d="M56 8V55.9902H8V8H56ZM44 27.9844V35.9922H47.9941V39.9922H52V23.9922H47.9941V27.9844H44ZM52 43.9922H47.9941V47.9844H44V51.9902H52V43.9922ZM40 51.9902V47.9844H36V43.9922L27.9941 43.9922V47.9844H24V51.9902H40ZM40 35.9922V27.9844H36V23.9922L27.9941 23.9922V27.9844H24V35.9922H27.9941V39.9922L36 39.9922V35.9922H40ZM16 47.9844H20V51.9902H12V43.9922H16V47.9844ZM16 39.9922L12 39.9922V23.9922H16V27.9844H20V35.9922H16V39.9922ZM12 19.9922L16 19.9922V15.9922H20V12H12V19.9922ZM27.9941 19.9922L36 19.9922V15.9922H40V12H24V15.9922H27.9941V19.9922ZM47.9941 15.9922H44V12H52V19.9922H47.9941V15.9922Z" fill="#03123D"/>
</svg>
