<svg width="48" height="48" viewBox="0 0 48 48" fill="none" xmlns="http://www.w3.org/2000/svg">
<path fill-rule="evenodd" clip-rule="evenodd" d="M4.5 15.9242C5.32843 15.9242 6 16.5958 6 17.4242C6 28.3004 14.1616 36.9242 24 36.9242C33.8384 36.9242 42 28.3004 42 17.4242C42 16.5958 42.6716 15.9242 43.5 15.9242C44.3284 15.9242 45 16.5958 45 17.4242C45 29.744 35.7007 39.9242 24 39.9242C12.2993 39.9242 3 29.744 3 17.4242C3 16.5958 3.67157 15.9242 4.5 15.9242Z" fill="#03123D"/>
<path fill-rule="evenodd" clip-rule="evenodd" d="M10.9425 22.8478C11.1999 23.9494 11.5987 25.0368 12.1466 26.0859C15.653 32.799 23.9375 35.3986 30.6506 31.8922C37.3637 28.3858 39.9633 20.1013 36.4569 13.3882C35.909 12.3391 35.2444 11.3905 34.4873 10.55L10.9425 22.8478Z" fill="#03123D"/>
</svg>
