<svg width="24" height="24" viewBox="0 0 24 24" fill="none" xmlns="http://www.w3.org/2000/svg">
<path fill-rule="evenodd" clip-rule="evenodd" d="M12 2C6.20955 2 2 6.20956 2 12C2 17.7904 6.20955 22 12 22C17.7904 22 22 17.7904 22 12C22 6.20956 17.7904 2 12 2ZM8.68014 17.9835H6.32537V10.1085H8.68014V17.9835ZM7.48346 8.91177C6.7114 8.91177 6.09375 8.25552 6.09375 7.48346C6.09375 6.7114 6.7114 6.05514 7.48346 6.05514C8.25552 6.05514 8.91176 6.7114 8.91176 7.48346C8.91176 8.25552 8.25552 8.91177 7.48346 8.91177ZM17.9448 13.8529V17.9835H15.6287V13.7371C15.6287 12.8493 14.9724 12.1544 14.0846 12.1544C13.1967 12.1544 12.4246 12.8493 12.386 13.7371V17.9835H10.0698V10.1085H12.386V11.2279C12.8879 10.4945 13.6985 10.0313 14.625 10.0313H15.2812C16.7482 10.0313 17.9448 11.2665 17.9448 12.6949V13.8915V13.8529Z" fill="#03123D"/>
</svg>
