<svg width="16" height="16" viewBox="0 0 16 16" fill="none" xmlns="http://www.w3.org/2000/svg">
<path fill-rule="evenodd" clip-rule="evenodd" d="M8 4.5C7.17614 4.5 6.5 5.17614 6.5 6C6.5 6.27614 6.27614 6.5 6 6.5C5.72386 6.5 5.5 6.27614 5.5 6C5.5 4.62386 6.62386 3.5 8 3.5C8.27614 3.5 8.5 3.72386 8.5 4C8.5 4.27614 8.27614 4.5 8 4.5Z" fill="#03123D"/>
<path fill-rule="evenodd" clip-rule="evenodd" d="M8 2C5.79 2 4 3.79 4 6C4 7.21 4.54 8.29 5.39 9.03C6.09 9.64 6 11.5 6 11.5L6.5 12L6 12.5L6.5 13L6 13.5L6.5 14H9.5L10 13.5L9.5 13L10 12.5L9.5 12L10 11.5C10 11.5 10.07 9.49 10.58 9.06C11.45 8.33 12 7.23 12 6C12 3.79 10.21 2 8 2ZM11 6C11 4.35 9.65 3 8 3C6.35 3 5 4.35 5 6C5 6.87 5.38 7.7 6.04 8.27C6.66 8.81 6.89 9.75 6.97 10.51C7.56 10.52 8.3 10.52 8.91 10.52H9.07C9.17 9.63 9.42 8.72 9.93 8.29C10.61 7.72 11 6.89 11 6ZM8 4.5C7.17614 4.5 6.5 5.17614 6.5 6C6.5 6.27614 6.27614 6.5 6 6.5C5.72386 6.5 5.5 6.27614 5.5 6C5.5 4.62386 6.62386 3.5 8 3.5C8.27614 3.5 8.5 3.72386 8.5 4C8.5 4.27614 8.27614 4.5 8 4.5Z" fill="#03123D"/>
</svg>
