<svg width="48" height="48" viewBox="0 0 48 48" fill="none" xmlns="http://www.w3.org/2000/svg">
<path fill-rule="evenodd" clip-rule="evenodd" d="M42 24C42 33.9411 33.9411 42 24 42C14.0589 42 6 33.9411 6 24C6 14.0589 14.0589 6 24 6C33.9411 6 42 14.0589 42 24ZM11.4633 15.761C14.1453 11.6882 18.7587 9 24 9C32.2843 9 39 15.7157 39 24C39 25.9303 38.6354 27.7754 37.9713 29.4703C37.8381 29.2798 37.7037 29.0173 37.5786 28.6602C37.1695 27.4915 37.0295 25.8341 36.9341 23.9258C36.9214 23.6717 36.9095 23.4126 36.8974 23.1499C36.8247 21.5666 36.7467 19.8667 36.4565 18.5273C36.2862 17.741 36.0091 16.896 35.4858 16.2236C34.9055 15.4781 34.0604 15.0007 32.9995 15C31.95 14.9993 31.108 15.4636 30.5024 16.1582C29.9425 16.8006 29.5963 17.6201 29.3589 18.4111C28.8954 19.9558 28.6964 21.9472 28.5168 23.7448L28.5063 23.8496C28.3138 25.7751 28.1364 27.4868 27.7651 28.7246C27.5807 29.3396 27.3878 29.6924 27.2329 29.8701C27.1234 29.9958 27.074 30 26.9985 30C26.8126 30 26.7103 29.9517 26.5884 29.8232C26.4215 29.6472 26.2199 29.3047 26.0308 28.7051C25.6473 27.4893 25.4822 25.7941 25.3198 23.874L25.2918 23.5411C25.147 21.8145 24.9883 19.9234 24.5835 18.4473C24.3667 17.6571 24.0408 16.8293 23.4917 16.1777C22.8937 15.4682 22.0515 15 20.9985 15C19.9492 15 19.1078 15.4646 18.5024 16.1592C17.9425 16.8018 17.5963 17.6217 17.3589 18.4131C16.8953 19.9585 16.6963 21.9502 16.5166 23.7481L16.5063 23.8506C16.3138 25.7761 16.1364 27.488 15.7651 28.7256C15.5807 29.3403 15.3877 29.6925 15.2329 29.8701C15.1234 29.9957 15.0741 30 14.9985 30L14.9816 30.0001C14.9345 30.0008 14.9308 30.0008 14.8784 29.9336C14.7632 29.7855 14.6064 29.4583 14.4722 28.8389C14.2403 27.7687 14.1747 26.3703 14.0991 24.759C14.0863 24.4868 14.0733 24.2086 14.0591 23.9248C13.967 22.0838 13.8255 19.9919 13.2505 18.3486C12.9564 17.5083 12.5097 16.6649 11.7925 16.0254C11.6866 15.931 11.5768 15.8428 11.4633 15.761ZM10.0281 18.5313C9.36438 20.2257 9 22.0703 9 24C9 32.2843 15.7157 39 24 39C29.241 39 33.8541 36.3122 36.5362 32.2397C36.4218 32.1574 36.3112 32.0687 36.2046 31.9736C35.4874 31.3343 35.0407 30.4915 34.7466 29.6514C34.1713 28.0082 34.03 25.9161 33.938 24.0752C33.9238 23.7919 33.9108 23.514 33.898 23.2423C33.8224 21.6312 33.7568 20.2324 33.5249 19.1621C33.3906 18.5424 33.234 18.2147 33.1187 18.0664C33.0663 17.9991 33.0619 17.9992 33.0151 17.9998L32.9976 18C32.9221 17.9999 32.8734 18.0046 32.7642 18.1299C32.6095 18.3073 32.4163 18.6588 32.2319 19.2734C31.8607 20.5109 31.6833 22.2228 31.4907 24.1484L31.4804 24.252C31.3007 26.0499 31.1017 28.0417 30.6382 29.5869C30.4008 30.3783 30.0546 31.1982 29.4946 31.8408C28.8894 32.5355 28.048 33 26.9985 33C25.9439 33 25.0688 32.5794 24.4126 31.8877C23.8014 31.2433 23.4238 30.4138 23.1694 29.6074C22.6659 28.0109 22.4853 25.9557 22.3306 24.126L22.315 23.9411C22.1578 22.0807 22.0194 20.4413 21.6899 19.2402C21.521 18.6244 21.3399 18.2801 21.1978 18.1113C21.1044 18.0006 21.0705 18 20.9985 18C20.9229 18 20.8736 18.0043 20.7642 18.1299C20.6093 18.3075 20.4164 18.6597 20.2319 19.2744C19.8607 20.512 19.6833 22.2239 19.4907 24.1494L19.4805 24.2519C19.3008 26.0498 19.1017 28.0415 18.6382 29.5869C18.4008 30.3783 18.0546 31.1982 17.4946 31.8408C16.8893 32.5354 16.0479 33 14.9985 33C13.9375 33 13.0919 32.523 12.5112 31.7773C11.9878 31.105 11.7109 30.26 11.5405 29.4736C11.2503 28.1341 11.1723 26.4336 11.0996 24.8499C11.0876 24.5878 11.0757 24.3287 11.063 24.0752C10.9676 22.1664 10.8276 20.5079 10.4185 19.3389C10.2941 18.9836 10.1605 18.7217 10.0281 18.5313Z" fill="#03123D"/>
</svg>
