<svg width="20" height="20" viewBox="0 0 20 20" fill="none" xmlns="http://www.w3.org/2000/svg">
<path d="M9.37754 12.1916C9.28547 12.4033 9.33812 12.6477 9.53549 12.8219C9.66659 12.9375 9.83281 12.9969 9.99994 12.9999C10.1671 12.9969 10.3333 12.9375 10.4644 12.8219C10.6617 12.6477 10.7144 12.4035 10.6224 12.1919C10.5939 12.5055 10.3304 12.7442 10 12.7442C9.66955 12.7442 9.40596 12.5054 9.37754 12.1916Z" fill="#03123D"/>
<path d="M9.99994 12.9999C10.1671 12.9969 10.3333 12.9375 10.4644 12.8219C10.6617 12.6477 10.7144 12.4035 10.6224 12.1919C10.5939 12.5055 10.3304 12.7442 10 12.7442C9.66955 12.7442 9.40596 12.5054 9.37754 12.1916C9.28547 12.4033 9.33812 12.6477 9.53549 12.8219C9.66659 12.9375 9.83281 12.9969 9.99994 12.9999Z" fill="#03123D"/>
<path fill-rule="evenodd" clip-rule="evenodd" d="M17 14V17H3L3.00011 14.0001L17 14ZM7.42857 15H4.57143C4.25143 15 4 15.22 4 15.5C4 15.78 4.25143 16 4.57143 16H7.42857C7.74857 16 8 15.78 8 15.5C8 15.22 7.74857 15 7.42857 15Z" fill="#03123D"/>
<path d="M10.625 11.0172V3.60901C10.625 3.26797 10.35 3 10 3C9.65 3 9.375 3.26797 9.375 3.60901V11.0173L6.15748 8.17815C5.8883 7.94062 5.47107 7.94062 5.20189 8.17815C4.9327 8.41568 4.9327 8.78385 5.20189 9.02138L9.5088 12.8219C9.64688 12.9437 9.82392 13.003 9.99994 12.9999C10.176 13.003 10.353 12.9437 10.4911 12.8219L14.798 9.02138C15.0672 8.78385 15.0672 8.41568 14.798 8.17815C14.5288 7.94062 14.1116 7.94062 13.8424 8.17815L10.625 11.0172ZM9.99994 12.9999C9.83281 12.9969 9.66659 12.9375 9.53549 12.8219C9.33812 12.6477 9.28547 12.4033 9.37754 12.1916C9.40596 12.5054 9.66955 12.7442 10 12.7442C10.3304 12.7442 10.5939 12.5055 10.6224 12.1919C10.7144 12.4035 10.6617 12.6477 10.4644 12.8219C10.3333 12.9375 10.1671 12.9969 9.99994 12.9999Z" fill="#03123D"/>
</svg>
