<svg width="24" height="24" viewBox="0 0 24 24" fill="none" xmlns="http://www.w3.org/2000/svg">
<path d="M9 3H15C15.8284 3 16.5 3.67157 16.5 4.5V6H13.5V7.5H13.9004C15.3658 9.34533 15.3649 11.6547 13.8994 13.5H13.5V15H21V21H3V15H10.5V13.5H10.1006C8.63495 11.6546 8.63476 9.34539 10.1006 7.5H10.5V6H7.5V4.5C7.5 3.67157 8.17157 3 9 3ZM4.9248 13.5C4.35937 11.55 4.35971 9.45009 4.9248 7.5H3V13.5H4.9248ZM8.29785 13.5C7.23448 11.5966 7.23439 9.40343 8.29785 7.5H6.49805C5.8356 9.42972 5.83617 11.5702 6.49902 13.5H8.29785ZM17.502 7.5C18.1645 9.42969 18.1646 11.5702 17.502 13.5H15.7031C16.7661 11.5966 16.7657 9.40338 15.7021 7.5H17.502ZM21 13.5H19.0752C19.6406 11.55 19.6412 9.45003 19.0762 7.5H21V13.5Z" fill="#03123D"/>
</svg>
