<svg width="64" height="64" viewBox="0 0 64 64" fill="none" xmlns="http://www.w3.org/2000/svg">
<path d="M23.994 55.994L17.41 49.41L9.41095 57.41C8.62998 58.191 7.36383 58.1909 6.58282 57.41C5.80182 56.629 5.80182 55.3629 6.58282 54.5819L14.5818 46.5829L7.99786 39.9979H23.994V55.994ZM49.41 46.5819L57.41 54.5819C58.1908 55.3629 58.1908 56.6291 57.41 57.41C56.6291 58.191 55.3629 58.1909 54.5819 57.41L46.5819 49.41L39.9989 55.994V39.9979H55.995L49.41 46.5819ZM6.58282 6.58575C7.36382 5.80475 8.62995 5.80475 9.41095 6.58575L17.41 14.5848L23.994 8.00177V23.9979H7.99786L14.5818 17.4129L6.58282 9.41388C5.80185 8.63291 5.80191 7.36676 6.58282 6.58575ZM54.5819 6.58575C55.3629 5.80475 56.629 5.80475 57.41 6.58575C58.1907 7.36678 58.1909 8.63299 57.41 9.41388L49.411 17.4129L55.995 23.9979H39.9989V8.00177L46.5819 14.5848L54.5819 6.58575Z" fill="#03123D"/>
</svg>
