<svg width="20" height="20" viewBox="0 0 20 20" fill="none" xmlns="http://www.w3.org/2000/svg">
<path d="M10 4.19909C13.5005 1.28191 17.0008 4.17102 17.001 7.69909C17.001 12.3337 10.0156 17.0236 10 17.0341C9.97164 17.0151 2.99902 12.3583 2.99902 7.69909C2.99925 4.1987 7.08294 1.28192 10 4.19909ZM5.56738 5.56042C5.32474 5.42858 5.02051 5.51895 4.88867 5.76159C4.32063 6.80758 4.43956 8.01081 4.82617 9.12487C5.2149 10.2448 5.90049 11.3572 6.59668 12.2977C6.76102 12.5195 7.075 12.5665 7.29688 12.4022C7.5187 12.238 7.56547 11.9239 7.40137 11.702C6.73387 10.8003 6.11225 9.78142 5.77051 8.79675C5.42679 7.80624 5.39158 6.93022 5.76758 6.23815C5.89916 5.99567 5.80968 5.69231 5.56738 5.56042ZM6.49902 3.99987C6.22288 3.99987 5.99902 4.22373 5.99902 4.49987C5.99911 4.77594 6.22294 4.99987 6.49902 4.99987C6.77502 4.99976 6.99894 4.77587 6.99902 4.49987C6.99902 4.2238 6.77507 3.99998 6.49902 3.99987Z" fill="#03123D"/>
</svg>
