<svg width="32" height="32" viewBox="0 0 32 32" fill="none" xmlns="http://www.w3.org/2000/svg">
<path fill-rule="evenodd" clip-rule="evenodd" d="M16 18C17.1046 18 18 17.1046 18 16C18 14.8954 17.1046 14 16 14C14.8954 14 14 14.8954 14 16C14 17.1046 14.8954 18 16 18Z" fill="#03123D"/>
<path d="M18 16C18 17.1046 17.1046 18 16 18C14.8954 18 14 17.1046 14 16C14 14.8954 14.8954 14 16 14C17.1046 14 18 14.8954 18 16Z" fill="white"/>
<path fill-rule="evenodd" clip-rule="evenodd" d="M30 16C30 23.732 23.732 30 16 30C8.26801 30 2 23.732 2 16C2 8.26801 8.26801 2 16 2C23.732 2 30 8.26801 30 16ZM7.27974 7.75635C5.24667 9.90621 4 12.8075 4 16C4 19.1925 5.24667 22.0938 7.27974 24.2437C8.90675 19.4816 8.90675 12.5184 7.27974 7.75635ZM16 28C19.1925 28 22.0938 26.7533 24.2437 24.7203C19.4816 23.0933 12.5184 23.0933 7.75635 24.7203C9.90621 26.7533 12.8075 28 16 28ZM16 18C17.1046 18 18 17.1046 18 16C18 14.8954 17.1046 14 16 14C14.8954 14 14 14.8954 14 16C14 17.1046 14.8954 18 16 18ZM24.7203 24.2437C23.0933 19.4816 23.0933 12.5184 24.7203 7.75635C26.7533 9.90621 28 12.8075 28 16C28 19.1925 26.7533 22.0938 24.7203 24.2437ZM24.2437 7.27974C22.0938 5.24667 19.1925 4 16 4C12.8075 4 9.90621 5.24667 7.75635 7.27974C12.5184 8.90675 19.4816 8.90675 24.2437 7.27974Z" fill="#03123D"/>
</svg>
