<svg width="64" height="64" viewBox="0 0 64 64" fill="none" xmlns="http://www.w3.org/2000/svg">
<path d="M52 8C54.2091 8 56 9.79086 56 12V52C56 54.14 54.3194 55.8879 52.2061 55.9951L52 56H12L11.7939 55.9951C9.7488 55.8913 8.10865 54.2512 8.00488 52.2061L8 52V12C8 9.79086 9.79086 8 12 8H52ZM12 52H30V30.8281L23.4141 37.4141C22.633 38.1951 21.367 38.1951 20.5859 37.4141C19.8049 36.633 19.8049 35.367 20.5859 34.5859L32 23.1719L43.4141 34.5859L43.5518 34.7373C44.1925 35.5228 44.1463 36.6818 43.4141 37.4141C42.6818 38.1463 41.5229 38.1925 40.7373 37.5518L40.5859 37.4141L34 30.8281V52H52V20H12V52Z" fill="#03123D"/>
</svg>
