<svg width="48" height="48" viewBox="0 0 48 48" fill="none" xmlns="http://www.w3.org/2000/svg">
<path fill-rule="evenodd" clip-rule="evenodd" d="M42 19.5V16.5H40.5V19.5H42Z" fill="#03123D"/>
<path d="M9 6H12L12 16.5H16.5V19.5H12L12 24H18L18 13.5H21L21 24H27L27 19.5H22.5V16.5H27V6H30V16.5H34.5V19.5H30L30 24H36L36 13.5H39V24H42L41.999 42H5.99902L6 24H8.99947L8.9996 19.5H6V16.5H8.99969L9 6Z" fill="#03123D"/>
<path fill-rule="evenodd" clip-rule="evenodd" d="M21 10.5V6H18V10.5H13.5V13.5H18V10.5H21ZM21 10.5H25.5V13.5H21V10.5ZM31.5 10.5V13.5H36V10.5H39V13.5H42V10.5H39V6H36V10.5H31.5ZM6 10.5V13.5H7.5V10.5H6Z" fill="#03123D"/>
</svg>
