<svg width="24" height="24" viewBox="0 0 24 24" fill="none" xmlns="http://www.w3.org/2000/svg">
<path fill-rule="evenodd" clip-rule="evenodd" d="M14.0396 4.28975C13.232 2.55707 10.7683 2.55706 9.9608 4.28975L2.32039 20.6832C2.14541 21.0586 2.30791 21.5048 2.68335 21.6798C3.05879 21.8548 3.50499 21.6923 3.67997 21.3168L7.77037 12.5404L12.0002 21L16.23 12.5404L20.3204 21.3168C20.4954 21.6923 20.9416 21.8548 21.317 21.6798C21.6924 21.5048 21.855 21.0586 21.68 20.6832L14.0396 4.28975ZM12.68 4.92341L15.9781 12L8.02223 12L11.3204 4.9234C11.5896 4.34585 12.4108 4.34584 12.68 4.92341Z" fill="#03123D"/>
</svg>
