<svg width="32" height="32" viewBox="0 0 32 32" fill="none" xmlns="http://www.w3.org/2000/svg">
<path fill-rule="evenodd" clip-rule="evenodd" d="M22.9358 8H28C29.1046 8 30 8.89543 30 10V22C30 23.1046 29.1046 24 28 24H25.748C25.9125 24.6392 26 25.3094 26 26V30H6V26C6 25.3094 6.08751 24.6392 6.25204 24H4C2.89543 24 2 23.1046 2 22V10C2 8.89543 2.89543 8 4 8H9.05984C9.50057 4.38945 12.3292 2 16 2C19.659 2 22.4812 4.51028 22.9358 8ZM24.9297 22C23.5465 19.6088 20.9611 18 18 18H14C11.0389 18 8.4535 19.6088 7.07026 22H4V10H9.06417C9.51879 13.4897 12.341 16 16 16C19.659 16 22.4812 13.4897 22.9358 10H28V22H24.9297ZM14 13L20 9L14 5V13Z" fill="#03123D"/>
</svg>
