<svg width="48" height="48" viewBox="0 0 48 48" fill="none" xmlns="http://www.w3.org/2000/svg">
<path d="M24 33C29.5327 33 34.2538 31.4209 37.5762 29.8574C39.2407 29.0741 40.5659 28.2895 41.4805 27.6963C41.938 27.3995 42.2936 27.1492 42.5391 26.9707C42.6618 26.8814 42.7576 26.8097 42.8242 26.7588C42.8574 26.7334 42.8835 26.713 42.9023 26.6982C42.9116 26.691 42.9191 26.6852 42.9248 26.6807C42.9277 26.6784 42.9307 26.6764 42.9326 26.6748L42.9355 26.6729L42.9365 26.6719L41.0635 24.3281C41.0619 24.3294 41.0585 24.3322 41.0537 24.3359C41.0435 24.3439 41.026 24.3576 41.002 24.376C40.9536 24.413 40.8778 24.4704 40.7754 24.5449C40.5697 24.6945 40.2571 24.9131 39.8477 25.1787C39.0279 25.7104 37.8217 26.4259 36.2988 27.1426C33.2462 28.5791 28.9672 30 24 30C19.0328 30 14.7538 28.5791 11.7012 27.1426C10.1783 26.4259 8.97211 25.7104 8.15234 25.1787C7.74285 24.9131 7.43028 24.6945 7.22461 24.5449C7.12217 24.4704 7.04643 24.413 6.99805 24.376C6.974 24.3576 6.95647 24.3439 6.94629 24.3359C6.94148 24.3322 6.93814 24.3294 6.93652 24.3281L5.06348 26.6719L5.06445 26.6729L5.06738 26.6748C5.06935 26.6764 5.07231 26.6784 5.0752 26.6807C5.08091 26.6852 5.08843 26.691 5.09766 26.6982C5.11648 26.713 5.14259 26.7334 5.17578 26.7588C5.24238 26.8097 5.33816 26.8814 5.46094 26.9707C5.70642 27.1492 6.06198 27.3995 6.51953 27.6963C7.43413 28.2895 8.75932 29.0741 10.4238 29.8574C13.7462 31.4209 18.4673 33 24 33Z" fill="#03123D"/>
<path d="M31.5 22.5C31.5 26.6421 28.1421 30 24 30C19.8579 30 16.5 26.6421 16.5 22.5C16.5 18.3579 19.8579 15 24 15C28.1421 15 31.5 18.3579 31.5 22.5Z" fill="#03123D"/>
</svg>
