<svg width="16" height="16" viewBox="0 0 16 16" fill="none" xmlns="http://www.w3.org/2000/svg">
<path d="M10 2H6C5.44772 2 5 2.44772 5 3V4H7V5H6.73633C5.75792 6.23082 5.75805 7.76915 6.73633 9H7V10H2V14H14V10H9V9H9.26465C10.2427 7.76916 10.242 6.23077 9.26367 5H9V4H11V3C11 2.44772 10.5523 2 10 2ZM3.2832 9C2.90625 7.69994 2.90718 6.30008 3.28418 5H2V9H3.2832ZM11.668 9C12.1096 7.71347 12.1096 6.28648 11.668 5H10.4688C11.1775 6.26886 11.1775 7.73117 10.4688 9H11.668ZM12.7168 9H14V5H12.7168C13.0936 6.30007 13.0939 7.69998 12.7168 9ZM5.53125 5C4.82249 6.26885 4.82254 7.73118 5.53125 9H4.33203C3.89042 7.71348 3.89043 6.28647 4.33203 5H5.53125Z" fill="#03123D"/>
</svg>
