<svg width="20" height="20" viewBox="0 0 20 20" fill="none" xmlns="http://www.w3.org/2000/svg">
<path d="M10 17C13.866 17 17 13.866 17 10C17 6.13401 13.866 3 10 3C6.13401 3 3 6.13401 3 10C3 13.866 6.13401 17 10 17ZM14.8016 13.039C14.882 13.1107 14.9685 13.1726 15.0609 13.2243C13.9954 14.8933 12.1269 16 10 16C6.68629 16 4 13.3137 4 10C4 9.17049 4.16833 8.3803 4.4727 7.66172C4.49411 7.67545 4.51372 7.69063 4.53202 7.70694C4.62511 7.78995 4.71699 7.93249 4.79667 8.16006C4.96041 8.62788 5.01551 9.28487 5.05253 10.0253C5.05756 10.126 5.06226 10.2285 5.06701 10.332C5.09524 10.9476 5.12511 11.5988 5.23612 12.1112C5.30138 12.4124 5.40621 12.7266 5.59843 12.9735C5.80971 13.2447 6.11497 13.4169 6.49979 13.4169C6.88052 13.4168 7.18548 13.2491 7.40702 12.995C7.61348 12.7581 7.7439 12.4521 7.83475 12.1493C7.97046 11.697 8.04819 11.1429 8.10819 10.5937L8.21952 9.50576C8.27744 8.97824 8.34446 8.50661 8.45487 8.13858C8.52798 7.89493 8.60712 7.74506 8.6785 7.66299C8.73487 7.59831 8.77635 7.58389 8.8328 7.58389C8.88804 7.58389 8.92409 7.59646 8.9744 7.65615C9.04098 7.73516 9.1154 7.88266 9.18241 8.12686C9.31159 8.59779 9.36541 9.23594 9.42543 9.94769L9.43339 10.0419C9.49378 10.756 9.56412 11.5458 9.75663 12.1562C9.85373 12.4639 9.99522 12.7731 10.2205 13.0106C10.4608 13.264 10.7799 13.4168 11.1658 13.4169C11.5468 13.4169 11.8524 13.2493 12.074 12.995C12.2804 12.7581 12.4109 12.4521 12.5017 12.1493C12.6792 11.5578 12.7557 10.7921 12.8258 10.0908L12.8299 10.0497C12.9045 9.30377 12.9747 8.62915 13.1219 8.13858C13.1951 7.89458 13.2741 7.74392 13.3455 7.66201C13.4015 7.59785 13.4427 7.58391 13.4988 7.58389C13.5514 7.58392 13.5749 7.59373 13.6121 7.64151C13.6683 7.71374 13.7327 7.85582 13.7859 8.10147C13.8775 8.5242 13.9032 9.07467 13.9324 9.6987C13.9374 9.80532 13.9425 9.91465 13.948 10.0253C13.9839 10.7431 14.0385 11.545 14.2576 12.1708C14.3693 12.4898 14.537 12.8031 14.8016 13.039ZM15.5273 12.3383C15.5057 12.3245 15.486 12.3093 15.4676 12.2929C15.3745 12.2099 15.2816 12.0674 15.2019 11.8397C15.0383 11.3721 14.9841 10.7157 14.9471 9.97549C14.9422 9.87811 14.9376 9.77902 14.933 9.67897C14.9044 9.06034 14.8741 8.40485 14.7625 7.88955C14.6972 7.58839 14.5933 7.27415 14.4012 7.02725C14.19 6.75592 13.8847 6.58414 13.4998 6.58389C13.1187 6.58364 12.8133 6.75145 12.5916 7.00576C12.3852 7.24258 12.2547 7.54791 12.1639 7.85049C11.9864 8.4418 11.91 9.20723 11.8399 9.90842L11.8357 9.9501C11.7611 10.696 11.6909 11.3705 11.5437 11.8612C11.4705 12.1053 11.3916 12.2558 11.3201 12.3378C11.2637 12.4025 11.2222 12.4169 11.1658 12.4169C11.0695 12.4168 11.0083 12.3877 10.9461 12.3222C10.8689 12.2408 10.7861 12.094 10.7107 11.8554C10.5582 11.3719 10.4934 10.7022 10.4305 9.95791L10.4205 9.83984C10.3637 9.16341 10.3022 8.43186 10.1463 7.86319C10.0633 7.56072 9.9413 7.2516 9.73905 7.01162C9.5205 6.75232 9.21505 6.58389 8.8328 6.58389C8.45176 6.58389 8.14623 6.75144 7.9246 7.00576C7.71816 7.24274 7.5877 7.5487 7.49686 7.85147C7.31932 8.44339 7.24277 9.20931 7.17265 9.91092L7.16874 9.9501C7.09414 10.6961 7.02492 11.3715 6.87772 11.8622C6.80454 12.1061 6.72455 12.2558 6.65311 12.3378C6.59694 12.4022 6.55603 12.4168 6.49979 12.4169C6.44726 12.4169 6.42359 12.4069 6.38651 12.3593C6.33038 12.2871 6.26687 12.1449 6.21366 11.8993C6.12141 11.4734 6.09525 10.9178 6.06559 10.2879C6.06078 10.1856 6.05587 10.0814 6.05058 9.97549C6.01468 9.25764 5.96004 8.45589 5.741 7.82998C5.6293 7.51082 5.46168 7.19681 5.19706 6.96084C5.11697 6.88945 5.03076 6.82776 4.9388 6.77614C6.00428 5.10691 7.87287 4 10 4C13.3137 4 16 6.68629 16 10C16 10.8295 15.8317 11.6197 15.5273 12.3383Z" fill="#03123D"/>
</svg>
