<svg width="48" height="48" viewBox="0 0 48 48" fill="none" xmlns="http://www.w3.org/2000/svg">
<path d="M31.8001 30.5286L42.0001 42H21.0001L31.8001 30.5286Z" fill="#03123D"/>
<path d="M24.3869 23.3017L24.4526 23H24.0774L24.3869 23.3017Z" fill="#03123D"/>
<path d="M24.4526 23L24.3869 23.3017L24.0774 23H24.4526Z" fill="#03123D"/>
<path d="M25.1062 20L26.2151 14.91C26.9651 11.54 29.8451 9 32.9151 9H39.0051C39.8351 9 40.5051 8.33 40.5051 7.5C40.5051 6.67 39.8351 6 39.0051 6H32.9051C28.4651 6 24.3351 9.55 23.2851 14.26L22.0339 20H21.0001H15.0001V23H21.38L19.2351 32.84C18.5451 35.82 16.6351 39 13.3151 39H6.99512C6.16512 39 5.49512 39.67 5.49512 40.5C5.49512 41.33 6.16512 42 6.99512 42H13.3151C17.4951 42 20.9651 38.67 22.1651 33.5L24.3869 23.3017L31.8001 30.5286L42.0001 20H30.0001H25.1062ZM24.3869 23.3017L24.0774 23H24.4526L24.3869 23.3017Z" fill="#03123D"/>
</svg>
