<svg width="64" height="64" viewBox="0 0 64 64" fill="none" xmlns="http://www.w3.org/2000/svg">
<path d="M48.6149 41.2418C47.2948 41.2418 46.0548 41.6018 45.0147 42.2419L38.4543 35.6815C38.7344 35.1615 38.9744 34.6415 39.1344 34.0414H43.4546C43.7346 34.7615 44.1346 35.4015 44.6947 35.9615C46.8548 38.1217 50.375 38.1217 52.5351 35.9615C54.6952 33.8014 54.6952 30.2812 52.5351 28.1211C50.375 25.961 46.8548 25.961 44.6947 28.1211C44.1346 28.6811 43.7346 29.3212 43.4546 30.0412H39.1344C38.9744 29.4412 38.7344 28.8811 38.4143 28.3211L44.9347 21.8008C46.0148 22.4408 47.2548 22.8008 48.6149 22.8008C52.6951 22.8008 56.0153 19.4806 56.0153 15.4004C56.0153 11.3202 52.6951 8 48.6149 8C44.5347 8 41.2145 11.3202 41.2145 15.4004C41.2145 16.8005 41.6145 18.0806 42.2945 19.2006L35.8142 25.681C35.2142 25.321 34.5741 25.0809 33.8941 24.8809V20.5607C34.6541 20.2807 35.3342 19.8807 35.9342 19.2806C38.0943 17.1205 38.0943 13.6003 35.9342 11.4402C33.7741 9.28007 30.2539 9.28007 28.0938 11.4402C25.9336 13.6003 25.9336 17.1205 28.0938 19.2806C28.6938 19.8807 29.4138 20.2807 30.1739 20.5607V24.8809C29.5338 25.0409 28.9338 25.2809 28.3738 25.601L21.7734 19.0006C22.3734 17.9205 22.7735 16.7205 22.7735 15.4004C22.7735 11.3202 19.4533 8 15.3731 8C11.2928 8 8.01266 11.3202 8.01266 15.4004C8.01266 19.4806 11.3328 22.8008 15.4131 22.8008C16.7331 22.8008 17.9332 22.4408 18.9733 21.8408L25.6136 28.4811C25.3336 28.9612 25.1336 29.4812 24.9736 30.0412H20.5333C20.2533 29.3612 19.8533 28.6811 19.2933 28.1211C17.1332 25.961 13.613 25.961 11.4528 28.1211C9.29273 30.2812 9.29273 33.8014 11.4528 35.9615C13.613 38.1217 17.1332 38.1217 19.2933 35.9615C19.8533 35.4015 20.2533 34.7215 20.5333 34.0414H24.9336C25.0936 34.6815 25.3736 35.2415 25.6936 35.8015L19.1733 42.3219C18.0532 41.6418 16.7731 41.2418 15.3731 41.2418C11.2928 41.2418 7.97266 44.562 7.97266 48.6422C7.97266 52.7225 11.2928 56.0426 15.3731 56.0426C19.4533 56.0426 22.7735 52.7225 22.7735 48.6422C22.7735 47.2822 22.3734 46.0421 21.7734 44.962L28.3338 38.4017C28.8938 38.7217 29.5338 39.0017 30.2139 39.1617V43.4419C29.4538 43.722 28.7338 44.122 28.1338 44.722C25.9736 46.8821 25.9736 50.4023 28.1338 52.5625C30.2939 54.7226 33.8141 54.7226 35.9742 52.5625C38.1343 50.4023 38.1343 46.8821 35.9742 44.722C35.3742 44.122 34.6541 43.722 33.9341 43.4419V39.1617C34.5341 39.0017 35.0942 38.7617 35.6142 38.4817L42.2145 45.082C41.6145 46.1621 41.2545 47.3622 41.2545 48.6422C41.2545 52.7225 44.5747 56.0426 48.6549 56.0426C52.7351 56.0426 56.0553 52.7225 56.0553 48.6422C56.0553 44.562 52.7351 41.2418 48.6549 41.2418H48.6149Z" fill="#03123D"/>
</svg>
