<svg width="32" height="32" viewBox="0 0 32 32" fill="none" xmlns="http://www.w3.org/2000/svg">
<path fill-rule="evenodd" clip-rule="evenodd" d="M28 4V27.9951H4V4H28ZM18 11.9961H13.9971V13.9922H12V17.9961H13.9971V19.9961L18 19.9961V17.9961H20V13.9922H18V11.9961ZM6 25.9951V21.9961H8V23.9922H10V25.9951H6ZM20 25.9951V23.9922H18V21.9961L13.9971 21.9961V23.9922H12V25.9951H20ZM23.9971 21.9961H26V25.9951H22V23.9922H23.9971V21.9961ZM26 11.9961H23.9971V13.9922H22V17.9961H23.9971V19.9961H26V11.9961ZM22 7.99609V6H26V9.99609H23.9971V7.99609H22ZM12 6V7.99609H13.9971V9.99609H18V7.99609H20V6H12ZM8 9.99609H6V6H10V7.99609H8V9.99609ZM6 19.9961H8V17.9961H10V13.9922H8V11.9961H6V19.9961Z" fill="#03123D"/>
</svg>
