<svg width="32" height="32" viewBox="0 0 32 32" fill="none" xmlns="http://www.w3.org/2000/svg">
<path d="M16 28C22.6274 28 28 22.6274 28 16C28 9.37258 22.6274 4 16 4C9.37258 4 4 9.37258 4 16C4 22.6274 9.37258 28 16 28ZM21.9999 24C21.8099 24.1428 21.6148 24.2789 21.4148 24.408C21.0452 24.6468 20.6589 24.8619 20.2576 25.051C20.2164 25.0704 20.175 25.0896 20.1334 25.1085C20.0892 25.1286 20.0447 25.1484 20 25.1679V16H22L21.9999 24ZM18 16V6.20007C18.6956 6.34127 19.365 6.55467 20 6.83211V16H18ZM16 16H18V25.8C17.3538 25.9312 16.685 26 16 26V16ZM14 16V6.20007C14.6463 6.06889 15.3151 6.00003 16 6.00003V16H14ZM12 16H14V25.8C13.3044 25.6588 12.635 25.4454 12 25.1679V16ZM10 16V8.00003C10.6158 7.53742 11.2856 7.14424 12 6.83211V16H10ZM10 16V24.0008C7.57112 22.1763 6 19.2716 6 16C6 13.7483 6.74419 11.6705 8.00003 9.99901V16H10ZM23.9999 16H22V7.9993C24.4289 9.8237 26 12.7284 26 16C26 18.2517 25.2558 20.3297 23.9999 22.0012V16Z" fill="#03123D"/>
</svg>
