<svg width="48" height="48" viewBox="0 0 48 48" fill="none" xmlns="http://www.w3.org/2000/svg">
<path d="M39 39L39.1543 38.9961C40.6884 38.918 41.9184 37.6875 41.9961 36.1543L42 36V12C42 10.3438 40.6569 9 39 9H9C7.34314 9 6 10.3438 6 12V36L6.00391 36.1543C6.0816 37.6875 7.31165 38.918 8.8457 38.9961L9 39H39ZM18 12H39V22.5H27.6211L32.5605 17.5605C33.1464 16.9746 33.1464 16.0254 32.5605 15.4395C31.9747 14.8535 31.0253 14.8535 30.4395 15.4395L21.8789 24L30.4395 32.5605C31.0253 33.1465 31.9747 33.1465 32.5605 32.5605C33.1464 31.9746 33.1464 31.0254 32.5605 30.4395L27.6211 25.5H39V36H18V12Z" fill="#03123D"/>
</svg>
