<svg width="24" height="24" viewBox="0 0 24 24" fill="none" xmlns="http://www.w3.org/2000/svg">
<path fill-rule="evenodd" clip-rule="evenodd" d="M22.5 20L22.4951 20.1025C22.4472 20.573 22.073 20.9472 21.6025 20.9951L21.5 21H2.5L2.39746 20.9951C1.92703 20.9472 1.55278 20.573 1.50488 20.1025L1.5 20V4C1.5 3.44772 1.94772 3 2.5 3H21.5C22.0523 3 22.5 3.44772 22.5 4V20ZM12.748 13.2129L12.749 16.0361L15.75 14.5361V11.7129L12.748 13.2129ZM9.17676 10.499L11.998 11.9111L14.8223 10.499L12 9.08789L9.17676 10.499ZM11.249 16.0361L8.25 14.5361V11.7139L11.248 13.2139L11.249 16.0361ZM3 19.5H21V6H3V19.5ZM17.25 15C17.25 15.2841 17.089 15.5439 16.835 15.6709L12.335 17.9209C12.124 18.0262 11.876 18.0262 11.665 17.9209L7.16504 15.6709C6.91095 15.5439 6.75 15.2841 6.75 15V10.5C6.75 10.2159 6.91095 9.95615 7.16504 9.8291L11.665 7.5791L11.7451 7.54492C11.937 7.47555 12.1502 7.48685 12.335 7.5791L16.835 9.8291C17.089 9.95615 17.25 10.2159 17.25 10.5V15Z" fill="#03123D"/>
</svg>
