<svg width="48" height="48" viewBox="0 0 48 48" fill="none" xmlns="http://www.w3.org/2000/svg">
<path d="M22.5016 14.999L22.5016 28.3187L17.7228 21.626C17.2413 20.952 16.3041 20.7961 15.63 21.2773C14.956 21.7588 14.8001 22.696 15.2814 23.3701L23.9972 35.5781L32.7218 23.3701L32.8048 23.2412C33.1821 22.5811 33.0051 21.7289 32.3732 21.2773C31.7412 20.8259 30.8783 20.935 30.3761 21.5059L30.2804 21.626L25.5016 28.3135L25.5016 14.999L25.4938 14.8457C25.417 14.0893 24.7782 13.499 24.0016 13.499C23.2249 13.499 22.5862 14.0893 22.5094 14.8457L22.5016 14.999Z" fill="#03123D"/>
</svg>
