<svg width="24" height="24" viewBox="0 0 24 24" fill="none" xmlns="http://www.w3.org/2000/svg">
<path d="M15.2155 6.2191L5.84425 15.5945C4.93044 16.5087 4.93032 17.9908 5.84425 18.9049C6.75858 19.8192 8.24117 19.8187 9.15536 18.9042L20.0292 8.0276C21.563 6.49331 21.5635 4.00674 20.0306 2.47157C18.4958 0.934839 16.0054 0.933766 14.4697 2.4695L3.59518 13.344C1.43833 15.5009 1.43833 18.9985 3.59518 21.1553C5.75206 23.3119 9.24906 23.3114 11.4058 21.1547L20.7805 11.78C21.0734 11.4871 21.0734 11.0122 20.7805 10.7193C20.4876 10.4264 20.0127 10.4264 19.7198 10.7193L10.3451 20.094C8.77419 21.665 6.22693 21.6654 4.65584 20.0947C3.08477 18.5236 3.08477 15.9758 4.65584 14.4047L15.5304 3.53016C16.48 2.58048 18.0202 2.58124 18.9692 3.53154C19.917 4.48084 19.9169 6.01818 18.9685 6.96694L8.0947 17.8435C7.76627 18.1721 7.23339 18.1727 6.90491 17.8442C6.57676 17.5159 6.5769 16.9836 6.90491 16.6551L16.2761 7.27976C16.5689 6.9868 16.5691 6.51192 16.2761 6.2191C15.9833 5.92635 15.5083 5.92639 15.2155 6.2191Z" fill="#03123D"/>
</svg>
