<svg width="32" height="32" viewBox="0 0 32 32" fill="none" xmlns="http://www.w3.org/2000/svg">
<path fill-rule="evenodd" clip-rule="evenodd" d="M29.8232 13.7188C29.8222 13.7126 29.8192 13.7068 29.8162 13.701C29.8132 13.6952 29.8102 13.6895 29.8092 13.6834C28.7062 7.05264 22.9437 2 16 2C22.9428 2 28.7053 7.05382 29.8092 13.6834L29.8232 13.7188Z" fill="#03123D"/>
<path fill-rule="evenodd" clip-rule="evenodd" d="M29.8092 13.6834L29.8232 13.7188C29.8211 13.72 29.8262 13.7171 29.8232 13.7188C29.8233 13.7184 29.8268 13.713 29.8092 13.6834ZM11.0039 11.8652L10.9916 11.8726C10.9954 11.8703 10.9995 11.8678 11.0039 11.8652ZM11.0285 11.9811L10.9707 11.8848C10.9704 11.8849 10.9705 11.885 11.0422 12.0043L11.3303 12.4838L11.0285 11.9811Z" fill="#03123D"/>
<path fill-rule="evenodd" clip-rule="evenodd" d="M16 2C22.9428 2 28.7053 7.05382 29.8092 13.6834L29.8232 13.7188C29.9445 14.4599 30 15.2245 30 16C30 23.732 23.732 30 16 30C8.26801 30 2 23.732 2 16C2 8.26801 8.26801 2 16 2ZM16 28C13.8053 28 11.7482 27.4108 9.97823 26.382L13.6436 15.0176C13.9971 14.865 14.478 14.6837 15.0498 14.5361C16.3488 14.2009 18.0129 14.0601 19.7168 14.6797C22.4127 15.6599 24.949 15.4013 26.75 14.9365C27.1764 14.8265 27.5675 14.7035 27.9168 14.5795C27.9717 15.0453 28 15.5194 28 16C28 22.6274 22.6274 28 16 28ZM11.0463 11.841L11.0288 11.851L11.0039 11.8652L10.9916 11.8726L10.9707 11.8848C10.6076 12.1026 10.3249 12.4297 10.1602 12.8164L10.0967 12.9863L6.68415 23.5647C5.00592 21.5005 4 18.8677 4 16C4 9.37258 9.37258 4 16 4C20.7381 4 24.8348 6.746 26.7855 10.7333C26.4908 10.8458 26.1416 10.9624 25.75 11.0635C24.4511 11.3987 22.7869 11.5405 21.083 10.9209C18.3871 9.94065 15.8508 10.1983 14.0498 10.6631C13.144 10.8969 12.3983 11.1896 11.8721 11.4268C11.608 11.5458 11.3961 11.6519 11.2441 11.7324C11.1681 11.7727 11.1063 11.8071 11.0605 11.833L11.0463 11.841Z" fill="#03123D"/>
</svg>
