<svg width="32" height="32" viewBox="0 0 32 32" fill="none" xmlns="http://www.w3.org/2000/svg">
<path fill-rule="evenodd" clip-rule="evenodd" d="M16 2C8.2794 2 2 8.27942 2 16C2 23.7206 8.2794 30 16 30C23.7206 30 30 23.7206 30 16C30 8.27942 23.7206 2 16 2ZM11.5735 23.978H8.43382V13.4779H11.5735V23.978ZM9.97794 11.8824C8.94853 11.8824 8.125 11.0074 8.125 9.97794C8.125 8.94853 8.94853 8.07352 9.97794 8.07352C11.0074 8.07352 11.8823 8.94853 11.8823 9.97794C11.8823 11.0074 11.0074 11.8824 9.97794 11.8824ZM23.9265 18.4706V23.978H20.8382V18.3162C20.8382 17.1324 19.9632 16.2059 18.7794 16.2059C17.5956 16.2059 16.5662 17.1324 16.5147 18.3162V23.978H13.4265V13.4779H16.5147V14.9706C17.1838 13.9927 18.2647 13.375 19.5 13.375H20.375C22.3309 13.375 23.9265 15.0221 23.9265 16.9265V18.5221V18.4706Z" fill="#03123D"/>
</svg>
