<svg width="64" height="64" viewBox="0 0 64 64" fill="none" xmlns="http://www.w3.org/2000/svg">
<path d="M42 12C46.9788 12 51.6543 13.1525 55.3477 16.5225C56.1635 17.2669 56.2218 18.5317 55.4775 19.3477C54.7795 20.1127 53.6236 20.2118 52.8096 19.6074L52.6523 19.4775L52.3955 19.25C49.7216 16.9456 46.2441 16 42 16C40.5184 16 39.0835 16.1993 37.7207 16.5713C39.2933 17.9213 40.5901 19.5408 41.5996 21.4316C43.1995 24.4286 44 27.9447 44 31.9805C44 34.418 43.7201 36.6564 43.1201 38.6943C42.5201 40.7721 41.6395 42.6098 40.5195 44.248C39.7145 45.4256 38.764 46.4783 37.6846 47.4082C39.0599 47.7931 40.5073 48 42 48C46.2775 48 49.9468 46.9233 52.6729 44.5039C53.499 43.771 54.763 43.8468 55.4961 44.6729C56.229 45.499 56.1532 46.763 55.3271 47.4961C51.6532 50.7565 46.9224 52 42 52C38.9623 52 36.0739 51.3166 33.4824 50.0967C32.6262 50.4817 31.7176 50.8112 30.7598 51.082C28.6799 51.6814 26.5199 52 24 52L8 52.001V12L24 12.002C27.6873 12.002 30.7694 12.6361 33.4834 13.8789C36.0721 12.6732 38.9595 12 42 12ZM17.6797 21.751V42.29H23.7998C24.1384 42.29 24.47 42.2813 24.7939 42.2666C22.9732 39.2553 21.9219 35.7293 21.9219 31.959C21.9219 28.228 22.9459 24.7471 24.7256 21.7705C24.4247 21.7576 24.116 21.751 23.7998 21.751H17.6797ZM29.0039 22.5547C27.0664 25.1891 25.9219 28.4375 25.9219 31.959C25.9219 35.5039 27.0872 38.7828 29.0508 41.4404C29.722 41.1814 30.319 40.8756 30.8398 40.4922C31.5597 40.0128 32.1197 39.4135 32.5996 38.7344C33.1196 37.9751 33.5598 37.0956 33.8398 36.0566C34.1998 34.8578 34.3604 33.539 34.3604 32.0205C34.3603 29.623 33.9601 27.6248 33.1201 26.0664C32.4001 24.7478 31.44 23.7885 30.0801 23.0293C29.7431 22.8525 29.3839 22.6956 29.0039 22.5547Z" fill="#03123D"/>
</svg>
