<svg width="20" height="20" viewBox="0 0 20 20" fill="none" xmlns="http://www.w3.org/2000/svg">
<path d="M14.7257 11.667C14.9028 11.8794 15 12.1472 15.0001 12.4238V15.8184C15 16.471 14.471 17 13.8184 17H6.18171C5.52921 16.9998 5.00016 16.4709 5.00007 15.8184V12.4238C5.00008 12.1472 5.09734 11.8794 5.27448 11.667L10.0001 6L14.7257 11.667Z" fill="#03123D"/>
<path d="M16.8819 11.3584L16.9395 11.4424C17.0509 11.6463 17.0075 11.9074 16.8233 12.0635C16.6389 12.2194 16.3742 12.2188 16.1915 12.0752L16.1182 12.0049L10.0001 4.77441L3.8819 12.0049C3.70352 12.2156 3.3876 12.2418 3.17682 12.0635C2.96628 11.8851 2.93999 11.5691 3.11823 11.3584L10.0001 3.22559L16.8819 11.3584Z" fill="#03123D"/>
</svg>
