<svg width="64" height="64" viewBox="0 0 64 64" fill="none" xmlns="http://www.w3.org/2000/svg">
<path fill-rule="evenodd" clip-rule="evenodd" d="M16 18C16 16.8954 16.8954 16 18 16H46C47.1046 16 48 16.8954 48 18C48 19.1046 47.1046 20 46 20H18C16.8954 20 16 19.1046 16 18ZM16 26C16 24.8954 16.8954 24 18 24H32C33.1046 24 34 24.8954 34 26C34 27.1046 33.1046 28 32 28H18C16.8954 28 16 27.1046 16 26Z" fill="#03123D"/>
<path fill-rule="evenodd" clip-rule="evenodd" d="M12 8C9.79086 8 8 9.79086 8 12V40V56L24 40H52C54.2091 40 56 38.2091 56 36V12C56 9.79086 54.2091 8 52 8H12ZM52 12H12V36H52V12Z" fill="#03123D"/>
</svg>
