<svg width="64" height="64" viewBox="0 0 64 64" fill="none" xmlns="http://www.w3.org/2000/svg">
<path fill-rule="evenodd" clip-rule="evenodd" d="M12.0004 44H56.0004V56H8C8 55.0249 8.00009 54.5749 8.00019 54.1137C8.00029 53.6291 8.00039 53.132 8.00039 52V44.0003C8.95491 44.0001 9.40622 44.0001 9.85753 44C10.3517 44 10.8458 44 12.0004 44ZM24 48H14C12.88 48 12 48.88 12 50C12 51.12 12.88 52 14 52H24C25.12 52 26 51.12 26 50C26 48.88 25.12 48 24 48Z" fill="#03123D"/>
<path d="M34 10V34L43.4 24.6C44.2 23.8 45.44 23.8 46.24 24.6C47.04 25.4 47.04 26.64 46.24 27.44L33.44 40.24C33.0296 40.6504 32.5033 40.8503 31.9801 40.8396C31.4568 40.8503 30.9306 40.6504 30.5201 40.24L17.7201 27.44C16.9201 26.64 16.9201 25.4 17.7201 24.6C18.5201 23.8 19.7601 23.8 20.5601 24.6L30 34.0399V10C30 8.88 30.88 8 32 8C33.12 8 34 8.88 34 10Z" fill="#03123D"/>
</svg>
