<svg width="48" height="48" viewBox="0 0 48 48" fill="none" xmlns="http://www.w3.org/2000/svg">
<path fill-rule="evenodd" clip-rule="evenodd" d="M42 24C42 33.9411 33.9411 42 24 42C14.0589 42 6 33.9411 6 24C6 14.0589 14.0589 6 24 6C33.9411 6 42 14.0589 42 24ZM30 10.2482C29.0475 9.83199 28.0434 9.51188 27 9.30008V24H24V9.00003C22.9726 9.00003 21.9694 9.10332 21 9.30008V24H18V10.2482C16.9284 10.7163 15.9236 11.3061 15 12V24H12V14.9985C10.1163 17.5058 9 20.6225 9 24C9 28.9075 11.3567 33.2645 15 36.0011V24H18V37.7519C18.9525 38.1681 19.9566 38.4882 21 38.7V24H24V39C25.0274 39 26.0307 38.8967 27 38.7V24H30V37.7519C31.0716 37.2837 32.0763 36.6939 32.9998 36L33 24H35.9998V33.0017C37.8837 30.4944 39 27.3776 39 24C39 19.0926 36.6434 14.7355 33 11.9989V24H30V10.2482Z" fill="#03123D"/>
</svg>
