<svg width="32" height="32" viewBox="0 0 32 32" fill="none" xmlns="http://www.w3.org/2000/svg">
<path d="M7 10C8.65685 10 10 8.65685 10 7C10 5.34315 8.65685 4 7 4C5.34315 4 4 5.34315 4 7C4 8.65685 5.34315 10 7 10Z" fill="#03123D"/>
<path d="M25 10C26.6569 10 28 8.65685 28 7C28 5.34315 26.6569 4 25 4C23.3431 4 22 5.34315 22 7C22 8.65685 23.3431 10 25 10Z" fill="#03123D"/>
<path d="M16 6C16.56 6 17 6.44 17 7C17 7.56 16.56 8 16 8C15.44 8 15 7.56 15 7C15 6.44 15.44 6 16 6ZM16 4C14.34 4 13 5.34 13 7C13 8.66 14.34 10 16 10C17.66 10 19 8.66 19 7C19 5.34 17.66 4 16 4Z" fill="#03123D"/>
<path d="M7 15C7.56 15 8 15.44 8 16C8 16.56 7.56 17 7 17C6.44 17 6 16.56 6 16C6 15.44 6.44 15 7 15ZM7 13C5.34 13 4 14.34 4 16C4 17.66 5.34 19 7 19C8.66 19 10 17.66 10 16C10 14.34 8.66 13 7 13Z" fill="#03123D"/>
<path d="M25 15C25.56 15 26 15.44 26 16C26 16.56 25.56 17 25 17C24.44 17 24 16.56 24 16C24 15.44 24.44 15 25 15ZM25 13C23.34 13 22 14.34 22 16C22 17.66 23.34 19 25 19C26.66 19 28 17.66 28 16C28 14.34 26.66 13 25 13Z" fill="#03123D"/>
<path d="M16 19C17.6569 19 19 17.6569 19 16C19 14.3431 17.6569 13 16 13C14.3431 13 13 14.3431 13 16C13 17.6569 14.3431 19 16 19Z" fill="#03123D"/>
<path d="M7 28C8.65685 28 10 26.6569 10 25C10 23.3431 8.65685 22 7 22C5.34315 22 4 23.3431 4 25C4 26.6569 5.34315 28 7 28Z" fill="#03123D"/>
<path d="M25 28C26.6569 28 28 26.6569 28 25C28 23.3431 26.6569 22 25 22C23.3431 22 22 23.3431 22 25C22 26.6569 23.3431 28 25 28Z" fill="#03123D"/>
<path d="M16 24C16.56 24 17 24.44 17 25C17 25.56 16.56 26 16 26C15.44 26 15 25.56 15 25C15 24.44 15.44 24 16 24ZM16 22C14.34 22 13 23.34 13 25C13 26.66 14.34 28 16 28C17.66 28 19 26.66 19 25C19 23.34 17.66 22 16 22Z" fill="#03123D"/>
</svg>
