<svg width="20" height="20" viewBox="0 0 20 20" fill="none" xmlns="http://www.w3.org/2000/svg">
<path fill-rule="evenodd" clip-rule="evenodd" d="M1.875 6.76016C2.15114 6.76016 2.375 6.98401 2.375 7.26016C2.375 11.852 5.82308 15.5102 10 15.5102C14.1769 15.5102 17.625 11.852 17.625 7.26016C17.625 6.98401 17.8489 6.76016 18.125 6.76016C18.4011 6.76016 18.625 6.98401 18.625 7.26016C18.625 12.3332 14.7977 16.5102 10 16.5102C5.2023 16.5102 1.375 12.3332 1.375 7.26016C1.375 6.98401 1.59886 6.76016 1.875 6.76016Z" fill="#03123D"/>
<path fill-rule="evenodd" clip-rule="evenodd" d="M4.55953 9.51968C4.66676 9.9787 4.83295 10.4318 5.06127 10.869C6.52231 13.6662 9.97423 14.7494 12.7714 13.2884C15.5685 11.8275 16.6516 8.3755 15.1906 5.57828C14.9622 5.14113 14.6853 4.74585 14.3698 4.3956L4.55953 9.51968Z" fill="#03123D"/>
</svg>
