<svg width="48" height="48" viewBox="0 0 48 48" fill="none" xmlns="http://www.w3.org/2000/svg">
<path fill-rule="evenodd" clip-rule="evenodd" d="M45 40L44.9893 40.2041C44.8938 41.1457 44.1457 41.8938 43.2041 41.9893L43 42H5L4.7959 41.9893C3.85435 41.8938 3.1062 41.1457 3.01074 40.2041L3 40V8C3 6.89543 3.89543 6 5 6H43C44.1046 6 45 6.89543 45 8V40ZM23.9961 23.8223L18.3535 21L24 18.1768L29.6445 20.999L23.9961 23.8223ZM25.498 32.0732L25.4961 26.4268L31.5 23.4258V29.0723L25.498 32.0732ZM22.498 32.0713L16.5 29.0723V23.4268L22.4961 26.4268L22.498 32.0713ZM6 39H42V12H6V39ZM34.5 30C34.5 30.5682 34.1791 31.0877 33.6709 31.3418L24.6709 35.8418C24.2486 36.0529 23.7514 36.0529 23.3291 35.8418L14.3291 31.3418C13.8209 31.0877 13.5 30.5682 13.5 30V21C13.5 20.4318 13.8209 19.9123 14.3291 19.6582L23.3291 15.1582L23.4912 15.0889C23.8749 14.9505 24.3015 14.9735 24.6709 15.1582L33.6709 19.6582C34.1791 19.9123 34.5 20.4318 34.5 21V30Z" fill="#03123D"/>
</svg>
