<svg width="64" height="64" viewBox="0 0 64 64" fill="none" xmlns="http://www.w3.org/2000/svg">
<path d="M52.5861 28.5865L27.586 53.5866C23.3965 57.7759 16.6037 57.7753 12.4143 53.5859C8.22517 49.3965 8.22517 42.6043 12.4143 38.4149L41.4154 9.41385C43.9479 6.88164 48.0542 6.88327 50.585 9.4173C53.1129 11.9487 53.112 16.0498 50.5829 18.58L21.586 47.5852L21.4154 47.7392C20.5346 48.4577 19.2356 48.4068 18.4144 47.5859C17.5387 46.7102 17.5382 45.2902 18.4137 44.4143L43.4027 19.4142C44.1836 18.6329 44.1839 17.3666 43.4027 16.5857C42.6215 15.8049 41.3545 15.8052 40.5736 16.5864L15.5846 41.5865C13.1476 44.0246 13.1484 47.9768 15.5859 50.4143C18.0242 52.8522 21.9774 52.8514 24.4151 50.4129L53.4113 21.4084C57.5018 17.3167 57.5032 10.684 53.4148 6.59025C49.3222 2.49263 42.6822 2.49048 38.5869 6.58542L9.5859 35.5865C3.83465 41.338 3.83465 50.6628 9.5859 56.4144C15.3374 62.1659 24.6628 62.1664 30.4145 56.415L55.4146 31.4149C56.1956 30.634 56.1955 29.3676 55.4146 28.5865C54.6335 27.8055 53.3672 27.8055 52.5861 28.5865Z" fill="#03123D"/>
</svg>
