<svg width="32" height="32" viewBox="0 0 32 32" fill="none" xmlns="http://www.w3.org/2000/svg">
<path fill-rule="evenodd" clip-rule="evenodd" d="M26 6.00006H16V12.0001H26V6.00006ZM14 4.00006V14.0001H28V4.00006H14Z" fill="#03123D"/>
<path fill-rule="evenodd" clip-rule="evenodd" d="M26 18.0001H16V24.0001H26V18.0001ZM14 16.0001V26.0001H28V16.0001H14Z" fill="#03123D"/>
<path fill-rule="evenodd" clip-rule="evenodd" d="M8.07159 21.6285L10.0715 16.6287C10.2766 16.1159 10.8586 15.8665 11.3714 16.0716C11.8842 16.2767 12.1336 16.8587 11.9285 17.3714L8.17992 26.7428C7.87619 27.5022 7.14078 28.0001 6.32297 28.0001H4.38281C3.83053 28.0001 3.38281 27.5523 3.38281 27.0001C3.38281 26.4478 3.83053 26.0001 4.38281 26.0001L6.32297 26.0001L7.02114 24.2546L4.08085 17.394C3.8633 16.8863 4.09845 16.2985 4.60608 16.0809C5.11371 15.8634 5.70159 16.0985 5.91915 16.6061L8.07159 21.6285Z" fill="#03123D"/>
<path fill-rule="evenodd" clip-rule="evenodd" d="M8 7.33339L10.2 4.40006C10.5314 3.95823 11.1582 3.86869 11.6 4.20006C12.0418 4.53143 12.1314 5.15823 11.8 5.60006L9.25 9.00006L11.8 12.4001C12.1314 12.8419 12.0418 13.4687 11.6 13.8001C11.1582 14.1314 10.5314 14.0419 10.2 13.6001L8 10.6667L5.8 13.6001C5.46863 14.0419 4.84183 14.1314 4.4 13.8001C3.95817 13.4687 3.86863 12.8419 4.2 12.4001L6.75 9.00006L4.2 5.60006C3.86863 5.15823 3.95817 4.53143 4.4 4.20006C4.84183 3.86869 5.46863 3.95823 5.8 4.40006L8 7.33339Z" fill="#03123D"/>
</svg>
