<svg width="16" height="16" viewBox="0 0 16 16" fill="none" xmlns="http://www.w3.org/2000/svg">
<g clip-path="url(#clip0_7656_226)">
<path d="M4.9998 7.00078H6.9998V8.00078H4.9998V7.00078Z" fill="#03123D"/>
<path d="M8.9998 7.00078H10.9998V8.00078H8.9998V7.00078Z" fill="#03123D"/>
<path d="M8 15.2012C11.8522 15.2011 14.9977 12.1754 15.1904 8.37109L15.2002 8.00098C15.2002 4.14873 12.1745 1.0033 8.37012 0.810547L8 0.800781C4.02355 0.800781 0.799805 4.02453 0.799805 8.00098L0.80957 8.37109C0.996096 12.0526 3.94748 15.0046 7.62891 15.1914L8 15.2012ZM1.88004 7.00097C2.35821 4.05225 4.91628 1.80078 8 1.80078C11.0836 1.80088 13.6417 4.05222 14.1199 7.00078H11.9998V12.7384C10.9201 13.651 9.52425 14.2011 8 14.2012C6.47555 14.2012 5.07956 13.6509 3.9998 12.7382V7.00097H1.88004Z" fill="#03123D"/>
</g>
<defs>
<clipPath id="clip0_7656_226">
<rect width="16" height="16" fill="white"/>
</clipPath>
</defs>
</svg>
