<svg width="32" height="32" viewBox="0 0 32 32" fill="none" xmlns="http://www.w3.org/2000/svg">
<path d="M4 6H12V10H4V6Z" fill="#03123D"/>
<path d="M4 18H12V22H4V18Z" fill="#03123D"/>
<path d="M28 12H20V16H28V12Z" fill="#03123D"/>
<path d="M28 24H20V28H28V24Z" fill="#03123D"/>
<path d="M14 6H22V10H14V6Z" fill="#03123D"/>
<path d="M14 18H22V22H14V18Z" fill="#03123D"/>
<path d="M18 12H10V16H18V12Z" fill="#03123D"/>
<path d="M18 24H10V28H18V24Z" fill="#03123D"/>
<path d="M24 6H28V10H24V6Z" fill="#03123D"/>
<path d="M24 18H28V22H24V18Z" fill="#03123D"/>
<path d="M8 12H4V16H8V12Z" fill="#03123D"/>
<path d="M8 24H4V28H8V24Z" fill="#03123D"/>
</svg>
