<svg width="16" height="16" viewBox="0 0 16 16" fill="none" xmlns="http://www.w3.org/2000/svg">
<path fill-rule="evenodd" clip-rule="evenodd" d="M5.79689 6.66149L3 2H7L8 3.66667L9 2H13L10.2031 6.66149C11.2856 7.37756 12 8.60586 12 10C12 12.208 10.208 14 8 14C5.792 14 4 12.208 4 10C4 8.60586 4.71442 7.37756 5.79689 6.66149ZM8 7C6.69485 7 5.58321 7.8353 5.17098 9H7.32745L7.9962 7.0113L8 7ZM8 7L8.65745 9H10.829C10.4168 7.8353 9.30515 7 8 7ZM9.4 6L8.5831 4.63849L9.56619 3H11.2338L9.43381 6H9.4ZM6.82244 10.515L5.13448 9.10991C5.04708 9.39119 5 9.69014 5 10C5 10.9781 5.46911 11.8475 6.19442 12.3953L6.82244 10.515ZM9.16745 10.53L10.8656 9.11022C10.953 9.39141 11 9.69025 11 10C11 10.9844 10.5248 11.8587 9.79148 12.4059L9.16745 10.53ZM9.46977 12.6154L7.99245 11.5L6.51602 12.6073C6.95375 12.8572 7.46033 13 8 13C8.53384 13 9.0353 12.8603 9.46977 12.6154Z" fill="#03123D"/>
</svg>
