<svg width="48" height="48" viewBox="0 0 48 48" fill="none" xmlns="http://www.w3.org/2000/svg">
<path d="M27 24C27 25.6569 25.6569 27 24 27C22.3431 27 21 25.6569 21 24C21 22.3431 22.3431 21 24 21C25.6569 21 27 22.3431 27 24Z" fill="#03123D"/>
<path d="M45 10.5C45 14.6421 41.6421 18 37.5 18C33.3579 18 30 14.6421 30 10.5C30 6.35786 33.3579 3 37.5 3C41.6421 3 45 6.35786 45 10.5Z" fill="#03123D"/>
<path d="M12 30C12 31.7036 12.8399 33.1701 14.2334 34.2539C15.6431 35.3503 17.5649 36 19.5 36C21.4351 36 23.3569 35.3503 24.7666 34.2539C26.1601 33.1701 27 31.7036 27 30H30C30 32.7963 28.5898 35.0799 26.6084 36.6211C24.6431 38.1496 22.0648 39 19.5 39C16.9352 39 14.3569 38.1496 12.3916 36.6211C10.4102 35.0799 9 32.7963 9 30H12Z" fill="#03123D"/>
<path d="M18 22.5V25.5H12V22.5H18Z" fill="#03123D"/>
<path d="M33 28.5C33 21.0449 26.9559 15 19.5 15C12.0441 15 6 21.0449 6 28.5C6 35.9551 12.0441 42 19.5 42C26.9559 42 33 35.9551 33 28.5ZM36 28.5C36 37.6133 28.6127 45 19.5 45C10.3873 45 3 37.6133 3 28.5C3 19.3867 10.3873 12 19.5 12C28.6127 12 36 19.3867 36 28.5Z" fill="#03123D"/>
</svg>
