<svg width="32" height="32" viewBox="0 0 32 32" fill="none" xmlns="http://www.w3.org/2000/svg">
<path d="M16 2C8.26801 2 2 8.26802 2 16C2 23.732 8.26801 30 16 30C23.732 30 30 23.732 30 16C30 8.26802 23.732 2 16 2ZM10.093 5.55214C10.852 11.8816 16 16 16 16C16 16 10.852 20.1184 10.093 26.4479C6.45497 24.3866 4 20.48 4 16C4 11.52 6.45497 7.61344 10.093 5.55214ZM16 16C16 16 21.1452 11.8814 21.9064 5.55179C25.5448 7.613 28 11.5198 28 16C28 20.4802 25.5448 24.387 21.9064 26.4482C21.1452 20.1186 16 16 16 16Z" fill="#03123D"/>
</svg>
