<svg width="32" height="32" viewBox="0 0 32 32" fill="none" xmlns="http://www.w3.org/2000/svg">
<path d="M20 8H8C6.9 8 6 8.9 6 10V26C6 27.1 6.9 28 8 28H20C21.1 28 22 27.1 22 26V10C22 8.9 21.1 8 20 8ZM12.36 22C10.52 22 9.02 20.46 9 18.5C9 16.54 10.46 13.92 12.3 13.9C12.7 13.9 13.2 14.18 13.2 14.74C13.2 16.38 13.2 19.82 13.2 21.32C13.2 21.78 12.72 21.98 12.36 21.98V22ZM14.78 22C14.44 22 13.94 21.8 13.94 21.34C13.94 19.82 13.94 16.4 13.94 14.76C13.94 14.18 14.44 13.9 14.84 13.92C16.68 13.92 18.16 16.56 18.14 18.52C18.14 20.48 16.62 22.04 14.78 22.02V22Z" fill="#03123D"/>
<path fill-rule="evenodd" clip-rule="evenodd" d="M10 5C10 4.44772 10.4477 4 11 4H22C24.2091 4 26 5.79086 26 8V23C26 23.5523 25.5523 24 25 24C24.4477 24 24 23.5523 24 23V8C24 6.89543 23.1046 6 22 6H11C10.4477 6 10 5.55228 10 5Z" fill="#03123D"/>
</svg>
