<svg width="64" height="64" viewBox="0 0 64 64" fill="none" xmlns="http://www.w3.org/2000/svg">
<path d="M46.5859 49.4141L38.5859 41.4141L38.4482 41.2627C37.8075 40.4771 37.8537 39.3182 38.5859 38.5859C39.3182 37.8537 40.4771 37.8075 41.2627 38.4482L41.4141 38.5859L49.4141 46.5859L56 40V56H40L46.5859 49.4141Z" fill="#03123D"/>
<path d="M14.5859 46.5859L22.5859 38.5859L22.7373 38.4482C23.5229 37.8075 24.6818 37.8537 25.4141 38.5859C26.1463 39.3182 26.1926 40.4771 25.5518 41.2627L25.4141 41.4141L17.4141 49.4141L24 56H8V40L14.5859 46.5859Z" fill="#03123D"/>
<path d="M56 8H40L46.5859 14.5859L38.5859 22.5859L38.4482 22.7373C37.8075 23.5229 37.8537 24.6818 38.5859 25.4141C39.3182 26.1463 40.4771 26.1926 41.2627 25.5518L41.4141 25.4141L49.4141 17.4141L56 24V8Z" fill="#03123D"/>
<path d="M8 8H24L17.4141 14.5859L25.4141 22.5859L25.5518 22.7373C26.1926 23.5229 26.1463 24.6818 25.4141 25.4141C24.6818 26.1463 23.5229 26.1926 22.7373 25.5518L22.5859 25.4141L14.5859 17.4141L8 24V8Z" fill="#03123D"/>
</svg>
