<svg width="32" height="32" viewBox="0 0 32 32" fill="none" xmlns="http://www.w3.org/2000/svg">
<path d="M16.3574 2.29102C23.7598 2.47927 29.7175 8.55291 29.7178 16L29.7129 16.3545C29.5246 23.757 23.4503 29.7148 16.0029 29.7148L15.6494 29.71C8.3645 29.5247 2.47922 23.6394 2.29395 16.3545L2.28906 16C2.28936 8.43469 8.43761 2.28638 16.0029 2.28613L16.3574 2.29102ZM16.0029 4.28613C9.54217 4.28638 4.28936 9.53926 4.28906 16C4.28906 22.461 9.54199 27.7146 16.0029 27.7148C22.4641 27.7148 27.7178 22.4611 27.7178 16C27.7175 9.5391 22.4639 4.28613 16.0029 4.28613Z" fill="#03123D"/>
<path d="M22.208 16.2197L12.4902 23.5068L11.291 21.9072L18.874 16.2188L11.291 10.5312L12.4902 8.93164L22.208 16.2197Z" fill="#03123D"/>
</svg>
