<svg width="48" height="48" viewBox="0 0 48 48" fill="none" xmlns="http://www.w3.org/2000/svg">
<path d="M31.1429 15.5C30.6 15.5 30.0857 15.5567 29.5714 15.6133C28.9143 10.74 24.7714 7.16699 19.7143 7.16699C14.2 7.16699 9.71429 11.4483 9.71429 16.9167C9.71429 17.1717 9.77143 17.4267 9.8 17.6817C6.31429 19.9483 4 23.8017 4 28.25C4 35.305 9.74286 40.849 16.8571 40.849H31.1429C38.2571 40.849 44 35.305 44 28.25C44 21.195 38.2571 15.5 31.1429 15.5ZM31.1429 38.0156H16.8571C11.3429 38.0156 6.85714 33.7183 6.85714 28.25C6.85714 24.1417 9.37143 20.6283 12.9714 19.1267C12.8571 18.7867 12.7714 18.4467 12.7143 18.1067C12.6286 17.71 12.6 17.3417 12.6 16.9167C12.6 13.0067 15.8 10.0003 19.7429 10.0003C23.4571 10.0003 26.4857 12.6667 26.8286 16.265C25.6571 16.69 24.5429 17.2567 23.5429 17.9933C22.7429 18.5883 22.7143 19.58 23.1714 20.1467C23.6286 20.685 24.5143 20.7983 25.1429 20.345C26.8 19.07 28.8857 18.3333 31.1429 18.3333C36.6571 18.3333 41.1429 22.7817 41.1429 28.25C41.1429 33.7183 36.6571 38.0156 31.1429 38.0156Z" fill="#03123D"/>
<path d="M12 31.9733L16.0571 27.95L19.6 31.4633C19.8857 31.7467 20.2571 31.8883 20.6 31.8883C20.9429 31.8883 21.3429 31.7467 21.6 31.4633C22.1714 30.8967 22.1714 30.0183 21.6 29.4517L18.0571 25.9383L22.0286 22H12V31.9733Z" fill="#03123D"/>
<path d="M28.4571 24.4817C27.8857 23.915 27 23.915 26.4286 24.4817C25.8571 25.0483 25.8571 25.9267 26.4286 26.4933L29.9714 30.0067L26 33.945H36.0286V24L31.9714 28.0233L28.4286 24.51L28.4571 24.4817Z" fill="#03123D"/>
</svg>
