<svg width="64" height="64" viewBox="0 0 64 64" fill="none" xmlns="http://www.w3.org/2000/svg">
<path d="M24 16V10C24 8.89543 23.1046 8 22 8C20.8954 8 20 8.89543 20 10V16H12C9.79086 16 8 17.7909 8 20V32V40.8769V52C8 54.2091 9.79086 56 12 56H52C54.2091 56 56 54.2091 56 52V40.8769V32V20C56 17.7909 54.2091 16 52 16H44V10C44 8.89543 43.1046 8 42 8C40.8954 8 40 8.89543 40 10V16H24ZM12 20H20V26C20 27.1046 20.8954 28 22 28C23.1046 28 24 27.1046 24 26V20H40V26C40 27.1046 40.8954 28 42 28C43.1046 28 44 27.1046 44 26V20H52V32H12V20Z" fill="#03123D"/>
</svg>
