<svg width="16" height="16" viewBox="0 0 16 16" fill="none" xmlns="http://www.w3.org/2000/svg">
<path d="M8.35449 1.15234C11.9738 1.3364 14.8584 4.33645 14.8584 8.00098L14.8496 8.35351C14.6655 11.9728 11.6664 14.8573 8.00195 14.8574L7.64941 14.8486C4.14672 14.6707 1.33144 11.8561 1.15332 8.35351L1.14453 8.00098C1.14454 4.21816 4.21915 1.14361 8.00195 1.14355L8.35449 1.15234ZM8.00195 2.14355C4.77143 2.14361 2.14454 4.77045 2.14453 8.00098C2.14468 11.2314 4.77152 13.8574 8.00195 13.8574C11.2323 13.8573 13.8582 11.2313 13.8584 8.00098C13.8584 4.7705 11.2324 2.14371 8.00195 2.14355Z" fill="#03123D"/>
<path d="M11.1053 8.11051L6.24688 11.7541L5.94708 11.3547L5.64727 10.9543L9.43829 8.10954L5.64727 5.26676L6.24688 4.46598L11.1053 8.11051Z" fill="#03123D"/>
</svg>
