<svg width="16" height="16" viewBox="0 0 16 16" fill="none" xmlns="http://www.w3.org/2000/svg">
<path d="M13 2C13.5523 2 14 2.44772 14 3V13C14 13.5177 13.6067 13.9438 13.1025 13.9951L13 14H3L2.89746 13.9951C2.42703 13.9472 2.05278 13.573 2.00488 13.1025L2 13V3C2 2.44772 2.44772 2 3 2H13ZM3 13H7.5V7.70703L5.85352 9.35352C5.65826 9.54877 5.34175 9.54876 5.14648 9.35352C4.95122 9.15825 4.95122 8.84175 5.14648 8.64648L8 5.79297L10.8535 8.64648L10.918 8.72461C11.0461 8.91868 11.0244 9.18266 10.8535 9.35352C10.6827 9.52437 10.4187 9.54611 10.2246 9.41797L10.1465 9.35352L8.5 7.70703V13H13V5H3V13Z" fill="#03123D"/>
</svg>
