<svg width="32" height="32" viewBox="0 0 32 32" fill="none" xmlns="http://www.w3.org/2000/svg">
<path d="M21.4649 12C21.0011 11.1983 20.267 10.5724 19.3873 10.2471C19.8069 9.57417 20 8.78623 20 8V5C20 4.44772 19.5523 4 19 4C18.4477 4 18 4.44772 18 5V8C18 8.59801 17.8134 9.09371 17.5098 9.42773C17.22 9.74626 16.7504 10 16 10C15.2496 10 14.78 9.74626 14.4902 9.42773C14.1866 9.09371 14 8.59801 14 8V5C14 4.44772 13.5523 4 13 4C12.4477 4 12 4.44772 12 5V8C12 8.78623 12.1931 9.57417 12.6127 10.2471C11.733 10.5724 10.9989 11.1983 10.5351 12H9C8.44772 12 8 11.5523 8 11V9C8 8.44772 7.55228 8 7 8C6.44772 8 6 8.44772 6 9V11C6 12.6569 7.34315 14 9 14H10V16H6C5.44772 16 5 16.4477 5 17C5 17.5523 5.44772 18 6 18H10V20H9C7.34315 20 6 21.3431 6 23V25C6 25.5523 6.44772 26 7 26C7.55228 26 8 25.5523 8 25V23C8 22.4477 8.44772 22 9 22H10C10 25.3137 12.6863 28 16 28C19.3137 28 22 25.3137 22 22H23C23.5523 22 24 22.4477 24 23V25C24 25.5523 24.4477 26 25 26C25.5523 26 26 25.5523 26 25V23C26 21.3431 24.6569 20 23 20H22V18H25C25.5523 18 26 17.5523 26 17C26 16.4477 25.5523 16 25 16H22V14H23C24.6569 14 26 12.6569 26 11V9C26 8.44772 25.5523 8 25 8C24.4477 8 24 8.44772 24 9V11C24 11.5523 23.5523 12 23 12H21.4649Z" fill="#03123D"/>
</svg>
