<svg width="48" height="48" viewBox="0 0 48 48" fill="none" xmlns="http://www.w3.org/2000/svg">
<path fill-rule="evenodd" clip-rule="evenodd" d="M17.75 12C18.5803 12 19.3901 12.0805 20.1722 12.2338C13.2758 18.0016 13.2759 29.9986 20.1726 35.7661C19.3904 35.9195 18.5804 36 17.75 36C13.6652 35.9999 10.8131 34.4735 8.94629 32.3379C7.02804 30.1433 6 27.1242 6 24C6 20.8758 7.02804 17.8567 8.94629 15.6621C10.8131 13.5265 13.6652 12.0001 17.75 12ZM23.6185 10.1509C21.8121 9.40948 19.8296 9 17.75 9C-1.76313 9.00044 -1.91546 38.5326 17.293 38.9941L17.75 39C19.8298 39 21.8124 38.5905 23.619 37.8489C25.2724 38.5346 27.1638 38.943 29.293 38.9941L29.75 39C38.0407 39 44.7866 32.4923 44.9951 24.3867L45 24C45 15.7157 38.1721 9 29.75 9C27.4333 9.00005 25.3894 9.41639 23.6185 10.1509ZM33 24C33 19.2221 30.7288 14.966 27.1905 12.219C27.9838 12.0765 28.8361 12 29.75 12C36.5621 12 42 17.4191 42 24C42 30.5809 36.5621 36 29.75 36C28.8361 36 27.9838 35.9235 27.1905 35.781C30.6331 33.1084 32.8762 29.0071 32.9951 24.3867L33 24Z" fill="#03123D"/>
</svg>
