<svg width="16" height="16" viewBox="0 0 16 16" fill="none" xmlns="http://www.w3.org/2000/svg">
<path d="M12.375 3.21884C12.6751 2.97877 13.0872 2.93238 13.4336 3.09872C13.7798 3.26526 13.9999 3.61591 14 4.00009V12.0001C14 12.3964 13.766 12.7553 13.4033 12.9151C13.0407 13.0749 12.6177 13.0057 12.3252 12.7384C11.1998 11.7095 9.82328 11.0142 8.69824 10.5743C8.23488 10.3932 7.82182 10.2612 7.5 10.1661V11.5001C7.5 12.3285 6.82843 13.0001 6 13.0001C5.17169 13 4.5 12.3284 4.5 11.5001V10.0001H3.05762C2.47396 10.0001 2.0001 9.52709 2 8.94345V7.05673C2.0002 6.47319 2.47402 6.00009 3.05762 6.00009H6.85254C6.85448 5.99949 6.85641 5.99875 6.8584 5.99814C6.9511 5.96934 7.08937 5.92564 7.26367 5.8663C7.61293 5.74741 8.10655 5.56748 8.6748 5.32822C9.82221 4.84507 11.2273 4.13701 12.375 3.21884ZM5.5 11.5001C5.5 11.7762 5.72397 12 6 12.0001C6.27614 12.0001 6.5 11.7762 6.5 11.5001V10.0001H5.5V11.5001ZM13 4.00009C10.5 6.00009 7 7.00009 7 7.00009V9.00009C7 9.00009 10.5 9.71458 13 12.0001V4.00009ZM11.7637 5.52743C12.0246 5.39697 12.342 5.50299 12.4727 5.76376C12.6032 6.02481 12.4974 6.34222 12.2363 6.47275L10.2363 7.47275C9.97529 7.60323 9.65786 7.49745 9.52734 7.23642C9.39712 6.97546 9.50279 6.65792 9.76367 6.52744L11.7637 5.52743Z" fill="#03123D"/>
</svg>
