<svg width="48" height="48" viewBox="0 0 48 48" fill="none" xmlns="http://www.w3.org/2000/svg">
<path d="M10.5 15C12.9853 15 15 12.9853 15 10.5C15 8.01472 12.9853 6 10.5 6C8.01472 6 6 8.01472 6 10.5C6 12.9853 8.01472 15 10.5 15Z" fill="#03123D"/>
<path d="M37.5 15C39.9853 15 42 12.9853 42 10.5C42 8.01472 39.9853 6 37.5 6C35.0147 6 33 8.01472 33 10.5C33 12.9853 35.0147 15 37.5 15Z" fill="#03123D"/>
<path d="M24 9C24.84 9 25.5 9.66 25.5 10.5C25.5 11.34 24.84 12 24 12C23.16 12 22.5 11.34 22.5 10.5C22.5 9.66 23.16 9 24 9ZM24 6C21.51 6 19.5 8.01 19.5 10.5C19.5 12.99 21.51 15 24 15C26.49 15 28.5 12.99 28.5 10.5C28.5 8.01 26.49 6 24 6Z" fill="#03123D"/>
<path d="M10.5 22.5C11.34 22.5 12 23.16 12 24C12 24.84 11.34 25.5 10.5 25.5C9.66 25.5 9 24.84 9 24C9 23.16 9.66 22.5 10.5 22.5ZM10.5 19.5C8.01 19.5 6 21.51 6 24C6 26.49 8.01 28.5 10.5 28.5C12.99 28.5 15 26.49 15 24C15 21.51 12.99 19.5 10.5 19.5Z" fill="#03123D"/>
<path d="M37.5 22.5C38.34 22.5 39 23.16 39 24C39 24.84 38.34 25.5 37.5 25.5C36.66 25.5 36 24.84 36 24C36 23.16 36.66 22.5 37.5 22.5ZM37.5 19.5C35.01 19.5 33 21.51 33 24C33 26.49 35.01 28.5 37.5 28.5C39.99 28.5 42 26.49 42 24C42 21.51 39.99 19.5 37.5 19.5Z" fill="#03123D"/>
<path d="M24 28.5C26.4853 28.5 28.5 26.4853 28.5 24C28.5 21.5147 26.4853 19.5 24 19.5C21.5147 19.5 19.5 21.5147 19.5 24C19.5 26.4853 21.5147 28.5 24 28.5Z" fill="#03123D"/>
<path d="M10.5 42C12.9853 42 15 39.9853 15 37.5C15 35.0147 12.9853 33 10.5 33C8.01472 33 6 35.0147 6 37.5C6 39.9853 8.01472 42 10.5 42Z" fill="#03123D"/>
<path d="M37.5 42C39.9853 42 42 39.9853 42 37.5C42 35.0147 39.9853 33 37.5 33C35.0147 33 33 35.0147 33 37.5C33 39.9853 35.0147 42 37.5 42Z" fill="#03123D"/>
<path d="M24 36C24.84 36 25.5 36.66 25.5 37.5C25.5 38.34 24.84 39 24 39C23.16 39 22.5 38.34 22.5 37.5C22.5 36.66 23.16 36 24 36ZM24 33C21.51 33 19.5 35.01 19.5 37.5C19.5 39.99 21.51 42 24 42C26.49 42 28.5 39.99 28.5 37.5C28.5 35.01 26.49 33 24 33Z" fill="#03123D"/>
</svg>
