<svg width="32" height="32" viewBox="0 0 32 32" fill="none" xmlns="http://www.w3.org/2000/svg">
<path fill-rule="evenodd" clip-rule="evenodd" d="M6.56738 18C5.81338 15.3999 5.81279 12.6002 6.56641 10H4V18H6.56738ZM11.0635 18C9.64577 15.462 9.64622 12.538 11.0645 10H8.66406C7.78076 12.573 7.78133 15.4269 8.66504 18H11.0635ZM23.335 18C24.2187 15.4269 24.2192 12.573 23.3359 10H20.9365C22.3544 12.5379 22.3542 15.4621 20.9365 18H23.335ZM25.4336 18H28V10H25.4336C26.1874 12.6002 26.1874 15.3999 25.4336 18Z" fill="#03123D"/>
<path d="M12 4H20C21.1046 4 22 4.89543 22 6V8H18V10H18.5332C20.4873 12.4604 20.4871 15.5395 18.5332 18H18V20H28V28H4V20H14V18H13.4668C11.5128 15.5395 11.5125 12.4605 13.4668 10H14V8H10V6C10 4.89543 10.8954 4 12 4Z" fill="#03123D"/>
</svg>
