<svg width="32" height="32" viewBox="0 0 32 32" fill="none" xmlns="http://www.w3.org/2000/svg">
<path fill-rule="evenodd" clip-rule="evenodd" d="M11.8339 8C12.3873 8.00002 12.927 8.05369 13.4483 8.15586C8.85062 12.0011 8.85054 19.9991 13.4482 23.8442C12.927 23.9463 12.3872 24 11.8339 24C9.11054 24 7.2083 22.9824 5.96372 21.5586C4.68497 20.0955 3.99984 18.0827 3.99984 16C3.99984 13.9173 4.68497 11.9045 5.96372 10.4414C7.2083 9.01758 9.11054 8 11.8339 8ZM15.7462 6.76716C14.6941 6.33527 13.5525 6.0723 12.3564 6.0127L11.8339 6C-1.07281 6 -1.27487 25.3796 11.2284 25.9854L11.8339 26C13.2202 26 14.5417 25.727 15.7459 25.2327C16.7699 25.6574 17.9307 25.9225 19.2284 25.9854L19.8339 26C25.4485 25.9998 30 21.5227 30 16C30 10.6496 25.7282 6.28035 20.3564 6.0127L19.8339 6C18.2894 6 16.9268 6.27751 15.7462 6.76716ZM22 16C22 12.8148 20.4861 9.97737 18.1274 8.14598C18.6563 8.05094 19.2246 8 19.8339 8C24.3752 8.00019 28 11.6128 28 16C28 20.3872 24.3752 23.9998 19.8339 24C19.2245 24 18.6562 23.949 18.1272 23.854C20.486 22.0227 22 19.1853 22 16Z" fill="#03123D"/>
</svg>
