<svg width="16" height="16" viewBox="0 0 16 16" fill="none" xmlns="http://www.w3.org/2000/svg">
<path d="M9 8C9 8.55228 8.55228 9 8 9C7.44772 9 7 8.55228 7 8C7 7.44772 7.44772 7 8 7C8.55228 7 9 7.44772 9 8Z" fill="#03123D"/>
<path d="M15 3.5C15 4.88071 13.8807 6 12.5 6C11.1193 6 10 4.88071 10 3.5C10 2.11929 11.1193 1 12.5 1C13.8807 1 15 2.11929 15 3.5Z" fill="#03123D"/>
<path d="M4 10C4 10.5678 4.27972 11.0567 4.74414 11.418C5.21406 11.7835 5.85493 12 6.5 12C7.14507 12 7.78594 11.7835 8.25586 11.418C8.72028 11.0567 9 10.5678 9 10H10C10 10.9321 9.52964 11.6933 8.86914 12.207C8.21407 12.7165 7.35487 13 6.5 13C5.64513 13 4.78593 12.7165 4.13086 12.207C3.47036 11.6933 3 10.9321 3 10H4Z" fill="#03123D"/>
<path d="M6 7.5V8.5H4V7.5H6Z" fill="#03123D"/>
<path d="M11 9.5C11 7.01562 8.98529 5 6.5 5C4.01471 5 2 7.01562 2 9.5C2 11.9844 4.01471 14 6.5 14C8.98529 14 11 11.9844 11 9.5ZM12 9.5C12 12.5371 9.53754 15 6.5 15C3.46246 15 1 12.5371 1 9.5C1 6.46289 3.46246 4 6.5 4C9.53754 4 12 6.46289 12 9.5Z" fill="#03123D"/>
</svg>
