<svg width="20" height="20" viewBox="0 0 20 20" fill="none" xmlns="http://www.w3.org/2000/svg">
<path d="M17 17C17.5177 17 17.9438 16.6074 17.9951 16.1016L18 16V4C18 3.44727 17.5523 3 17 3H3L2.89746 3.00391C2.39331 3.05664 2 3.48242 2 4V16L2.00488 16.1016C2.0528 16.5723 2.42706 16.9473 2.89746 16.9961L3 17H17ZM7 16V4H17V9.5H11.207L13.4785 7.22852C13.5521 7.1543 13.598 7.06445 13.6161 6.96875C13.6461 6.8125 13.6002 6.64258 13.4785 6.52148C13.2833 6.32617 12.9667 6.32617 12.7715 6.52148L9.29297 10L12.7715 13.4785C12.8752 13.582 13.0131 13.6309 13.1489 13.625C13.2688 13.6191 13.387 13.5703 13.4785 13.4785C13.5462 13.4102 13.5905 13.3281 13.6112 13.2422C13.6503 13.0781 13.6061 12.8984 13.4785 12.7715L11.207 10.5H17V16H7Z" fill="#03123D"/>
</svg>
