<svg width="24" height="24" viewBox="0 0 24 24" fill="none" xmlns="http://www.w3.org/2000/svg">
<path fill-rule="evenodd" clip-rule="evenodd" d="M2.25 7.96204C2.66421 7.96204 3 8.29783 3 8.71204C3 14.1501 7.08081 18.462 12 18.462C16.9192 18.462 21 14.1501 21 8.71204C21 8.29783 21.3358 7.96204 21.75 7.96204C22.1642 7.96204 22.5 8.29783 22.5 8.71204C22.5 14.8719 17.8504 19.962 12 19.962C6.14964 19.962 1.5 14.8719 1.5 8.71204C1.5 8.29783 1.83579 7.96204 2.25 7.96204Z" fill="#03123D"/>
<path fill-rule="evenodd" clip-rule="evenodd" d="M5.47126 11.4237C5.59992 11.9745 5.79933 12.5182 6.07329 13.0427C7.82648 16.3992 11.9687 17.699 15.3253 15.9458C18.6818 14.1927 19.9816 10.0504 18.2284 6.69384C17.9545 6.16933 17.6222 5.69504 17.2437 5.27478L5.47126 11.4237Z" fill="#03123D"/>
</svg>
