<svg width="24" height="24" viewBox="0 0 24 24" fill="none" xmlns="http://www.w3.org/2000/svg">
<path fill-rule="evenodd" clip-rule="evenodd" d="M19.5 12C19.5 8.60467 17.2438 5.73631 14.1489 4.81237C16.1793 7.07826 17.25 9.50724 17.25 12C17.25 14.4928 16.1793 16.9217 14.1489 19.1876C17.2438 18.2637 19.5 15.3953 19.5 12ZM9.724 4.85157C10.3572 4.65014 11.0269 4.53051 11.7206 4.50511C14.4727 6.98354 15.75 9.53873 15.75 12C15.75 14.4613 14.4727 17.0165 11.7206 19.4949C11.0269 19.4695 10.3572 19.3499 9.724 19.1484C11.8332 16.9941 12.9375 14.5253 12.9375 12C12.9375 9.47475 11.8332 7.00586 9.724 4.85157ZM21 12C21 16.9706 16.9706 21 12 21C7.02944 21 3 16.9706 3 12C3 7.02944 7.02944 3 12 3C16.9706 3 21 7.02944 21 12ZM6.7734 17.3789C7.21552 17.8086 7.71044 18.1842 8.24749 18.4952C10.4146 16.4615 11.4375 14.1985 11.4375 12C11.4375 9.80152 10.4146 7.53854 8.24749 5.50482C7.71044 5.81576 7.21552 6.19141 6.7734 6.62109C7.83734 8.77137 8.4375 10.3609 8.4375 12C8.4375 13.6391 7.83734 15.2286 6.7734 17.3789ZM6.9375 12C6.9375 13.1439 6.56603 14.3284 5.72336 16.1069C4.94985 14.9271 4.5 13.5161 4.5 12C4.5 10.4839 4.94985 9.07287 5.72336 7.8931C6.56603 9.67157 6.9375 10.8561 6.9375 12Z" fill="#03123D"/>
</svg>
