<svg width="16" height="16" viewBox="0 0 16 16" fill="none" xmlns="http://www.w3.org/2000/svg">
<path fill-rule="evenodd" clip-rule="evenodd" d="M8 9C8.55228 9 9 8.55228 9 8C9 7.44772 8.55228 7 8 7C7.44772 7 7 7.44772 7 8C7 8.55228 7.44772 9 8 9Z" fill="#03123D"/>
<path d="M9 8C9 8.55228 8.55228 9 8 9C7.44772 9 7 8.55228 7 8C7 7.44772 7.44772 7 8 7C8.55228 7 9 7.44772 9 8Z" fill="white"/>
<path fill-rule="evenodd" clip-rule="evenodd" d="M15 8C15 11.866 11.866 15 8 15C4.13401 15 1 11.866 1 8C1 4.13401 4.13401 1 8 1C11.866 1 15 4.13401 15 8ZM3.63987 3.87817C2.62334 4.9531 2 6.40376 2 8C2 9.59624 2.62334 11.0469 3.63987 12.1218C4.45338 9.74081 4.45337 6.25919 3.63987 3.87817ZM8 14C9.59624 14 11.0469 13.3767 12.1218 12.3601C9.74081 11.5466 6.25919 11.5466 3.87817 12.3601C4.9531 13.3767 6.40376 14 8 14ZM8 9C8.55228 9 9 8.55228 9 8C9 7.44772 8.55228 7 8 7C7.44772 7 7 7.44772 7 8C7 8.55228 7.44772 9 8 9ZM12.3601 12.1218C11.5466 9.74081 11.5466 6.25919 12.3601 3.87817C13.3767 4.9531 14 6.40376 14 8C14 9.59624 13.3767 11.0469 12.3601 12.1218ZM8 2C6.40376 2 4.9531 2.62334 3.87817 3.63987C6.25919 4.45337 9.74081 4.45337 12.1218 3.63987C11.0469 2.62334 9.59624 2 8 2Z" fill="#03123D"/>
</svg>
