<svg width="24" height="24" viewBox="0 0 24 24" fill="none" xmlns="http://www.w3.org/2000/svg">
<path d="M16.0987 9C15.7507 8.39856 15.2 7.92912 14.54 7.68517C14.8549 7.18053 15 6.58973 15 6V3.75C15 3.33579 14.6642 3 14.25 3C13.8358 3 13.5 3.33579 13.5 3.75V6C13.5 6.44836 13.3604 6.8198 13.1328 7.07031C12.9155 7.30934 12.563 7.5 12 7.5C11.437 7.5 11.0845 7.30934 10.8672 7.07031C10.6396 6.8198 10.5 6.44836 10.5 6V3.75C10.5 3.33579 10.1642 3 9.75 3C9.33579 3 9 3.33579 9 3.75V6C9 6.58973 9.14511 7.18053 9.45998 7.68517C8.79997 7.92912 8.24926 8.39856 7.90135 9H6.75C6.33579 9 6 8.66421 6 8.25V6.75C6 6.33579 5.66421 6 5.25 6C4.83579 6 4.5 6.33579 4.5 6.75V8.25C4.5 9.49264 5.50736 10.5 6.75 10.5H7.5V12H4.5C4.08579 12 3.75 12.3358 3.75 12.75C3.75 13.1642 4.08579 13.5 4.5 13.5H7.5V15H6.75C5.50736 15 4.5 16.0074 4.5 17.25V18.75C4.5 19.1642 4.83579 19.5 5.25 19.5C5.66421 19.5 6 19.1642 6 18.75V17.25C6 16.8358 6.33579 16.5 6.75 16.5H7.5C7.5 18.9853 9.51472 21 12 21C14.4853 21 16.5 18.9853 16.5 16.5H17.25C17.6642 16.5 18 16.8358 18 17.25V18.75C18 19.1642 18.3358 19.5 18.75 19.5C19.1642 19.5 19.5 19.1642 19.5 18.75V17.25C19.5 16.0074 18.4926 15 17.25 15H16.5V13.5H18.75C19.1642 13.5 19.5 13.1642 19.5 12.75C19.5 12.3358 19.1642 12 18.75 12H16.5V10.5H17.25C18.4926 10.5 19.5 9.49264 19.5 8.25V6.75C19.5 6.33579 19.1642 6 18.75 6C18.3358 6 18 6.33579 18 6.75V8.25C18 8.66421 17.6642 9 17.25 9H16.0987Z" fill="#03123D"/>
</svg>
