<svg width="24" height="24" viewBox="0 0 24 24" fill="none" xmlns="http://www.w3.org/2000/svg">
<path d="M10.535 8.78775C10.1253 9.4328 9.56825 10.1157 8.92421 10.784C8.83905 10.5928 8.77118 10.4004 8.71667 10.2096C8.45766 9.30297 8.49139 8.44674 8.51883 7.75021C8.52219 7.66495 8.52546 7.5821 8.52808 7.50183H11.1578C11.048 7.87071 10.8426 8.30358 10.535 8.78775Z" fill="#03123D"/>
<path d="M15.4998 11.2306L16.3115 13.5034H14.6881L15.4998 11.2306Z" fill="#03123D"/>
<path fill-rule="evenodd" clip-rule="evenodd" d="M21.9998 12.0004C21.9998 17.525 17.5211 22.0037 11.9965 22.0037C6.47179 22.0037 1.99316 17.525 1.99316 12.0004C1.99316 6.4757 6.47179 1.99707 11.9965 1.99707C17.5211 1.99707 21.9998 6.4757 21.9998 12.0004ZM9.75214 4.50098C10.1665 4.50098 10.5023 4.83684 10.5023 5.25116V6.00146H13.5031C13.9174 6.00146 14.2533 6.33733 14.2533 6.75165C14.2533 7.16596 13.9174 7.50183 13.5031 7.50183H12.6993C12.5713 8.19944 12.2317 8.91501 11.8015 9.59226C11.2806 10.4121 10.5821 11.2455 9.80962 12.0245L9.80831 12.0258C10.2485 12.4383 10.84 12.8074 11.6376 13.0945C12.0274 13.2349 12.2297 13.6647 12.0893 14.0545C11.949 14.4443 11.5192 14.6466 11.1294 14.5062C10.092 14.1328 9.30506 13.6294 8.71209 13.0537C7.42307 14.1798 6.00983 15.1464 4.80652 15.6856C4.42843 15.855 3.98458 15.6858 3.81516 15.3077C3.64574 14.9297 3.81491 14.4858 4.193 14.3164C5.25098 13.8423 6.57036 12.9418 7.79179 11.8652C7.56158 11.4598 7.39366 11.0405 7.27402 10.6217C6.93944 9.45058 6.99135 8.26172 7.02127 7.5766L7.02452 7.50183H6.00128C5.58697 7.50183 5.2511 7.16596 5.2511 6.75165C5.2511 6.33733 5.58697 6.00146 6.00128 6.00146H9.00195V5.25116C9.00195 4.83684 9.33782 4.50098 9.75214 4.50098ZM15.4998 8.25C15.8168 8.25 16.0996 8.4493 16.2063 8.74787L19.2063 17.1479C19.3456 17.538 19.1423 17.9673 18.7521 18.1067C18.3619 18.246 17.9326 18.0427 17.7933 17.6525L16.8473 15.0038H14.1998C14.184 15.0038 14.1683 15.0033 14.1527 15.0023L13.2063 17.6525C13.0669 18.0427 12.6376 18.246 12.2475 18.1067C11.8573 17.9673 11.6539 17.538 11.7933 17.1479L14.7933 8.74787C14.8999 8.4493 15.1827 8.25 15.4998 8.25Z" fill="#03123D"/>
</svg>
