<svg width="16" height="16" viewBox="0 0 16 16" fill="none" xmlns="http://www.w3.org/2000/svg">
<path fill-rule="evenodd" clip-rule="evenodd" d="M14 13.998V2H2V13.998H14ZM11.998 5.99805H13V9.99805H11.998V8.99805H11V6.99609H11.998V5.99805ZM11 12.998H13V10.998H11.998V11.9961H11V12.998ZM6 12.998V11.9961H6.99805V10.998L9 10.998V11.9961H10V12.998H6ZM3 10.998V12.998H5V11.9961H4V10.998H3ZM4 9.99805H3V5.99805H4V6.99609H5V8.99805H4V9.99805ZM6 8.99805H6.99805V9.99805L9 9.99805V8.99805H10V6.99609H9V5.99805H6.99805V6.99609H6V8.99805ZM13 3V4.99805H11.998V3.99805H11V3H13ZM10 3H6V3.99805H6.99805V4.99805H9V3.99805H10V3ZM4 4.99805H3V3H5V3.99805H4V4.99805Z" fill="#03123D"/>
</svg>
