<svg width="24" height="24" viewBox="0 0 24 24" fill="none" xmlns="http://www.w3.org/2000/svg">
<path d="M15 3H21V9L18.5303 6.53027L15.5303 9.53027L15.4736 9.58203C15.1791 9.82234 14.7443 9.80488 14.4697 9.53027C14.1951 9.25567 14.1777 8.82095 14.418 8.52637L14.4697 8.46973L17.4697 5.46973L15 3Z" fill="#03123D"/>
<path d="M17.4697 18.5303L14.4697 15.5303L14.418 15.4736C14.1777 15.1791 14.1951 14.7443 14.4697 14.4697C14.7443 14.1951 15.1791 14.1777 15.4736 14.418L15.5303 14.4697L18.5303 17.4697L21 15V21H15L17.4697 18.5303Z" fill="#03123D"/>
<path d="M5.46973 17.4697L8.46973 14.4697L8.52637 14.418C8.82095 14.1777 9.25567 14.1951 9.53027 14.4697C9.80488 14.7443 9.82234 15.1791 9.58203 15.4736L9.53027 15.5303L6.53027 18.5303L9 21H3V15L5.46973 17.4697Z" fill="#03123D"/>
<path d="M3 3H9L6.53027 5.46973L9.53027 8.46973L9.58203 8.52637C9.82234 8.82095 9.80488 9.25567 9.53027 9.53027C9.25567 9.80488 8.82095 9.82234 8.52637 9.58203L8.46973 9.53027L5.46973 6.53027L3 9V3Z" fill="#03123D"/>
</svg>
