<svg width="64" height="64" viewBox="0 0 64 64" fill="none" xmlns="http://www.w3.org/2000/svg">
<path d="M42.4 41.4L56 56H28L42.4 41.4Z" fill="#03123D"/>
<path d="M52 8H43.88C37.96 8 32.45 12.73 31.05 19.01L29.0909 28H28H20V32H28.2192L25.65 43.79C24.73 47.76 22.18 52 17.76 52H8C6.9 52 6 52.9 6 54C6 55.1 6.9 56 8 56H17.76C23.34 56 27.96 51.56 29.55 44.67L32.3099 32L42.4 41.4L56 28H40H33.1812L34.95 19.88C35.95 15.39 39.79 12 43.88 12H52C53.1 12 54 11.1 54 10C54 8.9 53.1 8 52 8Z" fill="#03123D"/>
</svg>
