<svg width="20" height="20" viewBox="0 0 20 20" fill="none" xmlns="http://www.w3.org/2000/svg">
<path fill-rule="evenodd" clip-rule="evenodd" d="M11.7786 2.99838L11.8764 3.00424C11.8442 3.00112 11.8116 2.99838 11.7786 2.99838ZM9 5.50033L9.00317 6.10971C9.00161 5.91291 9 5.71011 9 5.50033Z" fill="#03123D"/>
<path fill-rule="evenodd" clip-rule="evenodd" d="M8.00214 6.11557L8 5.50033C8 5.71751 8.00109 5.92202 8.00214 6.11557Z" fill="white"/>
<path fill-rule="evenodd" clip-rule="evenodd" d="M11.7786 2.99838L11.8764 3.00424C11.8442 3.00112 11.8116 2.99838 11.7786 2.99838ZM12.2442 3.11249C12.2419 3.11125 12.2465 3.11377 12.2442 3.11249C12.2411 3.11073 12.2309 3.10515 12.2277 3.10352C12.2259 3.10259 12.2188 3.09959 12.2168 3.09882V3.09882C12.226 3.10324 12.2352 3.1078 12.2442 3.11249ZM12.17 3.07778V3.07778ZM8.00214 6.11557L8 5.50033C8 5.71751 8.00109 5.92202 8.00214 6.11557Z" fill="#03123D"/>
<path fill-rule="evenodd" clip-rule="evenodd" d="M11.8764 3.00424L11.7786 2.99838L8.22156 2.99805C7.67267 2.99805 7.22467 3.43945 7.2016 3.98828C7.14349 5.37305 6.96948 7.89062 6.45453 9.41602C5.71594 11.6035 3.5 14.5 3.5 14.5H7.5C7.5 15.8809 8.61926 17 10 17C11.3807 17 12.5 15.8809 12.5 14.5H16.5C16.5 14.5 14.2841 11.6035 13.5455 9.41602C13.0305 7.89062 12.8566 5.37305 12.7986 3.98828C12.7859 3.6875 12.6455 3.4183 12.4307 3.23666C12.3839 3.1977 12.3337 3.16263 12.2805 3.13223C12.2685 3.12541 12.2564 3.11883 12.2442 3.11249C12.2352 3.1078 12.226 3.10324 12.2168 3.09882C12.2045 3.09291 12.1919 3.08777 12.1793 3.08236L12.17 3.07778C12.1452 3.06741 12.1199 3.05803 12.0941 3.04971C12.0733 3.04296 12.0522 3.03691 12.0308 3.03158C11.9964 3.02219 11.9612 3.01463 11.9255 3.00956C11.9093 3.00725 11.8929 3.00546 11.8764 3.00424ZM10 16.0003C9.17157 16.0003 8.5 15.3281 8.5 14.5H11.5C11.5 15.3281 10.8284 16.0003 10 16.0003ZM8 5.50033C8 5.22299 8.22388 5.00033 8.5 5.00033C8.77612 5.00033 9 5.22299 9 5.50033L9.00317 6.10971C9.01422 7.49838 9.02289 8.58822 8.44629 9.72494C8.32159 9.97104 8.02069 10.0706 7.77441 9.94564C7.68069 9.89848 7.6083 9.82558 7.56143 9.73935C7.55197 9.72203 7.54366 9.70414 7.53632 9.68588C7.5163 9.6362 7.50425 9.58333 7.50087 9.52951C7.49548 9.44367 7.51215 9.3554 7.55371 9.27377C8.01428 8.36361 8.00983 7.53549 8.00214 6.11557C8.00109 5.92202 8 5.71751 8 5.50033Z" fill="#03123D"/>
<path d="M13.8846 2C13.011 2 12.2281 2.38837 11.6991 3.00188C11.2634 3.50715 11 4.16512 11 4.88462C11 6.22392 11.9127 7.35004 13.1501 7.67488C13.3846 7.73644 13.6308 7.76923 13.8846 7.76923C15.4777 7.76923 16.7692 6.47774 16.7692 4.88462C16.7692 3.29149 15.4777 2 13.8846 2Z" fill="#FF8080"/>
</svg>
