<svg width="48" height="48" viewBox="0 0 48 48" fill="none" xmlns="http://www.w3.org/2000/svg">
<path d="M42 6V42H6V6H42ZM9 39H39V9H9V39Z" fill="#03123D"/>
<path fill-rule="evenodd" clip-rule="evenodd" d="M39 9C34.5 16.5 34.5 31.5 39 39C31.5 34.5 16.5 34.5 9 39C13.5 31.5 13.5 16.5 9 9C16.5 13.5 31.5 13.5 39 9ZM24 21.999C22.8954 21.999 21.999 22.8954 21.999 24C21.9996 25.1041 22.8958 25.998 24 25.998C25.1038 25.9975 25.9975 25.1038 25.998 24C25.998 22.8958 25.1041 21.9996 24 21.999Z" fill="#03123D"/>
</svg>
