<svg width="16" height="16" viewBox="0 0 16 16" fill="none" xmlns="http://www.w3.org/2000/svg">
<path d="M2 3H6V5H2V3Z" fill="#03123D"/>
<path d="M2 9H6V11H2V9Z" fill="#03123D"/>
<path d="M14 6H10V8H14V6Z" fill="#03123D"/>
<path d="M14 12H10V14H14V12Z" fill="#03123D"/>
<path d="M7 3H11V5H7V3Z" fill="#03123D"/>
<path d="M7 9H11V11H7V9Z" fill="#03123D"/>
<path d="M9 6H5V8H9V6Z" fill="#03123D"/>
<path d="M9 12H5V14H9V12Z" fill="#03123D"/>
<path d="M12 3H14V5H12V3Z" fill="#03123D"/>
<path d="M12 9H14V11H12V9Z" fill="#03123D"/>
<path d="M4 6H2V8H4V6Z" fill="#03123D"/>
<path d="M4 12H2V14H4V12Z" fill="#03123D"/>
</svg>
