<svg width="64" height="64" viewBox="0 0 64 64" fill="none" xmlns="http://www.w3.org/2000/svg">
<path fill-rule="evenodd" clip-rule="evenodd" d="M45.8717 16H56C58.2091 16 60 17.7909 60 20V44C60 46.2091 58.2091 48 56 48H51.4959C51.825 49.2785 52 50.6188 52 52V60H12V52C12 50.6188 12.175 49.2785 12.5041 48H8C5.79086 48 4 46.2091 4 44V20C4 17.7909 5.79086 16 8 16H18.1197C19.0011 8.7789 24.6584 4 32 4C39.318 4 44.9624 9.02057 45.8717 16ZM49.8595 44C47.093 39.2176 41.9223 36 36 36H28C22.0777 36 16.907 39.2176 14.1405 44H8V20H18.1283C19.0376 26.9794 24.682 32 32 32C39.318 32 44.9624 26.9794 45.8717 20H56V44H49.8595ZM28 26L40 18L28 10V26Z" fill="#03123D"/>
</svg>
