<svg width="64" height="64" viewBox="0 0 64 64" fill="none" xmlns="http://www.w3.org/2000/svg">
<path fill-rule="evenodd" clip-rule="evenodd" d="M55 27C55 17.6113 47.3889 10 38 10C32.7954 10 28.1375 12.3398 25.019 16.0234L25.4724 16.0059L26 16C37.5979 16 47 25.4023 47 37C47 38.6328 46.8137 40.2227 46.4609 41.748C51.5637 38.8145 55 33.3086 55 27ZM44.481 46.9805C52.9072 44.25 59 36.3359 59 27C59 15.4023 49.5979 6 38 6C30.0146 6 23.0703 10.457 19.519 17.0195C11.0928 19.75 5 27.6641 5 37C5 48.5977 14.4021 58 26 58C33.9854 58 40.9294 53.543 44.481 46.9805Z" fill="#03123D"/>
</svg>
