<svg width="20" height="20" viewBox="0 0 20 20" fill="none" xmlns="http://www.w3.org/2000/svg">
<path d="M1.01172 9.53711C1.25264 4.78167 5.18469 1 10 1L10.4629 1.01172C15.065 1.24488 18.7551 4.93498 18.9883 9.53711L19 10C19 14.9706 14.9706 19 10 19C5.02944 19 1 14.9706 1 10L1.01172 9.53711ZM2 10C2 12.9927 3.64328 15.6016 6.07675 16.9736C6.631 13.2006 10 10 10 10C10 10 13.3672 13.2007 13.9228 16.9738C16.3565 15.6019 18 12.9929 18 10C18 7.01318 16.3632 4.40866 13.9376 3.03453C13.4302 7.25428 10 10 10 10C10 10 6.56798 7.25438 6.062 3.03476C3.63665 4.40896 2 7.01335 2 10Z" fill="#03123D"/>
</svg>
