<svg width="20" height="20" viewBox="0 0 20 20" fill="none" xmlns="http://www.w3.org/2000/svg">
<path fill-rule="evenodd" clip-rule="evenodd" d="M5 3L7.7899 8.5798C6.42321 9.35241 5.5 10.819 5.5 12.5C5.5 14.984 7.516 17 10 17C12.484 17 14.5 14.984 14.5 12.5C14.5 10.819 13.5768 9.35241 12.2101 8.5798L15 3H11L10 5L9 3H5ZM6.70085 11.3295C7.18285 9.97264 8.47873 9 10 9L9.9956 9.01306L9.21476 11.3295H6.70085ZM10 9L10.7677 11.3295H13.2992C12.8171 9.97264 11.5213 9 10 9ZM10.559 6.11803L11.441 7.88197L13.382 4H11.618L10.559 6.11803ZM8.6251 13.094L6.65734 11.4601C6.55509 11.7887 6.5 12.138 6.5 12.5C6.5 13.6393 7.0455 14.6521 7.88933 15.2914L8.6251 13.094ZM11.3632 13.1115L13.3428 11.4605C13.445 11.789 13.5 12.1381 13.5 12.5C13.5 13.6466 12.9474 14.6652 12.0943 15.3037L11.3632 13.1115ZM11.7239 15.5461L9.99124 14.2413L8.25965 15.5367C8.77239 15.8314 9.36666 16 10 16C10.6266 16 11.2149 15.835 11.7239 15.5461Z" fill="#03123D"/>
</svg>
