<svg width="20" height="20" viewBox="0 0 20 20" fill="none" xmlns="http://www.w3.org/2000/svg">
<path d="M15.684 9.99981C16.3184 10 16.7552 10.6362 16.5278 11.2283L14.5307 16.4197C14.3964 16.769 14.0611 16.9998 13.6869 16.9998H6.31389C5.9397 16.9998 5.60447 16.769 5.47014 16.4197L3.47307 11.2283C3.24568 10.6362 3.68255 10.0001 4.31682 9.99981H15.684ZM8.0717 3.24298C8.21372 3.00628 8.5205 2.92926 8.75725 3.0711C8.99385 3.21315 9.07094 3.51994 8.92913 3.75665L5.92913 8.75665L5.86858 8.83868C5.71145 9.00968 5.45057 9.05246 5.24358 8.92852C5.0363 8.80416 4.95133 8.55322 5.02874 8.3338L5.0717 8.24298L8.0717 3.24298ZM11.2436 3.0711C11.4803 2.92926 11.7871 3.00628 11.9291 3.24298L14.9291 8.24298L14.9721 8.3338C15.0495 8.55322 14.9645 8.80416 14.7573 8.92852C14.5503 9.05246 14.2894 9.00968 14.1323 8.83868L14.0717 8.75665L11.0717 3.75665C10.9299 3.51994 11.007 3.21315 11.2436 3.0711Z" fill="#03123D"/>
</svg>
