<svg width="24" height="24" viewBox="0 0 24 24" fill="none" xmlns="http://www.w3.org/2000/svg">
<path d="M7.5002 10.4992H10.5002V11.9992H7.5002V10.4992Z" fill="#03123D"/>
<path d="M13.5002 10.4992H16.5002V11.9992H13.5002V10.4992Z" fill="#03123D"/>
<path d="M12 22.7988C17.9647 22.7988 22.7998 17.9637 22.7998 11.999C22.7997 6.03444 17.9646 1.19922 12 1.19922C6.03548 1.19932 1.2003 6.0345 1.2002 11.999C1.2002 17.9636 6.03541 22.7987 12 22.7988ZM18.0002 19.1046C16.3807 20.4735 14.2867 21.2988 12 21.2988C9.71348 21.2988 7.61969 20.4736 6.0002 19.1048V10.4992H2.82053C3.53774 6.07625 7.3745 2.69931 12 2.69922C16.6256 2.69922 20.4623 6.07619 21.1795 10.4992H18.0002V19.1046Z" fill="#03123D"/>
</svg>
