<svg width="64" height="64" viewBox="0 0 64 64" fill="none" xmlns="http://www.w3.org/2000/svg">
<path d="M24.08 34.0217C22.96 34.0217 22.08 33.141 22.08 32.02C22.08 30.8991 22.96 30.0184 24.08 30.0184H30.24V12.4837C30.24 9.4412 27.56 8 25.44 8C15.72 8.1201 8 23.9733 8 36.3036C8 47.9933 16.08 56.0801 25.8 55.96C27.64 55.96 30.2 54.9191 30.2 52.437V33.9817H24.04L24.08 34.0217Z" fill="#03123D"/>
<path d="M39.9256 34.0217C41.0456 34.0217 41.9256 33.141 41.9256 32.02C41.9256 30.8991 41.0456 30.0183 39.9256 30.0183H33.7656V12.4837C33.7656 9.4412 36.4456 8 38.5656 8C48.2856 8.1201 56.0056 23.8932 56.0056 36.3036C56.0056 47.9133 47.9256 56.0801 38.2056 55.96C36.3656 55.96 33.8056 54.9191 33.8056 52.437V33.9817H39.9656L39.9256 34.0217Z" fill="#03123D"/>
</svg>
