<svg width="64" height="64" viewBox="0 0 64 64" fill="none" xmlns="http://www.w3.org/2000/svg">
<path d="M35.625 43.1613C35.0229 44.0036 33.8878 44.2385 33.0078 43.7355L32.835 43.6252L16.5576 31.9933L32.8359 20.3713C33.7349 19.7296 34.9842 19.9382 35.626 20.8371C36.2678 21.736 36.0591 22.9853 35.1602 23.6271L26.2374 29.9982L43.9976 29.9982L44.2017 30.009C45.2102 30.1113 45.9976 30.9627 45.9976 31.9982C45.9976 33.0337 45.2102 33.8851 44.2017 33.9875L43.9976 33.9982L26.2432 33.9982L35.1611 40.3713L35.3213 40.4982C36.0823 41.1679 36.2271 42.3188 35.625 43.1613Z" fill="#03123D"/>
</svg>
