<svg width="24" height="24" viewBox="0 0 24 24" fill="none" xmlns="http://www.w3.org/2000/svg">
<path d="M15.125 6.49979H6.875C6.11561 6.49979 5.5 7.1266 5.5 7.89979V19.0998C5.5 19.873 6.11561 20.4998 6.875 20.4998H15.125C15.8844 20.4998 16.5 19.873 16.5 19.0998V7.89979C16.5 7.1266 15.8844 6.49979 15.125 6.49979Z" fill="#03123D"/>
<path d="M9.90025 16.9996C8.58602 16.9996 7.51465 15.6514 7.50036 13.9749C7.48607 12.2984 8.54317 10.0169 9.85739 9.99959C10.1431 9.99959 10.5002 10.2416 10.5002 10.7255V16.4119C10.5002 16.8095 10.1574 16.9823 9.90025 16.9823V16.9996Z" fill="white"/>
<path d="M12.1002 16.9996C13.4144 16.9996 14.4858 15.6514 14.5001 13.9749C14.5144 12.2984 13.4573 10.0169 12.143 9.99959C11.8573 9.99959 11.5002 10.2416 11.5002 10.7255V16.4119C11.5002 16.8095 11.8573 16.9823 12.1002 16.9823V16.9996Z" fill="white"/>
<path fill-rule="evenodd" clip-rule="evenodd" d="M7.25003 4.25C7.25003 3.83579 7.58581 3.5 8.00003 3.5H16.55C18.2069 3.5 19.55 4.84314 19.55 6.5V17.45C19.55 17.8642 19.2142 18.2 18.8 18.2C18.3858 18.2 18.05 17.8642 18.05 17.45V6.5C18.05 5.67157 17.3785 5 16.55 5H8.00003C7.58581 5 7.25003 4.66421 7.25003 4.25Z" fill="#03123D"/>
</svg>
