<svg width="48" height="48" viewBox="0 0 48 48" fill="none" xmlns="http://www.w3.org/2000/svg">
<path d="M39 24H9C7.35 24 6 25.35 6 27V42L12 36H39C40.65 36 42 34.65 42 33V27C42 25.35 40.65 24 39 24Z" fill="#03123D"/>
<path d="M9 21H16.5C20.64 21 24 17.64 24 13.5C24 9.36 20.64 6 16.5 6H9C7.35 6 6 7.35 6 9V18C6 19.65 7.35 21 9 21ZM9 9H16.5C18.99 9 21 11.01 21 13.5C21 15.99 18.99 18 16.5 18H9V9Z" fill="#03123D"/>
<path d="M30 15H34.5C35.34 15 36 14.34 36 13.5C36 12.66 35.34 12 34.5 12H30V9H40.5C41.34 9 42 8.34 42 7.5C42 6.66 41.34 6 40.5 6H27V21H30V15Z" fill="#03123D"/>
</svg>
