<svg width="64" height="64" viewBox="0 0 64 64" fill="none" xmlns="http://www.w3.org/2000/svg">
<path fill-rule="evenodd" clip-rule="evenodd" d="M56 32C56 45.2548 45.2548 56 32 56C18.7452 56 8 45.2548 8 32C8 18.7452 18.7452 8 32 8C45.2548 8 56 18.7452 56 32ZM40 13.6642C38.73 13.1093 37.3912 12.6825 36 12.4001V32H32V12C30.6302 12 29.2925 12.1378 28 12.4001V32H24V13.6642C22.5713 14.2885 21.2315 15.0748 20 16V32H16V19.998C13.4884 23.341 12 27.4967 12 32C12 38.5433 15.1422 44.3527 20 48.0015V32H24V50.3359C25.27 50.8907 26.6088 51.3176 28 51.6V32H32V52C33.3699 52 34.7076 51.8623 36 51.6V32H40V50.3358C41.428 49.7117 42.7687 48.9247 43.9997 48L44 32H47.9997V44.0024C50.5115 40.6593 52 36.5035 52 32C52 25.4567 48.8578 19.6474 44 15.9986V32H40V13.6642Z" fill="#03123D"/>
</svg>
