<svg width="64" height="64" viewBox="0 0 64 64" fill="none" xmlns="http://www.w3.org/2000/svg">
<path fill-rule="evenodd" clip-rule="evenodd" d="M40 21.9995L34 36.0513L41.6223 50.3031L38 51.9999L26 36.0018L36.4164 20.2225L40 21.9995Z" fill="#03123D"/>
<path d="M20 13.9999L32.0007 23.9996L31.9938 16.0134C43.0095 15.979 51.9863 24.8619 52.0587 35.8862C52.1312 46.934 43.2341 55.9488 32.1863 56.0214C21.1385 56.0939 12.1236 47.1967 12.0511 36.1489C12.0206 31.5143 14.3049 26.4187 17.9487 22.3567C18.6863 21.5345 18.6177 20.27 17.7955 19.5324C16.9733 18.7948 15.7088 18.8634 14.9712 19.6857C10.8518 24.2778 8.01255 30.2949 8.05117 36.1752C8.13823 49.4321 18.9556 60.1083 32.2125 60.0213C45.4694 59.9342 56.1457 49.1168 56.0586 35.8599C55.9718 22.6341 45.2047 11.9768 31.9903 12.0134L31.9834 3.9917L20 13.9999Z" fill="#03123D"/>
</svg>
