<svg width="20" height="20" viewBox="0 0 20 20" fill="none" xmlns="http://www.w3.org/2000/svg">
<path d="M13.0771 12.8286L17.0001 17H8.92321L13.0771 12.8286Z" fill="#03123D"/>
<path d="M10.0522 10L10.0448 10.0338L10.0082 10H10.0522Z" fill="#03123D"/>
<path d="M10.0448 10.0338L10.0522 10H10.0082L10.0448 10.0338Z" fill="#03123D"/>
<path d="M9.24457 9L9.87512 6.10999C10.2751 4.32999 11.8351 2.98999 13.5051 2.98999H16.0051C16.2851 2.98999 16.5051 3.20999 16.5051 3.48999C16.5051 3.76999 16.2851 3.98999 16.0051 3.98999H13.5051C12.2951 3.98999 11.1551 4.98999 10.8551 6.31999L10.2704 9H12.2693H17.0001L13.0771 12.8286L10.0448 10.0338L10.0522 10H10.0082L10.0448 10.0338L9.29512 13.47C8.91512 15.09 7.82512 16.99 5.96512 16.99V17H2.99512C2.71512 17 2.49512 16.78 2.49512 16.5C2.49512 16.22 2.71512 16 2.99512 16H5.96512C7.15512 16 8.00512 14.63 8.31512 13.26L9.02639 10H6.50012V9H8.92321H9.24457Z" fill="#03123D"/>
</svg>
