<svg width="24" height="24" viewBox="0 0 24 24" fill="none" xmlns="http://www.w3.org/2000/svg">
<path d="M9.02422 6.5C9.38457 6.50002 9.73614 6.53125 10.0764 6.59085C6.92269 9.28503 6.92241 14.7149 10.0758 17.4093C9.73569 17.4688 9.38434 17.5 9.02422 17.5C7.08815 17.5 5.74635 16.7916 4.87481 15.8145C3.97899 14.8101 3.49981 13.429 3.49981 12C3.49981 10.571 3.97899 9.1899 4.87481 8.18555C5.74635 7.20843 7.08815 6.5 9.02422 6.5ZM8.59161 18.9902L9.02422 19C10.0135 18.9999 10.9566 18.8092 11.8161 18.4638C12.5472 18.7608 13.3761 18.9463 14.3025 18.9902L14.7352 19C18.6201 18.9998 21.7926 16.0588 21.9871 12.3604L21.9969 12C21.9969 8.25474 18.9452 5.19615 15.1082 5.00879L14.7352 5C13.6327 5 12.66 5.194 11.8171 5.53633C11.066 5.23436 10.2511 5.05048 9.39727 5.00879L9.02422 5C-0.194766 5 -0.339256 18.5663 8.59161 18.9902ZM14.7352 6.5C17.9694 6.50021 20.4969 9.01397 20.4969 12C20.4969 14.986 17.9694 17.4998 14.7352 17.5C14.3409 17.5 13.9713 17.4706 13.6253 17.4156C15.1594 16.2029 16.1691 14.3964 16.2762 12.3604L16.2859 12C16.2859 9.81752 15.2497 7.86821 13.6256 6.58437C13.9715 6.52936 14.341 6.5 14.7352 6.5Z" fill="#03123D"/>
</svg>
