<svg width="16" height="16" viewBox="0 0 16 16" fill="none" xmlns="http://www.w3.org/2000/svg">
<path d="M12.1576 10.3105C11.8276 10.3105 11.5176 10.4005 11.2576 10.5605L9.61749 8.92038C9.68749 8.79037 9.7475 8.66037 9.7875 8.51036H10.8676C10.9376 8.69037 11.0376 8.85038 11.1776 8.99038C11.7176 9.53041 12.5977 9.53041 13.1377 8.99038C13.6777 8.45035 13.6777 7.57031 13.1377 7.03028C12.5977 6.49025 11.7176 6.49025 11.1776 7.03028C11.0376 7.17028 10.9376 7.33029 10.8676 7.5103H9.7875C9.7475 7.36029 9.68749 7.22029 9.60749 7.08028L11.2376 5.45019C11.5076 5.6102 11.8176 5.7002 12.1576 5.7002C13.1777 5.7002 14.0077 4.87016 14.0077 3.8501C14.0077 2.83005 13.1777 2 12.1576 2C11.1376 2 10.3075 2.83005 10.3075 3.8501C10.3075 4.20012 10.4075 4.52014 10.5775 4.80015L8.95745 6.42024C8.80745 6.33024 8.64744 6.27023 8.47743 6.22023V5.14017C8.66744 5.07017 8.83745 4.97016 8.98746 4.82015C9.52749 4.28013 9.52749 3.40008 8.98746 2.86005C8.44743 2.32002 7.56738 2.32002 7.02735 2.86005C6.48732 3.40008 6.48732 4.28013 7.02735 4.82015C7.17736 4.97016 7.35737 5.07017 7.54738 5.14017V6.22023C7.38737 6.26023 7.23736 6.32024 7.09735 6.40024L5.44726 4.75015C5.59727 4.48014 5.69727 4.18012 5.69727 3.8501C5.69727 2.83005 4.86723 2 3.84717 2C2.82712 2 2.00707 2.83005 2.00707 3.8501C2.00707 4.87016 2.83712 5.7002 3.85717 5.7002C4.18719 5.7002 4.48721 5.6102 4.74722 5.46019L6.40731 7.12028C6.33731 7.24029 6.28731 7.3703 6.2473 7.5103H5.13724C5.06724 7.34029 4.96723 7.17028 4.82723 7.03028C4.2872 6.49025 3.40715 6.49025 2.86712 7.03028C2.32709 7.57031 2.32709 8.45035 2.86712 8.99038C3.40715 9.53041 4.2872 9.53041 4.82723 8.99038C4.96723 8.85038 5.06724 8.68037 5.13724 8.51036H6.2373C6.27731 8.67037 6.34731 8.81037 6.42731 8.95038L4.79722 10.5805C4.51721 10.4105 4.19719 10.3105 3.84717 10.3105C2.82712 10.3105 1.99707 11.1405 1.99707 12.1606C1.99707 13.1806 2.82712 14.0107 3.84717 14.0107C4.86723 14.0107 5.69727 13.1806 5.69727 12.1606C5.69727 11.8205 5.59727 11.5105 5.44726 11.2405L7.08735 9.60042C7.22736 9.68042 7.38737 9.75043 7.55738 9.79043V10.8605C7.36737 10.9305 7.18736 11.0305 7.03735 11.1805C6.49732 11.7205 6.49732 12.6006 7.03735 13.1406C7.57738 13.6806 8.45743 13.6806 8.99746 13.1406C9.53749 12.6006 9.53749 11.7205 8.99746 11.1805C8.84745 11.0305 8.66744 10.9305 8.48743 10.8605V9.79043C8.63744 9.75043 8.77744 9.69042 8.90745 9.62042L10.5575 11.2705C10.4075 11.5405 10.3175 11.8405 10.3175 12.1606C10.3175 13.1806 11.1476 14.0107 12.1676 14.0107C13.1877 14.0107 14.0177 13.1806 14.0177 12.1606C14.0177 11.1405 13.1877 10.3105 12.1676 10.3105H12.1576Z" fill="#03123D"/>
</svg>
