<svg width="48" height="48" viewBox="0 0 48 48" fill="none" xmlns="http://www.w3.org/2000/svg">
<path d="M39.5908 32.999C37.1856 37.1571 33.1657 40.2631 28.3877 41.46C29.9502 39.5141 31.2266 36.5631 32.0361 32.999H39.5908ZM15.9629 32.999C16.7721 36.5618 18.0465 39.5132 19.6084 41.459C14.8319 40.2613 10.8127 37.1562 8.4082 32.999H15.9629ZM28.9521 32.999C28.5849 34.4615 28.1378 35.7781 27.6279 36.9111C26.0838 40.3425 24.5694 41 24 41C23.4306 41 21.9162 40.3425 20.3721 36.9111C19.8622 35.778 19.4141 34.4616 19.0469 32.999H28.9521ZM15.4131 17.999C15.1895 19.5806 15.051 21.2468 15.0117 22.9707L15 24C15 26.0901 15.1455 28.1052 15.4131 29.999H7.02441C6.36129 28.1226 6 26.1035 6 24C6 21.8957 6.3618 19.876 7.02539 17.999H15.4131ZM40.9746 17.999C41.6382 19.876 42 21.8957 42 24C42 26.1035 41.6387 28.1226 40.9756 29.999H32.585C32.8084 28.4179 32.949 26.7526 32.9883 25.0293L33 24C33 21.9092 32.8547 19.8934 32.5869 17.999H40.9746ZM29.5527 17.999C29.838 19.8579 30 21.8756 30 24C30 26.1237 29.8378 28.1407 29.5527 29.999H18.4463C18.1613 28.1407 18 26.1237 18 24C18 21.8756 18.1611 19.8578 18.4463 17.999H29.5527ZM19.6084 6.54004C18.046 8.48544 16.7713 11.4365 15.9619 14.999H8.4082C10.8129 10.8425 14.8324 7.73751 19.6084 6.54004ZM28.3877 6.53906C33.1653 7.73578 37.1855 10.8416 39.5908 14.999H32.0361C31.2265 11.4353 29.9503 8.48454 28.3877 6.53906ZM24 7C24.5694 7 26.0838 7.65753 27.6279 11.0889C28.1376 12.2215 28.585 13.5373 28.9521 14.999H19.0469C19.414 13.5372 19.8624 12.2215 20.3721 11.0889C21.9162 7.65753 23.4306 7 24 7Z" fill="#03123D"/>
</svg>
