<svg width="20" height="20" viewBox="0 0 20 20" fill="none" xmlns="http://www.w3.org/2000/svg">
<path d="M15.3896 4.20794C15.6914 3.97548 16.0995 3.93441 16.4414 4.10247C16.7832 4.27074 17 4.61892 17 4.99993V13.9999C17 14.3928 16.7692 14.7493 16.4111 14.9111C16.0531 15.0726 15.6336 15.0096 15.3389 14.7499C14.0257 13.5922 12.4212 12.8967 11.1104 12.4911C10.4609 12.2902 9.89701 12.1644 9.49902 12.0898C9.30078 12.0526 9.14416 12.0285 9.04004 12.0136C9.02583 12.0116 9.01224 12.0094 9 12.0077V13.9999C8.99996 14.8282 8.32823 15.4997 7.5 15.4999C6.6716 15.4999 6.00004 14.8283 6 13.9999V11.9999H4.24902C3.55922 11.9999 3.00007 11.4407 3 10.7509V8.24895C3 7.55911 3.55917 6.99993 4.24902 6.99993H8.90137C8.92185 6.99586 8.94629 6.99109 8.97363 6.98528C9.08131 6.96243 9.2418 6.92675 9.44434 6.87689C9.85062 6.77685 10.425 6.62005 11.0859 6.39642C12.4206 5.94479 14.055 5.23757 15.3896 4.20794ZM7 13.9999C7.00004 14.276 7.22388 14.4999 7.5 14.4999C7.77595 14.4997 7.99996 14.2759 8 13.9999V11.9999H7V13.9999ZM16 4.99993C13.0987 7.23809 9.04261 7.99206 9 7.99993V10.9999C9.04461 11.0047 13.0994 11.4427 16 13.9999V4.99993ZM14.5938 6.91595C14.8407 6.79249 15.1411 6.89275 15.2646 7.13958C15.3881 7.38657 15.288 7.68698 15.041 7.81048L12.6777 8.99212C12.4308 9.11557 12.1303 9.01545 12.0068 8.76849C11.8835 8.52156 11.9836 8.22106 12.2305 8.09759L14.5938 6.91595Z" fill="#03123D"/>
</svg>
