<svg width="20" height="20" viewBox="0 0 20 20" fill="none" xmlns="http://www.w3.org/2000/svg">
<path d="M16.2614 12.5166C16.5037 12.3845 16.8069 12.4735 16.9391 12.7158C17.071 12.9581 16.982 13.2613 16.7399 13.3936L10.2399 16.9395L10.0006 17.0703L9.76136 16.9395L3.26136 13.3936C3.01902 13.2613 2.92999 12.9582 3.06214 12.7158C3.19439 12.4734 3.49748 12.3844 3.73988 12.5166L10.0006 15.9307L16.2614 12.5166Z" fill="#03123D"/>
<path d="M16.2614 9.52441C16.5037 9.39233 16.8069 9.48132 16.9391 9.72363C17.071 9.96591 16.982 10.2691 16.7399 10.4014L10.2399 13.9473L10.0006 14.0781L9.76136 13.9473L3.26136 10.4014C3.01902 10.2691 2.92999 9.96602 3.06214 9.72363C3.19439 9.48126 3.49748 9.3922 3.73988 9.52441L10.0006 12.9385L16.2614 9.52441Z" fill="#03123D"/>
<path d="M16.5573 6.49219C16.9613 6.71011 16.9613 7.28989 16.5573 7.50781L10.0006 11.0381L3.44398 7.50781C3.03944 7.28998 3.03944 6.71002 3.44398 6.49219L10.0006 2.96191L16.5573 6.49219Z" fill="#03123D"/>
</svg>
