<svg width="64" height="64" viewBox="0 0 64 64" fill="none" xmlns="http://www.w3.org/2000/svg">
<path fill-rule="evenodd" clip-rule="evenodd" d="M12.0626 51.9902H12C12 51.9902 19.876 51.9917 28.6383 38.0127C20.3306 51.2668 12.8196 51.9545 12.0626 51.9902Z" fill="#03123D"/>
<path fill-rule="evenodd" clip-rule="evenodd" d="M12.0626 51.9902H12C12 51.9902 19.876 51.9917 28.6383 38.0127C20.3306 51.2668 12.8196 51.9545 12.0626 51.9902Z" fill="#03123D"/>
<path fill-rule="evenodd" clip-rule="evenodd" d="M56 55.9902V8H8V55.9902H56ZM12.0626 51.9902H52L52 12C51.977 12 42.8935 12.0146 33.3895 29.3382C33.3512 29.4081 33.3129 29.4782 33.2745 29.5486C33.0062 30.0416 32.7375 30.5483 32.4688 31.0693L31.5312 32.915C30.8357 34.2634 30.1409 35.5164 29.4502 36.6808C29.4347 36.707 29.4192 36.7331 29.4037 36.7592C29.1497 37.1859 28.8963 37.6008 28.6437 38.0039C28.6419 38.0068 28.6401 38.0098 28.6383 38.0127C20.3306 51.2668 12.8196 51.9545 12.0626 51.9902Z" fill="#03123D"/>
</svg>
