<svg width="20" height="20" viewBox="0 0 20 20" fill="none" xmlns="http://www.w3.org/2000/svg">
<path fill-rule="evenodd" clip-rule="evenodd" d="M17 3V16.9971H3V3H17ZM7.5 4H12.5V5H11V6.5H9V5H7.5V4ZM4 4H6.5V5H5V6.5H4V4ZM6.5 16L4 15.9971L4 13.5H5V15H6.5V16ZM5 12.5H4L4 7.5H5V9H6.5V11H5V12.5ZM12.5 15.9971H7.5V15H9V13.5H11V15H12.5V15.9971ZM11 11V12.5H9V11H7.5V9H9V7.5L11 7.5V9H12.5V11H11ZM15 11H13.5V9H15V7.5H16V12.5H15V11ZM16 4V6.5H15V5H13.5V4H16ZM13.5 15.9971H16V13.5H15V15H13.5V15.9971Z" fill="#03123D"/>
</svg>
