<svg width="24" height="24" viewBox="0 0 24 24" fill="none" xmlns="http://www.w3.org/2000/svg">
<path fill-rule="evenodd" clip-rule="evenodd" d="M16.4996 8.27344C16.4984 8.30664 16.4946 8.3457 16.4891 8.37891L16.4996 8.27344Z" fill="#03123D"/>
<path fill-rule="evenodd" clip-rule="evenodd" d="M15.3766 7.59961C15.3207 7.63086 15.2675 7.67188 15.2197 7.71875C15.2482 7.69141 15.2783 7.66602 15.3099 7.64258C15.3315 7.62695 15.3538 7.61328 15.3766 7.59961Z" fill="#03123D"/>
<path d="M19.6533 19.4922L19.5 19.5H4.5L4.34668 19.4922C3.64069 19.4199 3.07947 18.8594 3.00781 18.1523L3 18V6C3 5.17188 3.67157 4.5 4.5 4.5H19.5C20.3284 4.5 21 5.17188 21 6V18L20.9922 18.1523C20.9205 18.8594 20.3593 19.4199 19.6533 19.4922ZM19.5 6H9V18H19.5V12.75H13.8108L16.2803 15.2188C16.4556 15.3945 16.5259 15.6348 16.4914 15.8633C16.4683 16.0156 16.3979 16.1621 16.2803 16.2793C16.1456 16.4141 15.9725 16.4863 15.7963 16.498C15.6734 16.5059 15.549 16.4824 15.4351 16.4297C15.3571 16.3945 15.284 16.3438 15.2197 16.2793L10.9395 12L15.2197 7.71875C15.3002 7.63867 15.3945 7.58008 15.4949 7.54492C15.5336 7.53125 15.5777 7.51953 15.6178 7.51172C15.6951 7.49805 15.774 7.49609 15.8517 7.50781C16.0085 7.5293 16.1598 7.59961 16.2803 7.71875C16.3951 7.83398 16.4649 7.97656 16.4897 8.125C16.4979 8.17383 16.5012 8.22461 16.4996 8.27344L16.4891 8.37891C16.4637 8.52539 16.3942 8.66602 16.2803 8.7793L13.8103 11.25H19.5V6Z" fill="#03123D"/>
</svg>
