<svg width="16" height="16" viewBox="0 0 16 16" fill="none" xmlns="http://www.w3.org/2000/svg">
<path fill-rule="evenodd" clip-rule="evenodd" d="M8 1C4.1397 1 1 4.13971 1 8C1 11.8603 4.1397 15 8 15C11.8603 15 15 11.8603 15 8C15 4.13971 11.8603 1 8 1ZM5.78676 11.989H4.21691V6.73897H5.78676V11.989ZM4.98897 5.94118C4.47427 5.94118 4.0625 5.50368 4.0625 4.98897C4.0625 4.47427 4.47427 4.03676 4.98897 4.03676C5.50368 4.03676 5.94117 4.47427 5.94117 4.98897C5.94117 5.50368 5.50368 5.94118 4.98897 5.94118ZM11.9632 9.2353V11.989H10.4191V9.15809C10.4191 8.56618 9.98161 8.10294 9.3897 8.10294C8.79779 8.10294 8.28308 8.56618 8.25735 9.15809V11.989H6.71323V6.73897H8.25735V7.4853C8.59191 6.99633 9.13235 6.6875 9.75 6.6875H10.1875C11.1654 6.6875 11.9632 7.51103 11.9632 8.46324V9.26103V9.2353Z" fill="#03123D"/>
</svg>
