<svg width="64" height="64" viewBox="0 0 64 64" fill="none" xmlns="http://www.w3.org/2000/svg">
<path d="M47.0711 38.8867C47.6714 39.6059 48.0008 40.5134 48.0008 41.4502V51.999C48.0008 54.2081 46.2098 55.9989 44.0008 55.999H20.0007C17.7916 55.999 16.0007 54.2082 16.0007 51.999V41.4502C16.0008 40.5134 16.3292 39.6059 16.9295 38.8867L32.0008 20.8311L47.0711 38.8867ZM55.5272 36.708C56.2405 37.5511 56.1356 38.8129 55.2928 39.5264C54.5024 40.1952 53.3438 40.1449 52.6141 39.4414L52.4745 39.292L32.0008 15.0957L11.5271 39.292C10.8136 40.1349 9.55186 40.2396 8.70873 39.5264C7.86575 38.8128 7.76094 37.5511 8.47435 36.708L32.0008 8.90332L55.5272 36.708Z" fill="#03123D"/>
</svg>
