<svg width="32" height="32" viewBox="0 0 32 32" fill="none" xmlns="http://www.w3.org/2000/svg">
<path d="M24.751 6.43834C25.3512 5.95838 26.1735 5.86426 26.8662 6.19713C27.5589 6.53025 28 7.23121 28 7.99986V23.9999C28 24.7923 27.5317 25.5102 26.8066 25.8299C26.0814 26.1495 25.2354 26.0101 24.6504 25.4754C22.3997 23.4177 19.6466 22.0281 17.3965 21.1483C16.4694 20.7858 15.6438 20.5171 15 20.327V22.9999C15 24.6566 13.6566 25.9996 12 25.9999C10.3431 25.9999 9 24.6567 9 22.9999V19.9999H6.11328C4.94587 19.9998 4 19.053 4 17.8856V14.1141C4 12.9467 4.94587 11.9999 6.11328 11.9999H13.7041C13.7081 11.9986 13.7127 11.9972 13.7168 11.996C13.9023 11.9383 14.1788 11.85 14.5273 11.7313C15.2259 11.4935 16.2123 11.1346 17.3486 10.6561C19.6435 9.68981 22.4554 8.2748 24.751 6.43834ZM11 22.9999C11 23.5521 11.4477 23.9999 12 23.9999C12.5521 23.9996 13 23.552 13 22.9999V19.9999H11V22.9999ZM26 7.99986C21.0228 11.9817 14.0633 13.9817 14 13.9999V17.9999C14.0666 18.0135 21.024 19.4503 26 23.9999V7.99986ZM23.5264 11.0545C24.0483 10.7936 24.6831 11.0055 24.9443 11.5272C25.2054 12.0493 24.9938 12.6841 24.4717 12.9452L20.4717 14.9452C19.9496 15.2061 19.3147 14.9945 19.0537 14.4725C18.7931 13.9506 19.0046 13.3156 19.5264 13.0545L23.5264 11.0545Z" fill="#03123D"/>
</svg>
