<svg width="20" height="20" viewBox="0 0 20 20" fill="none" xmlns="http://www.w3.org/2000/svg">
<path d="M6.24994 8.74902H8.74994V9.99902H6.24994V8.74902Z" fill="#03123D"/>
<path d="M11.2499 8.74902H13.7499V9.99902H11.2499V8.74902Z" fill="#03123D"/>
<path d="M10 19C14.9706 19 19 14.9706 19 10C19 5.02944 14.9706 1 10 1C5.02944 1 1 5.02944 1 10C1 14.9706 5.02944 19 10 19ZM2.35044 8.74902C2.94853 5.06364 6.14568 2.25 10 2.25C13.8543 2.25 17.0515 5.06364 17.6496 8.74902H14.9999V15.9216C13.6503 17.0623 11.9055 17.75 10 17.75C8.09447 17.75 6.34957 17.0623 4.99994 15.9215V8.74902H2.35044Z" fill="#03123D"/>
</svg>
