<svg width="20" height="20" viewBox="0 0 20 20" fill="none" xmlns="http://www.w3.org/2000/svg">
<path d="M12.75 5H5.25C4.55964 5 4 5.53726 4 6.2V15.8C4 16.4627 4.55964 17 5.25 17H12.75C13.4404 17 14 16.4627 14 15.8V6.2C14 5.53726 13.4404 5 12.75 5Z" fill="#03123D"/>
<path d="M8.20638 14C6.99819 14 6.01326 12.8444 6.00013 11.4074C5.987 9.97037 6.9588 8.01481 8.16698 8C8.42963 8 8.75794 8.20741 8.75794 8.62222V13.4963C8.75794 13.837 8.44276 13.9852 8.20638 13.9852V14Z" fill="white"/>
<path d="M9.79362 14C11.0018 14 11.9867 12.8444 11.9999 11.4074C12.013 9.97037 11.0412 8.01481 9.83302 8C9.57037 8 9.24206 8.20741 9.24206 8.62222V13.4963C9.24206 13.837 9.57037 13.9852 9.79362 13.9852V14Z" fill="white"/>
<path fill-rule="evenodd" clip-rule="evenodd" d="M6 3.5C6 3.22386 6.22386 3 6.5 3H13.625C14.9367 3 16 4.06332 16 5.375V14.5C16 14.7761 15.7761 15 15.5 15C15.2239 15 15 14.7761 15 14.5V5.375C15 4.61561 14.3844 4 13.625 4H6.5C6.22386 4 6 3.77614 6 3.5Z" fill="#03123D"/>
</svg>
