<svg width="32" height="32" viewBox="0 0 32 32" fill="none" xmlns="http://www.w3.org/2000/svg">
<path fill-rule="evenodd" clip-rule="evenodd" d="M28.0002 22V28H4C4 27.5124 4.00005 27.2874 4.00009 27.0569C4.00015 26.8145 4.0002 26.566 4.0002 26V22.0001L28.0002 22ZM12 24H7C6.44 24 6 24.44 6 25C6 25.56 6.44 26 7 26H12C12.56 26 13 25.56 13 25C13 24.44 12.56 24 12 24Z" fill="#03123D"/>
<path d="M17 5V17L21.7 12.3C22.1 11.9 22.72 11.9 23.12 12.3C23.52 12.7 23.52 13.32 23.12 13.72L16.72 20.12C16.5148 20.3252 16.2516 20.4252 15.99 20.4198C15.7284 20.4252 15.4653 20.3252 15.2601 20.12L8.86006 13.72C8.46006 13.32 8.46006 12.7 8.86006 12.3C9.26006 11.9 9.88006 11.9 10.2801 12.3L15 17.0199V5C15 4.44 15.44 4 16 4C16.56 4 17 4.44 17 5Z" fill="#03123D"/>
</svg>
