<svg width="64" height="64" viewBox="0 0 64 64" fill="none" xmlns="http://www.w3.org/2000/svg">
<path fill-rule="evenodd" clip-rule="evenodd" d="M26 16C26 14.8945 26.8954 14 28 14C29.1046 14 30 14.8945 30 16V16.2871C30.0006 22.043 30.0011 26.4707 27.7891 30.8945C27.2951 31.8828 26.0934 32.2832 25.1055 31.7891C24.1175 31.2949 23.717 30.0938 24.2109 29.1055C25.962 25.6035 26 22.1055 26 16Z" fill="#03123D"/>
<path d="M26 16C26 14.8945 26.8954 14 28 14C29.1046 14 30 14.8945 30 16C30 16.0961 30 16.1918 30 16.2871C30.0006 22.041 30.0013 26.47 27.7891 30.8945C27.2951 31.8828 26.0934 32.2832 25.1055 31.7891C24.1175 31.2949 23.717 30.0938 24.2109 29.1055C25.962 25.6035 26 22.1055 26 16Z" fill="white"/>
<path fill-rule="evenodd" clip-rule="evenodd" d="M10 48H24C24 52.418 27.5817 56 32 56C36.4183 56 40 52.418 40 48H54C54 48 46.4999 37.5 44 30C42.3243 24.9727 41.7157 16.8008 41.4966 11.959C41.3973 9.76562 39.6052 8 37.4095 8H26.5911C24.3954 8 22.6033 9.76562 22.504 11.959C22.2846 16.8008 21.6757 24.9727 20 30C17.5001 37.5 10 48 10 48ZM28 14C26.8954 14 26 14.8945 26 16C26 22.1055 25.962 25.6035 24.2109 29.1055C23.717 30.0938 24.1175 31.2949 25.1055 31.7891C26.0934 32.2832 27.2951 31.8828 27.7891 30.8945C30.0011 26.4707 30.0006 22.043 30 16.2871V16C30 14.8945 29.1046 14 28 14ZM28 48C28 50.209 29.7908 52 32 52C34.2092 52 36 50.209 36 48H28Z" fill="#03123D"/>
</svg>
