<svg width="48" height="48" viewBox="0 0 48 48" fill="none" xmlns="http://www.w3.org/2000/svg">
<path d="M42 17.4886V8.81854L34.5 4.49854L27 8.81854V17.4886L34.5 21.8086L42 17.4886Z" fill="#03123D"/>
<path fill-rule="evenodd" clip-rule="evenodd" d="M6 5.99634H21V20.9963H6V5.99634ZM9 17.9963H18V8.99634H9V17.9963Z" fill="#03123D"/>
<path d="M28.5 42.0002C27.6716 42.0002 27 41.3286 27 40.5002C27 39.6718 27.6716 39.0002 28.5 39.0002H33V30.0002H28.5C27.6716 30.0002 27 29.3286 27 28.5002C27 27.6718 27.6716 27.0002 28.5 27.0002H40.5C41.3284 27.0002 42 27.6718 42 28.5002C42 29.3286 41.3284 30.0002 40.5 30.0002H36V39.0002H40.5C41.3284 39.0002 42 39.6718 42 40.5002C42 41.3286 41.3284 42.0002 40.5 42.0002H28.5Z" fill="#03123D"/>
<path d="M13.44 42.0002C17.549 42.0002 20.88 38.6424 20.88 34.5002C20.88 30.358 17.549 27.0002 13.44 27.0002C9.33096 27.0002 6 30.358 6 34.5002C6 38.6424 9.33096 42.0002 13.44 42.0002Z" fill="#03123D"/>
</svg>
