<svg width="48" height="48" viewBox="0 0 48 48" fill="none" xmlns="http://www.w3.org/2000/svg">
<path d="M25.4716 4.72838C24.5579 4.21407 23.4421 4.21408 22.5284 4.72838L7.52841 13.172C6.58423 13.7035 6 14.7028 6 15.7863V32.5137C6 33.5972 6.58423 34.5965 7.52841 35.128L22.5284 43.5716C23.4421 44.0859 24.5579 44.0859 25.4716 43.5716L40.4716 35.128C41.4158 34.5965 42 33.5972 42 32.5137V15.7863C42 14.7028 41.4158 13.7035 40.4716 13.172L25.4716 4.72838ZM25.5075 21.5508V8.12916L37.4774 14.8547L25.5075 21.5508ZM22.4925 21.5508L10.5528 14.8547L22.4925 8.12916V21.5508ZM9.01508 17.3804L22.4925 24.9577V40.1709L9.01508 32.5936V17.3804Z" fill="#03123D"/>
</svg>
