<svg width="24" height="24" viewBox="0 0 24 24" fill="none" xmlns="http://www.w3.org/2000/svg">
<path d="M5.25 7.5C6.49264 7.5 7.5 6.49264 7.5 5.25C7.5 4.00736 6.49264 3 5.25 3C4.00736 3 3 4.00736 3 5.25C3 6.49264 4.00736 7.5 5.25 7.5Z" fill="#03123D"/>
<path d="M18.75 7.5C19.9926 7.5 21 6.49264 21 5.25C21 4.00736 19.9926 3 18.75 3C17.5074 3 16.5 4.00736 16.5 5.25C16.5 6.49264 17.5074 7.5 18.75 7.5Z" fill="#03123D"/>
<path d="M12 4.5C12.42 4.5 12.75 4.83 12.75 5.25C12.75 5.67 12.42 6 12 6C11.58 6 11.25 5.67 11.25 5.25C11.25 4.83 11.58 4.5 12 4.5ZM12 3C10.755 3 9.75 4.005 9.75 5.25C9.75 6.495 10.755 7.5 12 7.5C13.245 7.5 14.25 6.495 14.25 5.25C14.25 4.005 13.245 3 12 3Z" fill="#03123D"/>
<path d="M5.25 11.25C5.67 11.25 6 11.58 6 12C6 12.42 5.67 12.75 5.25 12.75C4.83 12.75 4.5 12.42 4.5 12C4.5 11.58 4.83 11.25 5.25 11.25ZM5.25 9.75C4.005 9.75 3 10.755 3 12C3 13.245 4.005 14.25 5.25 14.25C6.495 14.25 7.5 13.245 7.5 12C7.5 10.755 6.495 9.75 5.25 9.75Z" fill="#03123D"/>
<path d="M18.75 11.25C19.17 11.25 19.5 11.58 19.5 12C19.5 12.42 19.17 12.75 18.75 12.75C18.33 12.75 18 12.42 18 12C18 11.58 18.33 11.25 18.75 11.25ZM18.75 9.75C17.505 9.75 16.5 10.755 16.5 12C16.5 13.245 17.505 14.25 18.75 14.25C19.995 14.25 21 13.245 21 12C21 10.755 19.995 9.75 18.75 9.75Z" fill="#03123D"/>
<path d="M12 14.25C13.2426 14.25 14.25 13.2426 14.25 12C14.25 10.7574 13.2426 9.75 12 9.75C10.7574 9.75 9.75 10.7574 9.75 12C9.75 13.2426 10.7574 14.25 12 14.25Z" fill="#03123D"/>
<path d="M5.25 21C6.49264 21 7.5 19.9926 7.5 18.75C7.5 17.5074 6.49264 16.5 5.25 16.5C4.00736 16.5 3 17.5074 3 18.75C3 19.9926 4.00736 21 5.25 21Z" fill="#03123D"/>
<path d="M18.75 21C19.9926 21 21 19.9926 21 18.75C21 17.5074 19.9926 16.5 18.75 16.5C17.5074 16.5 16.5 17.5074 16.5 18.75C16.5 19.9926 17.5074 21 18.75 21Z" fill="#03123D"/>
<path d="M12 18C12.42 18 12.75 18.33 12.75 18.75C12.75 19.17 12.42 19.5 12 19.5C11.58 19.5 11.25 19.17 11.25 18.75C11.25 18.33 11.58 18 12 18ZM12 16.5C10.755 16.5 9.75 17.505 9.75 18.75C9.75 19.995 10.755 21 12 21C13.245 21 14.25 19.995 14.25 18.75C14.25 17.505 13.245 16.5 12 16.5Z" fill="#03123D"/>
</svg>
