<svg width="16" height="16" viewBox="0 0 16 16" fill="none" xmlns="http://www.w3.org/2000/svg">
<path fill-rule="evenodd" clip-rule="evenodd" d="M2.5 12H6C6 13.1055 6.89545 14 8 14C9.10455 14 10 13.1055 10 12H13.5C13.5 12 11.625 9.375 11 7.5C10.5811 6.24414 10.429 4.19922 10.3741 2.99023C10.3493 2.44141 9.90131 2 9.35236 2H6.64777C6.09888 2 5.65082 2.44141 5.62598 2.99023C5.57117 4.19922 5.41895 6.24414 5 7.5C4.375 9.375 2.5 12 2.5 12ZM7 3.5C6.72388 3.5 6.5 3.72461 6.5 4C6.5 5.52734 6.49048 6.40039 6.05273 7.27734C5.92926 7.52344 6.02936 7.82422 6.27637 7.94727C6.36997 7.99407 6.47124 8.00861 6.56765 7.99518C6.6009 7.99062 6.63356 7.98269 6.66514 7.97148C6.6858 7.96415 6.706 7.95542 6.72559 7.94531C6.8183 7.89844 6.89728 7.82227 6.94727 7.72266C7.50952 6.59961 7.5 5.47266 7.5 4C7.5 3.72461 7.27612 3.5 7 3.5ZM7 12C7 12.5527 7.44769 13 8 13C8.55231 13 9 12.5527 9 12H7Z" fill="#03123D"/>
<path fill-rule="evenodd" clip-rule="evenodd" d="M8 3.5C8 2.9372 8.18597 2.41783 8.49982 2C8.95592 1.39278 9.68209 1 10.5 1C11.8807 1 13 2.11929 13 3.5C13 4.8282 11.9642 5.91449 10.6563 5.99519C10.6046 5.99838 10.5525 6 10.5 6C9.11929 6 8 4.88071 8 3.5Z" fill="#FF8080"/>
</svg>
