<svg width="24" height="24" viewBox="0 0 24 24" fill="none" xmlns="http://www.w3.org/2000/svg">
<path fill-rule="evenodd" clip-rule="evenodd" d="M16.3598 7.49905C15.2926 5.54172 13.1318 4.30076 10.7817 4.52638C8.39389 4.75563 6.48562 6.43237 5.83558 8.60398C3.74669 9.41718 2.25 11.4362 2.25 13.818C2.25 16.9297 4.90077 19.5 7.99765 19.5H15.8951L15.8942 19.4983C19.1413 19.4215 21.75 16.7583 21.75 13.4842C21.75 10.3681 19.3871 7.80544 16.3598 7.49905ZM14.6115 7.57652C13.7469 6.5116 12.3844 5.88335 10.9247 6.02349C9.47465 6.1627 8.26016 7.02807 7.60897 8.22698C7.70037 8.22257 7.79229 8.22033 7.88471 8.22033C9.18462 8.22033 10.3856 8.6616 11.3409 9.40406C12.1923 8.47957 13.3293 7.82345 14.6115 7.57652ZM9.75 13.4842C9.75 12.4508 10.0099 11.4782 10.4677 10.6286C9.76101 10.0629 8.86253 9.72429 7.88471 9.72429C5.60681 9.72429 3.75 11.5603 3.75 13.818C3.75 16.0717 5.70159 17.996 7.99765 17.996H11.7813C10.5356 16.8937 9.75 15.2809 9.75 13.4842Z" fill="#03123D"/>
</svg>
