<svg width="16" height="16" viewBox="0 0 16 16" fill="none" xmlns="http://www.w3.org/2000/svg">
<path fill-rule="evenodd" clip-rule="evenodd" d="M1.5 5.30798C1.77614 5.30798 2 5.53183 2 5.80798C2 9.43337 4.72054 12.308 8 12.308C11.2795 12.308 14 9.43337 14 5.80798C14 5.53183 14.2239 5.30798 14.5 5.30798C14.7761 5.30798 15 5.53183 15 5.80798C15 9.91457 11.9002 13.308 8 13.308C4.09976 13.308 1 9.91457 1 5.80798C1 5.53183 1.22386 5.30798 1.5 5.30798Z" fill="#03123D"/>
<path fill-rule="evenodd" clip-rule="evenodd" d="M3.64768 7.61564C3.73345 7.98282 3.8664 8.3453 4.04904 8.69498C5.21783 10.9327 7.97934 11.7992 10.217 10.6304C12.4547 9.46162 13.3213 6.70012 12.1525 4.46241C11.9698 4.11273 11.7483 3.79654 11.4959 3.51636L3.64768 7.61564Z" fill="#03123D"/>
</svg>
