<svg width="48" height="48" viewBox="0 0 48 48" fill="none" xmlns="http://www.w3.org/2000/svg">
<path fill-rule="evenodd" clip-rule="evenodd" d="M32.7197 14.9981C30.5852 11.0834 26.2637 8.60152 21.5634 9.05277C16.7878 9.51126 12.9712 12.8647 11.6712 17.208C7.49338 18.8344 4.5 22.8723 4.5 27.6361C4.5 33.8595 9.80153 39 15.9953 39H31.7903L31.7884 38.9966C38.2826 38.843 43.5 33.5166 43.5 26.9684C43.5 20.7363 38.7742 15.6109 32.7197 14.9981ZM29.223 15.153C27.4937 13.0232 24.7689 11.7667 21.8494 12.047C18.9493 12.3254 16.5203 14.0561 15.2179 16.454C15.4007 16.4451 15.5846 16.4407 15.7694 16.4407C18.3692 16.4407 20.7713 17.3232 22.6817 18.8081C24.3846 16.9591 26.6587 15.6469 29.223 15.153ZM19.5 26.9684C19.5 24.9015 20.0198 22.9564 20.9354 21.2572C19.522 20.1259 17.7251 19.4486 15.7694 19.4486C11.2136 19.4486 7.5 23.1207 7.5 27.6361C7.5 32.1434 11.4032 35.9921 15.9953 35.9921H23.5625C21.0713 33.7875 19.5 30.5619 19.5 26.9684Z" fill="#03123D"/>
</svg>
