<svg width="20" height="20" viewBox="0 0 20 20" fill="none" xmlns="http://www.w3.org/2000/svg">
<path d="M13 10C13 11.6569 11.6569 13 10 13C8.34315 13 7 11.6569 7 10C7 8.34315 8.34315 7 10 7C11.6569 7 13 8.34315 13 10Z" fill="#03123D"/>
<path fill-rule="evenodd" clip-rule="evenodd" d="M15 10C15 7.23858 12.7614 5 10 5C7.23858 5 5 7.23858 5 10C5 12.7614 7.23858 15 10 15C12.7614 15 15 12.7614 15 10Z" fill="#03123D"/>
<path fill-rule="evenodd" clip-rule="evenodd" d="M10 5C12.7614 5 15 7.23858 15 10C15 12.7614 12.7614 15 10 15C7.23858 15 5 12.7614 5 10C5 7.23858 7.23858 5 10 5Z" fill="#03123D"/>
<path d="M4.02054 10.5C4.26101 13.4149 6.5851 15.739 9.5 15.9795V18H10.5V15.9795C13.4149 15.739 15.739 13.4149 15.9795 10.5H18V9.5H15.9795C15.739 6.5851 13.4149 4.26101 10.5 4.02054V2H9.5V4.02054C6.5851 4.26101 4.26101 6.5851 4.02054 9.5H2V10.5H4.02054ZM10 5C12.7614 5 15 7.23858 15 10C15 12.7614 12.7614 15 10 15C7.23858 15 5 12.7614 5 10C5 7.23858 7.23858 5 10 5Z" fill="#03123D"/>
</svg>
