<svg width="16" height="16" viewBox="0 0 16 16" fill="none" xmlns="http://www.w3.org/2000/svg">
<path d="M14 7.97998C14 4.66998 11.31 1.97998 8 1.97998C7.35 1.97998 6.72 2.08998 6.14 2.27998C6.14 2.27998 6.14 2.26998 6.14 2.25998L5.73 1.30998C5.62 1.05998 5.33 0.939976 5.07 1.04998C4.82 1.15998 4.7 1.44998 4.81 1.70998L5.22 2.65998C5.22 2.65998 5.22 2.65998 5.22 2.66998C3.31 3.65998 2 5.66998 2 7.97998C2 11.29 4.69 13.98 8 13.98C8.66 13.98 9.3 13.87 9.89 13.67C9.89 13.67 9.89 13.67 9.89 13.68L10.31 14.68C10.39 14.87 10.58 14.98 10.77 14.98C10.84 14.98 10.9 14.97 10.97 14.94C11.22 14.83 11.34 14.54 11.23 14.28L10.81 13.28C10.81 13.28 10.81 13.28 10.81 13.27C12.71 12.26 14 10.27 14 7.96998V7.97998ZM9.97 12.57L8.8 9.80998C9.51 9.49998 10.01 8.79998 10.01 7.96998C10.01 6.86998 9.11 5.96998 8 5.96998C7.73 5.96998 7.47 6.02998 7.23 6.11998L6.06 3.35998C6.66 3.10998 7.31 2.96998 8 2.96998C10.76 2.96998 13 5.20998 13 7.96998C13 10.03 11.75 11.8 9.97 12.56V12.57Z" fill="#03123D"/>
</svg>
