<svg width="16" height="16" viewBox="0 0 16 16" fill="none" xmlns="http://www.w3.org/2000/svg">
<path d="M8.49053 1.57609C8.18598 1.40465 7.81402 1.40465 7.50947 1.57609L2.50947 4.39063C2.19474 4.56779 2 4.90089 2 5.26205V10.8379C2 11.199 2.19474 11.5321 2.50947 11.7093L7.50947 14.5238C7.81402 14.6953 8.18598 14.6953 8.49053 14.5238L13.4905 11.7093C13.8053 11.5321 14 11.199 14 10.8379V5.26205C14 4.90089 13.8053 4.56779 13.4905 4.39063L8.49053 1.57609ZM8.50251 7.18357V2.70968L12.4925 4.95152L8.50251 7.18357ZM7.49749 7.18357L3.51759 4.95152L7.49749 2.70968V7.18357ZM3.00503 5.79344L7.49749 8.31918V13.3902L3.00503 10.8645V5.79344Z" fill="#03123D"/>
</svg>
