<svg width="32" height="32" viewBox="0 0 32 32" fill="none" xmlns="http://www.w3.org/2000/svg">
<path d="M18.8646 6.41535C22.9915 7.64708 26 11.4717 26 15.999C26 20.5262 22.9917 24.3507 18.8651 25.5826C21.5723 22.5614 23.0001 19.3228 23.0001 15.9992C23.0001 12.6755 21.5721 9.43664 18.8646 6.41535ZM21.0001 15.9992C21.0001 19.2809 19.2973 22.6877 15.6281 25.9922C14.7027 25.9584 13.8095 25.7988 12.9649 25.5301C15.7772 22.6579 17.25 19.3664 17.25 15.9994C17.25 12.6322 15.777 9.34052 12.9643 6.4681C13.8089 6.19932 14.7022 6.0397 15.6276 6.00583C19.2972 9.31048 21.0001 12.7174 21.0001 15.9992ZM15.25 15.9994C15.25 18.9306 13.8867 21.9482 10.9975 24.6598C10.2812 24.2451 9.62109 23.7442 9.03141 23.1711C10.45 20.304 11.25 18.1845 11.25 15.999C11.25 13.8135 10.45 11.694 9.03144 8.8269C9.62097 8.25401 10.2809 7.75317 10.997 7.33859C13.8865 10.0503 15.25 13.068 15.25 15.9994ZM9.25002 15.999C9.25002 17.5243 8.75466 19.1032 7.63097 21.4746C6.59974 19.9017 6 18.0204 6 15.999C6 13.9777 6.59975 12.0964 7.631 10.5234C8.75467 12.8947 9.25002 14.4737 9.25002 15.999ZM16 27.999C22.6274 27.999 28 22.6264 28 15.999C28 9.37161 22.6274 3.99902 16 3.99902C9.37258 3.99902 4 9.37161 4 15.999C4 22.6264 9.37258 27.999 16 27.999Z" fill="#03123D"/>
</svg>
