<svg width="48" height="48" viewBox="0 0 48 48" fill="none" xmlns="http://www.w3.org/2000/svg">
<path d="M35.3028 29.166C35.753 29.7054 36 30.3862 36 31.0889V39C36 40.6569 34.6569 42 33 42H15.0001C13.3432 42 12.0001 40.6568 12.0001 39V31.0889C12.0001 30.3862 12.2471 29.7054 12.6973 29.166L24 15.624L35.3028 29.166ZM41.6455 27.5312L41.7383 27.6533C42.1682 28.2803 42.0616 29.1439 41.4688 29.6455C40.8364 30.1803 39.8896 30.1011 39.3545 29.4688L24 11.3223L8.64557 29.4688C8.11054 30.1011 7.16372 30.1803 6.53131 29.6455C5.899 29.1105 5.81972 28.1637 6.35455 27.5312L24 6.67773L41.6455 27.5312Z" fill="#03123D"/>
</svg>
