<svg width="64" height="64" viewBox="0 0 64 64" fill="none" xmlns="http://www.w3.org/2000/svg">
<path fill-rule="evenodd" clip-rule="evenodd" d="M32 18C28.7046 18 26 20.7046 26 24C26 25.1046 25.1046 26 24 26C22.8954 26 22 25.1046 22 24C22 18.4954 26.4954 14 32 14C33.1046 14 34 14.8954 34 16C34 17.1046 33.1046 18 32 18Z" fill="#03123D"/>
<path fill-rule="evenodd" clip-rule="evenodd" d="M40 46C40 46 40.28 37.96 42.32 36.24C45.8 33.32 48 28.92 48 24C48 15.16 40.84 8 32 8C23.16 8 16 15.16 16 24C16 28.84 18.16 33.16 21.56 36.12C24.36 38.56 24 46 24 46L26 48L24 50L26 52L24 54L26 56H38L40 54L38 52L40 50L38 48L40 46ZM44 24C44 17.4 38.6 12 32 12C25.4 12 20 17.4 20 24C20 27.48 21.52 30.8 24.16 33.08C26.64 35.24 27.56 39 27.88 42.04C30.24 42.08 33.2 42.08 35.64 42.08H36.28C36.68 38.52 37.68 34.88 39.72 33.16C42.44 30.88 44 27.56 44 24ZM32 18C28.7046 18 26 20.7046 26 24C26 25.1046 25.1046 26 24 26C22.8954 26 22 25.1046 22 24C22 18.4954 26.4954 14 32 14C33.1046 14 34 14.8954 34 16C34 17.1046 33.1046 18 32 18Z" fill="#03123D"/>
</svg>
