<svg width="32" height="32" viewBox="0 0 32 32" fill="none" xmlns="http://www.w3.org/2000/svg">
<path fill-rule="evenodd" clip-rule="evenodd" d="M29.9932 26.8027L30 26.667V5.33301C29.9998 4.64271 29.4751 4.07499 28.8027 4.00684L28.667 4H3.33301C2.59689 4.00018 2.00018 4.59689 2 5.33301V26.667L2.00684 26.8027C2.07499 27.4751 2.64271 27.9998 3.33301 28H28.667L28.8027 27.9932C29.4305 27.9295 29.9295 27.4305 29.9932 26.8027ZM28 26H4V8H28V26Z" fill="#03123D"/>
<path fill-rule="evenodd" clip-rule="evenodd" d="M22.4473 20.8945C22.786 20.7251 23 20.3788 23 20V14C23 13.6212 22.786 13.2749 22.4473 13.1055L16.4473 10.1055C16.2008 9.98224 15.9161 9.96705 15.6602 10.0596L15.5527 10.1055L9.55273 13.1055C9.21395 13.2749 9 13.6212 9 14V20C9 20.3788 9.21395 20.7251 9.55273 20.8945L15.5527 23.8945C15.8343 24.0353 16.1657 24.0353 16.4473 23.8945L22.4473 20.8945ZM17 21.3813V17.6157L21 15.6172V19.3818L17 21.3813ZM14.999 21.3809L11 19.3818V15.6182L14.9971 17.6182L14.999 21.3809ZM15.9971 15.8818L12.2354 14L16 12.1182L19.7627 13.999L15.9971 15.8818Z" fill="#03123D"/>
</svg>
