<svg width="20" height="20" viewBox="0 0 20 20" fill="none" xmlns="http://www.w3.org/2000/svg">
<path d="M4.75 6.5C5.7165 6.5 6.5 5.7165 6.5 4.75C6.5 3.7835 5.7165 3 4.75 3C3.7835 3 3 3.7835 3 4.75C3 5.7165 3.7835 6.5 4.75 6.5Z" fill="#03123D"/>
<path d="M15.25 6.5C16.2165 6.5 17 5.7165 17 4.75C17 3.7835 16.2165 3 15.25 3C14.2835 3 13.5 3.7835 13.5 4.75C13.5 5.7165 14.2835 6.5 15.25 6.5Z" fill="#03123D"/>
<path d="M10 4.16667C10.3267 4.16667 10.5833 4.42333 10.5833 4.75C10.5833 5.07667 10.3267 5.33333 10 5.33333C9.67333 5.33333 9.41667 5.07667 9.41667 4.75C9.41667 4.42333 9.67333 4.16667 10 4.16667ZM10 3C9.03167 3 8.25 3.78167 8.25 4.75C8.25 5.71833 9.03167 6.5 10 6.5C10.9683 6.5 11.75 5.71833 11.75 4.75C11.75 3.78167 10.9683 3 10 3Z" fill="#03123D"/>
<path d="M4.75 9.41667C5.07667 9.41667 5.33333 9.67333 5.33333 10C5.33333 10.3267 5.07667 10.5833 4.75 10.5833C4.42333 10.5833 4.16667 10.3267 4.16667 10C4.16667 9.67333 4.42333 9.41667 4.75 9.41667ZM4.75 8.25C3.78167 8.25 3 9.03167 3 10C3 10.9683 3.78167 11.75 4.75 11.75C5.71833 11.75 6.5 10.9683 6.5 10C6.5 9.03167 5.71833 8.25 4.75 8.25Z" fill="#03123D"/>
<path d="M15.25 9.41667C15.5767 9.41667 15.8333 9.67333 15.8333 10C15.8333 10.3267 15.5767 10.5833 15.25 10.5833C14.9233 10.5833 14.6667 10.3267 14.6667 10C14.6667 9.67333 14.9233 9.41667 15.25 9.41667ZM15.25 8.25C14.2817 8.25 13.5 9.03167 13.5 10C13.5 10.9683 14.2817 11.75 15.25 11.75C16.2183 11.75 17 10.9683 17 10C17 9.03167 16.2183 8.25 15.25 8.25Z" fill="#03123D"/>
<path d="M10 11.75C10.9665 11.75 11.75 10.9665 11.75 10C11.75 9.0335 10.9665 8.25 10 8.25C9.0335 8.25 8.25 9.0335 8.25 10C8.25 10.9665 9.0335 11.75 10 11.75Z" fill="#03123D"/>
<path d="M4.75 17C5.7165 17 6.5 16.2165 6.5 15.25C6.5 14.2835 5.7165 13.5 4.75 13.5C3.7835 13.5 3 14.2835 3 15.25C3 16.2165 3.7835 17 4.75 17Z" fill="#03123D"/>
<path d="M15.25 17C16.2165 17 17 16.2165 17 15.25C17 14.2835 16.2165 13.5 15.25 13.5C14.2835 13.5 13.5 14.2835 13.5 15.25C13.5 16.2165 14.2835 17 15.25 17Z" fill="#03123D"/>
<path d="M10 14.6667C10.3267 14.6667 10.5833 14.9233 10.5833 15.25C10.5833 15.5767 10.3267 15.8333 10 15.8333C9.67333 15.8333 9.41667 15.5767 9.41667 15.25C9.41667 14.9233 9.67333 14.6667 10 14.6667ZM10 13.5C9.03167 13.5 8.25 14.2817 8.25 15.25C8.25 16.2183 9.03167 17 10 17C10.9683 17 11.75 16.2183 11.75 15.25C11.75 14.2817 10.9683 13.5 10 13.5Z" fill="#03123D"/>
</svg>
