<svg width="32" height="32" viewBox="0 0 32 32" fill="none" xmlns="http://www.w3.org/2000/svg">
<path fill-rule="evenodd" clip-rule="evenodd" d="M18.7192 5.73067C17.6422 3.42115 14.3583 3.42116 13.2813 5.73067L3.09393 27.5774C2.86053 28.078 3.07708 28.673 3.57762 28.9064C4.07816 29.1398 4.67314 28.9232 4.90655 28.4227L10.362 16.7235L16.0002 28.0001L21.6385 16.7235L27.0939 28.4227C27.3273 28.9232 27.9223 29.1398 28.4229 28.9064C28.9234 28.673 29.14 28.078 28.9065 27.5774L18.7192 5.73067ZM16.9065 6.57591L21.3011 16.0001L10.6994 16.0001L15.0939 6.57592C15.4529 5.80607 16.5476 5.80608 16.9065 6.57591Z" fill="#03123D"/>
</svg>
