<svg width="32" height="32" viewBox="0 0 32 32" fill="none" xmlns="http://www.w3.org/2000/svg">
<path d="M28 15.96C28 9.33995 22.62 3.95995 16 3.95995C14.7 3.95995 13.44 4.17995 12.28 4.55995C12.28 4.55995 12.28 4.53995 12.28 4.51995L11.46 2.61995C11.24 2.11995 10.66 1.87995 10.14 2.09995C9.64 2.31995 9.4 2.89995 9.62 3.41995L10.44 5.31995C10.44 5.31995 10.44 5.31995 10.44 5.33995C6.62 7.31995 4 11.34 4 15.96C4 22.58 9.38 27.96 16 27.96C17.32 27.96 18.6 27.74 19.78 27.34C19.78 27.34 19.78 27.34 19.78 27.36L20.62 29.36C20.78 29.74 21.16 29.96 21.54 29.96C21.68 29.96 21.8 29.94 21.94 29.88C22.44 29.66 22.68 29.08 22.46 28.56L21.62 26.56C21.62 26.56 21.62 26.56 21.62 26.54C25.42 24.52 28 20.54 28 15.94V15.96ZM19.94 25.14L17.6 19.62C19.02 19 20.02 17.6 20.02 15.94C20.02 13.74 18.22 11.94 16 11.94C15.46 11.94 14.94 12.06 14.46 12.24L12.12 6.71995C13.32 6.21995 14.62 5.93995 16 5.93995C21.52 5.93995 26 10.42 26 15.94C26 20.06 23.5 23.6 19.94 25.12V25.14Z" fill="#03123D"/>
</svg>
