<svg width="32" height="32" viewBox="0 0 32 32" fill="none" xmlns="http://www.w3.org/2000/svg">
<path fill-rule="evenodd" clip-rule="evenodd" d="M3 10.6161C3.55228 10.6161 4 11.0638 4 11.6161C4 18.8669 9.44108 24.6161 16 24.6161C22.5589 24.6161 28 18.8669 28 11.6161C28 11.0638 28.4477 10.6161 29 10.6161C29.5523 10.6161 30 11.0638 30 11.6161C30 19.8293 23.8005 26.6161 16 26.6161C8.19952 26.6161 2 19.8293 2 11.6161C2 11.0638 2.44772 10.6161 3 10.6161Z" fill="#03123D"/>
<path fill-rule="evenodd" clip-rule="evenodd" d="M7.2948 15.2319C7.46635 15.9662 7.73224 16.6912 8.09754 17.3906C10.4351 21.866 15.9582 23.5991 20.4336 21.2615C24.909 18.9239 26.642 13.4009 24.3044 8.92544C23.9391 8.22606 23.496 7.59366 22.9913 7.03329L7.2948 15.2319Z" fill="#03123D"/>
</svg>
