<svg width="24" height="24" viewBox="0 0 24 24" fill="none" xmlns="http://www.w3.org/2000/svg">
<path fill-rule="evenodd" clip-rule="evenodd" d="M19.5 21C20.3284 21 21 20.3284 21 19.5V4.5C21 3.67157 20.3284 3 19.5 3H4.5C3.67157 3 3 3.67157 3 4.5V19.5C3 20.2767 3.59028 20.9154 4.34668 20.9922L4.5 21H19.5ZM7.5 19.5H4.5V16.5H7.5V19.5ZM7.5 15H4.5V9H7.5V15ZM15 16.5L9 16.5V19.5H15V16.5ZM9 7.5V4.5H15V7.5H9ZM16.5 9H19.5V15H16.5V9ZM16.5 16.5H19.5V19.5H16.5V16.5ZM15 15L9 15V9H15V15ZM16.5 7.5H19.5V4.5H16.5V7.5ZM7.5 7.5H4.5V4.5H7.5V7.5Z" fill="#03123D"/>
</svg>
