<svg width="24" height="24" viewBox="0 0 24 24" fill="none" xmlns="http://www.w3.org/2000/svg">
<path d="M15.5714 7.75C15.3 7.75 15.0429 7.77833 14.7857 7.80667C14.4571 5.37 12.3857 3.5835 9.85714 3.5835C7.1 3.5835 4.85714 5.72417 4.85714 8.45833C4.85714 8.58583 4.88571 8.71333 4.9 8.84083C3.15714 9.97417 2 11.9008 2 14.125C2 17.6525 4.87143 20.4245 8.42857 20.4245H15.5714C19.1286 20.4245 22 17.6525 22 14.125C22 10.5975 19.1286 7.75 15.5714 7.75ZM15.5714 19.0078H8.42857C5.67143 19.0078 3.42857 16.8592 3.42857 14.125C3.42857 12.0708 4.68571 10.3142 6.48571 9.56333C6.42857 9.39333 6.38571 9.22333 6.35714 9.05333C6.31429 8.855 6.3 8.67083 6.3 8.45833C6.3 6.50333 7.9 5.00016 9.87143 5.00016C11.7286 5.00016 13.2429 6.33333 13.4143 8.1325C12.8286 8.345 12.2714 8.62833 11.7714 8.99667C11.3714 9.29417 11.3571 9.79 11.5857 10.0733C11.8143 10.3425 12.2571 10.3992 12.5714 10.1725C13.4 9.535 14.4429 9.16667 15.5714 9.16667C18.3286 9.16667 20.5714 11.3908 20.5714 14.125C20.5714 16.8592 18.3286 19.0078 15.5714 19.0078Z" fill="#03123D"/>
<path d="M6 15.9867L8.02857 13.975L9.8 15.7317C9.94286 15.8733 10.1286 15.9442 10.3 15.9442C10.4714 15.9442 10.6714 15.8733 10.8 15.7317C11.0857 15.4483 11.0857 15.0092 10.8 14.7258L9.02857 12.9692L11.0143 11H6V15.9867Z" fill="#03123D"/>
<path d="M14.2286 12.2408C13.9429 11.9575 13.5 11.9575 13.2143 12.2408C12.9286 12.5242 12.9286 12.9633 13.2143 13.2467L14.9857 15.0033L13 16.9725H18.0143V12L15.9857 14.0117L14.2143 12.255L14.2286 12.2408Z" fill="#03123D"/>
</svg>
