<svg width="20" height="20" viewBox="0 0 20 20" fill="none" xmlns="http://www.w3.org/2000/svg">
<path d="M13 3H7C6.44772 3 6 3.44772 6 4V5H9V6H8.52246C7.38267 7.58917 7.38323 9.57797 8.52344 11.167H9V12H3V17H17V12H11V11.167H11.4775C12.6175 9.57798 12.6173 7.58914 11.4775 6H11V5H14V4C14 3.44772 13.5523 3 13 3ZM15.502 11.167H17V6H15.5029C15.9425 7.67944 15.9421 9.48768 15.502 11.167ZM4.49805 11.167C4.05807 9.48765 4.05825 7.67943 4.49805 6H3V11.167H4.49805ZM7.12012 6C6.2931 7.63926 6.29372 9.52789 7.12109 11.167H5.7207C5.20535 9.50522 5.20556 7.66178 5.7207 6H7.12012ZM14.2793 11.167C14.7947 9.50522 14.7944 7.66178 14.2793 6H12.8799C13.7069 7.63928 13.7063 9.52788 12.8789 11.167H14.2793Z" fill="#03123D"/>
</svg>
