<svg width="20" height="20" viewBox="0 0 20 20" fill="none" xmlns="http://www.w3.org/2000/svg">
<path d="M10 19C14.9706 19 19 14.9706 19 10C19 5.02944 14.9706 1 10 1C5.02944 1 1 5.02944 1 10C1 14.9706 5.02944 19 10 19ZM6.54102 8.21777L4.3508 15.6645C2.89859 14.2162 2 12.213 2 10C2 5.58172 5.58172 2 10 2C13.2557 2 16.0571 3.94477 17.306 6.73598C17.2627 6.75711 17.2123 6.78093 17.1553 6.80664C16.9192 6.91304 16.5751 7.04816 16.1562 7.15625C15.3131 7.37385 14.2187 7.4703 13.0918 7.06055C11.4688 6.47037 9.93801 6.62386 8.84375 6.90625C8.29389 7.04815 7.84107 7.22554 7.52246 7.36914C7.36267 7.44116 7.23526 7.50564 7.14453 7.55371C7.09913 7.57776 7.06281 7.59819 7.03613 7.61328C7.02304 7.62069 7.0123 7.62694 7.00391 7.63184L6.98535 7.64258C6.79719 7.75552 6.65208 7.9267 6.57129 8.12891L6.54102 8.21777ZM6.05384 16.9606L8.34473 9.19336C8.5808 9.08696 8.92488 8.95184 9.34375 8.84375C10.1869 8.62615 11.2813 8.5297 12.4082 8.93945C14.0312 9.52963 15.562 9.37614 16.6562 9.09375C17.1575 8.9644 17.5781 8.80555 17.8899 8.66969C17.9623 9.10235 18 9.54677 18 10C18 14.4183 14.4183 18 10 18C8.56502 18 7.21829 17.6222 6.05384 16.9606Z" fill="#03123D"/>
</svg>
