<svg width="16" height="16" viewBox="0 0 16 16" fill="none" xmlns="http://www.w3.org/2000/svg">
<path d="M14 5.82953V2.93951L11.5 1.49951L9 2.93951V5.82953L11.5 7.26953L14 5.82953Z" fill="#03123D"/>
<path fill-rule="evenodd" clip-rule="evenodd" d="M2 1.99878H7V6.99878H2V1.99878ZM3 5.99878H6V2.99878H3V5.99878Z" fill="#03123D"/>
<path d="M9.5 14.0001C9.22386 14.0001 9 13.7762 9 13.5001C9 13.2239 9.22386 13.0001 9.5 13.0001H11V10.0001H9.50099C9.22484 10.0001 9 9.7762 9 9.50006C9 9.22392 9.22386 9.00006 9.5 9.00006H13.5C13.7761 9.00006 14 9.22392 14 9.50006C14 9.7762 13.7761 10.0001 13.5 10.0001L12 10.0001V13.0001H13.5C13.7761 13.0001 14 13.2239 14 13.5001C14 13.7762 13.7761 14.0001 13.5 14.0001H9.5Z" fill="#03123D"/>
<path d="M4.48001 14.0001C5.84967 14.0001 6.95999 12.8808 6.95999 11.5001C6.95999 10.1193 5.84967 9.00006 4.48001 9.00006C3.11032 9.00006 2 10.1193 2 11.5001C2 12.8808 3.11032 14.0001 4.48001 14.0001Z" fill="#03123D"/>
</svg>
