<svg width="24" height="24" viewBox="0 0 24 24" fill="none" xmlns="http://www.w3.org/2000/svg">
<path d="M18.5625 4.82864C19.0127 4.46852 19.6298 4.39832 20.1494 4.64798C20.6691 4.89774 21 5.42298 21 5.99954V17.9995C21 18.594 20.6485 19.1328 20.1045 19.3726C19.5608 19.612 18.9269 19.5077 18.4883 19.107C16.8002 17.5636 14.7355 16.5207 13.0479 15.8609C12.3523 15.5889 11.733 15.3881 11.25 15.2456V17.2505C11.2498 18.493 10.2425 19.5005 9 19.5005C7.7575 19.5005 6.75023 18.493 6.75 17.2505V15.0005H4.58496C3.70957 15.0003 3 14.29 3 13.4146V10.5855C3 9.71004 3.70957 9.00074 4.58496 9.00052H10.2754C10.2795 8.99923 10.2838 8.99794 10.2881 8.99661C10.4272 8.95339 10.6341 8.88737 10.8955 8.79837C11.4194 8.62001 12.1593 8.35064 13.0117 7.99173C14.7327 7.26707 16.8409 6.20582 18.5625 4.82864ZM8.25 17.2505C8.25023 17.6645 8.58593 18.0005 9 18.0005C9.41407 18.0005 9.74977 17.6645 9.75 17.2505V15.0005H8.25V17.2505ZM19.5 5.99954C15.7553 8.99529 10.5148 10.4953 10.5 10.4995V13.4995C10.5 13.4995 15.75 14.571 19.5 17.9995V5.99954ZM17.6455 8.29153C18.0371 8.09575 18.5132 8.25445 18.709 8.64603C18.9045 9.03753 18.7459 9.51377 18.3545 9.7095L15.3545 11.2095C14.9631 11.4051 14.4869 11.2463 14.291 10.855C14.0953 10.4635 14.2541 9.98737 14.6455 9.79153L17.6455 8.29153Z" fill="#03123D"/>
</svg>
