<svg width="20" height="20" viewBox="0 0 20 20" fill="none" xmlns="http://www.w3.org/2000/svg">
<path fill-rule="evenodd" clip-rule="evenodd" d="M15.5002 4.50003H10.5002V7.50003H15.5002V4.50003ZM9.00017 3.00003V9.00003H17.0002V3.00003H9.00017Z" fill="#03123D"/>
<path fill-rule="evenodd" clip-rule="evenodd" d="M15.5002 11.5H10.5002V14.5H15.5002V11.5ZM9.00017 10V16H17.0002V10H9.00017Z" fill="#03123D"/>
<path fill-rule="evenodd" clip-rule="evenodd" d="M3.15816 4.21049L4.55002 6.00003L3.15816 7.78958C2.90385 8.11654 2.96275 8.58775 3.28971 8.84205C3.61667 9.09635 4.08788 9.03745 4.34218 8.71049L5.50017 7.22165L6.65816 8.71049C6.91246 9.03745 7.38366 9.09635 7.71062 8.84205C8.03759 8.58775 8.09649 8.11654 7.84218 7.78958L6.45032 6.00003L7.84218 4.21049C8.09649 3.88353 8.03759 3.41232 7.71062 3.15802C7.38366 2.90372 6.91246 2.96262 6.65816 3.28958L5.50017 4.77842L4.34218 3.28958C4.08788 2.96262 3.61667 2.90372 3.28971 3.15802C2.96275 3.41232 2.90385 3.88353 3.15816 4.21049Z" fill="#03123D"/>
<path fill-rule="evenodd" clip-rule="evenodd" d="M5.62312 12.8742L6.5508 10.4791C6.7004 10.0929 7.1348 9.90106 7.52106 10.0507C7.90731 10.2003 8.09915 10.6347 7.94954 11.0209L5.95924 16.1595C5.76301 16.6661 5.27558 17 4.73228 17H3.75017C3.33596 17 3.00017 16.6642 3.00017 16.25C3.00017 15.8358 3.33596 15.5 3.75017 15.5H4.60607L4.88497 14.78L3.07634 11.0794C2.89446 10.7072 3.0487 10.2581 3.42084 10.0762C3.79299 9.89432 4.24212 10.0486 4.424 10.4207L5.62312 12.8742Z" fill="#03123D"/>
</svg>
