<svg width="24" height="24" viewBox="0 0 24 24" fill="none" xmlns="http://www.w3.org/2000/svg">
<path fill-rule="evenodd" clip-rule="evenodd" d="M22.3613 10.292L22.371 10.2871C22.371 10.2871 22.3711 10.2871 22.371 10.2871M22.3585 10.2729L22.357 10.2629C22.3586 10.2657 22.3585 10.2699 22.3585 10.2729C22.3585 10.2726 22.3585 10.2732 22.3585 10.2729ZM22.3585 10.2729L22.3613 10.292ZM22.371 10.2871C22.3704 10.2873 22.3647 10.2834 22.3585 10.2729Z" fill="#03123D"/>
<path fill-rule="evenodd" clip-rule="evenodd" d="M20.0625 11.2021C20.3823 11.1196 20.6755 11.0274 20.9376 10.9344C20.9788 11.2838 21 11.6394 21 12C21 16.9706 16.9706 21 12 21C10.3541 21 8.81134 20.5582 7.48393 19.7866L10.2324 11.2627C10.4975 11.1483 10.8583 11.013 11.2871 10.9023C12.2613 10.6509 13.5092 10.5451 14.7871 11.0098C16.8091 11.745 18.7117 11.5507 20.0625 11.2021ZM12 1.5C17.2072 1.5 21.5292 5.29055 22.357 10.2629L22.3585 10.2729L22.3613 10.292C22.4523 10.8479 22.5 11.4183 22.5 12C22.5 17.799 17.799 22.5 12 22.5C6.20101 22.5 1.5 17.799 1.5 12C1.5 6.20101 6.20101 1.5 12 1.5ZM12 3C15.5535 3 18.626 5.05944 20.0891 8.04988C19.8681 8.1344 19.6063 8.22204 19.3125 8.29785C18.3383 8.54922 17.0904 8.65512 15.8125 8.19043C13.7907 7.45523 11.8888 7.64951 10.5381 7.99805C9.85869 8.17338 9.29901 8.39242 8.9043 8.57031C8.70634 8.65953 8.54755 8.73943 8.43359 8.7998C8.37654 8.83003 8.33022 8.85558 8.2959 8.875L8.28298 8.8823L8.25293 8.89941L8.23828 8.9082L8.22949 8.91309L8.22852 8.91406C7.91723 9.10084 7.68375 9.39378 7.57227 9.73926L5.01287 17.6732C3.75434 16.1251 3 14.1506 3 12C3 7.02944 7.02944 3 12 3Z" fill="#03123D"/>
</svg>
