<svg width="48" height="48" viewBox="0 0 48 48" fill="none" xmlns="http://www.w3.org/2000/svg">
<path d="M28.2966 9.62441C34.487 11.4719 39 17.2089 39 24C39 30.7911 34.487 36.5281 28.2966 38.3756C32.358 33.8437 34.5 28.9857 34.5 24C34.5 19.0143 32.358 14.1563 28.2966 9.62441ZM31.5 24C31.5 28.9225 28.9461 34.033 23.4422 38.9898C22.0544 38.9391 20.7147 38.6998 19.448 38.2969C23.6664 33.9883 25.875 29.0505 25.875 24C25.875 18.9495 23.6664 14.0117 19.448 9.70314C20.7147 9.30018 22.0544 9.06091 23.4422 9.01018C28.9461 13.967 31.5 19.0775 31.5 24ZM22.875 24C22.875 28.397 20.8291 32.9229 16.495 36.9904C15.421 36.3685 14.4313 35.6174 13.5471 34.7581C15.675 30.4575 16.875 27.2782 16.875 24C16.875 20.7218 15.675 17.5425 13.5471 13.2419C14.4313 12.3826 15.421 11.6315 16.495 11.0096C20.8291 15.0771 22.875 19.603 22.875 24ZM13.875 24C13.875 26.2879 13.132 28.6564 11.4465 32.2134C9.89961 29.854 9 27.032 9 24C9 20.968 9.89961 18.146 11.4465 15.7866C13.132 19.3436 13.875 21.7121 13.875 24ZM24 42C33.9411 42 42 33.9411 42 24C42 14.0589 33.9411 6 24 6C14.0589 6 6 14.0589 6 24C6 33.9411 14.0589 42 24 42Z" fill="#03123D"/>
</svg>
