<svg width="32" height="32" viewBox="0 0 32 32" fill="none" xmlns="http://www.w3.org/2000/svg">
<path d="M20 16C20 18.2091 18.2091 20 16 20C13.7909 20 12 18.2091 12 16C12 13.7909 13.7909 12 16 12C18.2091 12 20 13.7909 20 16Z" fill="#03123D"/>
<path fill-rule="evenodd" clip-rule="evenodd" d="M15 25.9506C10.2756 25.4816 6.51844 21.7244 6.04938 17H4V15H6.04938C6.51844 10.2756 10.2756 6.51844 15 6.04938V4H17V6.04938C21.7244 6.51844 25.4816 10.2756 25.9506 15H28V17H25.9506C25.4816 21.7244 21.7244 25.4816 17 25.9506V28H15V25.9506ZM24 16C24 11.5817 20.4183 8 16 8C11.5817 8 8 11.5817 8 16C8 20.4183 11.5817 24 16 24C20.4183 24 24 20.4183 24 16ZM20 16C20 18.2091 18.2091 20 16 20C13.7909 20 12 18.2091 12 16C12 13.7909 13.7909 12 16 12C18.2091 12 20 13.7909 20 16Z" fill="#03123D"/>
</svg>
