<svg width="32" height="32" viewBox="0 0 32 32" fill="none" xmlns="http://www.w3.org/2000/svg">
<path fill-rule="evenodd" clip-rule="evenodd" d="M13 8C13 7.44727 13.4477 7 14 7C14.5523 7 15 7.44727 15 8V8.14648C15.0003 11.0215 15.0005 13.2363 13.8945 15.4473C13.6475 15.9414 13.0467 16.1406 12.5527 15.8945C12.0588 15.6484 11.8585 15.0469 12.1055 14.5527C12.981 12.8008 13 11.0527 13 8Z" fill="#03123D"/>
<path d="M13 8C13 7.44727 13.4477 7 14 7C14.5523 7 15 7.44727 15 8C15 8.04902 15 8.09785 15 8.14648C15.0003 11.0215 15.0005 13.2363 13.8945 15.4473C13.6475 15.9414 13.0467 16.1406 12.5527 15.8945C12.0588 15.6484 11.8585 15.0469 12.1055 14.5527C12.981 12.8008 13 11.0527 13 8Z" fill="white"/>
<path fill-rule="evenodd" clip-rule="evenodd" d="M5 24H12C12 26.209 13.7908 28 16 28C18.2092 28 20 26.209 20 24H27C27 24 23.25 18.75 22 15C21.1622 12.4863 20.8578 8.40039 20.7483 5.97852C20.6987 4.88281 19.8026 4 18.7048 4H13.2955C12.1977 4 11.3017 4.88281 11.252 5.97852C11.1423 8.40039 10.8378 12.4863 10 15C8.75 18.75 5 24 5 24ZM14 24C14 25.1055 14.8954 26 16 26C17.1046 26 18 25.1055 18 24H14ZM13 8C13 7.44727 13.4477 7 14 7C14.5523 7 15 7.44727 15 8V8.14648C15.0003 11.0215 15.0005 13.2363 13.8945 15.4473C13.6475 15.9414 13.0467 16.1406 12.5527 15.8945C12.0588 15.6484 11.8585 15.0469 12.1055 14.5527C12.981 12.8008 13 11.0527 13 8Z" fill="#03123D"/>
</svg>
