<svg width="32" height="32" viewBox="0 0 32 32" fill="none" xmlns="http://www.w3.org/2000/svg">
<path d="M18 16C18 17.1046 17.1046 18 16 18C14.8954 18 14 17.1046 14 16C14 14.8954 14.8954 14 16 14C17.1046 14 18 14.8954 18 16Z" fill="#03123D"/>
<path d="M30 7C30 9.76142 27.7614 12 25 12C22.2386 12 20 9.76142 20 7C20 4.23858 22.2386 2 25 2C27.7614 2 30 4.23858 30 7Z" fill="#03123D"/>
<path d="M8 20C8 21.1358 8.56026 22.1134 9.48926 22.8359C10.4291 23.5668 11.71 24 13 24C14.29 24 15.5709 23.5668 16.5107 22.8359C17.4397 22.1134 18 21.1358 18 20H20C20 21.8641 19.0601 23.3866 17.7393 24.4141C16.4291 25.4331 14.7099 26 13 26C11.2901 26 9.57091 25.4331 8.26074 24.4141C6.93992 23.3866 6 21.8641 6 20H8Z" fill="#03123D"/>
<path d="M12 15V17H8V15H12Z" fill="#03123D"/>
<path d="M22 19C22 14.0293 17.9706 10 13 10C8.02942 10 4 14.0293 4 19C4 23.9707 8.02942 28 13 28C17.9706 28 22 23.9707 22 19ZM24 19C24 25.0742 19.0751 30 13 30C6.92487 30 2 25.0742 2 19C2 12.9258 6.92487 8 13 8C19.0751 8 24 12.9258 24 19Z" fill="#03123D"/>
</svg>
