<svg width="48" height="48" viewBox="0 0 48 48" fill="none" xmlns="http://www.w3.org/2000/svg">
<path d="M18.4463 8.00098C21.1383 8.00098 23.4156 8.44904 25.4307 9.32617C27.2668 8.49628 29.2932 8.03521 31.4287 8.03516C35.2138 8.03519 38.759 8.96979 41.5469 11.6748C42.1414 12.2516 42.1558 13.2013 41.5791 13.7959C41.0023 14.3902 40.0525 14.4047 39.458 13.8281C37.4067 11.8378 34.7208 11.0352 31.4287 11.0352C30.5141 11.0352 29.6203 11.144 28.7588 11.3496C30.1454 12.4881 31.2748 13.8863 32.1357 15.5449C33.3801 17.9424 34.002 20.7557 34.002 23.9844C34.0019 25.9343 33.784 27.7242 33.3174 29.3545C32.8507 31.0168 32.166 32.4872 31.2949 33.7979C30.5759 34.8797 29.7063 35.828 28.708 36.6484C29.5861 36.8659 30.4972 36.9814 31.4287 36.9814C34.6423 36.9814 37.407 36.1231 39.4727 34.1738C40.075 33.6056 41.0242 33.6335 41.5928 34.2354C42.1614 34.8378 42.1347 35.7878 41.5322 36.3564C38.7587 38.9739 35.1713 39.9814 31.4287 39.9814C29.2844 39.9814 27.2476 39.5089 25.4023 38.6611C24.861 38.8904 24.2948 39.0929 23.7041 39.2646C22.0864 39.7441 20.4062 39.999 18.4463 39.999L6.00195 40V8L18.4463 8.00098ZM13.5312 15.8008V32.2314H18.291C18.342 32.2314 18.3928 32.2299 18.4434 32.2295C17.0561 29.8107 16.2588 26.9817 16.2588 23.9756C16.2588 20.9942 17.039 18.196 18.4004 15.8018C18.3641 15.8015 18.3276 15.8008 18.291 15.8008H13.5312ZM21.6787 16.2236C20.164 18.3708 19.2588 21.0449 19.2588 23.9756C19.2588 26.9236 20.1788 29.6211 21.7119 31.7861C22.512 31.5352 23.1973 31.224 23.7666 30.793C24.3265 30.4094 24.7625 29.9301 25.1357 29.3867C25.5401 28.7794 25.8819 28.0761 26.0996 27.2451C26.3796 26.2862 26.5039 25.2312 26.5039 24.0166C26.5039 22.0986 26.1934 20.4997 25.54 19.2529C24.9801 18.1981 24.2335 17.4306 23.1758 16.8232C22.7262 16.5807 22.2272 16.3812 21.6787 16.2236Z" fill="#03123D"/>
</svg>
