<svg width="64" height="64" viewBox="0 0 64 64" fill="none" xmlns="http://www.w3.org/2000/svg">
<path fill-rule="evenodd" clip-rule="evenodd" d="M51.4142 12.5858C52.1953 13.3668 52.1953 14.6332 51.4142 15.4142L15.4142 51.4142C14.6332 52.1953 13.3668 52.1953 12.5858 51.4142C11.8047 50.6332 11.8047 49.3668 12.5858 48.5858L48.5858 12.5858C49.3668 11.8047 50.6332 11.8047 51.4142 12.5858Z" fill="#03123D"/>
<path fill-rule="evenodd" clip-rule="evenodd" d="M12.5858 12.5858C13.3668 11.8047 14.6332 11.8047 15.4142 12.5858L51.4142 48.5858C52.1953 49.3668 52.1953 50.6332 51.4142 51.4142C50.6332 52.1953 49.3668 52.1953 48.5858 51.4142L12.5858 15.4142C11.8047 14.6332 11.8047 13.3668 12.5858 12.5858Z" fill="#03123D"/>
</svg>
