<svg width="32" height="32" viewBox="0 0 32 32" fill="none" xmlns="http://www.w3.org/2000/svg">
<path d="M26 16H6C4.9 16 4 16.9 4 18V28L8 24H26C27.1 24 28 23.1 28 22V18C28 16.9 27.1 16 26 16Z" fill="#03123D"/>
<path d="M6 14H11C13.76 14 16 11.76 16 9C16 6.24 13.76 4 11 4H6C4.9 4 4 4.9 4 6V12C4 13.1 4.9 14 6 14ZM6 6H11C12.66 6 14 7.34 14 9C14 10.66 12.66 12 11 12H6V6Z" fill="#03123D"/>
<path d="M20 10H23C23.56 10 24 9.56 24 9C24 8.44 23.56 8 23 8H20V6H27C27.56 6 28 5.56 28 5C28 4.44 27.56 4 27 4H18V14H20V10Z" fill="#03123D"/>
</svg>
