<svg width="20" height="20" viewBox="0 0 20 20" fill="none" xmlns="http://www.w3.org/2000/svg">
<path fill-rule="evenodd" clip-rule="evenodd" d="M3 10C3 13.866 6.13401 17 10 17C13.866 17 17 13.866 17 10C17 6.13401 13.866 3 10 3C6.13401 3 3 6.13401 3 10ZM13.5 14.6667C13.4207 14.7262 13.3399 14.7838 13.2577 14.8393C13.0372 14.9882 12.806 15.1223 12.5654 15.2404C12.5421 15.2518 12.5186 15.2631 12.4951 15.2743L12.4788 15.2819C12.4307 15.3046 12.3822 15.3266 12.3333 15.3479L12.3333 10H13.5V14.6667ZM13.5 10V5.33299C14.9167 6.39724 15.833 8.0916 15.833 10C15.833 11.3133 15.399 12.5253 14.6667 13.5003V10H13.5ZM11.1667 10V4.28336C11.5724 4.36573 11.9629 4.49022 12.3333 4.65207V10H11.1667ZM10 10H11.1667V15.7166C10.7897 15.7932 10.3995 15.8333 10 15.8333V10ZM8.83333 10V4.28336C9.21029 4.20684 9.60045 4.16667 10 4.16667V10H8.83333ZM7.66667 10H8.83333L8.83333 15.7166C8.42756 15.6343 8.03708 15.5098 7.66667 15.3479V10ZM6.5 10V5.33333C6.54112 5.30244 6.58266 5.27207 6.6246 5.24224C6.94898 5.01159 7.29769 4.8133 7.66667 4.65207V10H6.5ZM6.5 10H5.33333V6.49971C4.60096 7.47469 4.16699 8.68666 4.16699 10C4.16699 11.9084 5.08331 13.6028 6.5 14.667V10Z" fill="#03123D"/>
</svg>
