<svg width="24" height="24" viewBox="0 0 24 24" fill="none" xmlns="http://www.w3.org/2000/svg">
<path fill-rule="evenodd" clip-rule="evenodd" d="M16.9777 7.5C16.7436 10.1035 14.6879 12 12 12C9.31213 12 7.25642 10.1035 7.02227 7.5H3.5V15.5H6.36791C7.41599 14.2733 8.97432 13.4956 10.7143 13.4956H13.2857C15.0257 13.4956 16.584 14.2733 17.6321 15.5H20.5V7.5H16.9777ZM5.443 17C5.15767 17.6798 5 18.4264 5 19.2099V22H19V19.2099C19 18.4264 18.8423 17.6798 18.557 17H20.5714C21.3604 17 22 16.3844 22 15.625V7.375C22 6.61561 21.3604 6 20.5714 6H16.909C16.4728 3.65719 14.5126 2 12 2C9.47608 2 7.50955 3.58145 7.08518 6H3.42857C2.63959 6 2 6.61561 2 7.375V15.625C2 16.3844 2.63959 17 3.42857 17H5.443ZM10.5713 9.85713L14.857 6.99998L10.5713 4.14284V9.85713Z" fill="#03123D"/>
</svg>
