<svg width="20" height="20" viewBox="0 0 20 20" fill="none" xmlns="http://www.w3.org/2000/svg">
<path fill-rule="evenodd" clip-rule="evenodd" d="M11.4932 3.95935C10.9074 2.68185 9.09224 2.68184 8.50648 3.95935L2.6882 16.6487C2.5731 16.8997 2.68329 17.1965 2.9343 17.3116C3.18532 17.4267 3.48211 17.3165 3.5972 17.0655L6.70843 10.2801L9.99981 16.9999L13.2912 10.28L16.4025 17.0655C16.5176 17.3165 16.8144 17.4267 17.0654 17.3116C17.3164 17.1965 17.4266 16.8997 17.3115 16.6487L11.4932 3.95935ZM10.5842 4.37614L13.1628 9.99998L6.83686 9.99998L9.41548 4.37614C9.64469 3.87625 10.355 3.87625 10.5842 4.37614Z" fill="#03123D"/>
</svg>
