<svg width="64" height="64" viewBox="0 0 64 64" fill="none" xmlns="http://www.w3.org/2000/svg">
<path fill-rule="evenodd" clip-rule="evenodd" d="M32 4C16.5588 4 4 16.5588 4 32C4 47.4412 16.5588 60 32 60C47.4412 60 60 47.4412 60 32C60 16.5588 47.4412 4 32 4ZM23.147 47.9559H16.8676V26.9559H23.147V47.9559ZM19.9559 23.7647C17.8971 23.7647 16.25 22.0147 16.25 19.9559C16.25 17.8971 17.8971 16.147 19.9559 16.147C22.0147 16.147 23.7647 17.8971 23.7647 19.9559C23.7647 22.0147 22.0147 23.7647 19.9559 23.7647ZM47.8529 36.9412V47.9559H41.6765V36.6324C41.6765 34.2647 39.9265 32.4118 37.5588 32.4118C35.1912 32.4118 33.1323 34.2647 33.0294 36.6324V47.9559H26.8529V26.9559H33.0294V29.9412C34.3676 27.9853 36.5294 26.75 39 26.75H40.75C44.6617 26.75 47.8529 30.0441 47.8529 33.8529V37.0441V36.9412Z" fill="#03123D"/>
</svg>
