<svg width="20" height="20" viewBox="0 0 20 20" fill="none" xmlns="http://www.w3.org/2000/svg">
<path fill-rule="evenodd" clip-rule="evenodd" d="M10.0013 5.83301C8.99411 5.83301 8.16797 6.65915 8.16797 7.66634C8.16797 7.94248 7.94411 8.16634 7.66797 8.16634C7.39183 8.16634 7.16797 7.94248 7.16797 7.66634C7.16797 6.10687 8.44183 4.83301 10.0013 4.83301C10.2774 4.83301 10.5013 5.05687 10.5013 5.33301C10.5013 5.60915 10.2774 5.83301 10.0013 5.83301Z" fill="#03123D"/>
<path d="M12 14C12 14 11.9937 12.0883 13.0087 11.2367C14.0237 10.385 14.6654 9.10167 14.6654 7.66667C14.6654 5.08833 12.577 3 9.9987 3C7.42036 3 5.33203 5.08833 5.33203 7.66667C5.33203 9.07833 5.96203 10.3383 6.9537 11.2017C8 12.1126 8 14 8 14L7.5 14.5L8 15L7.5 15.5L8 16L7.5 16.5L8 17H12L12.5 16.5L12 16L12.5 15.5L12 15L12.5 14.5L12 14ZM9.9987 4C11.9237 4 13.67 5.74167 13.67 7.66667C13.67 8.705 13.1933 9.785 12.4 10.45C11.805 10.9517 11.2355 11.9617 11.1188 13H10.5C10.2396 13 10.0456 13.0016 9.87065 13.003C9.56746 13.0054 9.32122 13.0074 8.88477 13C8.79144 12.1133 8.44419 11.1822 7.6 10.4531C6.83 9.78813 6.33 8.68167 6.33 7.66667C6.33 5.74167 8.0737 4 9.9987 4Z" fill="#03123D"/>
</svg>
