<svg width="16" height="16" viewBox="0 0 16 16" fill="none" xmlns="http://www.w3.org/2000/svg">
<path fill-rule="evenodd" clip-rule="evenodd" d="M8 15C6.17018 15 4.41422 14.2836 3.10717 13.006C3.08809 12.9874 3.06911 12.9686 3.05025 12.9497C3.07008 12.9696 3.08711 12.9864 3.10717 13.006C4.36917 14.2397 6.09579 15 8 15ZM8 15C9.85651 15 11.637 14.2625 12.9497 12.9497C11.683 14.2165 9.933 15 8 15Z" fill="#03123D"/>
<path fill-rule="evenodd" clip-rule="evenodd" d="M3.05025 12.9497C3.07008 12.9696 3.08711 12.9864 3.10717 13.006C3.08809 12.9874 3.06911 12.9686 3.05025 12.9497Z" fill="#03123D"/>
<path d="M8 7L5.99845 4L9.99845 4L8 7Z" fill="#03123D"/>
<path fill-rule="evenodd" clip-rule="evenodd" d="M3.05025 12.9497C3.07008 12.9696 3.08711 12.9864 3.10717 13.006C3.08809 12.9874 3.06911 12.9686 3.05025 12.9497Z" fill="#03123D"/>
<path fill-rule="evenodd" clip-rule="evenodd" d="M3.10717 13.006C4.41422 14.2836 6.17018 15 8 15C9.85651 15 11.637 14.2625 12.9497 12.9497C13.7609 12.1386 14.3722 11.1287 14.7082 10C14.8969 9.36614 15 8.69516 15 8C15 4.13401 11.866 1 8 1C4.13401 1 1 4.13401 1 8C1 9.8787 1.74286 11.5873 2.94756 12.8448C2.98143 12.8801 3.01566 12.9151 3.05025 12.9497C3.06911 12.9686 3.08809 12.9874 3.10717 13.006ZM8 2C11.3137 2 14 4.68629 14 8C14 8.42305 13.9562 8.83587 13.8729 9.23418C12.7785 8.34534 10.6794 7 8 7C5.3206 7 3.2215 8.34534 2.12706 9.23418C2.04378 8.83587 2 8.42305 2 8C2 4.68629 4.68629 2 8 2Z" fill="#03123D"/>
</svg>
