<svg width="16" height="16" viewBox="0 0 16 16" fill="none" xmlns="http://www.w3.org/2000/svg">
<path d="M3.5 5C4.32843 5 5 4.32843 5 3.5C5 2.67157 4.32843 2 3.5 2C2.67157 2 2 2.67157 2 3.5C2 4.32843 2.67157 5 3.5 5Z" fill="#03123D"/>
<path d="M12.5 5C13.3284 5 14 4.32843 14 3.5C14 2.67157 13.3284 2 12.5 2C11.6716 2 11 2.67157 11 3.5C11 4.32843 11.6716 5 12.5 5Z" fill="#03123D"/>
<path d="M8 3C8.28 3 8.5 3.22 8.5 3.5C8.5 3.78 8.28 4 8 4C7.72 4 7.5 3.78 7.5 3.5C7.5 3.22 7.72 3 8 3ZM8 2C7.17 2 6.5 2.67 6.5 3.5C6.5 4.33 7.17 5 8 5C8.83 5 9.5 4.33 9.5 3.5C9.5 2.67 8.83 2 8 2Z" fill="#03123D"/>
<path d="M3.5 7.5C3.78 7.5 4 7.72 4 8C4 8.28 3.78 8.5 3.5 8.5C3.22 8.5 3 8.28 3 8C3 7.72 3.22 7.5 3.5 7.5ZM3.5 6.5C2.67 6.5 2 7.17 2 8C2 8.83 2.67 9.5 3.5 9.5C4.33 9.5 5 8.83 5 8C5 7.17 4.33 6.5 3.5 6.5Z" fill="#03123D"/>
<path d="M12.5 7.5C12.78 7.5 13 7.72 13 8C13 8.28 12.78 8.5 12.5 8.5C12.22 8.5 12 8.28 12 8C12 7.72 12.22 7.5 12.5 7.5ZM12.5 6.5C11.67 6.5 11 7.17 11 8C11 8.83 11.67 9.5 12.5 9.5C13.33 9.5 14 8.83 14 8C14 7.17 13.33 6.5 12.5 6.5Z" fill="#03123D"/>
<path d="M8 9.5C8.82843 9.5 9.5 8.82843 9.5 8C9.5 7.17157 8.82843 6.5 8 6.5C7.17157 6.5 6.5 7.17157 6.5 8C6.5 8.82843 7.17157 9.5 8 9.5Z" fill="#03123D"/>
<path d="M3.5 14C4.32843 14 5 13.3284 5 12.5C5 11.6716 4.32843 11 3.5 11C2.67157 11 2 11.6716 2 12.5C2 13.3284 2.67157 14 3.5 14Z" fill="#03123D"/>
<path d="M12.5 14C13.3284 14 14 13.3284 14 12.5C14 11.6716 13.3284 11 12.5 11C11.6716 11 11 11.6716 11 12.5C11 13.3284 11.6716 14 12.5 14Z" fill="#03123D"/>
<path d="M8 12C8.28 12 8.5 12.22 8.5 12.5C8.5 12.78 8.28 13 8 13C7.72 13 7.5 12.78 7.5 12.5C7.5 12.22 7.72 12 8 12ZM8 11C7.17 11 6.5 11.67 6.5 12.5C6.5 13.33 7.17 14 8 14C8.83 14 9.5 13.33 9.5 12.5C9.5 11.67 8.83 11 8 11Z" fill="#03123D"/>
</svg>
