<svg width="24" height="24" viewBox="0 0 24 24" fill="none" xmlns="http://www.w3.org/2000/svg">
<path d="M21 3H3V7H21V3Z" fill="#03123D"/>
<path d="M18.6667 10.6667C19.1269 10.6667 19.5 11.0398 19.5 11.5C19.5 11.9602 19.1269 12.3333 18.6667 12.3333H5.33333C4.8731 12.3333 4.5 11.9602 4.5 11.5C4.5 11.0398 4.8731 10.6667 5.33333 10.6667H18.6667ZM21 10.5C21 9.67157 20.3284 9 19.5 9H4.5C3.67157 9 3 9.67157 3 10.5V12.5C3 13.3284 3.67157 14 4.5 14H19.5C20.3284 14 21 13.3284 21 12.5V10.5Z" fill="#03123D"/>
<path d="M18.6667 17.6667C19.1269 17.6667 19.5 18.0398 19.5 18.5C19.5 18.9602 19.1269 19.3333 18.6667 19.3333H5.33333C4.8731 19.3333 4.5 18.9602 4.5 18.5C4.5 18.0398 4.8731 17.6667 5.33333 17.6667H18.6667ZM21 17.5C21 16.6716 20.3284 16 19.5 16H4.5C3.67157 16 3 16.6716 3 17.5V19.5C3 20.3284 3.67157 21 4.5 21H19.5C20.3284 21 21 20.3284 21 19.5V17.5Z" fill="#03123D"/>
</svg>
