<svg width="48" height="48" viewBox="0 0 48 48" fill="none" xmlns="http://www.w3.org/2000/svg">
<path d="M6 9H18V15H6V9Z" fill="#03123D"/>
<path d="M6 27H18V33H6V27Z" fill="#03123D"/>
<path d="M42 18H30V24H42V18Z" fill="#03123D"/>
<path d="M42 36H30V42H42V36Z" fill="#03123D"/>
<path d="M21 9H33V15H21V9Z" fill="#03123D"/>
<path d="M21 27H33V33H21V27Z" fill="#03123D"/>
<path d="M27 18H15V24H27V18Z" fill="#03123D"/>
<path d="M27 36H15V42H27V36Z" fill="#03123D"/>
<path d="M36 9H42V15H36V9Z" fill="#03123D"/>
<path d="M36 27H42V33H36V27Z" fill="#03123D"/>
<path d="M12 18H6V24H12V18Z" fill="#03123D"/>
<path d="M12 36H6V42H12V36Z" fill="#03123D"/>
</svg>
