<svg width="20" height="20" viewBox="0 0 20 20" fill="none" xmlns="http://www.w3.org/2000/svg">
<path d="M15 4C15 5.10457 14.1046 6 13 6C11.8954 6 11 5.10457 11 4C11 2.89543 11.8954 2 13 2C14.1046 2 15 2.89543 15 4Z" fill="#03123D"/>
<path d="M10.2246 5.58203C10.4187 5.45387 10.6827 5.47562 10.8535 5.64648L13.207 8H15.5C15.7761 8 16 8.22386 16 8.5C16 8.77614 15.7761 9 15.5 9H13C12.8674 9 12.7403 8.94728 12.6465 8.85352L10.5 6.70703L8.28418 8.92188L10.7773 10.584C10.9392 10.6919 11.0237 10.8839 10.9941 11.0762L9.99414 17.5762C9.95208 17.849 9.69671 18.0361 9.42383 17.9941C9.15098 17.9521 8.96388 17.6967 9.00586 17.4238L9.95703 11.2383L7.22266 9.41602C7.09802 9.33292 7.01671 9.1979 7.00195 9.04883C6.98735 8.89992 7.04068 8.75229 7.14648 8.64648L10.1465 5.64648L10.2246 5.58203Z" fill="#03123D"/>
<path d="M2 6.57143L8 2L5.27273 5.42857H7.45455L2.54545 10L4.72727 6.57143H2Z" fill="#03123D"/>
<path d="M18 14C18 12.3438 16.6569 11 15 11C13.3431 11 12 12.3438 12 14C12 15.6562 13.3431 17 15 17C16.6569 17 18 15.6562 18 14ZM19 14C19 16.209 17.2092 18 15 18C12.7908 18 11 16.209 11 14C11 11.791 12.7908 10 15 10C17.2092 10 19 11.791 19 14Z" fill="#03123D"/>
<path d="M8 14C8 12.3438 6.65686 11 5 11C3.34314 11 2 12.3438 2 14C2 15.6562 3.34314 17 5 17C6.65686 17 8 15.6562 8 14ZM9 14C9 16.209 7.20917 18 5 18C2.79083 18 1 16.209 1 14C1 11.791 2.79083 10 5 10C7.20917 10 9 11.791 9 14Z" fill="#03123D"/>
</svg>
