<svg width="24" height="24" viewBox="0 0 24 24" fill="none" xmlns="http://www.w3.org/2000/svg">
<path d="M17.6512 14.583C17.8762 14.8527 17.9998 15.1928 17.9998 15.5439V19.5C17.9996 20.3282 17.328 20.9999 16.4998 21H7.4998C6.6715 21 6 20.3283 5.9998 19.5V15.5439C5.9998 15.1927 6.12334 14.8527 6.34843 14.583L11.9998 7.81152L17.6512 14.583ZM20.8221 13.7656L20.869 13.8262C21.0841 14.1396 21.0305 14.5714 20.7342 14.8223C20.4377 15.0732 20.0029 15.0543 19.7293 14.79L19.6776 14.7344L11.9998 5.66016L4.32206 14.7344C4.05452 15.0505 3.58159 15.0897 3.26541 14.8223C2.94929 14.5547 2.90999 14.0818 3.17752 13.7656L11.9998 3.33887L20.8221 13.7656Z" fill="#03123D"/>
</svg>
