<svg width="16" height="16" viewBox="0 0 16 16" fill="none" xmlns="http://www.w3.org/2000/svg">
<path fill-rule="evenodd" clip-rule="evenodd" d="M9.36206 2.75776C8.82581 1.59588 7.17443 1.59588 6.63818 2.75777L1.54614 13.7905C1.43042 14.0412 1.53987 14.3383 1.79059 14.454C2.04132 14.5697 2.33838 14.4603 2.4541 14.2096L5.16648 8.33276L8.00012 14L10.8338 8.33276L13.5461 14.2096C13.6619 14.4603 13.9589 14.5697 14.2096 14.454C14.4604 14.3383 14.5698 14.0412 14.4541 13.7905L9.36206 2.75776ZM8.4541 3.17682L10.6802 8.00005L5.32004 8.00005L7.54614 3.17682C7.72489 2.78953 8.27535 2.78953 8.4541 3.17682Z" fill="#03123D"/>
</svg>
