<svg width="48" height="48" viewBox="0 0 48 48" fill="none" xmlns="http://www.w3.org/2000/svg">
<path d="M18.0056 34.5C18.005 34.5 18.0061 34.5 18.0056 34.5Z" fill="#03123D"/>
<path fill-rule="evenodd" clip-rule="evenodd" d="M24.0051 13.5C21.5335 13.5 19.5051 15.5284 19.5051 18C19.5051 18.8284 18.8335 19.5 18.0051 19.5C17.1766 19.5 16.5051 18.8284 16.5051 18C16.5051 13.8716 19.8766 10.5 24.0051 10.5C24.8335 10.5 25.5051 11.1716 25.5051 12C25.5051 12.8284 24.8335 13.5 24.0051 13.5Z" fill="#03123D"/>
<path fill-rule="evenodd" clip-rule="evenodd" d="M18.0056 34.5L19.5051 35.9995L18.0051 37.5L19.5051 39L18.0051 40.5005L19.5051 42.0005H28.5051L30.0051 40.5005L28.5051 39L30.0051 37.5L28.5051 35.9995L30.0051 34.4995C30.0051 34.4995 30.2139 28.47 31.7439 27.18C34.3539 24.99 36.0039 21.69 36.0039 18C36.0039 11.37 30.6339 6 24.0039 6C17.3739 6 12.0039 11.37 12.0039 18C12.0039 21.63 13.6239 24.87 16.1739 27.09C18.2739 28.92 18.0056 34.5 18.0056 34.5ZM33.0039 18C33.0039 13.05 28.9539 9 24.0039 9C19.0539 9 15.0039 13.05 15.0039 18C15.0039 20.61 16.1439 23.1 18.1239 24.81C19.9839 26.43 20.6739 29.25 20.9139 31.53C22.6839 31.56 24.9039 31.56 26.7339 31.56H27.2139C27.5139 28.89 28.2639 26.16 29.7939 24.87C31.8339 23.16 33.0039 20.67 33.0039 18ZM24.0051 13.5C21.5335 13.5 19.5051 15.5284 19.5051 18C19.5051 18.8284 18.8335 19.5 18.0051 19.5C17.1766 19.5 16.5051 18.8284 16.5051 18C16.5051 13.8716 19.8766 10.5 24.0051 10.5C24.8335 10.5 25.5051 11.1716 25.5051 12C25.5051 12.8284 24.8335 13.5 24.0051 13.5Z" fill="#03123D"/>
</svg>
