<svg width="20" height="20" viewBox="0 0 20 20" fill="none" xmlns="http://www.w3.org/2000/svg">
<path d="M16.1025 3.00488C16.6067 3.05621 17 3.48232 17 4V16L16.9951 16.1025C16.9472 16.573 16.573 16.9472 16.1025 16.9951L16 17H4C3.48232 17 3.05621 16.6067 3.00488 16.1025L3 16V4C3 3.44772 3.44772 3 4 3H16L16.1025 3.00488ZM4 16H9.5V10.9121L7.85352 12.5586C7.65826 12.7538 7.34175 12.7538 7.14648 12.5586C6.95122 12.3633 6.95122 12.0468 7.14648 11.8516L10 8.99805L12.8535 11.8516L12.918 11.9297C13.0461 12.1238 13.0244 12.3877 12.8535 12.5586C12.6827 12.7295 12.4187 12.7512 12.2246 12.623L12.1465 12.5586L10.5 10.9121V16H16V7H4V16Z" fill="#03123D"/>
</svg>
