<svg width="16" height="16" viewBox="0 0 16 16" fill="none" xmlns="http://www.w3.org/2000/svg">
<path d="M13 13L13.1025 12.9961C13.5729 12.9473 13.9472 12.5723 13.9951 12.1016L14 12V4C14 3.44727 13.5523 3 13 3H3C2.44769 3 2 3.44727 2 4V12L2.00488 12.1016C2.0528 12.5723 2.42706 12.9473 2.89746 12.9961L3 13H13ZM13 8.5V12H6V4H13V7.5H9.20703L10.8535 5.85352C11.0488 5.6582 11.0488 5.3418 10.8535 5.14648C10.6583 4.95117 10.3417 4.95117 10.1465 5.14648L7.29297 8L10.1465 10.8535C10.3417 11.0488 10.6583 11.0488 10.8535 10.8535C11.0488 10.6582 11.0488 10.3418 10.8535 10.1465L9.20703 8.5H13Z" fill="#03123D"/>
</svg>
