<svg width="64" height="64" viewBox="0 0 64 64" fill="none" xmlns="http://www.w3.org/2000/svg">
<path d="M14 20C17.3137 20 20 17.3137 20 14C20 10.6863 17.3137 8 14 8C10.6863 8 8 10.6863 8 14C8 17.3137 10.6863 20 14 20Z" fill="#03123D"/>
<path d="M50 20C53.3137 20 56 17.3137 56 14C56 10.6863 53.3137 8 50 8C46.6863 8 44 10.6863 44 14C44 17.3137 46.6863 20 50 20Z" fill="#03123D"/>
<path d="M32 12C33.12 12 34 12.88 34 14C34 15.12 33.12 16 32 16C30.88 16 30 15.12 30 14C30 12.88 30.88 12 32 12ZM32 8C28.68 8 26 10.68 26 14C26 17.32 28.68 20 32 20C35.32 20 38 17.32 38 14C38 10.68 35.32 8 32 8Z" fill="#03123D"/>
<path d="M14 30C15.12 30 16 30.88 16 32C16 33.12 15.12 34 14 34C12.88 34 12 33.12 12 32C12 30.88 12.88 30 14 30ZM14 26C10.68 26 8 28.68 8 32C8 35.32 10.68 38 14 38C17.32 38 20 35.32 20 32C20 28.68 17.32 26 14 26Z" fill="#03123D"/>
<path d="M50 30C51.12 30 52 30.88 52 32C52 33.12 51.12 34 50 34C48.88 34 48 33.12 48 32C48 30.88 48.88 30 50 30ZM50 26C46.68 26 44 28.68 44 32C44 35.32 46.68 38 50 38C53.32 38 56 35.32 56 32C56 28.68 53.32 26 50 26Z" fill="#03123D"/>
<path d="M32 38C35.3137 38 38 35.3137 38 32C38 28.6863 35.3137 26 32 26C28.6863 26 26 28.6863 26 32C26 35.3137 28.6863 38 32 38Z" fill="#03123D"/>
<path d="M14 56C17.3137 56 20 53.3137 20 50C20 46.6863 17.3137 44 14 44C10.6863 44 8 46.6863 8 50C8 53.3137 10.6863 56 14 56Z" fill="#03123D"/>
<path d="M50 56C53.3137 56 56 53.3137 56 50C56 46.6863 53.3137 44 50 44C46.6863 44 44 46.6863 44 50C44 53.3137 46.6863 56 50 56Z" fill="#03123D"/>
<path d="M32 48C33.12 48 34 48.88 34 50C34 51.12 33.12 52 32 52C30.88 52 30 51.12 30 50C30 48.88 30.88 48 32 48ZM32 44C28.68 44 26 46.68 26 50C26 53.32 28.68 56 32 56C35.32 56 38 53.32 38 50C38 46.68 35.32 44 32 44Z" fill="#03123D"/>
</svg>
