<svg width="48" height="48" viewBox="0 0 48 48" fill="none" xmlns="http://www.w3.org/2000/svg">
<path d="M24 3C12.402 3 3 12.402 3 24C3 35.598 12.402 45 24 45C35.598 45 45 35.598 45 24C45 12.402 35.598 3 24 3ZM15.1395 39.6718C9.68245 36.5798 6 30.72 6 24C6 17.28 9.68245 11.4202 15.1395 8.32822C16.2779 17.8224 24 24 24 24C24 24 16.2779 30.1776 15.1395 39.6718ZM24 24C24 24 31.7179 17.8221 32.8596 8.32769C38.3171 11.4195 42 17.2797 42 24C42 30.7204 38.3171 36.5805 32.8596 39.6723C31.7179 30.1779 24 24 24 24Z" fill="#03123D"/>
</svg>
