<svg width="64" height="64" viewBox="0 0 64 64" fill="none" xmlns="http://www.w3.org/2000/svg">
<path d="M32.7139 4.58105C47.5194 4.95706 59.4355 17.106 59.4355 32.001L59.4268 32.708C59.0506 47.5134 46.9017 59.4296 32.0068 59.4297L31.2998 59.4209C16.7293 59.0509 4.95706 47.2785 4.58691 32.708L4.57812 32.001C4.57812 16.8696 16.8755 4.57237 32.0068 4.57227L32.7139 4.58105ZM32.0068 8.57227C19.0846 8.57237 8.57812 19.0787 8.57812 32.001C8.57832 44.923 19.0847 55.4296 32.0068 55.4297C44.9289 55.4296 55.4354 44.9231 55.4355 32.001C55.4355 19.0787 44.9291 8.57234 32.0068 8.57227Z" fill="#03123D"/>
<path d="M44.416 32.4385L24.9814 47.0146L22.5811 43.8145L37.748 32.4385L22.5811 21.0625L24.9814 17.8633L44.416 32.4385Z" fill="#03123D"/>
</svg>
