<svg width="32" height="32" viewBox="0 0 32 32" fill="none" xmlns="http://www.w3.org/2000/svg">
<path d="M26 4C27.1046 4 28 4.89543 28 6V26C28 27.0357 27.2128 27.887 26.2041 27.9893L26 28H6L5.7959 27.9893C4.85435 27.8938 4.1062 27.1457 4.01074 26.2041L4 26V6C4 4.89543 4.89543 4 6 4H26ZM6 26H15V15.4141L11.707 18.707C11.3165 19.0975 10.6835 19.0975 10.293 18.707C9.90248 18.3165 9.90248 17.6835 10.293 17.293L16 11.5859L21.707 17.293L21.7754 17.3691C22.0957 17.7619 22.0731 18.3409 21.707 18.707C21.3409 19.0731 20.7619 19.0957 20.3691 18.7754L20.293 18.707L17 15.4141V26H26V10H6V26Z" fill="#03123D"/>
</svg>
