<svg width="32" height="32" viewBox="0 0 32 32" fill="none" xmlns="http://www.w3.org/2000/svg">
<path fill-rule="evenodd" clip-rule="evenodd" d="M28 13V11H27V13H28Z" fill="#03123D"/>
<path d="M26 9H24L24 16H20L20 13H23V11H20V4H18V11H15V13H18L18 16H14L14 9H12L12 16H8V13H11V11H8L8 4H6L5.99969 11H4V13H5.9996L5.99947 16H4L3.99902 28H27.999L28 16H26L26 9Z" fill="#03123D"/>
<path fill-rule="evenodd" clip-rule="evenodd" d="M14 9H17V7H14V4H12V7H9V9H12V7H14V9ZM21 7V9H24V7H26V9H28V7H26V4H24V7H21ZM4 7V9H5V7H4Z" fill="#03123D"/>
</svg>
