<svg width="64" height="64" viewBox="0 0 64 64" fill="none" xmlns="http://www.w3.org/2000/svg">
<path fill-rule="evenodd" clip-rule="evenodd" d="M24 48H10C10 48 17.5001 37.5 20 30C21.6757 24.9727 22.2846 16.8008 22.504 11.959C22.6033 9.76562 24.3954 8 26.5911 8H37.4095C39.6052 8 41.3973 9.76562 41.4966 11.959C41.7157 16.8008 42.3243 24.9727 44 30C46.4999 37.5 54 48 54 48H40C40 52.418 36.4183 56 32 56C27.5817 56 24 52.418 24 48ZM26 16C26 14.8945 26.8954 14 28 14C29.1046 14 30 14.8945 30 16V16.2871C30.0006 22.043 30.0011 26.4707 27.7891 30.8945C27.2951 31.8828 26.0934 32.2832 25.1055 31.7891C24.1175 31.2949 23.717 30.0938 24.2109 29.1055C25.962 25.6035 26 22.1055 26 16ZM28 48C28 50.209 29.7908 52 32 52C34.2092 52 36 50.209 36 48H28Z" fill="#03123D"/>
<path d="M42 4C38.7284 4 35.8237 5.57111 33.9993 8C32.7439 9.67132 32 11.7488 32 14C32 19.5228 36.4772 24 42 24C42.21 24 42.4186 23.9935 42.6254 23.9808C47.8569 23.658 52 19.3128 52 14C52 8.47715 47.5228 4 42 4Z" fill="#FF8080"/>
</svg>
