<svg width="64" height="64" viewBox="0 0 64 64" fill="none" xmlns="http://www.w3.org/2000/svg">
<path fill-rule="evenodd" clip-rule="evenodd" d="M56 26V22H54V26H56Z" fill="#03123D"/>
<path d="M16 8H12L11.9994 22H8V26H11.9992L11.9989 32H8L7.99805 56H55.998L56 32H52L52 18H48L48 32H40L40 26H46V22H40V8H36V22H30V26H36L36 32H28L28 18H24L24 32H16V26H22V22H16L16 8Z" fill="#03123D"/>
<path fill-rule="evenodd" clip-rule="evenodd" d="M28 18H34V14H28V8H24V14H18V18H24V14H28V18ZM42 14V18H48V14H52V18H56V14H52V8H48V14H42ZM8 14V18H10V14H8Z" fill="#03123D"/>
</svg>
