<svg width="64" height="64" viewBox="0 0 64 64" fill="none" xmlns="http://www.w3.org/2000/svg">
<path fill-rule="evenodd" clip-rule="evenodd" d="M37.438 11.4756C35.2838 6.85756 28.7172 6.85757 26.563 11.4756L6.18798 55.1546C5.72103 56.1556 6.15398 57.3456 7.155 57.8125C8.15601 58.2795 9.34603 57.8465 9.81298 56.8455L20.7259 33.4509L32.0005 56L43.275 33.4509L54.188 56.8455C54.6549 57.8465 55.8449 58.2795 56.846 57.8125C57.847 57.3456 58.2799 56.1556 57.813 55.1546L37.438 11.4756ZM33.813 13.1666L42.5983 32L21.4027 32L30.188 13.1666C30.906 11.6272 33.0949 11.6272 33.813 13.1666Z" fill="#03123D"/>
</svg>
