<svg width="24" height="24" viewBox="0 0 24 24" fill="none" xmlns="http://www.w3.org/2000/svg">
<path fill-rule="evenodd" clip-rule="evenodd" d="M21 9.75V8.25H20.25V9.75H21Z" fill="#03123D"/>
<path d="M6 3H4.5L4.49969 8.25H3V9.75H4.4996L4.49947 12H3L2.99902 21H20.999L21 12H19.5V6.75H18L18 12H15L15 9.75H17.25V8.25H15V3H13.5V8.25H11.25V9.75H13.5L13.5 12H10.5L10.5 6.75H9L9 12H6L6 9.75H8.25V8.25H6L6 3Z" fill="#03123D"/>
<path fill-rule="evenodd" clip-rule="evenodd" d="M10.5 6.75H12.75V5.25H10.5V3H9V5.25H6.75V6.75H9V5.25H10.5V6.75ZM15.75 5.25V6.75H18V5.25H19.5V6.75H21V5.25H19.5V3H18V5.25H15.75ZM3 5.25V6.75H3.75V5.25H3Z" fill="#03123D"/>
</svg>
