<svg width="20" height="20" viewBox="0 0 20 20" fill="none" xmlns="http://www.w3.org/2000/svg">
<path fill-rule="evenodd" clip-rule="evenodd" d="M10 2C5.58823 2 2 5.58824 2 10C2 14.4118 5.58823 18 10 18C14.4118 18 18 14.4118 18 10C18 5.58824 14.4118 2 10 2ZM7.47058 14.5588H5.67647V8.55882H7.47058V14.5588ZM6.55882 7.64706C5.97059 7.64706 5.5 7.14706 5.5 6.55882C5.5 5.97059 5.97059 5.47059 6.55882 5.47059C7.14706 5.47059 7.64705 5.97059 7.64705 6.55882C7.64705 7.14706 7.14706 7.64706 6.55882 7.64706ZM14.5294 11.4118V14.5588H12.7647V11.3235C12.7647 10.6471 12.2647 10.1177 11.5882 10.1177C10.9118 10.1177 10.3235 10.6471 10.2941 11.3235V14.5588H8.52941V8.55882H10.2941V9.41177C10.6765 8.85295 11.2941 8.5 12 8.5H12.5C13.6176 8.5 14.5294 9.44118 14.5294 10.5294V11.4412V11.4118Z" fill="#03123D"/>
</svg>
