<svg width="48" height="48" viewBox="0 0 48 48" fill="none" xmlns="http://www.w3.org/2000/svg">
<path fill-rule="evenodd" clip-rule="evenodd" d="M39.1543 41.9961L39 42H9L8.8457 41.9961C7.31166 41.9184 6.08163 40.6883 6.00391 39.1543L6 39V9C6 7.34315 7.34315 6 9 6H39C40.6569 6 42 7.34315 42 9V39C42 40.6051 40.7394 41.9158 39.1543 41.9961ZM39 39V33H33V39H39ZM33 18V30H39V18H33ZM9 33V39H15V33H9ZM15 30V18H9V30H15ZM18 18V30L30 30V18L18 18ZM30 33L18 33V39H30V33ZM9 15V9H15V15H9ZM30 15V9H18V15L30 15ZM39 15H33V9H39V15Z" fill="#03123D"/>
</svg>
