<svg width="64" height="64" viewBox="0 0 64 64" fill="none" xmlns="http://www.w3.org/2000/svg">
<path fill-rule="evenodd" clip-rule="evenodd" d="M52 12.0001H32V24.0001H52V12.0001ZM28 8.00012V28.0001H56V8.00012H28Z" fill="#03123D"/>
<path fill-rule="evenodd" clip-rule="evenodd" d="M52 36.0001H32V48.0001H52V36.0001ZM28 32.0001V52.0001H56V32.0001H28Z" fill="#03123D"/>
<path fill-rule="evenodd" clip-rule="evenodd" d="M11.6 8.80012L16 14.6668L20.4 8.80012C21.0627 7.91646 22.3163 7.73738 23.2 8.40012C24.0837 9.06286 24.2627 10.3165 23.6 11.2001L18.5 18.0001L23.6 24.8001C24.2627 25.6838 24.0837 26.9374 23.2 27.6001C22.3163 28.2629 21.0627 28.0838 20.4 27.2001L16 21.3335L11.6 27.2001C10.9373 28.0838 9.68365 28.2629 8.8 27.6001C7.91634 26.9374 7.73726 25.6838 8.4 24.8001L13.5 18.0001L8.4 11.2001C7.73726 10.3165 7.91634 9.06286 8.8 8.40012C9.68366 7.73738 10.9373 7.91646 11.6 8.80012Z" fill="#03123D"/>
<path fill-rule="evenodd" clip-rule="evenodd" d="M16.1432 43.257L20.143 33.2573C20.5533 32.2318 21.7172 31.7329 22.7428 32.1432C23.7683 32.5534 24.2672 33.7173 23.857 34.7429L16.3598 53.4857C15.7524 55.0043 14.2816 56.0001 12.6459 56.0001H8.76562C7.66106 56.0001 6.76562 55.1047 6.76562 54.0001C6.76562 52.8955 7.66106 52.0001 8.76562 52.0001L12.6459 52.0001L14.0423 48.5093L8.16171 34.788C7.7266 33.7727 8.1969 32.5969 9.21216 32.1618C10.2274 31.7267 11.4032 32.197 11.8383 33.2123L16.1432 43.257Z" fill="#03123D"/>
</svg>
