<svg width="32" height="32" viewBox="0 0 32 32" fill="none" xmlns="http://www.w3.org/2000/svg">
<path fill-rule="evenodd" clip-rule="evenodd" d="M11.8339 8C12.3873 8.00002 12.927 8.05369 13.4483 8.15586C8.85062 12.0011 8.85054 19.9991 13.4482 23.8442C12.927 23.9463 12.3872 24 11.8339 24C9.11054 24 7.2083 22.9824 5.96372 21.5586C4.68497 20.0955 3.99984 18.0827 3.99984 16C3.99984 13.9173 4.68497 11.9045 5.96372 10.4414C7.2083 9.01758 9.11054 8 11.8339 8ZM15.7459 25.2327C14.5417 25.727 13.2202 26 11.8339 26L11.2284 25.9854C-1.27487 25.3796 -1.07281 6 11.8339 6L12.3564 6.0127C13.5525 6.0723 14.6941 6.33527 15.7462 6.76716C16.9268 6.27751 18.2894 6 19.8339 6L20.3564 6.0127C25.7282 6.28035 30 10.6496 30 16C30 21.5227 25.4485 25.9998 19.8339 26L19.2284 25.9854C17.9307 25.9225 16.7699 25.6574 15.7459 25.2327ZM18.1272 23.854C18.6562 23.949 19.2245 24 19.8339 24C24.3752 23.9998 28 20.3872 28 16C28 11.6128 24.3752 8.00019 19.8339 8C19.2246 8 18.6563 8.05094 18.1274 8.14598C20.4861 9.97737 22 12.8148 22 16C22 19.1853 20.486 22.0227 18.1272 23.854Z" fill="#03123D"/>
</svg>
