<svg width="16" height="16" viewBox="0 0 16 16" fill="none" xmlns="http://www.w3.org/2000/svg">
<path d="M13.1468 7.14698L6.89676 13.397C5.84936 14.4441 4.15095 14.4436 3.10365 13.3963C2.05659 12.349 2.0566 10.6512 3.10365 9.6039L10.3543 2.35329C10.9873 1.72051 12.0135 1.72082 12.6461 2.35398C13.2782 2.98684 13.2784 4.0126 12.6461 4.64517L5.39622 11.8965C5.17725 12.1152 4.82237 12.1153 4.60349 11.8965C4.38472 11.6776 4.38482 11.3227 4.60349 11.1037L10.8508 4.85371C11.046 4.65841 11.0461 4.34183 10.8508 4.14661C10.6554 3.95139 10.3389 3.9513 10.1436 4.14661L3.89639 10.3966C3.28718 11.0061 3.2871 11.9942 3.89639 12.6036C4.50594 13.2131 5.49456 13.2125 6.10402 12.6029L13.3532 5.35228C14.3759 4.32936 14.376 2.671 13.3539 1.64756C12.3309 0.623216 10.671 0.622619 9.64715 1.64618L2.39655 8.89679C0.958965 10.3346 0.958963 12.6656 2.39655 14.1034C3.83437 15.5412 6.16594 15.5418 7.60386 14.1041L13.8539 7.85408C14.0491 7.65889 14.0489 7.34226 13.8539 7.14698C13.6586 6.95171 13.342 6.95171 13.1468 7.14698Z" fill="#03123D"/>
</svg>
