<svg width="20" height="20" viewBox="0 0 20 20" fill="none" xmlns="http://www.w3.org/2000/svg">
<path fill-rule="evenodd" clip-rule="evenodd" d="M11.3107 4.1436C13.9941 4.74153 16 7.13651 16 10C16 12.8632 13.9945 15.258 11.3115 15.8562C13.0742 14.0136 13.9999 12.0308 14 10.0003C14 7.96944 13.074 5.98649 11.3107 4.1436ZM8.00945 15.6619C8.54973 15.8519 9.1254 15.9667 9.72392 15.9938C11.9542 14.0246 12.9999 11.98 13 10.0003C13 8.0206 11.9545 5.9754 9.72427 4.00622C9.12581 4.03329 8.55019 4.14803 8.00994 4.33791C9.74269 6.03854 10.6457 7.99918 10.6458 9.99967C10.6458 12.0004 9.74257 13.9611 8.00945 15.6619ZM10 17C13.866 17 17 13.866 17 10C17 6.13401 13.866 3 10 3C6.13401 3 3 6.13401 3 10C3 13.866 6.13401 17 10 17ZM7.02912 15.214C6.5776 14.9562 6.16279 14.6414 5.7945 14.2795C6.66272 12.54 7.14583 11.2869 7.14583 9.99967C7.14575 8.71251 6.6626 7.46004 5.79439 5.72064C6.16265 5.3587 6.57741 5.04391 7.0289 4.78608C8.80215 6.40574 9.64573 8.22507 9.64583 9.99967C9.64583 11.7744 8.80242 13.5943 7.02912 15.214ZM5.08902 13.4479C5.81931 11.9397 6.14583 10.9546 6.14583 9.99967C6.14576 9.0448 5.81921 8.06023 5.08893 6.55219C4.40283 7.52767 4 8.71679 4 10C4 11.2833 4.40286 12.4724 5.08902 13.4479Z" fill="#03123D"/>
</svg>
