<svg width="24" height="24" viewBox="0 0 24 24" fill="none" xmlns="http://www.w3.org/2000/svg">
<path d="M3.09177 15.3906C3.27783 15.0499 3.68967 14.9111 4.04002 15.0586L4.10935 15.0918L12 19.3955L19.8906 15.0918C20.2541 14.8935 20.7098 15.0272 20.9082 15.3906C21.1064 15.7542 20.9727 16.2098 20.6094 16.4082L12 21.1045L3.3906 16.4082L3.32517 16.3682C3.01171 16.1533 2.90587 15.7315 3.09177 15.3906Z" fill="#03123D"/>
<path d="M3.09177 11.6406C3.27783 11.2999 3.68967 11.1611 4.04002 11.3086L4.10935 11.3418L12 15.6455L19.8906 11.3418C20.2541 11.1435 20.7098 11.2772 20.9082 11.6406C21.1064 12.0042 20.9727 12.4598 20.6094 12.6582L12 17.3545L3.3906 12.6582L3.32517 12.6182C3.01171 12.4033 2.90587 11.9815 3.09177 11.6406Z" fill="#03123D"/>
<path d="M20.5234 7.58984C21.0493 7.87302 21.0493 8.62698 20.5234 8.91016L12 13.5L3.47654 8.91016C2.95064 8.62698 2.95064 7.87302 3.47654 7.58984L12 3L20.5234 7.58984Z" fill="#03123D"/>
</svg>
