<svg width="32" height="32" viewBox="0 0 32 32" fill="none" xmlns="http://www.w3.org/2000/svg">
<path d="M21 6C23.3339 6 25.5347 6.50622 27.3223 7.95801L27.6738 8.26172L27.7461 8.33398C28.0841 8.71171 28.0873 9.29135 27.7383 9.67383C27.3893 10.0562 26.8122 10.1056 26.4053 9.80371L26.3262 9.73828L26.0674 9.51562C24.7485 8.4427 23.0537 8 21 8C20.2595 8 19.5425 8.1003 18.8613 8.28613C19.6473 8.96102 20.2952 9.77071 20.7998 10.7158C21.5998 12.2143 22 13.9723 22 15.9902C22 17.2089 21.8595 18.3278 21.5596 19.3467C21.2596 20.3856 20.8198 21.3049 20.2598 22.124C19.8576 22.7124 19.382 23.2375 18.8428 23.7021C19.5304 23.8946 20.2537 24 21 24C23.1387 24 24.9729 23.4616 26.3359 22.252C26.749 21.8854 27.3814 21.923 27.748 22.3359C28.1146 22.749 28.077 23.3814 27.6641 23.748C25.8271 25.3784 23.4613 26 21 26C19.4803 26 18.0355 25.6575 16.7393 25.0469C16.3115 25.2392 15.8584 25.4057 15.3799 25.541C14.3399 25.8407 13.2599 26 12 26H4V6L12 6.00098C13.844 6.00098 15.385 6.31878 16.7422 6.94043C18.0366 6.33756 19.4798 6 21 6ZM8.83984 10.876V21.1455H11.9004C12.0698 21.1455 12.2355 21.1402 12.3975 21.1328C11.4871 19.6272 10.9609 17.8646 10.9609 15.9795C10.9609 14.1136 11.4741 12.3733 12.3643 10.8848C12.2135 10.8783 12.0589 10.876 11.9004 10.876H8.83984ZM14.501 11.2793C13.533 12.5962 12.9609 14.2195 12.9609 15.9795C12.9609 17.752 13.5445 19.3909 14.5264 20.7197C14.8616 20.5903 15.1597 20.4376 15.4199 20.2461C15.7798 20.0064 16.0598 19.7068 16.2998 19.3672C16.5598 18.9876 16.7799 18.5478 16.9199 18.0283C17.0999 17.429 17.1797 16.7698 17.1797 16.0107C17.1797 14.8119 16.9796 13.8124 16.5596 13.0332C16.1996 12.374 15.7199 11.8942 15.04 11.5146C14.8715 11.4262 14.6911 11.3498 14.501 11.2793Z" fill="#03123D"/>
</svg>
