<svg width="64" height="64" viewBox="0 0 64 64" fill="none" xmlns="http://www.w3.org/2000/svg">
<path d="M56 8V56H8V8H56ZM12 52H52V12H12V52Z" fill="#03123D"/>
<path d="M16 16H24V24H16V16Z" fill="#03123D"/>
<path d="M16 28H24V36H16V28Z" fill="#03123D"/>
<path d="M16 40H24V48H16V40Z" fill="#03123D"/>
<path d="M40 16H48V24H40V16Z" fill="#03123D"/>
<path d="M28 16H36V24H28V16Z" fill="#03123D"/>
<path d="M40 28H48V36H40V28Z" fill="#03123D"/>
<path d="M28 28H36V36H28V28Z" fill="#03123D"/>
<path d="M28 40H36V48H28V40Z" fill="#03123D"/>
</svg>
