<svg width="16" height="16" viewBox="0 0 16 16" fill="none" xmlns="http://www.w3.org/2000/svg">
<path fill-rule="evenodd" clip-rule="evenodd" d="M14.0001 11V14H2L2.0001 11.0001L14.0001 11ZM6.00012 12H3.50012C3.22012 12 3.00012 12.22 3.00012 12.5C3.00012 12.78 3.22012 13 3.50012 13H6.00012C6.28012 13 6.50012 12.78 6.50012 12.5C6.50012 12.22 6.28012 12 6.00012 12Z" fill="#03123D"/>
<path d="M7.99512 10.2099C8.12594 10.2126 8.25751 10.1626 8.36012 10.06L11.5601 6.86C11.7601 6.66 11.7601 6.35 11.5601 6.15C11.3601 5.95 11.0501 5.95 10.8501 6.15L8.50012 8.5V2.5C8.50012 2.22 8.28012 2 8.00012 2C7.72012 2 7.50012 2.22 7.50012 2.5V8.51L5.14012 6.15C4.94012 5.95 4.63012 5.95 4.43012 6.15C4.23012 6.35 4.23012 6.66 4.43012 6.86L7.63012 10.06C7.73274 10.1626 7.86431 10.2126 7.99512 10.2099Z" fill="#03123D"/>
</svg>
