<svg width="64" height="64" viewBox="0 0 64 64" fill="none" xmlns="http://www.w3.org/2000/svg">
<path d="M36 32C36 34.2091 34.2091 36 32 36C29.7909 36 28 34.2091 28 32C28 29.7909 29.7909 28 32 28C34.2091 28 36 29.7909 36 32Z" fill="#03123D"/>
<path d="M60 14C60 19.5228 55.5228 24 50 24C44.4772 24 40 19.5228 40 14C40 8.47715 44.4772 4 50 4C55.5228 4 60 8.47715 60 14Z" fill="#03123D"/>
<path d="M16 40C16 42.2713 17.1198 44.2258 18.9775 45.6709C20.8572 47.1329 23.4197 48 26 48C28.5803 48 31.1428 47.1329 33.0225 45.6709C34.8802 44.2258 36 42.2713 36 40H40C40 43.7285 38.1195 46.7742 35.4775 48.8291C32.8573 50.8669 29.4195 52 26 52C22.5805 52 19.1427 50.8669 16.5225 48.8291C13.8805 46.7742 12 43.7285 12 40H16Z" fill="#03123D"/>
<path d="M24 30V34H16V30H24Z" fill="#03123D"/>
<path d="M44 38C44 28.0586 35.9411 20 26 20C16.0589 20 8 28.0586 8 38C8 47.9414 16.0589 56 26 56C35.9411 56 44 47.9414 44 38ZM48 38C48 50.1504 38.1503 60 26 60C13.8497 60 4 50.1504 4 38C4 25.8496 13.8497 16 26 16C38.1503 16 48 25.8496 48 38Z" fill="#03123D"/>
</svg>
