<svg width="20" height="20" viewBox="0 0 20 20" fill="none" xmlns="http://www.w3.org/2000/svg">
<path fill-rule="evenodd" clip-rule="evenodd" d="M7.11893 4.77734C7.70556 4.77739 8.26903 4.87009 8.79544 5.04107C5.80794 7.42756 5.80773 12.5716 8.79503 14.9581C8.26873 15.129 7.70541 15.2216 7.11893 15.2217C5.35663 15.2217 4.10461 14.5602 3.28202 13.6191C2.44247 12.6585 1.99988 11.3467 1.99979 10C1.99979 8.6531 2.44235 7.34058 3.28202 6.37988C4.10461 5.43881 5.35663 4.77734 7.11893 4.77734ZM9.84398 4.38274C9.11101 4.03791 8.30001 3.82784 7.44412 3.78516L7.11893 3.77734C-0.911844 3.77734 -1.03779 15.836 6.74198 16.2129L7.11893 16.2217C8.0944 16.2216 9.01831 16.0044 9.84341 15.6164C10.548 15.9554 11.3657 16.1678 12.2967 16.2129L12.6736 16.2217C16.058 16.2215 18.8218 13.607 18.991 10.3193L18.9988 10C18.9988 6.67098 16.3411 3.95186 12.9988 3.78516L12.6736 3.77734C11.5852 3.77734 10.642 3.99884 9.84398 4.38274ZM13.4441 10C13.4441 7.96902 12.4549 6.16504 10.9245 5.02916C11.4406 4.86771 12.0222 4.77734 12.6736 4.77734C15.6304 4.77758 17.9988 7.13148 17.9988 10C17.9986 12.8683 15.6302 15.2214 12.6736 15.2217C12.0223 15.2217 11.4407 15.1313 10.9246 14.9699C12.3743 13.8942 13.3385 12.2192 13.4363 10.3193L13.4441 10Z" fill="#03123D"/>
</svg>
