<svg width="24" height="24" viewBox="0 0 24 24" fill="none" xmlns="http://www.w3.org/2000/svg">
<path fill-rule="evenodd" clip-rule="evenodd" d="M9.75 6C9.75 5.58594 10.0858 5.25 10.5 5.25C10.9142 5.25 11.25 5.58594 11.25 6V6.10547C11.2502 8.26562 11.2504 9.92578 10.4209 11.5859C10.2357 11.9551 9.78546 12.1055 9.41504 11.9219C9.04468 11.7363 8.89417 11.2852 9.0791 10.9141C9.73578 9.60156 9.75 8.28906 9.75 6Z" fill="#03123D"/>
<path d="M9.75 6C9.75 5.58594 10.0858 5.25 10.5 5.25C10.9142 5.25 11.25 5.58594 11.25 6C11.25 6.03529 11.25 6.07044 11.25 6.10547C11.2502 8.26407 11.2506 9.92632 10.4209 11.5859C10.2357 11.9563 9.78545 12.1068 9.41504 11.9219C9.04468 11.7363 8.89417 11.2852 9.0791 10.9141C9.73578 9.60156 9.75 8.28906 9.75 6Z" fill="white"/>
<path fill-rule="evenodd" clip-rule="evenodd" d="M3.75 18H9C9 19.6562 10.3431 21 12 21C13.6569 21 15 19.6562 15 18H20.25C20.25 18 17.4375 14.0625 16.5 11.25C15.8716 9.36523 15.6434 6.30078 15.5612 4.48438C15.524 3.66211 14.8519 3 14.0286 3H9.97162C9.14832 3 8.47626 3.66211 8.43903 4.48438C8.35675 6.30078 8.12842 9.36523 7.5 11.25C6.5625 14.0625 3.75 18 3.75 18ZM10.5 5.25C10.0858 5.25 9.75 5.58594 9.75 6C9.75 8.28906 9.73578 9.60156 9.0791 10.9141C8.89417 11.2852 9.04468 11.7363 9.41504 11.9219C9.78546 12.1055 10.2357 11.9551 10.4209 11.5859C11.2504 9.92578 11.2502 8.26562 11.25 6.10547V6C11.25 5.58594 10.9142 5.25 10.5 5.25ZM12 19.5C12.8284 19.5 13.5 18.8281 13.5 18H10.5C10.5 18.8281 11.1716 19.5 12 19.5Z" fill="#03123D"/>
</svg>
