<svg width="16" height="16" viewBox="0 0 16 16" fill="none" xmlns="http://www.w3.org/2000/svg">
<path d="M1.96178 9.10769C1.74222 8.58074 2.12938 8 2.70025 8H13.3002C13.8711 8 14.2583 8.58074 14.0387 9.10769L12.2054 13.5077C12.0812 13.8058 11.7899 14 11.4669 14H4.53358C4.21062 14 3.91933 13.8058 3.79512 13.5077L1.96178 9.10769Z" fill="#03123D"/>
<path d="M8.73634 2.07594C8.97049 1.92973 9.2785 2.00101 9.42482 2.23512L11.9248 6.23512L11.9697 6.32594C12.0508 6.54379 11.9704 6.79559 11.7656 6.92359C11.5606 7.05161 11.2989 7.01323 11.1387 6.84449L11.0772 6.76441L8.57716 2.76441C8.43095 2.53027 8.50223 2.22226 8.73634 2.07594Z" fill="#03123D"/>
<path d="M7.26378 2.07594C7.02962 1.92973 6.72161 2.001 6.5753 2.23512L4.0753 6.23512L4.03038 6.32594C3.94939 6.54377 4.02973 6.79561 4.23448 6.9236C4.43946 7.0517 4.70117 7.01316 4.86143 6.8445L4.92296 6.76442L7.42296 2.76442C7.56917 2.53026 7.4979 2.22226 7.26378 2.07594Z" fill="#03123D"/>
</svg>
