<svg width="20" height="20" viewBox="0 0 20 20" fill="none" xmlns="http://www.w3.org/2000/svg">
<path d="M7.99996 15.9999L6.35348 14.3535L4.35348 16.3535C4.15823 16.5487 3.84171 16.5487 3.64645 16.3535C3.45118 16.1582 3.45118 15.8417 3.64645 15.6464L5.64645 13.6464L3.99996 12H7.99996V15.9999ZM14.3535 13.6464L16.3535 15.6464C16.5487 15.8417 16.5487 16.1582 16.3535 16.3535C16.1582 16.5487 15.8417 16.5487 15.6464 16.3535L13.6464 14.3535L12 15.9999V12H16L14.3535 13.6464ZM3.64742 3.64644C3.84267 3.45119 4.15919 3.45121 4.35445 3.64644L6.35445 5.64644L8.00094 3.99996V7.99995H4.00094L5.64742 6.35347L3.64742 4.35347C3.45224 4.15825 3.45231 3.84171 3.64742 3.64644ZM15.6474 3.64644C15.8427 3.45118 16.1592 3.45119 16.3545 3.64644C16.5497 3.8417 16.5497 4.15821 16.3545 4.35347L14.3545 6.35347L16.0009 7.99995H12.0009V3.99996L13.6474 5.64644L15.6474 3.64644Z" fill="#03123D"/>
</svg>
