<svg width="32" height="32" viewBox="0 0 32 32" fill="none" xmlns="http://www.w3.org/2000/svg">
<path d="M13 18C13.5523 18 14 18.4477 14 19V27C14 27.5523 13.5523 28 13 28H5C4.44772 28 4 27.5523 4 27V19C4 18.4477 4.44772 18 5 18H13ZM6 26H12V20H6V26Z" fill="#03123D"/>
<path d="M27 18C27.5523 18 28 18.4477 28 19V27C28 27.5523 27.5523 28 27 28H19C18.4477 28 18 27.5523 18 27V19C18 18.4477 18.4477 18 19 18H27ZM20 26H26V20H20V26Z" fill="#03123D"/>
<path d="M26 4C27.1046 4 28 4.89543 28 6V12C28 13.1046 27.1046 14 26 14H6C4.89543 14 4 13.1046 4 12V6C4 4.89543 4.89543 4 6 4H26Z" fill="#03123D"/>
</svg>
