<svg width="32" height="32" viewBox="0 0 32 32" fill="none" xmlns="http://www.w3.org/2000/svg">
<path d="M26.5216 20.1221C27.0063 19.8578 27.6136 20.0368 27.878 20.5215C28.1423 21.0063 27.9634 21.6135 27.4786 21.8779L16.0001 28.1387L4.52156 21.8779L4.43367 21.8242C4.01586 21.5378 3.8745 20.9759 4.12215 20.5215C4.37011 20.0669 4.91956 19.8815 5.3868 20.0781L5.47859 20.1221L16.0001 25.8604L26.5216 20.1221Z" fill="#03123D"/>
<path d="M26.5216 15.1221C27.0063 14.8578 27.6136 15.0368 27.878 15.5215C28.1423 16.0063 27.9634 16.6135 27.4786 16.8779L16.0001 23.1387L4.52156 16.8779L4.43367 16.8242C4.01586 16.5378 3.8745 15.9759 4.12215 15.5215C4.37011 15.0669 4.91956 14.8815 5.3868 15.0781L5.47859 15.1221L16.0001 20.8604L26.5216 15.1221Z" fill="#03123D"/>
<path d="M27.3653 10.1191C28.0664 10.4967 28.0664 11.5033 27.3653 11.8809L16.0001 18L4.63582 11.8809C3.93462 11.5033 3.93462 10.4967 4.63582 10.1191L16.0001 4L27.3653 10.1191Z" fill="#03123D"/>
</svg>
