<svg width="64" height="64" viewBox="0 0 64 64" fill="none" xmlns="http://www.w3.org/2000/svg">
<path d="M40 32C40 36.4183 36.4183 40 32 40C27.5817 40 24 36.4183 24 32C24 27.5817 27.5817 24 32 24C36.4183 24 40 27.5817 40 32Z" fill="#03123D"/>
<path fill-rule="evenodd" clip-rule="evenodd" d="M30 12.0988V8H34V12.0988C43.4488 13.0369 50.9631 20.5512 51.9012 30H56V34H51.9012C50.9631 43.4488 43.4488 50.9631 34 51.9012V56H30V51.9012C20.5512 50.9631 13.0369 43.4488 12.0988 34H8V30H12.0988C13.0369 20.5512 20.5512 13.0369 30 12.0988ZM32 16C40.8366 16 48 23.1634 48 32C48 40.8366 40.8366 48 32 48C23.1634 48 16 40.8366 16 32C16 23.1634 23.1634 16 32 16Z" fill="#03123D"/>
</svg>
