<svg width="20" height="20" viewBox="0 0 20 20" fill="none" xmlns="http://www.w3.org/2000/svg">
<path d="M3 10H17V12H3V10Z" fill="#03123D"/>
<path d="M10 6.08789C12.1392 6.08789 13.966 6.71963 15.252 7.34473C15.896 7.65779 16.4084 7.97132 16.7617 8.20801C16.9385 8.32643 17.0765 8.42518 17.1709 8.49609C17.2181 8.53156 17.2549 8.56003 17.2803 8.58008C17.2929 8.59006 17.3025 8.59878 17.3096 8.60449C17.313 8.60729 17.3163 8.60962 17.3184 8.61133L17.3213 8.61426L16.6855 9.38574C16.6855 9.38574 16.6837 9.38347 16.6816 9.38184C16.6774 9.37844 16.6698 9.37288 16.6602 9.36523C16.6408 9.34995 16.6108 9.32627 16.5703 9.2959C16.4891 9.23491 16.3658 9.14574 16.2051 9.03809C15.8833 8.82258 15.4105 8.53291 14.8145 8.24316C13.6193 7.66225 11.944 7.08789 10 7.08789C8.05594 7.08789 6.38161 7.66228 5.1875 8.24316C4.59167 8.53302 4.11926 8.82257 3.79785 9.03809C3.63728 9.14576 3.5147 9.23492 3.43359 9.2959C3.39308 9.32635 3.36308 9.34996 3.34375 9.36523C3.33424 9.37275 3.32746 9.37842 3.32324 9.38184C3.32114 9.38353 3.31836 9.38574 3.31836 9.38574L2.68164 8.61426L2.68262 8.61328L2.68555 8.61133C2.68767 8.60959 2.69079 8.60736 2.69434 8.60449C2.70136 8.59881 2.71113 8.59094 2.72363 8.58105C2.749 8.56101 2.78585 8.53252 2.83301 8.49707C2.92735 8.42614 3.06455 8.32647 3.24121 8.20801C3.59425 7.97128 4.10637 7.65785 4.75 7.34473C6.03505 6.71958 7.86082 6.08789 10 6.08789Z" fill="#03123D"/>
</svg>
