<svg width="24" height="24" viewBox="0 0 24 24" fill="none" xmlns="http://www.w3.org/2000/svg">
<path d="M21 8.74429V4.40927L17.25 2.24927L13.5 4.40927V8.74429L17.25 10.9043L21 8.74429Z" fill="#03123D"/>
<path fill-rule="evenodd" clip-rule="evenodd" d="M3 2.99817H10.5V10.4982H3V2.99817ZM4.5 8.99817H9V4.49817H4.5V8.99817Z" fill="#03123D"/>
<path d="M14.25 21.0001C13.8358 21.0001 13.5 20.6643 13.5 20.2501C13.5 19.8359 13.8358 19.5001 14.25 19.5001H16.5V15.0001H14.25C13.8358 15.0001 13.5 14.6643 13.5 14.2501C13.5 13.8359 13.8358 13.5001 14.25 13.5001H20.25C20.6642 13.5001 21 13.8359 21 14.2501C21 14.6643 20.6642 15.0001 20.25 15.0001H18V19.5001H20.25C20.6642 19.5001 21 19.8359 21 20.2501C21 20.6643 20.6642 21.0001 20.25 21.0001H14.25Z" fill="#03123D"/>
<path d="M6.72002 21.0001C8.77451 21.0001 10.44 19.3212 10.44 17.2501C10.44 15.179 8.77451 13.5001 6.72002 13.5001C4.66548 13.5001 3 15.179 3 17.2501C3 19.3212 4.66548 21.0001 6.72002 21.0001Z" fill="#03123D"/>
</svg>
