<svg width="20" height="20" viewBox="0 0 20 20" fill="none" xmlns="http://www.w3.org/2000/svg">
<path d="M16.1467 9.14721L9.14671 16.1472C7.96124 17.3323 6.03902 17.3318 4.85366 16.1465C3.66857 14.9611 3.66857 13.0395 4.85366 11.8541L13.1042 3.60361C13.8754 2.83267 15.1255 2.83264 15.8967 3.60361C16.6678 4.37477 16.6684 5.62556 15.8974 6.39682L8.14682 14.1474C7.78977 14.5041 7.21037 14.5036 6.85345 14.1467C6.4968 13.7897 6.49684 13.211 6.85345 12.854L13.3534 6.354C13.5487 6.15874 13.5487 5.84216 13.3534 5.6469C13.1582 5.4518 12.8415 5.45169 12.6463 5.6469L6.14634 12.1469C5.39921 12.8944 5.39917 14.1063 6.14634 14.8538C6.89378 15.6012 8.10635 15.6017 8.85393 14.8545L16.6045 7.10392C17.766 5.94215 17.7655 4.05818 16.6038 2.8965C15.4421 1.73501 13.5588 1.73504 12.3971 2.8965L4.14656 11.147C2.57094 12.7229 2.57094 15.2777 4.14656 16.8536C5.72244 18.4295 8.27782 18.43 9.85382 16.8543L16.8538 9.85432C17.049 9.65911 17.0489 9.34249 16.8538 9.14721C16.6585 8.95195 16.3419 8.95195 16.1467 9.14721Z" fill="#03123D"/>
</svg>
