<svg width="32" height="32" viewBox="0 0 32 32" fill="none" xmlns="http://www.w3.org/2000/svg">
<path d="M24 7C24 8.65685 22.6569 10 21 10C19.3431 10 18 8.65685 18 7C18 5.34315 19.3431 4 21 4C22.6569 4 24 5.34315 24 7Z" fill="#03123D"/>
<path d="M16.4521 9.16309C16.8443 8.90591 17.3694 8.9553 17.707 9.29297L21.3066 12.8926L24.7578 12.0303C25.2935 11.8965 25.8358 12.2221 25.9697 12.7578C26.1035 13.2935 25.7779 13.8358 25.2422 13.9697L21.2422 14.9697C20.9015 15.0548 20.5413 14.9554 20.293 14.707L16.9258 11.3398L13.6016 14L17.625 17.2188C17.9228 17.457 18.0592 17.8444 17.9766 18.2168L15.9766 27.2168C15.8568 27.7559 15.3223 28.0962 14.7832 27.9766C14.2441 27.8568 13.9038 27.3223 14.0234 26.7832L15.8877 18.3916L11.375 14.7812C11.1378 14.5915 11 14.3038 11 14C11 13.6962 11.1378 13.4085 11.375 13.2188L16.375 9.21875L16.4521 9.16309Z" fill="#03123D"/>
<path d="M4 10.8571L14 4L9.45455 9.14286H13.0909L4.90909 16L8.54545 10.8571H4Z" fill="#03123D"/>
<path d="M28 22C28 19.791 26.2092 18 24 18C21.7908 18 20 19.791 20 22C20 24.209 21.7908 26 24 26C26.2092 26 28 24.209 28 22ZM30 22C30 25.3145 27.3137 28 24 28C20.6863 28 18 25.3145 18 22C18 18.6855 20.6863 16 24 16C27.3137 16 30 18.6855 30 22Z" fill="#03123D"/>
<path d="M12 22C12 19.791 10.2092 18 8 18C5.79083 18 4 19.791 4 22C4 24.209 5.79083 26 8 26C10.2092 26 12 24.209 12 22ZM14 22C14 25.3145 11.3137 28 8 28C4.68628 28 2 25.3145 2 22C2 18.6855 4.68628 16 8 16C11.3137 16 14 18.6855 14 22Z" fill="#03123D"/>
</svg>
