<svg width="24" height="24" viewBox="0 0 24 24" fill="none" xmlns="http://www.w3.org/2000/svg">
<path d="M16.402 12.3799C16.5905 12.7098 16.5028 13.1355 16.1871 13.3613C15.8711 13.5871 15.4392 13.5325 15.1881 13.2471L15.1402 13.1875L12.7508 9.84308V16.5009L12.7469 16.5771C12.7085 16.9553 12.3892 17.2499 12.0008 17.2499C11.6125 17.2499 11.2931 16.9553 11.2547 16.5771L11.2508 16.5009L11.2508 9.84249L8.86192 13.1865C8.62123 13.5236 8.15216 13.602 7.81504 13.3613C7.49914 13.1357 7.41079 12.7099 7.59922 12.3799L7.64024 12.3154L11.9986 6.21094L16.3609 12.3145L16.402 12.3799Z" fill="#03123D"/>
</svg>
