<svg width="64" height="64" viewBox="0 0 64 64" fill="none" xmlns="http://www.w3.org/2000/svg">
<path d="M42 20C41.24 20 40.52 20.08 39.8 20.16C38.88 13.28 33.08 8 26 8C18.28 8 12 14.28 12 22C12 22.36 12.08 22.72 12.12 23.08C7.24 26.28 4 31.72 4 38C4 47.96 12.04 56 22 56H42C51.96 56 60 47.96 60 38C60 28.04 51.96 20 42 20ZM42 52H22C14.28 52 8 45.72 8 38C8 32.2 11.52 27.24 16.56 25.12C16.4 24.64 16.28 24.16 16.2 23.68C16.08 23.12 16.04 22.6 16.04 22C16.04 16.48 20.52 12 26.04 12C31.24 12 35.48 16 35.96 21.08C34.32 21.68 32.76 22.48 31.36 23.52C30.24 24.36 30.2 25.76 30.84 26.56C31.48 27.32 32.72 27.48 33.6 26.84C35.92 25.04 38.84 24 42 24C49.72 24 56 30.28 56 38C56 45.72 49.72 52 42 52Z" fill="#03123D"/>
<path d="M15.96 44.12L21.64 38.44L26.6 43.4C27 43.8 27.52 44 28 44C28.48 44 29.04 43.8 29.4 43.4C30.2 42.6 30.2 41.36 29.4 40.56L24.44 35.6L30 30.04H15.96V44.12Z" fill="#03123D"/>
<path d="M37.3599 32.68C36.5599 31.88 35.3199 31.88 34.5199 32.68C33.7199 33.48 33.7199 34.72 34.5199 35.52L39.4799 40.48L33.9199 46.04H47.9599V32L42.2799 37.68L37.3199 32.72L37.3599 32.68Z" fill="#03123D"/>
</svg>
