<svg width="20" height="20" viewBox="0 0 20 20" fill="none" xmlns="http://www.w3.org/2000/svg">
<path d="M17 3H3V7H17V3Z" fill="#03123D"/>
<path d="M15.5 10C15.7761 10 16 10.2239 16 10.5C16 10.7761 15.7761 11 15.5 11H4.5C4.22386 11 4 10.7761 4 10.5C4 10.2239 4.22386 10 4.5 10H15.5ZM17 10.1667C17 9.52233 16.4777 9 15.8333 9H4.16667C3.52234 9 3 9.52233 3 10.1667V10.8333C3 11.4777 3.52233 12 4.16667 12H15.8333C16.4777 12 17 11.4777 17 10.8333V10.1667Z" fill="#03123D"/>
<path d="M15.5 15C15.7761 15 16 15.2239 16 15.5C16 15.7761 15.7761 16 15.5 16H4.5C4.22386 16 4 15.7761 4 15.5C4 15.2239 4.22386 15 4.5 15H15.5ZM17 15.1667C17 14.5223 16.4777 14 15.8333 14H4.16667C3.52234 14 3 14.5223 3 15.1667V15.8333C3 16.4777 3.52233 17 4.16667 17H15.8333C16.4777 17 17 16.4777 17 15.8333V15.1667Z" fill="#03123D"/>
</svg>
