<svg width="24" height="24" viewBox="0 0 24 24" fill="none" xmlns="http://www.w3.org/2000/svg">
<path d="M7.98145 16.5C8.38592 18.2807 9.02316 19.7556 9.80371 20.7285C7.4164 20.1297 5.40929 18.5776 4.20703 16.5H7.98145ZM19.793 16.5C18.5904 18.5781 16.5825 20.1301 14.1943 20.7285C14.9753 19.7557 15.6139 18.2813 16.0186 16.5H19.793ZM14.4766 16.5C14.2931 17.2309 14.0693 17.8887 13.8145 18.4551C13.0424 20.1708 12.2847 20.5 12 20.5C11.7153 20.5 10.9576 20.1708 10.1855 18.4551C9.93074 17.8887 9.70693 17.2309 9.52344 16.5H14.4766ZM20.4863 9C20.8181 9.93847 21 10.9479 21 12C21 13.0518 20.8179 14.0608 20.4863 14.999H16.293C16.4046 14.2086 16.4745 13.3761 16.4941 12.5146L16.5 12C16.5 10.9548 16.4278 9.94704 16.2939 9H20.4863ZM7.70703 9C7.59528 9.7907 7.52552 10.6236 7.50586 11.4854L7.5 12C7.5 13.0449 7.57326 14.0522 7.70703 14.999H3.51367C3.1821 14.0608 3 13.0518 3 12C3 10.9479 3.18191 9.93847 3.51367 9H7.70703ZM14.7764 9C14.9189 9.9293 15 10.938 15 12C15 13.0616 14.9198 14.07 14.7773 14.999H9.22266C9.08024 14.07 9 13.0616 9 12C9 10.938 9.08111 9.9293 9.22363 9H14.7764ZM14.1953 3.27051C16.5828 3.86902 18.5905 5.4215 19.793 7.49902H16.0186C15.6139 5.71809 14.9762 4.24316 14.1953 3.27051ZM9.80371 3.27051C9.02301 4.24323 8.38601 5.71838 7.98145 7.49902H4.20703C5.40938 5.42177 7.41658 3.86919 9.80371 3.27051ZM12 3.5C12.2847 3.5 13.0424 3.82917 13.8145 5.54492C14.0692 6.11101 14.2931 6.76852 14.4766 7.49902H9.52344C9.70689 6.76852 9.93085 6.11101 10.1855 5.54492C10.9576 3.82918 11.7153 3.5 12 3.5Z" fill="#03123D"/>
</svg>
