<svg width="24" height="24" viewBox="0 0 24 24" fill="none" xmlns="http://www.w3.org/2000/svg">
<path d="M8.99994 20.9999L6.53022 18.5302L3.53022 21.5302C3.23734 21.8231 2.76257 21.8231 2.46967 21.5302C2.17678 21.2373 2.17678 20.7626 2.46967 20.4697L5.46967 17.4697L2.99994 14.9999H8.99994V20.9999ZM18.5302 17.4697L21.5302 20.4697C21.8231 20.7626 21.8231 21.2373 21.5302 21.5302C21.2373 21.8231 20.7626 21.8231 20.4697 21.5302L17.4697 18.5302L14.9999 20.9999V14.9999H20.9999L18.5302 17.4697ZM2.46967 2.46967C2.76256 2.17678 3.23732 2.17678 3.53022 2.46967L6.53022 5.46967L8.99994 2.99994V8.99994H2.99994L5.46967 6.53022L2.46967 3.53022C2.17678 3.23732 2.17678 2.76256 2.46967 2.46967ZM20.4697 2.46967C20.7626 2.17678 21.2373 2.17678 21.5302 2.46967C21.8231 2.76257 21.8231 3.23734 21.5302 3.53022L18.5302 6.53022L20.9999 8.99994H14.9999V2.99994L17.4697 5.46967L20.4697 2.46967Z" fill="#03123D"/>
</svg>
