<svg width="48" height="48" viewBox="0 0 48 48" fill="none" xmlns="http://www.w3.org/2000/svg">
<path d="M24 22.5C26.4853 22.5 28.5 20.4853 28.5 18C28.5 15.5147 26.4853 13.5 24 13.5C21.5147 13.5 19.5 15.5147 19.5 18C19.5 20.4853 21.5147 22.5 24 22.5Z" fill="#03123D"/>
<path d="M24 6C17.37 6 12 11.37 12 18C12 27 24 42 24 42C24 42 36 27 36 18C36 11.37 30.63 6 24 6ZM24 25.5C19.86 25.5 16.5 22.14 16.5 18C16.5 13.86 19.86 10.5 24 10.5C28.14 10.5 31.5 13.86 31.5 18C31.5 22.14 28.14 25.5 24 25.5Z" fill="#03123D"/>
</svg>
